<svg xmlns="http://www.w3.org/2000/svg" width="124" height="124" viewBox="0 0 124 124">
  <g id="Grupo_123947" data-name="Grupo 123947" transform="translate(-318 -8068.327)">
    <g id="Grupo_123760" data-name="Grupo 123760" transform="translate(0 -29.464)">
      <g id="Elipse_6016" data-name="Elipse 6016" transform="translate(318 8097.791)" fill="#fff" stroke="#2631a0" stroke-width="4">
        <circle cx="62" cy="62" r="62" stroke="none"/>
        <circle cx="62" cy="62" r="60" fill="none"/>
      </g>
      <g id="Grupo_119182" data-name="Grupo 119182" transform="translate(-464.347 7785.906)">
        <path id="Trazado_165431" data-name="Trazado 165431" d="M928.872,358.966c-.26.331-.124.717-.125,1.073q-.012,23.138-.007,46.277c0,1.723-.066,1.767-1.773,1.8a33.855,33.855,0,0,0-4.354.088,3.508,3.508,0,0,1-1.192.15q-24.172,0-48.343,0a4.621,4.621,0,0,1-.742-.033,1.28,1.28,0,0,1-1.211-1.388c-.022-.372-.019-.744-.019-1.116q0-33.807,0-67.614c0-.4-.006-.806.029-1.208a1.1,1.1,0,0,1,.821-1.107q27.7,0,55.4-.007c1.145,0,1.338.209,1.338,1.366q0,10.226,0,20.452A2.8,2.8,0,0,0,928.872,358.966Z" transform="translate(-53.92 -0.007)" fill="#d1d9de"/>
        <path id="Trazado_165434" data-name="Trazado 165434" d="M861.051,408.058a15.43,15.43,0,0,1-3.787.092.933.933,0,0,1-.932-1.061c.006-.31,0-.62,0-.929q0-31.785,0-63.57.012-2.644.024-5.288c.007-1.174.253-1.43,1.4-1.435.958,0,1.917,0,2.876.008a1.7,1.7,0,0,0-.554,1.581q.01,26.544.006,53.089,0,8.135-.008,16.27C860.064,407.531,860.208,408.051,861.051,408.058Z" transform="translate(-42.586 0)" fill="#c2dcf3"/>
        <path id="Trazado_165437" data-name="Trazado 165437" d="M884.891,507.254c.465,3.062,1.934,4.8,4.5,5.321a5.393,5.393,0,0,0,6.328-4.546c.066-.579.213-.8.83-.783,1.361.046,2.725.029,4.087.007.474-.008.642.121.621.632a10.881,10.881,0,0,1-21.532,1.486,5.878,5.878,0,0,1-.142-2.116,1.2,1.2,0,0,1,.862-.25q1.793-.029,3.587,0A1.2,1.2,0,0,1,884.891,507.254Z" transform="translate(-60.381 -131.246)" fill="#feae10"/>
        <path id="Trazado_165438" data-name="Trazado 165438" d="M1034.783,568.066c-1.766,0-3.533,0-5.3-.007-1.189,0-1.439-.244-1.442-1.394q-.01-3.719,0-7.438c0-1.1.293-1.408,1.351-1.412q3.765-.014,7.53,0c1.074,0,1.354.3,1.358,1.4.006,1.8,0,3.595,0,5.393-.387.513-.953.331-1.45.343-1.558.039-1.6.086-1.647,1.617C1035.169,567.081,1035.4,567.7,1034.783,568.066Z" transform="translate(-174.28 -170.22)" fill="#fd3745"/>
        <path id="Trazado_165439" data-name="Trazado 165439" d="M891.12,410.015c2.735.095,2.725.095,2.742-2.608a6.965,6.965,0,0,1,.09-2.022c.413.267.334.7.348,1.089.028.8.014,1.608.01,2.413,0,.575.236.855.83.844q1.02-.019,2.041,0c.595.011.833-.269.831-.844,0-.8-.018-1.609.01-2.413.014-.387-.065-.822.348-1.089a23.992,23.992,0,0,1,.083,3.859c.006.583.148.85.775.8.673-.053,1.352-.034,2.029-.047a7.372,7.372,0,0,1,4.478.023,5.315,5.315,0,0,1,1.284.137,1.271,1.271,0,0,1,.958,1.485,1.218,1.218,0,0,1-1.215,1.169c-.184.018-.371.014-.556.014H878.827a3.848,3.848,0,0,1-.648-.027,1.22,1.22,0,0,1-1.1-1.182,1.264,1.264,0,0,1,.811-1.409,4.441,4.441,0,0,1,1.461-.2,1.634,1.634,0,0,1,1.317-.28c1.057.079,2.157-.279,3.17.286l2.781-.006a1.362,1.362,0,0,1,1.135-.28C888.875,409.81,890.039,409.448,891.12,410.015Z" transform="translate(-58.492 -53.317)" fill="#52baee"/>
        <path id="Trazado_165440" data-name="Trazado 165440" d="M945.907,460.752h-.279a6.686,6.686,0,0,1-2.03-.057c-.711-.243-.332-1.127-.577-1.7a5.457,5.457,0,0,0-4.635-3.629c-.39-.044-.545-.182-.543-.571.01-1.426.016-2.852,0-4.277-.007-.557.329-.569.732-.563a9.493,9.493,0,0,1,5.748,2.058,10.391,10.391,0,0,1,4.328,7.86c.044.7-.186.951-.885.891C947.151,460.71,946.527,460.752,945.907,460.752Z" transform="translate(-105.104 -87.5)" fill="#242ca3"/>
        <path id="Trazado_165441" data-name="Trazado 165441" d="M884.982,472.175h-5.311c-.345-4.606,3.291-9.338,8.106-10.549,2.675-.673,2.675-.673,2.675,2.007,0,.217,0,.433,0,.65a6.935,6.935,0,0,1-.051,2.12c-.268.786-1.229.392-1.852.663A5.72,5.72,0,0,0,884.982,472.175Z" transform="translate(-60.472 -96.166)" fill="#fd3745"/>
        <path id="Trazado_165442" data-name="Trazado 165442" d="M896.475,570.2c-3.529,0-7.057.007-10.585,0-1.229,0-1.927-.935-1.48-1.925a1.571,1.571,0,0,1,1.616-.856c1.609-.013,3.219,0,4.828,0h15.692a4.358,4.358,0,0,1,1.194.116,1.292,1.292,0,0,1,1.059,1.429,1.274,1.274,0,0,1-1.368,1.239q-2.925.005-5.85.006Z" transform="translate(-64.02 -177.579)" fill="#12263f"/>
        <path id="Trazado_165443" data-name="Trazado 165443" d="M896.58,588.008q5.246,0,10.491,0c1.119,0,1.787.484,1.822,1.292.039.894-.683,1.493-1.859,1.494q-10.4.008-20.8,0a3.432,3.432,0,0,1-.91-.129,1.347,1.347,0,0,1,.3-2.636c1.206-.041,2.413-.019,3.62-.02Q892.913,588.006,896.58,588.008Z" transform="translate(-64.087 -193.378)" fill="#12263f"/>
        <path id="Trazado_165444" data-name="Trazado 165444" d="M896.564,610.9q-5.246,0-10.493,0a1.637,1.637,0,0,1-1.356-.444,1.347,1.347,0,0,1,.423-2.165,2.911,2.911,0,0,1,1.181-.188q10.214.008,20.428.009a4.872,4.872,0,0,1,1.006.115,1.259,1.259,0,0,1,1.09,1.48,1.3,1.3,0,0,1-1.416,1.19q-4.55-.009-9.1,0Z" transform="translate(-64.072 -208.796)" fill="#12263f"/>
        <path id="Trazado_165445" data-name="Trazado 165445" d="M1007.356,461.068h9.2c.279,0,.559-.009.836.017a1.284,1.284,0,0,1,1.285,1.324,1.261,1.261,0,0,1-1.12,1.373,5.222,5.222,0,0,1-1.014.073q-9.154.006-18.307,0c-.155,0-.31.005-.465,0-1.085-.047-1.7-.587-1.669-1.462.029-.822.639-1.322,1.682-1.325C1000.975,461.062,1004.166,461.068,1007.356,461.068Z" transform="translate(-149.786 -96.023)" fill="#fd3745"/>
        <path id="Trazado_165446" data-name="Trazado 165446" d="M1007.435,501.776q4.74,0,9.48,0a1.84,1.84,0,0,1,1.312.346,1.373,1.373,0,0,1-.388,2.294,3.024,3.024,0,0,1-1.189.155q-9.247,0-18.495,0c-.186,0-.373.01-.557-.006-.946-.084-1.517-.639-1.5-1.444a1.39,1.39,0,0,1,1.576-1.335C1000.93,501.768,1004.182,501.777,1007.435,501.776Z" transform="translate(-149.786 -127.244)" fill="#fd3745"/>
        <path id="Trazado_165447" data-name="Trazado 165447" d="M1007.353,484.057q-4.6,0-9.2,0a4.8,4.8,0,0,1-.926-.044,1.355,1.355,0,0,1-.241-2.6,2.766,2.766,0,0,1,1.1-.153q9.34,0,18.679,0c.093,0,.186,0,.279,0,1.078.055,1.7.6,1.662,1.468-.038.846-.61,1.314-1.683,1.318C1013.8,484.063,1010.575,484.056,1007.353,484.057Z" transform="translate(-149.8 -111.513)" fill="#fd3745"/>
        <path id="Trazado_165448" data-name="Trazado 165448" d="M1007.353,524.761q-4.554,0-9.107,0a6.641,6.641,0,0,1-.928-.031,1.271,1.271,0,0,1-1.182-1.226,1.234,1.234,0,0,1,.955-1.4,4.04,4.04,0,0,1,1.1-.125q9.2-.011,18.4,0c.186,0,.373-.01.557,0,1.006.075,1.6.641,1.561,1.472s-.6,1.3-1.6,1.309C1013.858,524.768,1010.606,524.76,1007.353,524.761Z" transform="translate(-149.807 -142.731)" fill="#fd3745"/>
        <path id="Trazado_165449" data-name="Trazado 165449" d="M891.342,382.481l-4.487-.006q0-5.851,0-11.7c0-1.129.149-1.272,1.287-1.278.712,0,1.425.025,2.135-.008.8-.037,1.081.309,1.076,1.106C891.328,374.556,891.342,378.519,891.342,382.481Z" transform="translate(-65.999 -25.785)" fill="#feae10"/>
        <path id="Trazado_165450" data-name="Trazado 165450" d="M985.316,382.4l-4.478-.022c0-3.958.026-7.916-.009-11.873-.008-.871.326-1.167,1.142-1.128.679.032,1.36,0,2.04.008,1.046.013,1.3.263,1.3,1.328Q985.32,376.558,985.316,382.4Z" transform="translate(-138.073 -25.7)" fill="#ff004c"/>
        <path id="Trazado_165451" data-name="Trazado 165451" d="M1056.986,590.429a9.383,9.383,0,0,0,.072-2.2c0-.841.349-1.251,1.217-1.228.735.02,1.472-.021,2.208-.036.773.015,1.547.055,2.32.039.813-.016,1.212.339,1.208,1.159-.007,1.549,0,3.1,0,4.648a1,1,0,0,1-1.142,1.135c-1.549-.005-3.1-.013-4.647,0-.84.009-1.151-.409-1.156-1.207A10.066,10.066,0,0,0,1056.986,590.429Z" transform="translate(-196.482 -192.583)" fill="#37c37a"/>
        <path id="Trazado_165452" data-name="Trazado 165452" d="M1033.572,364.491c2.04,0,4.081-.007,6.121,0,1.1.005,1.716.517,1.714,1.387,0,.841-.654,1.394-1.731,1.4q-6.121.016-12.243,0c-1.079,0-1.729-.568-1.72-1.412s.655-1.365,1.737-1.37C1029.49,364.484,1031.531,364.491,1033.572,364.491Z" transform="translate(-172.497 -21.952)" fill="#febf10"/>
        <path id="Trazado_165453" data-name="Trazado 165453" d="M922.507,394.1,918,394.1c0-2.755.02-5.51-.013-8.264-.01-.888.341-1.237,1.214-1.189a21.843,21.843,0,0,0,2.228,0c.8-.038,1.09.308,1.082,1.1C922.487,388.533,922.506,391.318,922.507,394.1Z" transform="translate(-89.879 -37.407)" fill="#fd3745"/>
        <path id="Trazado_165454" data-name="Trazado 165454" d="M1033.606,405.2c2.015,0,4.029-.006,6.044,0,1.133,0,1.732.474,1.757,1.346.025.854-.61,1.431-1.694,1.435q-6.183.024-12.367,0a1.493,1.493,0,0,1-1.508-.879,1.294,1.294,0,0,1,.209-1.393,1.507,1.507,0,0,1,1.329-.515C1029.452,405.2,1031.529,405.2,1033.606,405.2Z" transform="translate(-172.502 -53.173)" fill="#febf10"/>
        <path id="Trazado_165455" data-name="Trazado 165455" d="M1033.6,387.463c-2.046,0-4.091.006-6.137,0-1.1,0-1.738-.516-1.75-1.358s.653-1.421,1.721-1.425q6.137-.021,12.274,0c1.078,0,1.716.588,1.691,1.44-.025.875-.614,1.337-1.755,1.342C1037.633,387.47,1035.618,387.464,1033.6,387.463Z" transform="translate(-172.5 -37.429)" fill="#febf10"/>
        <path id="Trazado_165456" data-name="Trazado 165456" d="M1033.572,428.179c-2.045,0-4.091.008-6.136,0-1.082-.006-1.732-.544-1.724-1.387s.669-1.392,1.752-1.4c4.06-.013,8.12-.006,12.179,0a2.779,2.779,0,0,1,.552.055,1.325,1.325,0,0,1,1.2,1.417,1.293,1.293,0,0,1-1.4,1.3c-2.138.027-4.276.009-6.415.009Z" transform="translate(-172.496 -68.658)" fill="#febf10"/>
        <path id="Trazado_165457" data-name="Trazado 165457" d="M953.942,403.578c-.015,1.3-.051,2.6-.034,3.9.007.551-.155.782-.737.76-.958-.037-1.92-.037-2.878,0-.582.023-.743-.211-.736-.761.017-1.3-.019-2.6-.034-3.9a.684.684,0,0,1,.747-.537q1.462-.023,2.924,0A.685.685,0,0,1,953.942,403.578Z" transform="translate(-114.064 -51.512)" fill="#37c37a"/>
      </g>
    </g>
  </g>
</svg>
