<svg xmlns="http://www.w3.org/2000/svg" width="171.06" height="171.06" viewBox="0 0 171.06 171.06">
  <g id="Grupo_124202" data-name="Grupo 124202" transform="translate(-8946.47 10172.271)">
    <g id="Grupo_123944" data-name="Grupo 123944" transform="translate(8031 -10815.299)">
      <circle id="Elipse_6065" data-name="Elipse 6065" cx="85.53" cy="85.53" r="85.53" transform="translate(915.47 643.027)" fill="#fff"/>
      <g id="Grupo_123471" data-name="Grupo 123471" transform="translate(175.376 309.912)">
        <path id="Trazado_167181" data-name="Trazado 167181" d="M805.816,463.928a30.627,30.627,0,0,1-22.53-9.415,30.968,30.968,0,0,1-9.163-24.044,31.806,31.806,0,0,1,26.33-29.594,25.4,25.4,0,0,1,5.358-.408.968.968,0,0,1,.312.772c.008,2.6.156,5.211-.079,7.812-.2.562-.715.529-1.167.582a25.923,25.923,0,0,0-6.827,1.462c-7.949,3.218-12.931,8.97-14.355,17.457a22.416,22.416,0,0,0,19.53,26.027c.643.073,1.277.2,1.924.244.365.024.723.094.879.5a77.292,77.292,0,0,1,.1,7.821A1.123,1.123,0,0,1,805.816,463.928Z" transform="translate(0 -18.071)" fill="#6067ce"/>
        <path id="Trazado_167182" data-name="Trazado 167182" d="M884.288,503.866q0-4.408,0-8.817a4.2,4.2,0,0,1,2.268-.485,22.445,22.445,0,0,0,20.123-19.5,22.171,22.171,0,0,0-3.447-15.209,4.386,4.386,0,0,1-.676-1.218c.115-.707.674-.984,1.227-1.268a2.026,2.026,0,0,1,.919.278,5.83,5.83,0,0,0,6.3-.673c.28-.208.52-.52.939-.43a13.755,13.755,0,0,1,2.186,4.381c3.639,10.283,2.52,20.007-3.516,29.13-.379,1.482-1.627,2.369-2.432,3.56-1.018.866-1.764,2.031-2.958,2.706-.9.644-1.786,1.3-2.7,1.931a31.049,31.049,0,0,1-17.6,5.666A6.123,6.123,0,0,1,884.288,503.866Z" transform="translate(-78.472 -58.009)" fill="#242ca3"/>
        <path id="Trazado_167183" data-name="Trazado 167183" d="M1002.3,604.411c2.072-1.732,3.194-1.678,5.175.24q8.082,7.825,16.166,15.646c2.025,1.959,2.091,3.264.19,5.316-.948,1.024-1.968,1.981-2.955,2.968-.438.13-.663-.205-.905-.447q-10.11-10.093-20.2-20.2a1.71,1.71,0,0,1-.324-.428.608.608,0,0,1-.026-.3A12.005,12.005,0,0,1,1002.3,604.411Z" transform="translate(-160.449 -162.421)" fill="#dd9152"/>
        <path id="Trazado_167184" data-name="Trazado 167184" d="M990.046,617.786c.291.265.594.519.872.8q9.76,9.753,19.516,19.509c.3.3.637.575.957.861-.944.981-1.866,1.986-2.839,2.937a2.81,2.81,0,0,1-3.981.2,5.458,5.458,0,0,1-.478-.433q-5.473-5.334-10.945-10.669c-1.851-1.8-3.721-3.583-5.569-5.387-1.884-1.839-1.957-2.981-.358-5.017a24.1,24.1,0,0,1,2.259-2.665A.417.417,0,0,1,990.046,617.786Z" transform="translate(-150.963 -172.792)" fill="#f0b983"/>
        <path id="Trazado_167185" data-name="Trazado 167185" d="M884.275,409.268l-.005-8.849a26.631,26.631,0,0,1,9.2,1.239,31.52,31.52,0,0,1,10.11,5.12c.094.458-.211.741-.486,1.007a5.956,5.956,0,0,0-1.637,6.264,2.2,2.2,0,0,1,.089.633,1.319,1.319,0,0,1-1.295,1.239,2.063,2.063,0,0,1-.98-.631,21.7,21.7,0,0,0-13.049-5.538A3.461,3.461,0,0,1,884.275,409.268Z" transform="translate(-78.46 -18.023)" fill="#242ca3"/>
        <path id="Trazado_167186" data-name="Trazado 167186" d="M942.507,428.081a6.351,6.351,0,0,1,1.781-7.431,4.271,4.271,0,0,0,.4-.494,11.133,11.133,0,0,1,3.376-.99,6.3,6.3,0,0,1,6.7,6.624q-.007.484-.016.968A3.321,3.321,0,0,1,953.2,429.8l-.16.144c-2.547,2.324-4.83,2.589-8.224.955A3.592,3.592,0,0,1,942.507,428.081Z" transform="translate(-119.568 -31.401)" fill="#fecf64"/>
        <path id="Trazado_167187" data-name="Trazado 167187" d="M1023.218,460.511c2.294-2.147,4.867-2.816,7.819-1.474a3.413,3.413,0,0,1,2.641,2.482,6.424,6.424,0,1,1-11.881,2.014A3.229,3.229,0,0,1,1023.218,460.511Z" transform="translate(-176.323 -59.299)" fill="#5e65c5"/>
        <path id="Trazado_167188" data-name="Trazado 167188" d="M1102.359,384.776a6.43,6.43,0,1,1,6.211,3.064,7.777,7.777,0,0,1-3.776-.669A3.263,3.263,0,0,1,1102.359,384.776Z" transform="translate(-233.14 0)" fill="#f8e749"/>
        <path id="Trazado_167189" data-name="Trazado 167189" d="M1068.628,408.784a8.176,8.176,0,0,0,2.435,2.395c-1.4,1.487-2.8,2.979-4.2,4.459q-5.042,5.3-10.094,10.591a7.708,7.708,0,0,0-2.643-2.483,23.685,23.685,0,0,0,3.066-3Q1062.93,414.789,1068.628,408.784Z" transform="translate(-199.409 -24.008)" fill="#a69aa6"/>
        <path id="Trazado_167190" data-name="Trazado 167190" d="M969.332,594.356c-1.054.821-1.7,2.049-2.825,2.8q-4.332-4.261-8.661-8.524c-.3-.3-.565-.637-.846-.957a27.549,27.549,0,0,1,2.8-2.837c.432-.1.661.221.907.466q4.09,4.067,8.16,8.155a1.3,1.3,0,0,1,.47.7A1.252,1.252,0,0,0,969.332,594.356Z" transform="translate(-130.25 -149.363)" fill="#a69aa6"/>
        <path id="Trazado_167191" data-name="Trazado 167191" d="M976.257,585.733c-1.984-1.715-3.727-3.675-5.609-5.493-1.316-1.27-2.619-2.553-3.927-3.83l2.591-3.428c-.1.444.251.639.5.88q4.6,4.534,9.216,9.06A27.236,27.236,0,0,1,976.257,585.733Z" transform="translate(-137.171 -140.931)" fill="#837683"/>
        <path id="Trazado_167192" data-name="Trazado 167192" d="M994.162,451.394a9.545,9.545,0,0,0-1.421,3.022L980.9,448.577a8.893,8.893,0,0,0,1.548-3.037q5.449,2.678,10.9,5.359C993.628,451.04,993.89,451.228,994.162,451.394Z" transform="translate(-147.266 -50.182)" fill="#a69ba6"/>
        <path id="Trazado_167193" data-name="Trazado 167193" d="M827.916,431.255a23.6,23.6,0,0,1,13.212,4.252c.956.692,1.83,1.5,2.741,2.251.327.446-.07.648-.317.868-2.242,2-4.544,3.936-6.791,5.933-1.338,1.189-2.729,2.315-4.044,3.53a2.175,2.175,0,0,1-1.256.768,5.017,5.017,0,0,1-1.316-.46,6.176,6.176,0,0,0-7.663,3.076,6.087,6.087,0,0,0,2.56,8.009,5.969,5.969,0,0,0,6.774-.586,6.06,6.06,0,0,0,2.114-6.07,5.845,5.845,0,0,1-.3-1.364c.427-1.065,1.458-1.558,2.247-2.247,3.154-2.754,6.282-5.539,9.48-8.242.26-.22.473-.57.909-.434,10.16,13.329,2.336,33.231-14.175,36.073-1.385.238-2.78.333-4.176.439a22.654,22.654,0,0,1-13.883-4.844c-7.49-6.106-10.434-14.051-8.165-23.415,2.294-9.466,8.65-15.12,18.2-17.1C825.329,431.433,826.633,431.4,827.916,431.255Z" transform="translate(-22.1 -40.01)" fill="#ebeef0"/>
        <path id="Trazado_167194" data-name="Trazado 167194" d="M911.7,453.979,899.217,464.8a12.261,12.261,0,0,1-2.209-2.592q5.953-5.2,11.91-10.4c.2-.17.389-.319.381-.607a1.522,1.522,0,0,0,1.17-1.069,8.331,8.331,0,0,0,2.307,2.814Z" transform="translate(-87.53 -53.45)" fill="#a69aa6"/>
        <path id="Trazado_167195" data-name="Trazado 167195" d="M872.324,489.506a8.135,8.135,0,0,1,2.209,2.592,6.414,6.414,0,1,1-10.7-1.337,6.375,6.375,0,0,1,7.618-1.676C871.747,489.221,872.035,489.365,872.324,489.506Z" transform="translate(-62.846 -80.753)" fill="#fb437a"/>
        <path id="Trazado_167196" data-name="Trazado 167196" d="M821.289,464.44a17.551,17.551,0,0,1,3.783-10.192,17.779,17.779,0,0,1,11.331-6.8,15.929,15.929,0,0,1,2.975-.3,1.632,1.632,0,0,1,1.775,1.841c-.021.989-.69,1.528-1.872,1.588a15.039,15.039,0,0,0-14.505,12.853,11.792,11.792,0,0,0-.035,1.614,2.037,2.037,0,0,1-1.818,2.141c-1.016.007-1.626-.776-1.635-2.1C821.288,464.871,821.289,464.655,821.289,464.44Z" transform="translate(-33.611 -51.325)" fill="#d0d0d5"/>
      </g>
    </g>
  </g>
</svg>
