<svg xmlns="http://www.w3.org/2000/svg" width="171.06" height="171.06" viewBox="0 0 171.06 171.06">
  <g id="Grupo_124200" data-name="Grupo 124200" transform="translate(-8960.47 10395.712)">
    <g id="Grupo_123942" data-name="Grupo 123942" transform="translate(8045 -10654.739)">
      <circle id="Elipse_6063" data-name="Elipse 6063" cx="85.53" cy="85.53" r="85.53" transform="translate(915.47 259.027)" fill="#fff"/>
      <g id="Grupo_123469" data-name="Grupo 123469" transform="translate(180.235 -56.285)">
        <path id="Trazado_167140" data-name="Trazado 167140" d="M814.384,434.195c-12.09,0-24.18-.035-36.269.029a3.389,3.389,0,0,1-3.462-3.456c.067-21.353.04-42.707.048-64.061,0-.388-.145-.812.167-1.162,1.947-.2,3.9-.043,5.849-.09.619-.015,1.24.016,1.859-.01a2.775,2.775,0,0,0,2.829-2.835c.047-2.169.014-4.339.011-6.508a5.777,5.777,0,0,1,.1-1.2c.317-.3.71-.168,1.068-.168q22.6-.011,45.2-.006a3.1,3.1,0,0,1,3.345,3.367q.006,15.844,0,31.689c-.24.405-.657.408-1.051.461a28.028,28.028,0,0,0-5.8,1.483c-.41.149-.839.465-1.282.047a5.053,5.053,0,0,1-.163-2.023c-.022-1.458.02-2.916-.017-4.373-.032-1.282-.555-1.785-1.839-1.822-.682-.019-1.365-.017-2.047,0-1.326.031-1.852.539-1.867,1.889-.03,2.792-.007,5.583-.011,8.375a11.949,11.949,0,0,1-.041,1.486,1.32,1.32,0,0,1-.586.911,27.344,27.344,0,0,0-5.3,5.594c-.185.255-.437,1-.907.178a6.764,6.764,0,0,1-.084-1.579q0-10.251,0-20.5a9.441,9.441,0,0,0-.033-1.21,1.47,1.47,0,0,0-1.44-1.441,21.682,21.682,0,0,0-2.979-.006,1.244,1.244,0,0,0-1.266,1.237,10.094,10.094,0,0,0-.034,1.117q0,14.025,0,28.05c0,.249,0,.5.009.746.061,1.137.356,1.458,1.5,1.62a2.138,2.138,0,0,1,.721.167.764.764,0,0,1,.2.921c-.435,1.607-.578,3.265-.881,4.9-.151.84-.763.946-1.467.946h-9.591q-6.7,0-13.408,0a6.441,6.441,0,0,0-2.026.229,2.854,2.854,0,0,0-2.065,3.222,2.74,2.74,0,0,0,2.84,2.3c7.884.02,15.767.005,23.651.011a8.662,8.662,0,0,1,1.855.08c.5.147.612.57.7,1.005a29.147,29.147,0,0,0,3.794,9.64C814.339,433.66,814.558,433.886,814.384,434.195Z" transform="translate(0 0)" fill="#e0eefe"/>
        <path id="Trazado_167141" data-name="Trazado 167141" d="M919.063,507.876a36.959,36.959,0,0,1,4.19-4.83c.713-.641,1.441-1.265,2.162-1.9a4.813,4.813,0,0,1,1.993-1.583,13.148,13.148,0,0,1,4.345-2.149,37.559,37.559,0,0,1,6.37-1.771c.546-.08,1.088-.186,1.632-.28a32.724,32.724,0,0,1,9.349.552,28.652,28.652,0,1,1-29.532,44.6c-.18-.252-.372-.5-.558-.744a31.847,31.847,0,0,1-4.446-11.193,12.4,12.4,0,0,1-.477-5.938c.057-.375.175-.772.269-1.157a38.548,38.548,0,0,1,.953-5.565.823.823,0,0,1,.024-.713,28.7,28.7,0,0,1,3.252-6.924A.776.776,0,0,1,919.063,507.876Z" transform="translate(-104.631 -105.583)" fill="#f2c341"/>
        <path id="Trazado_167142" data-name="Trazado 167142" d="M786.16,355.495c.306.231.194.566.195.861q.013,3.39,0,6.779a3.051,3.051,0,0,1-3.2,3.2q-3.389.016-6.779,0c-.294,0-.629.111-.861-.195Z" transform="translate(-0.649 -0.594)" fill="#9dbacd"/>
        <path id="Trazado_167143" data-name="Trazado 167143" d="M863.951,443.872q0,8.391,0,16.783c0,1.788-.481,2.264-2.267,2.266-.839,0-1.679.017-2.517-.008a1.491,1.491,0,0,1-1.573-1.4,6.491,6.491,0,0,1-.06-.927q0-16.69,0-33.379c0-2.034.453-2.488,2.455-2.49.653,0,1.305-.012,1.958,0,1.393.032,1.988.609,2,2,.021,2.113.005,4.227.005,6.34Q863.951,438.464,863.951,443.872Z" transform="translate(-62.259 -52.588)" fill="#3778c5"/>
        <path id="Trazado_167144" data-name="Trazado 167144" d="M915.285,469.394a36.341,36.341,0,0,0-3.748,8.049c-.373-.005-.747.008-1.118-.018a1.5,1.5,0,0,1-1.5-1.47c-.019-.216-.011-.435-.011-.652q0-14.543,0-29.086c0-1.747.448-2.188,2.209-2.19q.979,0,1.957,0c1.665,0,2.188.514,2.188,2.155q0,7.318,0,14.636C915.264,463.676,915.277,466.535,915.285,469.394Z" transform="translate(-100.853 -67.101)" fill="#3778c5"/>
        <path id="Trazado_167145" data-name="Trazado 167145" d="M828.913,600.722a34.261,34.261,0,0,0,.208,7.1c-8.605,0-17.211-.028-25.815.033a3.337,3.337,0,0,1-3.079-2.474,3.231,3.231,0,0,1,2.258-3.7,6.112,6.112,0,0,1,1.652-.213c7.86.012,15.719,0,23.579.023C828.344,601.494,828.776,601.391,828.913,600.722Z" transform="translate(-19.182 -184.815)" fill="#afcbdc"/>
        <path id="Trazado_167146" data-name="Trazado 167146" d="M812.746,494.255q0,4.986,0,9.972c0,1.455-.51,1.955-1.958,1.965-.87.005-1.74.012-2.609,0a1.6,1.6,0,0,1-1.78-1.7q-.024-10.2,0-20.41a1.616,1.616,0,0,1,1.754-1.752c.869-.03,1.739-.013,2.609-.006,1.428.011,1.98.55,1.984,1.964C812.751,487.607,812.746,490.931,812.746,494.255Z" transform="translate(-23.837 -95.859)" fill="#3778c5"/>
        <path id="Trazado_167147" data-name="Trazado 167147" d="M966.373,478.087a43.3,43.3,0,0,0-6.339,3.732c-.007-3.505-.024-7.011-.015-10.517a1.6,1.6,0,0,1,1.725-1.761q1.442-.038,2.885,0a1.6,1.6,0,0,1,1.73,1.752C966.38,473.558,966.371,475.822,966.373,478.087Z" transform="translate(-139.25 -86.254)" fill="#3778c5"/>
        <path id="Trazado_167148" data-name="Trazado 167148" d="M969.656,581.407a3.565,3.565,0,0,1-2.314-1.005c-2.257-2.268-4.528-4.523-6.777-6.8a1.641,1.641,0,0,1,0-2.61c.666-.7,1.352-1.372,2.041-2.045a1.678,1.678,0,0,1,2.683-.054c.99.942,1.919,1.946,2.892,2.906,1.1,1.09,1.925,1.084,3.025-.015q9.028-9.03,18.05-18.065c1.33-1.331,2.016-1.331,3.348,0q.726.724,1.449,1.451c1.218,1.229,1.216,1.976-.024,3.226q-2.2,2.217-4.411,4.42-8.626,8.641-17.246,17.288A3.943,3.943,0,0,1,969.656,581.407Z" transform="translate(-139.177 -148.755)" fill="#fefefe"/>
        <path id="Trazado_167149" data-name="Trazado 167149" d="M1065.5,640.728a1.534,1.534,0,0,1-1.377,1.6,3.552,3.552,0,0,1-.372.015c-1.381.04-1.381.04-1.421,1.427-.032,1.077-.592,1.715-1.528,1.743a1.591,1.591,0,0,1-1.648-1.736,1.9,1.9,0,0,1,0-.372c.133-.826-.159-1.222-1.039-1.066a2.386,2.386,0,0,1-.558,0,1.58,1.58,0,0,1-1.574-1.525,1.634,1.634,0,0,1,1.474-1.638c.544-.073,1.263.247,1.588-.175.262-.34.068-1.014.123-1.534a1.608,1.608,0,0,1,1.636-1.469,1.583,1.583,0,0,1,1.52,1.58c.006.093,0,.187,0,.28.022,1.276.022,1.276,1.346,1.31C1064.806,639.2,1065.486,639.778,1065.5,640.728Z" transform="translate(-211.344 -211.314)" fill="#fefefe"/>
      </g>
    </g>
  </g>
</svg>
