<svg xmlns="http://www.w3.org/2000/svg" width="171.06" height="171.06" viewBox="0 0 171.06 171.06">
  <g id="Grupo_124199" data-name="Grupo 124199" transform="translate(-9241.47 10655.744)">
    <g id="Grupo_123941" data-name="Grupo 123941" transform="translate(8728 -10914.771)">
      <circle id="Elipse_6062" data-name="Elipse 6062" cx="85.53" cy="85.53" r="85.53" transform="translate(513.47 259.027)" fill="#fff"/>
      <g id="Grupo_123468" data-name="Grupo 123468" transform="translate(-211.737 -46.184)">
        <path id="Trazado_167128" data-name="Trazado 167128" d="M910.4,348.056h38.183a5.168,5.168,0,0,1,3.241,1.379,5.34,5.34,0,0,1,1.261,3.123v38.183a1.2,1.2,0,0,1-1.047.4c-4.747.015-9.493.046-14.239-.016a2.978,2.978,0,0,1-2.958-3,8.758,8.758,0,0,1,.825-4.43,4.28,4.28,0,0,0-1.185-5.327,4.441,4.441,0,0,0-5.483.008,4.287,4.287,0,0,0-1.171,5.335,8.644,8.644,0,0,1,.821,4.348,3.034,3.034,0,0,1-3.062,3.075c-1.526.047-3.053.014-4.58.015-3.053,0-6.107.005-9.16,0a2.415,2.415,0,0,1-1.524-.294,2.327,2.327,0,0,1-.325-1.6c-.009-4.248,0-8.5-.006-12.743a7.421,7.421,0,0,0-.046-1.164,2.279,2.279,0,0,0-2.2-2.023,6.824,6.824,0,0,0-3.872.688,4.933,4.933,0,0,1-4.723.05,5.185,5.185,0,0,1-2.612-6.476,5.242,5.242,0,0,1,6.2-3.239,3.927,3.927,0,0,1,1.092.4,6.3,6.3,0,0,0,3.861.73,2.3,2.3,0,0,0,2.268-2.133A9.379,9.379,0,0,0,910,362.18c0-4.22-.005-8.44.007-12.66C910,349,909.915,348.446,910.4,348.056Z" transform="translate(-99.666 0)" fill="#f6cf63"/>
        <path id="Trazado_167129" data-name="Trazado 167129" d="M958.554,491.885q7.419,0,14.839,0c1.954,0,2.985-1.083,3.04-3.059a7.194,7.194,0,0,0-.831-3.759,4.7,4.7,0,0,1,1.25-5.867,4.853,4.853,0,0,1,6.021-.049A4.7,4.7,0,0,1,984.2,485a7.488,7.488,0,0,0-.865,3.836c.067,1.97,1.092,3.045,3.055,3.047q7.419.01,14.839,0v38.35a5.863,5.863,0,0,1-1.034,2.716,4.991,4.991,0,0,1-3.468,1.62h-1a2.3,2.3,0,0,1-.549-.727,2.889,2.889,0,0,0-2.592-1.675c-.249-.024-.5-.023-.75-.024q-15.507,0-31.014-.01a5.525,5.525,0,0,1-2.145,0,.728.728,0,0,1-.256-.159,2.931,2.931,0,0,1-.281-1.453c-.005-3.61-.017-7.219,0-10.828.012-2.165,1.2-3.307,3.363-3.383a8.284,8.284,0,0,1,4.018.812,4.307,4.307,0,0,0,5.689-1.585A4.374,4.374,0,0,0,966.4,509a3.019,3.019,0,0,0-.862.3,7.124,7.124,0,0,1-4.256.837,3.026,3.026,0,0,1-3.13-3.092c-.047-2.082-.013-4.165-.015-6.247,0-2.5-.009-5,.006-7.5a1.814,1.814,0,0,1,.28-1.349Z" transform="translate(-147.806 -101.148)" fill="#f3779c"/>
        <path id="Trazado_167130" data-name="Trazado 167130" d="M810.737,348.056q0,7.37,0,14.74c0,2.081-1.046,3.1-3.112,3.151a7.072,7.072,0,0,1-3.674-.821,4.709,4.709,0,0,0-5.928,1.26,4.845,4.845,0,0,0,0,6.014,4.671,4.671,0,0,0,5.92,1.26,7.4,7.4,0,0,1,4.343-.774,2.709,2.709,0,0,1,2.448,2.944q.011,7.162,0,14.324c0,.194.007.388.01.583l-.02,0c-.36.473-.888.4-1.378.4-4.219.013-8.437,0-12.656.007-2.741,0-3.384.661-3.4,3.382a5.292,5.292,0,0,0,.655,2.622,5.232,5.232,0,0,1-1.635,6.857,5.137,5.137,0,0,1-6.961-1.039,4.87,4.87,0,0,1-.6-5.615,6.9,6.9,0,0,0,.738-3.608,2.435,2.435,0,0,0-2.629-2.588c-3.469-.033-6.939-.007-10.408-.012a4.153,4.153,0,0,1-1.641-.209.558.558,0,0,1-.225-.206,5.012,5.012,0,0,1-.1-1.57q-.007-15.482,0-30.963a14.21,14.21,0,0,0-.038-1.5,2.907,2.907,0,0,0-1.735-2.634,2.038,2.038,0,0,1-.652-.509v-1.167a5.569,5.569,0,0,1,1.091-2.773,5.044,5.044,0,0,1,3.411-1.563Z" transform="translate(0 0)" fill="#7dc2ed"/>
        <path id="Trazado_167131" data-name="Trazado 167131" d="M770.725,538.529l.169.048a1.021,1.021,0,0,1,.38.881c.026.5.02,1,.02,1.5q0,16.881,0,33.761c0,2.671.6,3.269,3.3,3.269q16.923,0,33.845,0c.472,0,.944,0,1.417.027a.859.859,0,0,1,.856.539h.063a2.461,2.461,0,0,1-.04,2.675h-38.35a5.5,5.5,0,0,1-2.9-1.21,5.032,5.032,0,0,1-1.44-3.125v-38.35A2.4,2.4,0,0,1,770.725,538.529Z" transform="translate(0 -147.805)" fill="#c2aeef"/>
        <path id="Trazado_167132" data-name="Trazado 167132" d="M770.725,409.964l-2.673.018V372.8a2.7,2.7,0,0,1,2.7,2.459,8.082,8.082,0,0,1,.122,1.4q.01,15.994,0,31.989A2.974,2.974,0,0,1,770.725,409.964Z" transform="translate(0 -19.241)" fill="#64abdb"/>
        <path id="Trazado_167133" data-name="Trazado 167133" d="M960,721.974q.02-1.338.04-2.675c11.233-.346,22.469-.062,33.7-.146,2.083-.016,3.251.974,3.44,2.822Z" transform="translate(-149.261 -288.548)" fill="#ee8eaa"/>
        <path id="Trazado_167138" data-name="Trazado 167138" d="M820.5,580a3.192,3.192,0,0,0-1.4-.154c-11.827,0-23.654-.033-35.48.032a2.86,2.86,0,0,1-2.988-2.961c.064-12.3.04-24.6.043-36.9,4.138-.008,8.275-.038,12.412-.012a2.643,2.643,0,0,1,2.59,2.556,7.378,7.378,0,0,1-.785,4.257,4.679,4.679,0,0,0,1.3,5.917,4.886,4.886,0,0,0,6.026-.071,4.7,4.7,0,0,0,1.183-5.942,7.246,7.246,0,0,1-.7-4.515,2.644,2.644,0,0,1,2.8-2.215c3-.014,6,0,9-.005h6q0,7.331.01,14.663c0,2.207,1,3.164,3.205,3.216a7.149,7.149,0,0,0,3.594-.816,4.759,4.759,0,0,1,5.928,1.3,4.862,4.862,0,0,1-.037,6.022,4.688,4.688,0,0,1-5.866,1.249,7.464,7.464,0,0,0-4.011-.812,2.71,2.71,0,0,0-2.809,2.862c-.015,3.721,0,7.442-.006,11.164C820.522,579.225,820.508,579.614,820.5,580Z" transform="translate(-9.786 -149.252)" fill="#626598"/>
      </g>
    </g>
  </g>
</svg>
