<svg xmlns="http://www.w3.org/2000/svg" width="88" height="88" viewBox="0 0 88 88">
  <g id="Grupo_124166" data-name="Grupo 124166" transform="translate(4538 7190.61)">
    <g id="Grupo_123811" data-name="Grupo 123811" transform="translate(-4538 -7190.61)">
      <g id="Elipse_6766" data-name="Elipse 6766" fill="#fff" stroke="#2631a0" stroke-width="4">
        <circle cx="44" cy="44" r="44" stroke="none"/>
        <circle cx="44" cy="44" r="42" fill="none"/>
      </g>
      <g id="Grupo_123809" data-name="Grupo 123809" transform="translate(24.15 16.259)">
        <path id="Trazado_170096" data-name="Trazado 170096" d="M859.732,418.949c3.267,0,6.534.014,9.8-.009.513,0,.624.157.623.641q-.022,10.5,0,21.01a.892.892,0,0,1-.482.866,11.59,11.59,0,0,0-4.051,3.958c-.245.415-.46.847-.688,1.272a1.171,1.171,0,0,1-.163-.829c0-2.29,0-4.581,0-6.871,0-.772-.016-.786-.786-.787-1.713,0-3.427,0-5.14,0a1.455,1.455,0,0,1-.842-.132,1.23,1.23,0,0,1-.163-.826c-.019-.754-.031-.773-.806-.774q-3.613,0-7.225,0a3.855,3.855,0,0,1-.43-.013c-.377.018-.756.008-1.133.009-.31,0-.465.132-.466.451,0,1.314,0,2.628,0,3.943,0,.35.177.474.5.472.36,0,.72-.01,1.08.008,2.518-.029,5.036,0,7.555-.013.9,0,.9,0,.922-.879a1.433,1.433,0,0,1,.1-.634c.163-.223.411-.2.641-.2,1.353-.009,2.706-.014,4.06,0,.609.007.724.124.73.742.013,1.353.016,2.707,0,4.06-.007.578-.13.683-.712.708-.216.009-.433.01-.649,0-.438-.022-.466-.043-.747-.5a12.426,12.426,0,0,0-.979.988.275.275,0,0,0-.06.347,6.032,6.032,0,0,0,.964,1.018c.094.089.157-.015.188-.1a.46.46,0,0,1,.464-.309c.938-.031,1.875-.037,2.813,0a.48.48,0,0,1,.292.128,11.855,11.855,0,0,0-.752,4.272c.013.261-.184.322-.358.413a6.814,6.814,0,0,0-1.516.924,2.545,2.545,0,0,0-.836,2.023c.009.776.017,1.553,0,2.328-.01.362.125.466.471.458.848-.019,1.7.008,2.545-.013.355-.009.461.112.466.465.018,1.262.03,1.275,1.312,1.266.344,0,.536.087.616.43a3.8,3.8,0,0,0,.762,1.309h-28.71a1.331,1.331,0,0,1-.169-.936q-.007-6.089,0-12.179,0-13.721,0-27.442a1.523,1.523,0,0,1,.168-1.044l6.952-.008c.561-.313,1.167-.116,1.753-.156,3.828-.035,7.656-.011,11.484-.012A.809.809,0,0,1,859.732,418.949Z" transform="translate(-835.463 -412.017)" fill="#efefef"/>
        <path id="Trazado_170097" data-name="Trazado 170097" d="M819.467,420.05q0,18.227.005,36.455,0,2.573-.005,5.146c-1.01,0-2.021-.007-3.031.01-.328.006-.473-.1-.432-.433a2.244,2.244,0,0,0,0-.27q0-20.107,0-40.215c0-.7,0-.7.7-.7Z" transform="translate(-815.998 -413.11)" fill="#d1d1d1"/>
        <path id="Trazado_170098" data-name="Trazado 170098" d="M1039.013,610.872a8.82,8.82,0,0,1,.883,5.558,6.979,6.979,0,0,1-.308,2.094,1.729,1.729,0,0,1-.345,1.045l0-.006a.849.849,0,0,1-.608.172c-1.511,0-3.023.024-4.533-.012a1.735,1.735,0,0,1-.8-.092.6.6,0,0,1-.248-.4,21.017,21.017,0,0,1-.686-4.57,8.59,8.59,0,0,1,.737-3.29.989.989,0,0,1,.466-.57,5.02,5.02,0,0,1,1.387-.074c1.091-.009,2.182,0,3.273,0A1.517,1.517,0,0,1,1039.013,610.872Z" transform="translate(-1001.093 -576.22)" fill="#efefef"/>
        <path id="Trazado_170099" data-name="Trazado 170099" d="M910.9,379.665l-12.127-.014a7.178,7.178,0,0,1,0-3.432l1.725-.021a2.72,2.72,0,0,1,1.62-.107c.321.138.282.477.395.729a1.591,1.591,0,1,0,.822-2.073,1.914,1.914,0,0,0-.559.416c-.124.12-.207.306-.424.3a.282.282,0,0,1-.075-.3,3.178,3.178,0,0,1,2.457-2.315,3.362,3.362,0,0,1,2.684,2.989c.041.306.131.377.419.372.881-.017,1.763,0,2.643-.012.3-.005.453.026.442.395C910.892,377.615,910.906,378.64,910.9,379.665Z" transform="translate(-886.633 -372.732)" fill="#505050"/>
        <path id="Trazado_170100" data-name="Trazado 170100" d="M1045.444,592.756l-5.516.042-.045-.063a3.777,3.777,0,0,1,1.044-1.708,8.872,8.872,0,0,1,1.607-1.49A8.45,8.45,0,0,1,1045.444,592.756Z" transform="translate(-1007.524 -558.104)" fill="#f96450"/>
        <path id="Trazado_170101" data-name="Trazado 170101" d="M1042.829,671.959l5.207-.02c-.045.568.242,1.328-.12,1.65-.318.283-1.061.087-1.617.1a4.121,4.121,0,0,1-1.733.141,4.169,4.169,0,0,1-1.737-.139l-.005-.022A2.053,2.053,0,0,1,1042.829,671.959Z" transform="translate(-1009.882 -628.596)" fill="#505050"/>
        <path id="Trazado_170102" data-name="Trazado 170102" d="M1028.606,611.054a8.857,8.857,0,0,0-.718,6.219c.176.8.34,1.61.509,2.415a.771.771,0,0,1-.981.017v0c-.217-.116-.248-.333-.29-.542-.117-.576-.228-1.152-.353-1.726-.02-.288-.191-.575-.008-.865a8.932,8.932,0,0,1,.42-4.534c.131-.35.308-.684.464-1.025a.933.933,0,0,1,.965-.008Z" transform="translate(-996.203 -576.36)" fill="#d1d1d1"/>
        <path id="Trazado_170103" data-name="Trazado 170103" d="M1079.95,653.4l.653-3.138c.725.36,1.453.714,2.174,1.081a1.754,1.754,0,0,1,.629,1.933c-.1.2-.283.115-.429.116C1081.968,653.4,1080.959,653.4,1079.95,653.4Z" transform="translate(-1041.8 -610.053)" fill="#f96450"/>
        <path id="Trazado_170104" data-name="Trazado 170104" d="M916.177,372.169a3.7,3.7,0,0,0-2.254,2.114.859.859,0,0,0-.112.51.6.6,0,0,1-.141.729h-1.728a3.45,3.45,0,0,1,3.718-3.463A.829.829,0,0,1,916.177,372.169Z" transform="translate(-898.074 -372.055)" fill="#3c3c3c"/>
        <path id="Trazado_170105" data-name="Trazado 170105" d="M889.717,396.023q0,1.716,0,3.432l-1.72.014c0-1.027,0-2.054-.018-3.08-.006-.3.08-.409.389-.39C888.816,396.028,889.267,396.017,889.717,396.023Z" transform="translate(-877.575 -392.536)" fill="#3c3c3c"/>
        <path id="Trazado_170106" data-name="Trazado 170106" d="M1043.829,684.07l1.74,0a.7.7,0,0,1,.138.56,1.933,1.933,0,0,0,.609,1.659.6.6,0,0,1,.156.28.673.673,0,0,1-.074.143c-.776.894-.728.836-1.621.078A2.913,2.913,0,0,1,1043.829,684.07Z" transform="translate(-1010.882 -638.972)" fill="#db9600"/>
        <path id="Trazado_170107" data-name="Trazado 170107" d="M1010.627,650.3l.134.846a1.794,1.794,0,0,0-1.1,2.032.307.307,0,0,1-.121.233,2.335,2.335,0,0,1-.641.007c-.359-.1-1,.3-1.049-.211-.1-1.17-.221-1.47.7-1.9C1009.25,650.983,1009.937,650.639,1010.627,650.3Z" transform="translate(-980.064 -610.087)" fill="#db4632"/>
        <path id="Trazado_170108" data-name="Trazado 170108" d="M1056.811,686.566a1.841,1.841,0,0,1-.91-1.856c.016-.213,0-.428.006-.643h1.73c0,.41.023.823-.021,1.229A1.794,1.794,0,0,1,1056.811,686.566Z" transform="translate(-1021.221 -638.972)" fill="#f9b300"/>
        <path id="Trazado_170109" data-name="Trazado 170109" d="M1034.537,591.708l-.965.008a8.621,8.621,0,0,1,2.962-3.293.4.4,0,0,1,.6.07c-.013.23-.2.314-.349.444A8.026,8.026,0,0,0,1034.537,591.708Z" transform="translate(-1002.126 -557.06)" fill="#db4733"/>
        <path id="Trazado_170110" data-name="Trazado 170110" d="M1019.954,658.424c0-.214,0-.429,0-.643,0-1.108.128-1.279,1.215-1.622l.517,2.287Z" transform="translate(-990.476 -615.097)" fill="#f96450"/>
        <path id="Trazado_170111" data-name="Trazado 170111" d="M1031.581,671.853l.981-.017.753.035q0,.857-.005,1.714c-.567-.034-1.327.248-1.645-.115C1031.385,673.151,1031.59,672.408,1031.581,671.853Z" transform="translate(-1000.367 -628.508)" fill="#3c3c3c"/>
        <path id="Trazado_170112" data-name="Trazado 170112" d="M910.971,444.012c2.755-.005,5.511-.005,8.266-.024.352,0,.424.137.412.447-.016.431.005.864.011,1.3a2.223,2.223,0,0,1,0,1.73c-.005.432-.027.865-.011,1.3.011.309-.06.449-.412.447-2.755-.018-5.511-.018-8.266-.024a.8.8,0,0,1-.166-.609q-.011-1.975,0-3.949A.8.8,0,0,1,910.971,444.012Z" transform="translate(-897.098 -433.591)" fill="#64c7ef"/>
        <path id="Trazado_170113" data-name="Trazado 170113" d="M910.971,635.948c2.762-.005,5.524-.007,8.286-.022.318,0,.394.118.392.413q-.017,2.193,0,4.387c0,.294-.074.414-.392.412-2.762-.016-5.524-.017-8.286-.022a.8.8,0,0,1-.166-.609q-.011-1.975,0-3.949A.8.8,0,0,1,910.971,635.948Z" transform="translate(-897.098 -597.788)" fill="#64c7ef"/>
        <path id="Trazado_170114" data-name="Trazado 170114" d="M910.975,587.976q4.165-.009,8.33-.022c.251,0,.346.068.344.333q-.016,2.272,0,4.544c0,.265-.093.334-.344.333q-4.165-.019-8.33-.022a.856.856,0,0,1-.171-.661q-.01-1.921,0-3.842A.856.856,0,0,1,910.975,587.976Z" transform="translate(-897.098 -556.749)" fill="#f9b300"/>
        <path id="Trazado_170115" data-name="Trazado 170115" d="M910.975,492.012q4.165-.009,8.33-.022c.251,0,.346.068.344.333q-.016,2.272,0,4.544c0,.265-.093.334-.344.333q-4.165-.019-8.33-.022a.856.856,0,0,1-.171-.662q-.01-1.921,0-3.842A.856.856,0,0,1,910.975,492.012Z" transform="translate(-897.098 -474.655)" fill="#f9b300"/>
        <path id="Trazado_170116" data-name="Trazado 170116" d="M919.661,543.424c-.005.432-.027.865-.011,1.3.011.309-.06.449-.412.447-2.755-.018-5.511-.018-8.267-.024a.8.8,0,0,1-.166-.609q-.011-1.975,0-3.95a.8.8,0,0,1,.166-.609c2.755-.006,5.511-.006,8.267-.024.352,0,.423.137.412.447-.016.431.005.864.011,1.3A2.223,2.223,0,0,1,919.661,543.424Z" transform="translate(-897.098 -515.685)" fill="#64c7ef"/>
        <path id="Trazado_170117" data-name="Trazado 170117" d="M858.9,505.716c-1.589,0-3.177,0-4.766-.013-.326,0-.435.079-.431.421.019,1.462.015,2.924,0,4.387,0,.294.066.443.387.4a4.088,4.088,0,0,1,.487,0c.8,0,.8,0,.928-.82.52.521,1.009,1.017,1.506,1.506.133.131.131.229,0,.359-.5.489-.987.986-1.506,1.507-.121-.818-.121-.818-.93-.818-.722,0-1.445-.013-2.166.006-.31.008-.444-.053-.442-.409q.023-3.926,0-7.853c0-.407.183-.418.488-.417,2.148.006,4.3,0,6.444,0A1.891,1.891,0,0,1,858.9,505.716Z" transform="translate(-846.773 -484.904)" fill="#f96450"/>
        <path id="Trazado_170118" data-name="Trazado 170118" d="M858.9,601.681c-1.589,0-3.177,0-4.766-.013-.326,0-.435.079-.431.421.019,1.462.015,2.924,0,4.387,0,.294.066.443.387.4a4.127,4.127,0,0,1,.487,0c.8,0,.8,0,.928-.82.52.521,1.009,1.017,1.506,1.506.133.131.131.229,0,.359-.5.489-.987.985-1.506,1.507-.121-.818-.121-.818-.93-.818-.722,0-1.445-.013-2.166.006-.31.008-.444-.052-.442-.409q.023-3.926,0-7.853c0-.407.183-.418.488-.417,2.148.006,4.3,0,6.444,0A1.891,1.891,0,0,1,858.9,601.681Z" transform="translate(-846.773 -566.999)" fill="#f96450"/>
        <path id="Trazado_170119" data-name="Trazado 170119" d="M972.109,457.71v-1.73c2.149,0,4.3.008,6.447-.011.381,0,.483.1.48.482q-.025,3.874,0,7.747c0,.35-.09.47-.45.456-.721-.027-1.444-.008-2.167-.008-.8,0-.8,0-.938.857-.526-.557-.989-1.053-1.458-1.542a.227.227,0,0,1,0-.368c.466-.492.926-.989,1.388-1.485l.133.094a1.107,1.107,0,0,1,.016.247c-.063.391.112.475.481.472,1.255-.01,1.256.005,1.256-1.27,0-1.174-.012-2.348.007-3.521.005-.333-.089-.43-.425-.427C975.287,457.721,973.7,457.711,972.109,457.71Z" transform="translate(-949.546 -443.841)" fill="#f96450"/>
        <path id="Trazado_170120" data-name="Trazado 170120" d="M972.109,553.685v-1.73c2.143,0,4.286.006,6.428-.009.351,0,.5.053.5.459-.021,2.737-.015,5.474-.018,8.21l0,0c-.883,0-1.766.024-2.648,0-.52-.013-1.016-.069-.773.812l-.169-.017q-.716-.75-1.434-1.5c-.142-.148-.06-.251.048-.365.456-.48.91-.963,1.369-1.449.091.1.135.124.132.143-.095.556.152.684.682.663,1.064-.044,1.065-.013,1.065-1.079,0-1.189-.03-2.379.014-3.566.018-.5-.152-.587-.605-.579C975.172,553.7,973.64,553.686,972.109,553.685Z" transform="translate(-949.546 -525.946)" fill="#f96450"/>
        <path id="Trazado_170121" data-name="Trazado 170121" d="M864.841,444.9a2.584,2.584,0,0,1,0,4.952,2.623,2.623,0,0,1,0-4.952Z" transform="translate(-856.278 -434.369)" fill="#3cc7b3"/>
        <path id="Trazado_170122" data-name="Trazado 170122" d="M855.317,444.124c-.236.3-.613.409-.88.688a2.544,2.544,0,0,0,.55,4c.123.071.268.112.33.26a2.535,2.535,0,0,1-2.864-.943,2.593,2.593,0,0,1,0-3.068A2.532,2.532,0,0,1,855.317,444.124Z" transform="translate(-846.754 -433.596)" fill="#1ea996"/>
        <path id="Trazado_170123" data-name="Trazado 170123" d="M901.72,444.024v5.168c-.451.005-.9,0-1.352.02-.269.012-.385-.062-.383-.358q.019-2.246,0-4.491c0-.3.114-.37.383-.359C900.818,444.023,901.27,444.018,901.72,444.024Z" transform="translate(-887.847 -433.603)" fill="#46a9d1"/>
        <path id="Trazado_170124" data-name="Trazado 170124" d="M899.632,495.462q0-.873,0-1.746c0-.466.022-.933.008-1.4-.008-.262.086-.344.34-.333.465.021.932.016,1.4.022v5.165c-.567,0-1.32.26-1.643-.1C899.452,496.757,899.647,496.015,899.632,495.462Z" transform="translate(-887.5 -474.65)" fill="#db9500"/>
        <path id="Trazado_170125" data-name="Trazado 170125" d="M901.72,539.989v5.167c-.451.006-.9,0-1.352.021-.269.012-.385-.062-.383-.359q.019-2.246,0-4.491c0-.3.114-.37.383-.358C900.818,539.988,901.27,539.983,901.72,539.989Z" transform="translate(-887.847 -515.698)" fill="#46a9d1"/>
        <path id="Trazado_170126" data-name="Trazado 170126" d="M899.632,591.427q0-.873,0-1.746c0-.466.022-.933.008-1.4-.008-.262.086-.344.34-.333.465.021.932.016,1.4.022v5.165c-.567,0-1.32.26-1.643-.1C899.452,592.722,899.647,591.98,899.632,591.427Z" transform="translate(-887.5 -556.745)" fill="#db9500"/>
        <path id="Trazado_170127" data-name="Trazado 170127" d="M901.72,635.953v5.168c-.451.005-.9,0-1.352.02-.269.012-.385-.062-.383-.359q.019-2.246,0-4.491c0-.3.114-.37.383-.359C900.818,635.952,901.27,635.947,901.72,635.953Z" transform="translate(-887.847 -597.792)" fill="#46a9d1"/>
        <path id="Trazado_170128" data-name="Trazado 170128" d="M1045.661,627.44a1.733,1.733,0,1,1,1.778-1.659A1.735,1.735,0,0,1,1045.661,627.44Z" transform="translate(-1011.026 -587.564)" fill="#64c7ef"/>
        <path id="Trazado_170129" data-name="Trazado 170129" d="M923.9,385.782l.141-.728a1.788,1.788,0,0,1,1.989-.958,1.73,1.73,0,0,1,1.351,1.783,1.758,1.758,0,0,1-1.536,1.63,1.738,1.738,0,0,1-1.852-1.252A4.824,4.824,0,0,1,923.9,385.782Z" transform="translate(-908.304 -382.316)" fill="#fefefe"/>
        <path id="Trazado_170130" data-name="Trazado 170130" d="M943.72,456.826c0,.911,0,.911-.9.911-.162,0-.324-.01-.485,0-.252.018-.372-.082-.344-.34,0-.018,0-.036,0-.054.051-1.667-.321-1.285,1.335-1.346.3-.011.435.087.4.4A3.963,3.963,0,0,0,943.72,456.826Z" transform="translate(-923.774 -443.866)" fill="#efefef"/>
        <path id="Trazado_170131" data-name="Trazado 170131" d="M918.851,457.765c-.835,0-.835,0-.835-.979,0-.755,0-.755,1.006-.754.728,0,.734,0,.725,1.033C919.74,457.891,919.869,457.75,918.851,457.765Z" transform="translate(-903.271 -443.894)" fill="#efefef"/>
        <path id="Trazado_170132" data-name="Trazado 170132" d="M918.881,649.694c-.865,0-.865,0-.865-1,0-.731,0-.731,1.03-.731.7,0,.709,0,.7,1.057C919.742,649.812,919.854,649.68,918.881,649.694Z" transform="translate(-903.271 -608.083)" fill="#efefef"/>
        <path id="Trazado_170133" data-name="Trazado 170133" d="M942,648.783c0-.823,0-.823.991-.823.743,0,.743,0,.742,1.018,0,.716,0,.723-1.045.713C941.878,649.684,942.018,649.816,942,648.783Z" transform="translate(-923.79 -608.083)" fill="#efefef"/>
        <path id="Trazado_170134" data-name="Trazado 170134" d="M918.9,601.711c-.885,0-.885,0-.885-1.024,0-.71,0-.71,1.092-.709.642,0,.642,0,.642,1.106C919.749,601.711,919.749,601.711,918.9,601.711Z" transform="translate(-903.271 -567.036)" fill="#efefef"/>
        <path id="Trazado_170135" data-name="Trazado 170135" d="M942.846,601.711c-.84,0-.84,0-.839-1.016,0-.719,0-.719,1.083-.718.651,0,.651,0,.65,1.1C943.74,601.711,943.74,601.711,942.846,601.711Z" transform="translate(-923.794 -567.036)" fill="#efefef"/>
        <path id="Trazado_170136" data-name="Trazado 170136" d="M942.856,505.747c-.849,0-.849,0-.849-1.06,0-.674,0-.674,1.074-.674.661,0,.661,0,.66,1.087C943.74,505.747,943.74,505.747,942.856,505.747Z" transform="translate(-923.794 -484.941)" fill="#efefef"/>
        <path id="Trazado_170137" data-name="Trazado 170137" d="M918.888,504.013c.862,0,.862,0,.862,1.047,0,.687,0,.687-1.061.686-.673,0-.673,0-.673-1.074C918.016,504.013,918.016,504.013,918.888,504.013Z" transform="translate(-903.271 -484.941)" fill="#efefef"/>
        <path id="Trazado_170138" data-name="Trazado 170138" d="M919.75,552.91c0,.821,0,.821-.995.82-.74,0-.74,0-.739-1.021,0-.713,0-.72,1.048-.71C919.874,552.006,919.735,551.876,919.75,552.91Z" transform="translate(-903.271 -525.99)" fill="#efefef"/>
        <path id="Trazado_170139" data-name="Trazado 170139" d="M942.881,551.991c.862,0,.862,0,.862,1.006,0,.728,0,.728-1.034.727-.7,0-.706,0-.7-1.06C942.017,551.872,941.908,552,942.881,551.991Z" transform="translate(-923.797 -525.984)" fill="#efefef"/>
      </g>
    </g>
  </g>
</svg>
