<svg xmlns="http://www.w3.org/2000/svg" width="592.695" height="609.386" viewBox="0 0 592.695 609.386">
  <g id="Grupo_124158" data-name="Grupo 124158" transform="translate(4565.348 8786.601)">
    <path id="Trazado_171283" data-name="Trazado 171283" d="M16.722,15.99V21h-2.93V6.781h5.547a6.417,6.417,0,0,1,2.817.586,4.318,4.318,0,0,1,1.87,1.665,4.643,4.643,0,0,1,.654,2.456,4.083,4.083,0,0,1-1.431,3.3,5.959,5.959,0,0,1-3.96,1.206Zm0-2.373h2.617a2.573,2.573,0,0,0,1.772-.547,1.989,1.989,0,0,0,.61-1.562,2.345,2.345,0,0,0-.615-1.689,2.3,2.3,0,0,0-1.7-.664H16.722ZM29.485,21H26.653V6h2.832Zm8.447,0a3.134,3.134,0,0,1-.283-.947A3.415,3.415,0,0,1,34.983,21.2a3.752,3.752,0,0,1-2.573-.9,2.89,2.89,0,0,1-1.021-2.266,2.986,2.986,0,0,1,1.245-2.578,6.144,6.144,0,0,1,3.6-.908h1.3v-.605a1.741,1.741,0,0,0-.376-1.172,1.479,1.479,0,0,0-1.187-.439,1.682,1.682,0,0,0-1.118.342,1.161,1.161,0,0,0-.405.938H31.624a2.835,2.835,0,0,1,.566-1.7,3.744,3.744,0,0,1,1.6-1.226,5.837,5.837,0,0,1,2.324-.444,4.611,4.611,0,0,1,3.1.981,3.433,3.433,0,0,1,1.147,2.759v4.58a5.052,5.052,0,0,0,.42,2.275V21ZM35.6,19.037a2.431,2.431,0,0,0,1.152-.278,1.828,1.828,0,0,0,.781-.747V16.2H36.478q-2.119,0-2.256,1.465l-.01.166a1.13,1.13,0,0,0,.371.869A1.441,1.441,0,0,0,35.6,19.037Zm9.531-8.6.088,1.221a3.689,3.689,0,0,1,3.037-1.416,3.066,3.066,0,0,1,2.5.986,4.6,4.6,0,0,1,.84,2.949V21H48.772V14.242a1.831,1.831,0,0,0-.391-1.3,1.749,1.749,0,0,0-1.3-.405A1.942,1.942,0,0,0,45.3,13.549V21H42.474V10.434ZM58.6,21.2a5.187,5.187,0,0,1-3.784-1.426,5.068,5.068,0,0,1-1.46-3.8V15.7a6.383,6.383,0,0,1,.615-2.847,4.515,4.515,0,0,1,1.743-1.934,4.893,4.893,0,0,1,2.573-.679A4.385,4.385,0,0,1,61.7,11.605a5.555,5.555,0,0,1,1.245,3.877v1.152H56.214a2.622,2.622,0,0,0,.825,1.66,2.5,2.5,0,0,0,1.743.625,3.046,3.046,0,0,0,2.549-1.182l1.387,1.553A4.237,4.237,0,0,1,61,20.692,5.639,5.639,0,0,1,58.6,21.2Zm-.322-8.682a1.764,1.764,0,0,0-1.362.569,2.946,2.946,0,0,0-.669,1.628h3.926v-.226a2.1,2.1,0,0,0-.508-1.457A1.819,1.819,0,0,0,58.274,12.514ZM70.667,21a3.134,3.134,0,0,1-.283-.947A3.415,3.415,0,0,1,67.718,21.2a3.752,3.752,0,0,1-2.573-.9,2.89,2.89,0,0,1-1.021-2.266,2.986,2.986,0,0,1,1.245-2.578,6.144,6.144,0,0,1,3.6-.908h1.3v-.605a1.741,1.741,0,0,0-.376-1.172,1.479,1.479,0,0,0-1.187-.439,1.682,1.682,0,0,0-1.118.342,1.161,1.161,0,0,0-.405.938H64.358a2.835,2.835,0,0,1,.566-1.7,3.744,3.744,0,0,1,1.6-1.226,5.837,5.837,0,0,1,2.324-.444,4.611,4.611,0,0,1,3.1.981A3.433,3.433,0,0,1,73.1,13.979v4.58a5.052,5.052,0,0,0,.42,2.275V21Zm-2.334-1.963a2.431,2.431,0,0,0,1.152-.278,1.828,1.828,0,0,0,.781-.747V16.2H69.212q-2.119,0-2.256,1.465l-.01.166a1.13,1.13,0,0,0,.371.869A1.441,1.441,0,0,0,68.333,19.037ZM81.2,13.08A7.667,7.667,0,0,0,80.188,13a2.067,2.067,0,0,0-2.1,1.084V21H75.267V10.434h2.666l.078,1.26a2.615,2.615,0,0,1,2.354-1.455,2.957,2.957,0,0,1,.879.127Z" transform="translate(-4409.668 -8572.37)" fill="#12263f"/>
    <path id="Trazado_171284" data-name="Trazado 171284" d="M33.147,21h-2.93V14.906H24.5V21h-2.93V6.781H24.5v5.762h5.713V6.781h2.93Zm8.5,0a3.134,3.134,0,0,1-.283-.947A3.415,3.415,0,0,1,38.694,21.2a3.752,3.752,0,0,1-2.573-.9A2.89,2.89,0,0,1,35.1,18.031a2.986,2.986,0,0,1,1.245-2.578,6.144,6.144,0,0,1,3.6-.908h1.3v-.605a1.741,1.741,0,0,0-.376-1.172,1.479,1.479,0,0,0-1.187-.439,1.682,1.682,0,0,0-1.118.342,1.161,1.161,0,0,0-.405.938H35.335a2.835,2.835,0,0,1,.566-1.7,3.744,3.744,0,0,1,1.6-1.226,5.837,5.837,0,0,1,2.324-.444,4.611,4.611,0,0,1,3.1.981,3.433,3.433,0,0,1,1.147,2.759v4.58a5.052,5.052,0,0,0,.42,2.275V21ZM39.31,19.037a2.431,2.431,0,0,0,1.152-.278,1.828,1.828,0,0,0,.781-.747V16.2H40.188q-2.119,0-2.256,1.465l-.01.166a1.13,1.13,0,0,0,.371.869A1.441,1.441,0,0,0,39.31,19.037Zm11.328-.117a1.851,1.851,0,0,0,1.27-.43,1.506,1.506,0,0,0,.508-1.143h2.646a3.62,3.62,0,0,1-.586,1.968A3.866,3.866,0,0,1,52.9,20.7a4.936,4.936,0,0,1-2.212.493,4.587,4.587,0,0,1-3.574-1.44A5.7,5.7,0,0,1,45.8,15.775V15.59a5.635,5.635,0,0,1,1.3-3.9,4.534,4.534,0,0,1,3.564-1.455,4.444,4.444,0,0,1,3.179,1.128,3.994,3.994,0,0,1,1.216,3H52.415a1.939,1.939,0,0,0-.508-1.34,1.887,1.887,0,0,0-2.778.2,4.166,4.166,0,0,0-.5,2.333v.293a4.219,4.219,0,0,0,.5,2.347A1.721,1.721,0,0,0,50.638,18.92Zm10.9,2.275a5.187,5.187,0,0,1-3.784-1.426,5.068,5.068,0,0,1-1.46-3.8V15.7a6.383,6.383,0,0,1,.615-2.847,4.515,4.515,0,0,1,1.743-1.934,4.893,4.893,0,0,1,2.573-.679,4.385,4.385,0,0,1,3.413,1.367,5.555,5.555,0,0,1,1.245,3.877v1.152H59.153a2.622,2.622,0,0,0,.825,1.66,2.5,2.5,0,0,0,1.743.625,3.046,3.046,0,0,0,2.549-1.182l1.387,1.553a4.237,4.237,0,0,1-1.719,1.4A5.639,5.639,0,0,1,61.536,21.2Zm-.322-8.682a1.764,1.764,0,0,0-1.362.569,2.946,2.946,0,0,0-.669,1.628h3.926v-.226a2.1,2.1,0,0,0-.508-1.457A1.819,1.819,0,0,0,61.214,12.514Zm12.207.566A7.667,7.667,0,0,0,72.405,13a2.067,2.067,0,0,0-2.1,1.084V21H67.483V10.434h2.666l.078,1.26a2.615,2.615,0,0,1,2.354-1.455,2.957,2.957,0,0,1,.879.127Z" transform="translate(-4207 -8572.37)" fill="#12263f"/>
    <path id="Trazado_171285" data-name="Trazado 171285" d="M18.974,17.475,22.2,6.781h3.262L20.507,21H17.45L12.519,6.781h3.252Zm12.5,3.721a5.187,5.187,0,0,1-3.784-1.426,5.068,5.068,0,0,1-1.46-3.8V15.7a6.383,6.383,0,0,1,.615-2.847,4.515,4.515,0,0,1,1.743-1.934,4.893,4.893,0,0,1,2.573-.679,4.385,4.385,0,0,1,3.413,1.367,5.555,5.555,0,0,1,1.245,3.877v1.152H29.091a2.622,2.622,0,0,0,.825,1.66,2.5,2.5,0,0,0,1.743.625,3.046,3.046,0,0,0,2.549-1.182l1.387,1.553a4.237,4.237,0,0,1-1.719,1.4A5.639,5.639,0,0,1,31.474,21.2Zm-.322-8.682a1.764,1.764,0,0,0-1.362.569,2.946,2.946,0,0,0-.669,1.628h3.926v-.226a2.1,2.1,0,0,0-.508-1.457A1.819,1.819,0,0,0,31.151,12.514Zm12.207.566A7.667,7.667,0,0,0,42.343,13a2.067,2.067,0,0,0-2.1,1.084V21H37.421V10.434h2.666l.078,1.26a2.615,2.615,0,0,1,2.354-1.455,2.957,2.957,0,0,1,.879.127ZM47.694,21H44.862V10.434h2.832Zm-3-13.3a1.39,1.39,0,0,1,.425-1.045,1.831,1.831,0,0,1,2.31,0A1.382,1.382,0,0,1,47.86,7.7a1.386,1.386,0,0,1-.435,1.055,1.81,1.81,0,0,1-2.295,0A1.386,1.386,0,0,1,44.7,7.7ZM50.7,21V12.5H49.13v-2.07H50.7V9.945a3.963,3.963,0,0,1,1.226-3.071,4.931,4.931,0,0,1,3.4-1.079,11.289,11.289,0,0,1,3.2.576l-.41,2.334a12.5,12.5,0,0,0-1.484-.366,7.293,7.293,0,0,0-1.133-.083q-1.973,0-1.973,1.748v.43h2.08V12.5h-2.08V21Zm9.15,0H57.021V10.434h2.832Zm6.729-2.08a1.851,1.851,0,0,0,1.27-.43,1.506,1.506,0,0,0,.508-1.143H71a3.62,3.62,0,0,1-.586,1.968A3.866,3.866,0,0,1,68.842,20.7a4.936,4.936,0,0,1-2.212.493,4.587,4.587,0,0,1-3.574-1.44,5.7,5.7,0,0,1-1.309-3.979V15.59a5.635,5.635,0,0,1,1.3-3.9,4.534,4.534,0,0,1,3.564-1.455,4.444,4.444,0,0,1,3.179,1.128,3.994,3.994,0,0,1,1.216,3H68.358a1.939,1.939,0,0,0-.508-1.34,1.887,1.887,0,0,0-2.778.2,4.166,4.166,0,0,0-.5,2.333v.293a4.219,4.219,0,0,0,.5,2.347A1.721,1.721,0,0,0,66.581,18.92ZM78.739,21a3.134,3.134,0,0,1-.283-.947A3.415,3.415,0,0,1,75.79,21.2a3.752,3.752,0,0,1-2.573-.9A2.89,2.89,0,0,1,72.2,18.031a2.986,2.986,0,0,1,1.245-2.578,6.144,6.144,0,0,1,3.6-.908h1.3v-.605a1.741,1.741,0,0,0-.376-1.172,1.479,1.479,0,0,0-1.187-.439,1.682,1.682,0,0,0-1.118.342,1.161,1.161,0,0,0-.405.938H72.431a2.835,2.835,0,0,1,.566-1.7,3.744,3.744,0,0,1,1.6-1.226,5.837,5.837,0,0,1,2.324-.444,4.611,4.611,0,0,1,3.1.981,3.433,3.433,0,0,1,1.147,2.759v4.58a5.052,5.052,0,0,0,.42,2.275V21Zm-2.334-1.963a2.431,2.431,0,0,0,1.152-.278,1.828,1.828,0,0,0,.781-.747V16.2H77.284q-2.119,0-2.256,1.465l-.01.166a1.13,1.13,0,0,0,.371.869A1.441,1.441,0,0,0,76.405,19.037ZM89.276,13.08A7.667,7.667,0,0,0,88.261,13a2.067,2.067,0,0,0-2.1,1.084V21H83.339V10.434H86l.078,1.26a2.615,2.615,0,0,1,2.354-1.455,2.957,2.957,0,0,1,.879.127Z" transform="translate(-4204 -8308.37)" fill="#12263f"/>
    <path id="Trazado_171286" data-name="Trazado 171286" d="M30.37,18.07H25.233L24.257,21H21.142L26.435,6.781h2.715L34.472,21H31.356ZM26.024,15.7h3.555l-1.787-5.322ZM40.009,18.92a1.851,1.851,0,0,0,1.27-.43,1.506,1.506,0,0,0,.508-1.143h2.646a3.62,3.62,0,0,1-.586,1.968A3.866,3.866,0,0,1,42.27,20.7a4.936,4.936,0,0,1-2.212.493,4.587,4.587,0,0,1-3.574-1.44,5.7,5.7,0,0,1-1.309-3.979V15.59a5.635,5.635,0,0,1,1.3-3.9,4.534,4.534,0,0,1,3.564-1.455,4.444,4.444,0,0,1,3.179,1.128,3.994,3.994,0,0,1,1.216,3H41.786a1.939,1.939,0,0,0-.508-1.34,1.887,1.887,0,0,0-2.778.2,4.166,4.166,0,0,0-.5,2.333v.293a4.219,4.219,0,0,0,.5,2.347A1.721,1.721,0,0,0,40.009,18.92ZM49.423,7.836v2.6h1.807V12.5H49.423v5.273a1.259,1.259,0,0,0,.225.84,1.128,1.128,0,0,0,.859.254,4.5,4.5,0,0,0,.83-.068v2.139a5.81,5.81,0,0,1-1.709.254q-2.969,0-3.027-3V12.5H45.058v-2.07H46.6v-2.6Zm9.707,12.09a3.539,3.539,0,0,1-2.891,1.27,3.338,3.338,0,0,1-2.593-.977,4.169,4.169,0,0,1-.913-2.861V10.434h2.822v6.834q0,1.652,1.5,1.652a2.038,2.038,0,0,0,1.973-1V10.434h2.832V21H59.208ZM70.116,21a3.134,3.134,0,0,1-.283-.947A3.415,3.415,0,0,1,67.167,21.2a3.752,3.752,0,0,1-2.573-.9,2.89,2.89,0,0,1-1.021-2.266,2.986,2.986,0,0,1,1.245-2.578,6.144,6.144,0,0,1,3.6-.908h1.3v-.605a1.741,1.741,0,0,0-.376-1.172,1.479,1.479,0,0,0-1.187-.439,1.682,1.682,0,0,0-1.118.342,1.161,1.161,0,0,0-.405.938H63.808a2.835,2.835,0,0,1,.566-1.7,3.744,3.744,0,0,1,1.6-1.226,5.837,5.837,0,0,1,2.324-.444,4.611,4.611,0,0,1,3.1.981,3.433,3.433,0,0,1,1.147,2.759v4.58a5.052,5.052,0,0,0,.42,2.275V21Zm-2.334-1.963a2.431,2.431,0,0,0,1.152-.278,1.828,1.828,0,0,0,.781-.747V16.2H68.661q-2.119,0-2.256,1.465l-.01.166a1.13,1.13,0,0,0,.371.869A1.441,1.441,0,0,0,67.782,19.037ZM80.653,13.08A7.667,7.667,0,0,0,79.638,13a2.067,2.067,0,0,0-2.1,1.084V21H74.716V10.434h2.666l.078,1.26a2.615,2.615,0,0,1,2.354-1.455,2.957,2.957,0,0,1,.879.127Z" transform="translate(-4413.668 -8311.85)" fill="#12263f"/>
    <path id="Trazado_164521" data-name="Trazado 164521" d="M509.555,301.415a25.619,25.619,0,0,0,.4-4.638c0-19.882-20.747-35.991-46.349-35.991s-46.349,16.109-46.349,35.991a25.619,25.619,0,0,0,.4,4.638h-41V173.468a26.234,26.234,0,0,0,6.462.773c19.016,0,34.414-19.263,34.414-43.041s-15.4-43.041-34.414-43.041a26.234,26.234,0,0,0-6.462.773V40.913c143.841,0,260.472,116.631,260.472,260.5Z" transform="translate(-4636.063 -8794.427)" fill="#242ca3" opacity="0.402"/>
    <path id="Trazado_164522" data-name="Trazado 164522" d="M637.2,167.6c0,143.841-116.631,260.472-260.472,260.472V344.865a32.317,32.317,0,0,0,7.761.928c21.366,0,38.681-20.747,38.681-46.349s-17.315-46.349-38.681-46.349a32.318,32.318,0,0,0-7.761.928V167.6H441.2c-7.7-4.422-13.11-11.1-14.687-18.738a21.1,21.1,0,0,1-.495-4.638c0-16.079,16.759-29.1,37.444-29.1s37.475,13.017,37.475,29.1a21.1,21.1,0,0,1-.495,4.638c-1.577,7.637-6.988,14.316-14.687,18.738Z" transform="translate(-4635.916 -8639.168)" fill="#febf10" opacity="0.402"/>
    <path id="Trazado_164523" data-name="Trazado 164523" d="M602.723,265.657c0,20.686-14.007,37.444-31.26,37.444a27.248,27.248,0,0,1-7.761-1.144,31.72,31.72,0,0,1-17.1-13.636V391.75c-143.872,0-260.5-116.631-260.5-260.472h78.321a27.723,27.723,0,0,0-.742,6.431c0,19.882,20.253,35.96,45.205,35.96s45.174-16.079,45.174-35.96a27.723,27.723,0,0,0-.742-6.431H546.6V242.962a31.719,31.719,0,0,1,17.1-13.636,27.252,27.252,0,0,1,7.761-1.144C588.716,228.182,602.723,244.972,602.723,265.657Z" transform="translate(-4825.516 -8605.382)" fill="#242ca3" opacity="0.402"/>
    <path id="Trazado_164524" data-name="Trazado 164524" d="M597.634,131.2c0,19.016-12.306,34.414-27.519,34.414a22.544,22.544,0,0,1-6.462-.959c-7.235-2.164-13.388-7.916-17.13-15.677V301.415H434.406c5.906,4.205,10.173,9.833,11.9,16.2a24.812,24.812,0,0,1,.866,6.431c0,16.759-17.068,30.364-38.125,30.364s-38.155-13.6-38.155-30.364a24.817,24.817,0,0,1,.866-6.431c1.732-6.37,6-12,11.935-16.2H286.02c0-143.872,116.631-260.5,260.5-260.5V113.39c3.742-7.761,9.894-13.512,17.13-15.677a22.544,22.544,0,0,1,6.462-.959C585.327,96.755,597.634,112.184,597.634,131.2Z" transform="translate(-4825.683 -8794.427)" fill="#febf10" opacity="0.402"/>
    <path id="Trazado_164529" data-name="Trazado 164529" d="M-1663.263-9734.774s-112.243-1.795-200.6,84.775-81.483,202.972-81.483,202.972" transform="translate(-2618.339 955.7)" fill="none" stroke="#f9e424" stroke-width="3"/>
    <path id="Trazado_171287" data-name="Trazado 171287" d="M7.2,0l7.2,20.172H0Z" transform="translate(-4261.984 -8786.601) rotate(90)" fill="#f9e424"/>
    <path id="Trazado_164530" data-name="Trazado 164530" d="M-1945.475-9447.031s112.243,1.795,200.6-84.775,81.483-202.973,81.483-202.973" transform="translate(-2310.923 1262.291)" fill="none" stroke="#f9e424" stroke-width="3"/>
    <path id="Trazado_171288" data-name="Trazado 171288" d="M7.2,0l7.2,20.172H0Z" transform="translate(-4276.015 -8177.214) rotate(-90)" fill="#f9e424"/>
    <g id="Trazado_171289" data-name="Trazado 171289" transform="translate(-4406.668 -8412.37)" fill="#fff">
      <path d="M 44 86 C 38.32915878295898 86 32.82899856567383 84.88980102539062 27.65232086181641 82.70025634765625 C 22.65122604370117 80.58497619628906 18.15936088562012 77.55633544921875 14.30152034759521 73.69847869873047 C 10.44366645812988 69.84063720703125 7.415026664733887 65.34877014160156 5.299746513366699 60.34767913818359 C 3.110199928283691 55.17100143432617 2 49.67084121704102 2 44 C 2 38.32915878295898 3.110199928283691 32.82899856567383 5.299746513366699 27.65232086181641 C 7.415026664733887 22.65122604370117 10.44366645812988 18.15936088562012 14.30152034759521 14.30152034759521 C 18.15936088562012 10.44366645812988 22.65122604370117 7.415026664733887 27.65232086181641 5.299746513366699 C 32.82899856567383 3.110199928283691 38.32915878295898 2 44 2 C 49.67084121704102 2 55.17100143432617 3.110199928283691 60.34767913818359 5.299746513366699 C 65.34877014160156 7.415026664733887 69.84063720703125 10.44366645812988 73.69847869873047 14.30152034759521 C 77.55633544921875 18.15936088562012 80.58497619628906 22.65122604370117 82.70025634765625 27.65232086181641 C 84.88980102539062 32.82899856567383 86 38.32915878295898 86 44 C 86 49.67084121704102 84.88980102539062 55.17100143432617 82.70025634765625 60.34767913818359 C 80.58497619628906 65.34877014160156 77.55633544921875 69.84063720703125 73.69847869873047 73.69847869873047 C 69.84063720703125 77.55633544921875 65.34877014160156 80.58497619628906 60.34767913818359 82.70025634765625 C 55.17100143432617 84.88980102539062 49.67084121704102 86 44 86 Z" stroke="none"/>
      <path d="M 44 4 C 38.5982780456543 4 33.36024475097656 5.057044982910156 28.43143081665039 7.141754150390625 C 23.66872406005859 9.156196594238281 19.39055633544922 12.04090881347656 15.71573638916016 15.71573638916016 C 12.04090881347656 19.39055633544922 9.156196594238281 23.66872406005859 7.141754150390625 28.43143081665039 C 5.057044982910156 33.36024475097656 4 38.5982780456543 4 44 C 4 49.4017219543457 5.057044982910156 54.63975524902344 7.141754150390625 59.56856918334961 C 9.156196594238281 64.33127593994141 12.04090881347656 68.60944366455078 15.71573638916016 72.28426361083984 C 19.39055633544922 75.95909118652344 23.66872406005859 78.84379577636719 28.43143081665039 80.85824584960938 C 33.36024475097656 82.94295501708984 38.5982780456543 84 44 84 C 49.4017219543457 84 54.63975524902344 82.94295501708984 59.56856918334961 80.85824584960938 C 64.33127593994141 78.84379577636719 68.60944366455078 75.95909118652344 72.28426361083984 72.28426361083984 C 75.95909118652344 68.60944366455078 78.84379577636719 64.33127593994141 80.85824584960938 59.56856918334961 C 82.94295501708984 54.63975524902344 84 49.4017219543457 84 44 C 84 38.5982780456543 82.94295501708984 33.36024475097656 80.85824584960938 28.43143081665039 C 78.84379577636719 23.66872406005859 75.95909118652344 19.39055633544922 72.28426361083984 15.71573638916016 C 68.60944366455078 12.04090881347656 64.33127593994141 9.156196594238281 59.56856918334961 7.141754150390625 C 54.63975524902344 5.057044982910156 49.4017219543457 4 44 4 M 44 0 C 68.30052185058594 0 88 19.69947814941406 88 44 C 88 68.30052185058594 68.30052185058594 88 44 88 C 19.69947814941406 88 0 68.30052185058594 0 44 C 0 19.69947814941406 19.69947814941406 0 44 0 Z" stroke="none" fill="#2631a0"/>
    </g>
    <path id="Trazado_170593" data-name="Trazado 170593" d="M14.974,59.78A2.981,2.981,0,0,1,12,56.792V9.988A2.981,2.981,0,0,1,14.974,7H48.683a2.981,2.981,0,0,1,2.974,2.988v46.8a2.981,2.981,0,0,1-2.974,2.988Z" transform="translate(-4394.496 -8401.767)" fill="#242ca3"/>
    <path id="Trazado_170594" data-name="Trazado 170594" d="M47.717,12H15.991A.994.994,0,0,0,15,13V56.813a.994.994,0,0,0,.991,1H47.717a.994.994,0,0,0,.991-1V13A.994.994,0,0,0,47.717,12Z" transform="translate(-4394.522 -8401.787)" fill="#00325a"/>
    <path id="Trazado_170595" data-name="Trazado 170595" d="M47.717,12H15.991A.994.994,0,0,0,15,13V55.817a.994.994,0,0,0,.991,1H47.717a.994.994,0,0,0,.991-1V13A.994.994,0,0,0,47.717,12Z" transform="translate(-4394.522 -8401.787)" fill="#f0f0f0"/>
    <path id="Trazado_171290" data-name="Trazado 171290" d="M14.871,0A14.938,14.938,0,1,1,0,14.938,14.9,14.9,0,0,1,14.871,0Z" transform="translate(-4377.539 -8382.318)" fill="#d2d2d2"/>
    <path id="Trazado_170596" data-name="Trazado 170596" d="M41.828,11v2.988a1,1,0,0,1-.991,1H22.991a1,1,0,0,1-.991-1V11Z" transform="translate(-4394.582 -8401.783)" fill="#d2d2d2"/>
    <path id="Trazado_170597" data-name="Trazado 170597" d="M37.9,5.992V7.983H26V5.992A1.993,1.993,0,0,1,27.983,4h7.931A1.993,1.993,0,0,1,37.9,5.992Z" transform="translate(-4394.616 -8401.754)" fill="#febf10"/>
    <path id="Trazado_170598" data-name="Trazado 170598" d="M40.837,13.975H22.991a.994.994,0,0,1-.991-1V9a.994.994,0,0,1,.991-1H40.837a.994.994,0,0,1,.991,1v3.983A.994.994,0,0,1,40.837,13.975Z" transform="translate(-4394.582 -8401.771)" fill="#febf10"/>
    <path id="Trazado_170599" data-name="Trazado 170599" d="M26,7H37.9V8H26Z" transform="translate(-4394.616 -8401.767)" fill="#dc9600"/>
    <path id="Trazado_171291" data-name="Trazado 171291" d="M1.487,0A1.494,1.494,0,1,1,0,1.494,1.49,1.49,0,0,1,1.487,0Z" transform="translate(-4369.607 -8392.277)" fill="#dc9600"/>
    <path id="Trazado_171292" data-name="Trazado 171292" d="M1.487,0A1.494,1.494,0,1,1,0,1.494,1.49,1.49,0,0,1,1.487,0Z" transform="translate(-4358.702 -8392.277)" fill="#dc9600"/>
    <path id="Trazado_170600" data-name="Trazado 170600" d="M46.871,34.456H32L42.509,23.9A14.888,14.888,0,0,1,46.871,34.456Z" transform="translate(-4394.667 -8401.837)" fill="#00a0c8"/>
    <path id="Trazado_170601" data-name="Trazado 170601" d="M46.871,34.456H32L42.509,23.9A14.888,14.888,0,0,1,46.871,34.456Z" transform="translate(-4394.667 -8401.837)" fill="#313eff"/>
    <path id="Trazado_170602" data-name="Trazado 170602" d="M40.2,28.7l-.04.04a9.123,9.123,0,0,0-1.091-1.315L39.5,27a1,1,0,0,1,.7.289A1.007,1.007,0,0,1,40.2,28.7Z" transform="translate(-4394.728 -8401.85)" fill="#0082aa"/>
    <path id="Trazado_170603" data-name="Trazado 170603" d="M42.509,23.882,32,34.438V19.5A14.755,14.755,0,0,1,42.509,23.882Z" transform="translate(-4394.667 -8401.818)" fill="#242ca3"/>
    <path id="Trazado_170604" data-name="Trazado 170604" d="M31.909,19.5V34.438L21.4,23.882A14.755,14.755,0,0,1,31.909,19.5Z" transform="translate(-4394.577 -8401.818)" fill="#febf10"/>
    <path id="Trazado_170605" data-name="Trazado 170605" d="M31.871,34.456H17A14.888,14.888,0,0,1,21.362,23.9Z" transform="translate(-4394.539 -8401.837)" fill="#ff004c"/>
    <path id="Trazado_171293" data-name="Trazado 171293" d="M9.914,0A9.959,9.959,0,1,1,0,9.958,9.936,9.936,0,0,1,9.914,0Z" transform="translate(-4372.582 -8377.339)" fill="#f0f0f0"/>
    <path id="Trazado_170606" data-name="Trazado 170606" d="M34.651,34.181a2.967,2.967,0,1,1-2.677-1.7,2.944,2.944,0,0,1,1.279.3l5.453-5.487c.02-.02.05-.04.069-.06a9.422,9.422,0,0,1,1.3,1.514Z" transform="translate(-4394.642 -8401.851)" fill="#d2d2d2"/>
    <path id="Trazado_170607" data-name="Trazado 170607" d="M31.293,33.761l7.436-7.469a.987.987,0,0,1,1.4,0,1,1,0,0,1,0,1.408l-7.436,7.469Z" transform="translate(-4394.662 -8401.845)" fill="#c80a50"/>
    <path id="Trazado_171294" data-name="Trazado 171294" d="M2.974,0A2.988,2.988,0,1,1,0,2.988,2.981,2.981,0,0,1,2.974,0Z" transform="translate(-4365.642 -8370.368)" fill="#0a5078"/>
    <path id="Trazado_171295" data-name="Trazado 171295" d="M.991,0A1,1,0,1,1,0,1,.994.994,0,0,1,.991,0Z" transform="translate(-4363.659 -8367.381)" fill="#00325a"/>
    <path id="Trazado_171296" data-name="Trazado 171296" d="M.991,0A1,1,0,1,1,0,1,.994.994,0,0,1,.991,0Z" transform="translate(-4363.659 -8368.376)" fill="#fab400"/>
    <path id="Trazado_170608" data-name="Trazado 170608" d="M28,40v1a.994.994,0,0,0,.991,1H34.94a.994.994,0,0,0,.991-1V40a.994.994,0,0,0-.991-1H28.991A.994.994,0,0,0,28,40Z" transform="translate(-4394.633 -8401.899)" fill="#313efb"/>
    <g id="Trazado_171297" data-name="Trazado 171297" transform="translate(-4406.668 -8667.37)" fill="#fff">
      <path d="M 44 86 C 38.32915878295898 86 32.82899856567383 84.88980102539062 27.65232086181641 82.70025634765625 C 22.65122604370117 80.58497619628906 18.15936088562012 77.55633544921875 14.30152034759521 73.69847869873047 C 10.44366645812988 69.84063720703125 7.415026664733887 65.34877014160156 5.299746513366699 60.34767913818359 C 3.110199928283691 55.17100143432617 2 49.67084121704102 2 44 C 2 38.32915878295898 3.110199928283691 32.82899856567383 5.299746513366699 27.65232086181641 C 7.415026664733887 22.65122604370117 10.44366645812988 18.15936088562012 14.30152034759521 14.30152034759521 C 18.15936088562012 10.44366645812988 22.65122604370117 7.415026664733887 27.65232086181641 5.299746513366699 C 32.82899856567383 3.110199928283691 38.32915878295898 2 44 2 C 49.67084121704102 2 55.17100143432617 3.110199928283691 60.34767913818359 5.299746513366699 C 65.34877014160156 7.415026664733887 69.84063720703125 10.44366645812988 73.69847869873047 14.30152034759521 C 77.55633544921875 18.15936088562012 80.58497619628906 22.65122604370117 82.70025634765625 27.65232086181641 C 84.88980102539062 32.82899856567383 86 38.32915878295898 86 44 C 86 49.67084121704102 84.88980102539062 55.17100143432617 82.70025634765625 60.34767913818359 C 80.58497619628906 65.34877014160156 77.55633544921875 69.84063720703125 73.69847869873047 73.69847869873047 C 69.84063720703125 77.55633544921875 65.34877014160156 80.58497619628906 60.34767913818359 82.70025634765625 C 55.17100143432617 84.88980102539062 49.67084121704102 86 44 86 Z" stroke="none"/>
      <path d="M 44 4 C 38.5982780456543 4 33.36024475097656 5.057044982910156 28.43143081665039 7.141754150390625 C 23.66872406005859 9.156196594238281 19.39055633544922 12.04090881347656 15.71573638916016 15.71573638916016 C 12.04090881347656 19.39055633544922 9.156196594238281 23.66872406005859 7.141754150390625 28.43143081665039 C 5.057044982910156 33.36024475097656 4 38.5982780456543 4 44 C 4 49.4017219543457 5.057044982910156 54.63975524902344 7.141754150390625 59.56856918334961 C 9.156196594238281 64.33127593994141 12.04090881347656 68.60944366455078 15.71573638916016 72.28426361083984 C 19.39055633544922 75.95909118652344 23.66872406005859 78.84379577636719 28.43143081665039 80.85824584960938 C 33.36024475097656 82.94295501708984 38.5982780456543 84 44 84 C 49.4017219543457 84 54.63975524902344 82.94295501708984 59.56856918334961 80.85824584960938 C 64.33127593994141 78.84379577636719 68.60944366455078 75.95909118652344 72.28426361083984 72.28426361083984 C 75.95909118652344 68.60944366455078 78.84379577636719 64.33127593994141 80.85824584960938 59.56856918334961 C 82.94295501708984 54.63975524902344 84 49.4017219543457 84 44 C 84 38.5982780456543 82.94295501708984 33.36024475097656 80.85824584960938 28.43143081665039 C 78.84379577636719 23.66872406005859 75.95909118652344 19.39055633544922 72.28426361083984 15.71573638916016 C 68.60944366455078 12.04090881347656 64.33127593994141 9.156196594238281 59.56856918334961 7.141754150390625 C 54.63975524902344 5.057044982910156 49.4017219543457 4 44 4 M 44 0 C 68.30052185058594 0 88 19.69947814941406 88 44 C 88 68.30052185058594 68.30052185058594 88 44 88 C 19.69947814941406 88 0 68.30052185058594 0 44 C 0 19.69947814941406 19.69947814941406 0 44 0 Z" stroke="none" fill="#2631a0"/>
    </g>
    <path id="Trazado_170609" data-name="Trazado 170609" d="M0,153.769H54.671a2.321,2.321,0,0,1,1.875,1.878v29.7a2.321,2.321,0,0,1-1.875,1.878H5.438A5.437,5.437,0,0,1,0,181.788Z" transform="translate(-4390.941 -8791.322)" fill="#e1f1ff" fill-rule="evenodd"/>
    <path id="Trazado_170610" data-name="Trazado 170610" d="M5.438,55.321A5.439,5.439,0,0,0,0,60.759V94.213a5.439,5.439,0,0,1,5.438-5.438,5.105,5.105,0,0,1,2.7.714.376.376,0,0,0,.579-.354V57.112a1.314,1.314,0,0,0-.661-1.121A5.381,5.381,0,0,0,5.438,55.321Z" transform="translate(-4390.941 -8703.747)" fill="#cbe2ff" fill-rule="evenodd"/>
    <path id="Trazado_170611" data-name="Trazado 170611" d="M120.85,193.2h8.118a.83.83,0,0,1,.83.826v8.121a.831.831,0,0,1-.83.83H120.85a.831.831,0,0,1-.83-.83v-8.121A.83.83,0,0,1,120.85,193.2Z" transform="translate(-4497.706 -8826.396)" fill="#cbe2ff" fill-rule="evenodd"/>
    <path id="Trazado_170612" data-name="Trazado 170612" d="M255.252,193.085a.828.828,0,0,1,0,1.656H243.7a.828.828,0,0,1,0-1.656Zm-4.8,8.146a.828.828,0,0,1,0,1.656H243.7a.828.828,0,0,1,0-1.656Zm4.8-4.073a.828.828,0,0,1,0,1.656H243.7a.828.828,0,0,1,0-1.656Z" transform="translate(-4606.994 -8826.296)" fill="#365e7d"/>
    <path id="Trazado_170613" data-name="Trazado 170613" d="M412.027,102.457l-3.81-1.158-3.481,1.158v27.184l3.669.952,3.622-.952Z" transform="translate(-4750.977 -8744.646)" fill="#febf10" fill-rule="evenodd"/>
    <path id="Trazado_170614" data-name="Trazado 170614" d="M408.839,364.191l1.365-2.683,1.822-3.588h-7.292l1.822,3.588,1.362,2.683A.5.5,0,0,0,408.839,364.191Z" transform="translate(-4750.975 -8972.926)" fill="#ffdecf" fill-rule="evenodd"/>
    <path id="Trazado_170615" data-name="Trazado 170615" d="M412.027,61.557v-4a2.237,2.237,0,0,0-2.229-2.232h-2.833a2.237,2.237,0,0,0-2.229,2.232v4Z" transform="translate(-4750.977 -8703.747)" fill="#ff8793" fill-rule="evenodd"/>
    <path id="Trazado_170616" data-name="Trazado 170616" d="M112.858,379.673h5.56l.911-3.021-.911-2.348h-5.56a1.74,1.74,0,0,0-1.4,1.4v2.57A1.74,1.74,0,0,0,112.858,379.673Z" transform="translate(-4490.09 -8987.5)" fill="#f9e424" fill-rule="evenodd"/>
    <path id="Trazado_170617" data-name="Trazado 170617" d="M174.475,333.654h6.956l.955-3.434-.955-5.278v-.974a1.725,1.725,0,0,0-1.4-1.4h-4.164a1.725,1.725,0,0,0-1.4,1.4Z" transform="translate(-4546.146 -8941.48)" fill="#242ca3" fill-rule="evenodd"/>
    <path id="Trazado_170618" data-name="Trazado 170618" d="M237.461,352.742h6.96l.7-2.317-.7-3.052v-1.947a1.725,1.725,0,0,0-1.4-1.4h-5.56Z" transform="translate(-4602.176 -8960.569)" fill="#f9e424" fill-rule="evenodd"/>
    <path id="Trazado_170619" data-name="Trazado 170619" d="M300.476,379.673h5.56a1.732,1.732,0,0,0,1.4-1.4V375.7a1.732,1.732,0,0,0-1.4-1.4h-5.56Z" transform="translate(-4658.232 -8987.5)" fill="#242ca3" fill-rule="evenodd"/>
    <path id="Trazado_170620" data-name="Trazado 170620" d="M429.738,147.087a.886.886,0,0,1,1.769,0V165a.886.886,0,0,1-1.769,0Z" transform="translate(-4773.218 -8784.64)" fill="#c4930a"/>
    <path id="Trazado_170621" data-name="Trazado 170621" d="M138.264,220.248a.828.828,0,1,1,1.171-1.171l.8.8,2.176-2.176a.828.828,0,0,1,1.171,1.171l-2.761,2.761a.824.824,0,0,1-1.171,0Z" transform="translate(-4513.718 -8847.975)" fill="#242ca3"/>
    <path id="Trazado_170622" data-name="Trazado 170622" d="M55.667,184.461H6.433a5.43,5.43,0,0,1-2.21-.466,5.445,5.445,0,0,0,4.971,3.228H58.428a2.321,2.321,0,0,0,1.875-1.878v-29.7a2.321,2.321,0,0,0-1.875-1.878h-.886v28.815A2.321,2.321,0,0,1,55.667,184.461Z" transform="translate(-4394.698 -8791.321)" fill="#cbe2ff" fill-rule="evenodd"/>
    <path id="Trazado_170623" data-name="Trazado 170623" d="M38.632,66.194V88.8a4.935,4.935,0,0,1,2.182.692.376.376,0,0,0,.579-.354V57.112a1.314,1.314,0,0,0-.661-1.121,5.381,5.381,0,0,0-2.614-.67,5.552,5.552,0,0,0-1.381.175,5.427,5.427,0,0,1,1.233.495,1.315,1.315,0,0,1,.661,1.121Z" transform="translate(-4423.622 -8703.747)" fill="#bed8fb" fill-rule="evenodd"/>
    <path id="Trazado_170624" data-name="Trazado 170624" d="M445.754,111.787v27.184h2.761V111.787Z" transform="translate(-4787.465 -8753.977)" fill="#f9e424" fill-rule="evenodd"/>
    <path id="Trazado_170625" data-name="Trazado 170625" d="M427.8,57.553v4h2.761v-4a2.237,2.237,0,0,0-2.229-2.232h-2.761A2.237,2.237,0,0,1,427.8,57.553Z" transform="translate(-4769.511 -8703.747)" fill="#f77b87" fill-rule="evenodd"/>
    <g id="Trazado_171298" data-name="Trazado 171298" transform="translate(-4203.668 -8667.37)" fill="#fff">
      <path d="M 44 86 C 38.32915878295898 86 32.82899856567383 84.88980102539062 27.65232086181641 82.70025634765625 C 22.65122604370117 80.58497619628906 18.15936088562012 77.55633544921875 14.30152034759521 73.69847869873047 C 10.44366645812988 69.84063720703125 7.415026664733887 65.34877014160156 5.299746513366699 60.34767913818359 C 3.110199928283691 55.17100143432617 2 49.67084121704102 2 44 C 2 38.32915878295898 3.110199928283691 32.82899856567383 5.299746513366699 27.65232086181641 C 7.415026664733887 22.65122604370117 10.44366645812988 18.15936088562012 14.30152034759521 14.30152034759521 C 18.15936088562012 10.44366645812988 22.65122604370117 7.415026664733887 27.65232086181641 5.299746513366699 C 32.82899856567383 3.110199928283691 38.32915878295898 2 44 2 C 49.67084121704102 2 55.17100143432617 3.110199928283691 60.34767913818359 5.299746513366699 C 65.34877014160156 7.415026664733887 69.84063720703125 10.44366645812988 73.69847869873047 14.30152034759521 C 77.55633544921875 18.15936088562012 80.58497619628906 22.65122604370117 82.70025634765625 27.65232086181641 C 84.88980102539062 32.82899856567383 86 38.32915878295898 86 44 C 86 49.67084121704102 84.88980102539062 55.17100143432617 82.70025634765625 60.34767913818359 C 80.58497619628906 65.34877014160156 77.55633544921875 69.84063720703125 73.69847869873047 73.69847869873047 C 69.84063720703125 77.55633544921875 65.34877014160156 80.58497619628906 60.34767913818359 82.70025634765625 C 55.17100143432617 84.88980102539062 49.67084121704102 86 44 86 Z" stroke="none"/>
      <path d="M 44 4 C 38.5982780456543 4 33.36024475097656 5.057044982910156 28.43143081665039 7.141754150390625 C 23.66872406005859 9.156196594238281 19.39055633544922 12.04090881347656 15.71573638916016 15.71573638916016 C 12.04090881347656 19.39055633544922 9.156196594238281 23.66872406005859 7.141754150390625 28.43143081665039 C 5.057044982910156 33.36024475097656 4 38.5982780456543 4 44 C 4 49.4017219543457 5.057044982910156 54.63975524902344 7.141754150390625 59.56856918334961 C 9.156196594238281 64.33127593994141 12.04090881347656 68.60944366455078 15.71573638916016 72.28426361083984 C 19.39055633544922 75.95909118652344 23.66872406005859 78.84379577636719 28.43143081665039 80.85824584960938 C 33.36024475097656 82.94295501708984 38.5982780456543 84 44 84 C 49.4017219543457 84 54.63975524902344 82.94295501708984 59.56856918334961 80.85824584960938 C 64.33127593994141 78.84379577636719 68.60944366455078 75.95909118652344 72.28426361083984 72.28426361083984 C 75.95909118652344 68.60944366455078 78.84379577636719 64.33127593994141 80.85824584960938 59.56856918334961 C 82.94295501708984 54.63975524902344 84 49.4017219543457 84 44 C 84 38.5982780456543 82.94295501708984 33.36024475097656 80.85824584960938 28.43143081665039 C 78.84379577636719 23.66872406005859 75.95909118652344 19.39055633544922 72.28426361083984 15.71573638916016 C 68.60944366455078 12.04090881347656 64.33127593994141 9.156196594238281 59.56856918334961 7.141754150390625 C 54.63975524902344 5.057044982910156 49.4017219543457 4 44 4 M 44 0 C 68.30052185058594 0 88 19.69947814941406 88 44 C 88 68.30052185058594 68.30052185058594 88 44 88 C 19.69947814941406 88 0 68.30052185058594 0 44 C 0 19.69947814941406 19.69947814941406 0 44 0 Z" stroke="none" fill="#2631a0"/>
    </g>
    <path id="Trazado_170626" data-name="Trazado 170626" d="M32.957,41.994a13.247,13.247,0,0,1-.684,2.557l2.776,2.515a16.738,16.738,0,0,1-1.344,2.346l-3.564-1.149a13.337,13.337,0,0,1-1.879,1.878l1.149,3.564a16.826,16.826,0,0,1-2.346,1.344L24.55,52.274a13.23,13.23,0,0,1-2.557.684L21.2,56.624c-.448.035-.9.068-1.355.068s-.907-.033-1.356-.068L17.7,52.957a13.247,13.247,0,0,1-2.557-.684L12.626,55.05a16.737,16.737,0,0,1-2.346-1.344l1.149-3.564a13.379,13.379,0,0,1-1.878-1.878L5.987,49.412a16.826,16.826,0,0,1-1.344-2.346l2.776-2.515a13.23,13.23,0,0,1-.684-2.557L3.068,41.2C3.033,40.753,3,40.3,3,39.846s.033-.907.068-1.356L6.735,37.7a13.247,13.247,0,0,1,.684-2.557L4.643,32.626A16.737,16.737,0,0,1,5.987,30.28l3.564,1.149a13.337,13.337,0,0,1,1.879-1.878l-1.149-3.564a16.826,16.826,0,0,1,2.346-1.344l2.515,2.776a13.23,13.23,0,0,1,2.557-.684l.792-3.667c.448-.035.9-.068,1.355-.068s.907.033,1.356.068l.792,3.667a13.247,13.247,0,0,1,2.557.684l2.515-2.776a16.737,16.737,0,0,1,2.346,1.344l-1.149,3.564a13.337,13.337,0,0,1,1.878,1.879l3.564-1.149a16.826,16.826,0,0,1,1.344,2.346l-2.776,2.515a13.23,13.23,0,0,1,.684,2.557l3.667.792c.035.448.068.9.068,1.355s-.033.907-.068,1.356ZM19.846,30.98a8.867,8.867,0,1,0,8.867,8.867A8.866,8.866,0,0,0,19.846,30.98Z" transform="translate(-4188.366 -8653.393)" fill="#ff004c"/>
    <path id="Trazado_170627" data-name="Trazado 170627" d="M48.544,14.8A7.106,7.106,0,0,1,48,16.109l1.4,2.683A9.8,9.8,0,0,1,47.793,20.4L45.11,19a6.986,6.986,0,0,1-1.312.542l-.908,2.89a9.635,9.635,0,0,1-1.137.073,9.8,9.8,0,0,1-1.136-.072l-.908-2.89A7.046,7.046,0,0,1,38.4,19l-2.683,1.4A9.8,9.8,0,0,1,34.1,18.793l1.4-2.683a6.986,6.986,0,0,1-.542-1.312l-2.89-.908A9.635,9.635,0,0,1,32,12.753a9.8,9.8,0,0,1,.072-1.136l2.89-.908A7.045,7.045,0,0,1,35.5,9.4L34.1,6.714A9.8,9.8,0,0,1,35.713,5.1L38.4,6.5a6.986,6.986,0,0,1,1.312-.542l.908-2.89A9.635,9.635,0,0,1,41.753,3a9.8,9.8,0,0,1,1.136.072l.908,2.89a7.046,7.046,0,0,1,1.312.542l2.683-1.4A9.8,9.8,0,0,1,49.4,6.713L48,9.4a6.986,6.986,0,0,1,.542,1.312l2.89.908a9.635,9.635,0,0,1,.073,1.137,9.8,9.8,0,0,1-.072,1.136Zm-6.791-5.59A3.547,3.547,0,1,0,45.3,12.753,3.547,3.547,0,0,0,41.753,9.207Z" transform="translate(-4191.653 -8651.126)" fill="#febf10"/>
    <path id="Trazado_170628" data-name="Trazado 170628" d="M56.955,37.639a6.171,6.171,0,0,1-.575,1.394l.882,1.857a8.042,8.042,0,0,1-1.373,1.373l-1.857-.882a6.154,6.154,0,0,1-1.394.575l-.69,1.94a7.287,7.287,0,0,1-1.938,0l-.69-1.94a6.171,6.171,0,0,1-1.394-.575l-1.857.882A8.042,8.042,0,0,1,44.7,40.889l.882-1.857A6.164,6.164,0,0,1,45,37.64l-1.94-.69a7.294,7.294,0,0,1,0-1.939l1.94-.69a6.148,6.148,0,0,1,.575-1.393L44.7,31.071A8.042,8.042,0,0,1,46.07,29.7l1.857.882a6.154,6.154,0,0,1,1.394-.575l.69-1.94A7.768,7.768,0,0,1,50.98,28a7.941,7.941,0,0,1,.969.065l.69,1.94a6.171,6.171,0,0,1,1.394.575l1.857-.882a8.042,8.042,0,0,1,1.373,1.373l-.882,1.857a6.154,6.154,0,0,1,.575,1.394l1.94.69a7.287,7.287,0,0,1,0,1.938ZM50.98,33.32a2.66,2.66,0,1,0,2.66,2.66A2.66,2.66,0,0,0,50.98,33.32Z" transform="translate(-4192.9 -8653.96)" fill="#f9e424"/>
    <path id="Trazado_170629" data-name="Trazado 170629" d="M60.382,4.884l-5.3-1.06-1.06,5.3,1.739.348.478-2.387a13.3,13.3,0,0,1,1.313,5.759,13.158,13.158,0,0,1-2.917,8.312l1.384,1.109a15.085,15.085,0,0,0,1.749-16.1l2.27.454Z" transform="translate(-4194.149 -8651.22)" fill="#242ca3"/>
    <path id="Trazado_170630" data-name="Trazado 170630" d="M21.249,13.293,20,14.547l1.2,1.2c-.488-.031-.976-.059-1.465-.059a23.006,23.006,0,0,0-17.714,8.3l1.362,1.136a21.236,21.236,0,0,1,16.352-7.661c.451,0,.9.026,1.352.054L20,18.613l1.254,1.254,3.287-3.287Z" transform="translate(-4188.255 -8652.293)" fill="#242ca3"/>
    <g id="Trazado_171299" data-name="Trazado 171299" transform="translate(-4192.668 -8413.37)" fill="#fff">
      <path d="M 44 86 C 38.32915878295898 86 32.82899856567383 84.88980102539062 27.65232086181641 82.70025634765625 C 22.65122604370117 80.58497619628906 18.15936088562012 77.55633544921875 14.30152034759521 73.69847869873047 C 10.44366645812988 69.84063720703125 7.415026664733887 65.34877014160156 5.299746513366699 60.34767913818359 C 3.110199928283691 55.17100143432617 2 49.67084121704102 2 44 C 2 38.32915878295898 3.110199928283691 32.82899856567383 5.299746513366699 27.65232086181641 C 7.415026664733887 22.65122604370117 10.44366645812988 18.15936088562012 14.30152034759521 14.30152034759521 C 18.15936088562012 10.44366645812988 22.65122604370117 7.415026664733887 27.65232086181641 5.299746513366699 C 32.82899856567383 3.110199928283691 38.32915878295898 2 44 2 C 49.67084121704102 2 55.17100143432617 3.110199928283691 60.34767913818359 5.299746513366699 C 65.34877014160156 7.415026664733887 69.84063720703125 10.44366645812988 73.69847869873047 14.30152034759521 C 77.55633544921875 18.15936088562012 80.58497619628906 22.65122604370117 82.70025634765625 27.65232086181641 C 84.88980102539062 32.82899856567383 86 38.32915878295898 86 44 C 86 49.67084121704102 84.88980102539062 55.17100143432617 82.70025634765625 60.34767913818359 C 80.58497619628906 65.34877014160156 77.55633544921875 69.84063720703125 73.69847869873047 73.69847869873047 C 69.84063720703125 77.55633544921875 65.34877014160156 80.58497619628906 60.34767913818359 82.70025634765625 C 55.17100143432617 84.88980102539062 49.67084121704102 86 44 86 Z" stroke="none"/>
      <path d="M 44 4 C 38.5982780456543 4 33.36024475097656 5.057044982910156 28.43143081665039 7.141754150390625 C 23.66872406005859 9.156196594238281 19.39055633544922 12.04090881347656 15.71573638916016 15.71573638916016 C 12.04090881347656 19.39055633544922 9.156196594238281 23.66872406005859 7.141754150390625 28.43143081665039 C 5.057044982910156 33.36024475097656 4 38.5982780456543 4 44 C 4 49.4017219543457 5.057044982910156 54.63975524902344 7.141754150390625 59.56856918334961 C 9.156196594238281 64.33127593994141 12.04090881347656 68.60944366455078 15.71573638916016 72.28426361083984 C 19.39055633544922 75.95909118652344 23.66872406005859 78.84379577636719 28.43143081665039 80.85824584960938 C 33.36024475097656 82.94295501708984 38.5982780456543 84 44 84 C 49.4017219543457 84 54.63975524902344 82.94295501708984 59.56856918334961 80.85824584960938 C 64.33127593994141 78.84379577636719 68.60944366455078 75.95909118652344 72.28426361083984 72.28426361083984 C 75.95909118652344 68.60944366455078 78.84379577636719 64.33127593994141 80.85824584960938 59.56856918334961 C 82.94295501708984 54.63975524902344 84 49.4017219543457 84 44 C 84 38.5982780456543 82.94295501708984 33.36024475097656 80.85824584960938 28.43143081665039 C 78.84379577636719 23.66872406005859 75.95909118652344 19.39055633544922 72.28426361083984 15.71573638916016 C 68.60944366455078 12.04090881347656 64.33127593994141 9.156196594238281 59.56856918334961 7.141754150390625 C 54.63975524902344 5.057044982910156 49.4017219543457 4 44 4 M 44 0 C 68.30052185058594 0 88 19.69947814941406 88 44 C 88 68.30052185058594 68.30052185058594 88 44 88 C 19.69947814941406 88 0 68.30052185058594 0 44 C 0 19.69947814941406 19.69947814941406 0 44 0 Z" stroke="none" fill="#2631a0"/>
    </g>
    <path id="Trazado_170631" data-name="Trazado 170631" d="M10,2H49V55.185H10Z" transform="translate(-4178.169 -8399.053)" fill="#c8cded"/>
    <path id="Trazado_170632" data-name="Trazado 170632" d="M46.343,51.639V2H10V53.412H44.57A1.773,1.773,0,0,0,46.343,51.639Z" transform="translate(-4178.169 -8399.053)" fill="#e2e7f6"/>
    <path id="Trazado_170633" data-name="Trazado 170633" d="M15,33H45.138v1.773H15Z" transform="translate(-4178.737 -8402.574)" fill="#c8cded"/>
    <path id="Trazado_170634" data-name="Trazado 170634" d="M15,37H45.138v1.773H15Z" transform="translate(-4178.737 -8403.028)" fill="#c8cded"/>
    <path id="Trazado_170635" data-name="Trazado 170635" d="M23,40.864h2.659L29.2,37.319V32h.886a2.659,2.659,0,0,1,2.659,2.659v6.2h7.091a1.773,1.773,0,0,1,1.773,1.773V53.274a1.773,1.773,0,0,1-1.773,1.773H29.2l-3.546-1.773H23Z" transform="translate(-4179.646 -8402.46)" fill="#f2b9a1"/>
    <path id="Trazado_170636" data-name="Trazado 170636" d="M10,55.183H21.523V41H10" transform="translate(-4178.169 -8403.482)" fill="#ff4d82"/>
    <path id="Trazado_170637" data-name="Trazado 170637" d="M18.864,50.751V41H10V52.523h7.091A1.773,1.773,0,0,0,18.864,50.751Z" transform="translate(-4178.169 -8403.482)" fill="#ff004c"/>
    <path id="Trazado_170638" data-name="Trazado 170638" d="M35,53h7.978v1.773H35Z" transform="translate(-4181.008 -8404.845)" fill="#e29f88"/>
    <path id="Trazado_170639" data-name="Trazado 170639" d="M35,49h7.978v1.773H35Z" transform="translate(-4181.008 -8404.391)" fill="#e29f88"/>
    <path id="Trazado_170640" data-name="Trazado 170640" d="M35,45h7.978v1.773H35Z" transform="translate(-4181.008 -8403.937)" fill="#e29f88"/>
    <path id="Trazado_170642" data-name="Trazado 170642" d="M10,0A9.76,9.76,0,0,1,20,9.5,9.76,9.76,0,0,1,10,19,9.76,9.76,0,0,1,0,9.5,9.76,9.76,0,0,1,10,0Z" transform="translate(-4158.667 -8393.46)" fill="#242ca3"/>
    <path id="Trazado_170641" data-name="Trazado 170641" d="M25,18.091l3.546,3.546,8.864-8.864L35.637,11l-7.091,7.091-1.773-1.773Z" transform="translate(-4179.873 -8400.075)" fill="#f2f2f2"/>
    <path id="Trazado_171300" data-name="Trazado 171300" d="M43.52,0A43.52,43.52,0,1,1,0,43.52,43.52,43.52,0,0,1,43.52,0Z" transform="translate(-4102 -8721.769)" fill="#ff004c" opacity="0.5"/>
    <path id="Trazado_171301" data-name="Trazado 171301" d="M22.382,0A22.382,22.382,0,1,1,0,22.382,22.382,22.382,0,0,1,22.382,0Z" transform="translate(-4080.639 -8700.071)" fill="#ff004c"/>
    <path id="Trazado_171302" data-name="Trazado 171302" d="M6.468,0H-6.2V-2.514L-.222-8.887A14.751,14.751,0,0,0,1.6-11.235a3.773,3.773,0,0,0,.59-1.9,2.823,2.823,0,0,0-.622-1.936,2.245,2.245,0,0,0-1.777-.7,2.422,2.422,0,0,0-1.961.857,3.394,3.394,0,0,0-.717,2.253H-6.57a6.06,6.06,0,0,1,.806-3.085,5.682,5.682,0,0,1,2.279-2.19,6.926,6.926,0,0,1,3.339-.793,6.558,6.558,0,0,1,4.437,1.371A4.851,4.851,0,0,1,5.872-13.5,6.215,6.215,0,0,1,5.161-10.7,15.521,15.521,0,0,1,2.723-7.389l-4.2,4.431H6.468Z" transform="translate(-4058.718 -8669.342)" fill="#fff"/>
    <path id="Trazado_171303" data-name="Trazado 171303" d="M43.52,0A43.52,43.52,0,1,1,0,43.52,43.52,43.52,0,0,1,43.52,0Z" transform="translate(-4539.416 -8721.769)" fill="#ff004c" opacity="0.5"/>
    <path id="Trazado_171304" data-name="Trazado 171304" d="M22.382,0A22.382,22.382,0,1,1,0,22.382,22.382,22.382,0,0,1,22.382,0Z" transform="translate(-4518.055 -8700.071)" fill="#ff004c"/>
    <path id="Trazado_171305" data-name="Trazado 171305" d="M2.71,0H-.958V-14.143l-4.38,1.358v-2.983L2.317-18.51H2.71Z" transform="translate(-4496.133 -8669.342)" fill="#fff"/>
    <path id="Trazado_171306" data-name="Trazado 171306" d="M43.52,0A43.52,43.52,0,1,1,0,43.52,43.52,43.52,0,0,1,43.52,0Z" transform="translate(-4095.101 -8331.37)" fill="#ff004c" opacity="0.5"/>
    <path id="Trazado_171307" data-name="Trazado 171307" d="M22.382,0A22.382,22.382,0,1,1,0,22.382,22.382,22.382,0,0,1,22.382,0Z" transform="translate(-4073.74 -8309.673)" fill="#ff004c"/>
    <path id="Trazado_171308" data-name="Trazado 171308" d="M-2.469-10.867H-.514a2.755,2.755,0,0,0,2.069-.7,2.559,2.559,0,0,0,.673-1.854,2.262,2.262,0,0,0-.667-1.739A2.583,2.583,0,0,0-.273-15.78a2.707,2.707,0,0,0-1.765.578,1.847,1.847,0,0,0-.711,1.5H-6.417a4.512,4.512,0,0,1,.781-2.6,5.2,5.2,0,0,1,2.184-1.8,7.288,7.288,0,0,1,3.091-.647,6.911,6.911,0,0,1,4.6,1.4A4.786,4.786,0,0,1,5.9-13.47a3.889,3.889,0,0,1-.774,2.336A5.031,5.031,0,0,1,3.091-9.5,4.593,4.593,0,0,1,5.421-7.82,4.546,4.546,0,0,1,6.189-5.18a4.866,4.866,0,0,1-1.8,3.948A7.223,7.223,0,0,1-.362.254a6.849,6.849,0,0,1-4.526-1.46A4.768,4.768,0,0,1-6.646-5.065h3.669a2.126,2.126,0,0,0,.781,1.7A2.877,2.877,0,0,0-.273-2.7,2.891,2.891,0,0,0,1.777-3.4,2.388,2.388,0,0,0,2.52-5.23Q2.52-8-.527-8H-2.469Z" transform="translate(-4051.819 -8278.943)" fill="#fff"/>
    <path id="Trazado_171309" data-name="Trazado 171309" d="M43.52,0A43.52,43.52,0,1,1,0,43.52,43.52,43.52,0,0,1,43.52,0Z" transform="translate(-4531.94 -8331.37)" fill="#ff004c" opacity="0.5"/>
    <path id="Trazado_171310" data-name="Trazado 171310" d="M22.382,0A22.382,22.382,0,1,1,0,22.382,22.382,22.382,0,0,1,22.382,0Z" transform="translate(-4510.579 -8309.673)" fill="#ff004c"/>
    <path id="Trazado_171311" data-name="Trazado 171311" d="M4.653-6.957H6.748V-4H4.653V0H.984V-4H-6.6L-6.76-6.31.946-18.484H4.653Zm-7.757,0H.984v-6.525l-.241.419Z" transform="translate(-4488.658 -8278.943)" fill="#fff"/>
  </g>
</svg>
