<svg xmlns="http://www.w3.org/2000/svg" width="124" height="124" viewBox="0 0 124 124">
  <g id="Grupo_124191" data-name="Grupo 124191" transform="translate(-4902 9303.65)">
    <g id="Grupo_123839" data-name="Grupo 123839" transform="translate(4164 -11407.42)">
      <g id="Grupo_123836" data-name="Grupo 123836" transform="translate(-210 -1896.942)">
        <g id="Grupo_123828" data-name="Grupo 123828" transform="translate(-210 -4097.079)">
          <g id="Elipse_6020" data-name="Elipse 6020" transform="translate(1158 8097.791)" fill="#fff" stroke="#2631a0" stroke-width="4">
            <circle cx="62" cy="62" r="62" stroke="none"/>
            <circle cx="62" cy="62" r="60" fill="none"/>
          </g>
        </g>
      </g>
      <g id="Grupo_123461" data-name="Grupo 123461" transform="translate(-10.625 1754.135)">
        <path id="Trazado_166992" data-name="Trazado 166992" d="M1001.615,637c-.3.265-.234.654-.3.985a14.832,14.832,0,0,1-14.2,11.989c-9.273.1-18.547.03-27.821.031a1.646,1.646,0,0,1-.245-.036,1.09,1.09,0,0,1-.254-.767c-.013-2.836-.033-5.673.01-8.509a1.4,1.4,0,0,1,.077-.4.777.777,0,0,1,.176-.277,1.956,1.956,0,0,1,1.349-.283c2.407-.009,4.813,0,7.22-.007,1.054,0,1.114-.071,1.126-1.138.011-.885-.02-1.771.013-2.655.036-.949.243-1.14,1.206-1.185.221-.01.443-.007.664-.007q12.241,0,24.481,0a2.259,2.259,0,0,1,1.521.258l4.973.007Z" transform="translate(-148.428 -201.128)" fill="#34345a"/>
        <path id="Trazado_166993" data-name="Trazado 166993" d="M810.624,640.178q0,4.905,0,9.81c-.331.013-.662.037-.993.037-8.664,0-17.329-.112-25.99.036a15.21,15.21,0,0,1-15.4-12.622c-.026-.153.022-.343-.184-.42v-1.995l4.972-.007a1.6,1.6,0,0,1,1.107-.26q12.675-.006,25.349,0c1.217,0,1.4.2,1.423,1.4.016.859-.008,1.718.009,2.576.018.909.1,1,1.009,1.006,2.383.014,4.765-.005,7.147.011A1.827,1.827,0,0,1,810.624,640.178Z" transform="translate(0 -201.152)" fill="#454572"/>
        <path id="Trazado_166994" data-name="Trazado 166994" d="M828.075,439.034a74.477,74.477,0,0,0-8.118-.157c-1.857-.04-1.858-.008-1.858-1.882,0-.775-.036-1.552.012-2.325.039-.621-.172-.807-.8-.8-3.212.028-6.423.014-9.635.013l-17.194-.007c.009-.359.025-.719.025-1.079q0-27.717-.016-55.434c0-.794.128-1.066,1.014-1.064,11.913.035,23.826.023,35.739.025.276,0,.552.024.828.036a1.431,1.431,0,0,1,.265,1.019c.011.8,0,1.606.006,2.409.011,1.045.076,1.106,1.149,1.122.277,0,.554,0,.831,0q14.456,0,28.911.015c.489,0,1.134-.271,1.432.442a1.282,1.282,0,0,1-.941.244c-10.491,0-20.983.024-31.474-.009-.055,0-.111-.006-.166-.008-1.883.051-3.766.02-5.649.021q-12.463.007-24.926,0c-.194,0-.388,0-.582,0-1.129.011-1.171.043-1.171,1.167q-.005,10.635,0,21.269,0,11.465,0,22.93c0,.277.012.555,0,.831-.021.557.233.816.792.8.3-.008.609,0,.914,0q14.54,0,29.08,0a2.506,2.506,0,0,1,1.533.231,1.676,1.676,0,0,1,.261,1.186c.009,2.6,0,5.2,0,7.8a1.979,1.979,0,0,1-.271,1.192Z" transform="translate(-17.451 -0.008)" fill="#565685"/>
        <path id="Trazado_166995" data-name="Trazado 166995" d="M960,439.026q0-5.065,0-10.129l.119-.116a3.109,3.109,0,0,1,1.47-.163q14.536-.007,29.072,0c1.65,0,1.651,0,1.651-1.617q0-22.011.006-44.022a2.376,2.376,0,0,1,.243-1.6c-.274-.367-.667-.191-1-.191q-15.246-.016-30.492-.009c-1.071,0-1.071,0-1.071-1.082q0-1.869,0-3.739c.276-.013.552-.038.828-.038,11.914,0,23.828.01,35.742-.026.886,0,1.012.269,1.011,1.062q-.033,27.761-.016,55.522c0,.332.017.664.025,1-8.862,0-17.724.018-26.586-.014-.861,0-1.1.234-1.044,1.066.073,1.047-.016,2.1.03,3.155.027.622-.175.808-.8.8-2.714-.031-5.428-.013-8.142-.013A1.889,1.889,0,0,0,960,439.026Z" transform="translate(-149.373)" fill="#454572"/>
        <path id="Trazado_166996" data-name="Trazado 166996" d="M845.648,446.5q-8.973-.011-17.945-.021c-4.6,0-9.2-.012-13.792.012-.628,0-.85-.129-.849-.815q.031-22.972.011-45.944c0-.48-.022-.828.664-.826q15.869.033,31.739.022a.507.507,0,0,1,.424.792q.03,2.986,0,5.971a1.362,1.362,0,0,1-.145.641.8.8,0,0,1-.716.315c-1.012.006-2,.228-3,.328a18.957,18.957,0,0,0-5.649,1.251A31.238,31.238,0,0,0,822,419.066c-1.065,1.383-2.046,2.827-3.117,4.205-.291.374-.471.714-.115,1.181,2.228,2.928,4.255,6.018,6.958,8.562a29.33,29.33,0,0,0,15.622,7.905,5.123,5.123,0,0,0,.831.023q1.458.14,2.908.328a.882.882,0,0,1,.655.277,11.253,11.253,0,0,1-.112,4.907Z" transform="translate(-35.02 -17.604)" fill="#feec4b"/>
        <path id="Trazado_166997" data-name="Trazado 166997" d="M959.953,406.49q0-3.714-.006-7.428,13.378-.01,26.756-.017c1.938,0,3.876.024,5.814.037q0,23.353.01,46.706c0,.494,0,.816-.676.814q-15.874-.033-31.748-.021a1.312,1.312,0,0,1-.165-.02q.007-2.467.014-4.933c.47-.446,1.1-.114,1.617-.339a4.38,4.38,0,0,1,.943-.073,24.137,24.137,0,0,0,14.307-4.59,31.927,31.927,0,0,0,9.845-11.813,1.549,1.549,0,0,0-.022-1.553,30.413,30.413,0,0,0-6.144-8.411,27.788,27.788,0,0,0-15.727-7.8c-.52-.07-1.044-.12-1.561-.211a5.326,5.326,0,0,0-1.428-.069,7.471,7.471,0,0,1-1.63-.091A.386.386,0,0,1,959.953,406.49Z" transform="translate(-149.328 -17.712)" fill="#feec4b"/>
        <path id="Trazado_166998" data-name="Trazado 166998" d="M899.438,467.593a7.945,7.945,0,0,1-1.718.162l-3.613-.367a16.571,16.571,0,0,1-13.051-11.241,17.639,17.639,0,0,1,9.476-22.2,15.59,15.59,0,0,1,3.406-.951,28.173,28.173,0,0,1,3.782-.379l.007.063a1.026,1.026,0,0,1,.247.77c.013,2.849.031,5.7-.009,8.547a1.431,1.431,0,0,1-.073.405c-.261.56-.823.5-1.29.582a7.265,7.265,0,0,0,.134,14.378c.462.058.969.02,1.164.6.175,1.824.042,3.652.078,5.477.017.913.029,1.828-.005,2.741-.026.7.1,1.209.959,1.172A.587.587,0,0,1,899.438,467.593Z" transform="translate(-87.094 -43.839)" fill="#fb7267"/>
        <path id="Trazado_166999" data-name="Trazado 166999" d="M860.11,434.306a18.851,18.851,0,0,0-6.3,2.861c-5.85,4.393-8.41,10.279-7.1,17.447,1.335,7.318,5.955,11.9,13.114,13.92.156.044.306.108.46.163a23.711,23.711,0,0,1-6.945-1.78,32.307,32.307,0,0,1-14.008-11.432c-.858-1.186-1.722-2.369-2.608-3.533-.234-.307-.3-.519-.048-.863,2.507-3.368,4.857-6.869,8.054-9.659a29.106,29.106,0,0,1,14.807-7.114A4.006,4.006,0,0,1,860.11,434.306Z" transform="translate(-53.266 -45.149)" fill="#fcf2f2"/>
        <path id="Trazado_167000" data-name="Trazado 167000" d="M959.989,442.812q0-4.968.009-9.936l1.764-.007c.458.144.951.012,1.407.178a16.4,16.4,0,0,1,12.422,8.978A17.7,17.7,0,0,1,964.54,467.5c-.646.178-1.317.1-1.959.268l-.872.024c-1.718-.083-1.718-.083-1.718-1.835q0-4.007,0-8.015a.431.431,0,0,1,.255-.276,7.273,7.273,0,0,0,4.272-1.609,7.284,7.284,0,0,0-2.2-12.586c-.732-.275-1.536-.226-2.249-.557Z" transform="translate(-149.365 -44.035)" fill="#e5225c"/>
        <path id="Trazado_167001" data-name="Trazado 167001" d="M971.683,468.147a22.487,22.487,0,0,0,5.475-1.837,17.509,17.509,0,0,0-3.443-32.449c-.477-.128-.964-.216-1.446-.324-.037-.145-.007-.22.159-.154a27.432,27.432,0,0,1,15.026,6,31.539,31.539,0,0,1,8.716,10.844.916.916,0,0,1,.056.926c-3.072,6.181-7.336,11.261-13.583,14.423A24.151,24.151,0,0,1,971.683,468.147Z" transform="translate(-158.467 -44.417)" fill="#eae3ef"/>
        <path id="Trazado_167002" data-name="Trazado 167002" d="M969.555,432.9l-.16.154-1.405-.287A3.278,3.278,0,0,1,969.555,432.9Z" transform="translate(-155.593 -43.935)" fill="#a7d5e9"/>
        <path id="Trazado_167003" data-name="Trazado 167003" d="M933.778,492.713l-.191.123a9.825,9.825,0,0,1-3.85-1.133,7.552,7.552,0,0,1-3.557-7.634,7.435,7.435,0,0,1,6.263-6.2c.381-.057.764-.108,1.145-.162l0,.07a1.264,1.264,0,0,1,.264,1.011c.014,4.423,0,8.845.012,13.268A2.872,2.872,0,0,1,933.778,492.713Z" transform="translate(-122.966 -78.932)" fill="#565685"/>
        <path id="Trazado_167004" data-name="Trazado 167004" d="M960.123,492.959c-.3-.263-.182-.618-.182-.934q-.013-7-.008-14a7.481,7.481,0,0,1,6.007,11.948A6.878,6.878,0,0,1,960.123,492.959Z" transform="translate(-149.31 -79.178)" fill="#454572"/>
      </g>
    </g>
  </g>
</svg>
