<svg xmlns="http://www.w3.org/2000/svg" xmlns:xlink="http://www.w3.org/1999/xlink" width="92" height="92" viewBox="0 0 92 92">
  <defs>
    <filter id="Rect치ngulo_41487" x="0" y="0" width="92" height="92" filterUnits="userSpaceOnUse">
      <feOffset dy="3" input="SourceAlpha"/>
      <feGaussianBlur stdDeviation="3" result="blur"/>
      <feFlood flood-opacity="0.161"/>
      <feComposite operator="in" in2="blur"/>
      <feComposite in="SourceGraphic"/>
    </filter>
  </defs>
  <g id="Grupo_124114" data-name="Grupo 124114" transform="translate(19027 10281)">
    <g id="Grupo_124076" data-name="Grupo 124076" transform="translate(-20289.332 -10572)">
      <g id="Grupo_109938" data-name="Grupo 109938">
        <g id="Grupo_123526" data-name="Grupo 123526">
          <g transform="matrix(1, 0, 0, 1, 1262.33, 291)" filter="url(#Rect치ngulo_41487)">
            <rect id="Rect치ngulo_41487-2" data-name="Rect치ngulo 41487" width="74" height="74" rx="23" transform="translate(9 6)" fill="#fff"/>
          </g>
        </g>
      </g>
      <g id="Grupo_118326" data-name="Grupo 118326" transform="translate(511.057 -39.091)">
        <path id="Trazado_165047" data-name="Trazado 165047" d="M880.3,371.525a13.849,13.849,0,0,1-.623-18.443,13.685,13.685,0,0,1,8.955-4.9c.084-.011.172-.009.213-.1h.617a1.052,1.052,0,0,0,.72,0h.308a1.052,1.052,0,0,0,.72,0h.617a12.255,12.255,0,0,0,1.775.389,13.87,13.87,0,0,1-1.113,27.183,13.278,13.278,0,0,1-1.989.182c-.054-.05-.091-.124-.048-.18.368-.484.606-1.051.983-1.529a9.263,9.263,0,0,1,1.494-.309,11.819,11.819,0,0,0,2.686-.942,7.2,7.2,0,0,0,1.414-.794,11.662,11.662,0,0,0,3.429-3.41,15.492,15.492,0,0,0,.77-1.346,12.975,12.975,0,0,0,1.23-4.623c.023-.5.028-.993.007-1.49-.12-.686-.158-1.382-.323-2.064a14.1,14.1,0,0,0-.911-2.541,9.471,9.471,0,0,0-.763-1.353,11.243,11.243,0,0,0-3.438-3.409,9.355,9.355,0,0,0-1.4-.819,12.868,12.868,0,0,0-3.669-1.1,6.387,6.387,0,0,0-.919-.054q-.7.02-1.407,0a11.723,11.723,0,0,0-4.6,1.143,16.709,16.709,0,0,0-1.478.844,11.827,11.827,0,0,0-3.355,3.393,6.893,6.893,0,0,0-.763,1.352,12.5,12.5,0,0,0-1.243,4.612q.009.742,0,1.483a12.485,12.485,0,0,0,1.24,4.616,9.509,9.509,0,0,0,.766,1.356,14.528,14.528,0,0,0,1.4,1.766c.129.148.332.265.258.517A2.6,2.6,0,0,1,880.3,371.525Z" transform="translate(-91.055 0)" fill="#febf10"/>
        <path id="Trazado_165048" data-name="Trazado 165048" d="M812.406,656.551a24.747,24.747,0,0,0-1.541-2.814c-.977-1.741-1.979-3.467-2.971-5.2a4.511,4.511,0,0,1,1.646-.222,8.531,8.531,0,0,0,5.476-3c.232-.263.372-.623.746-.744.233.012.293.21.386.368,1.242,2.108,2.442,4.242,3.669,6.359.091.157.231.313.1.517q-3.457,2.214-6.913,4.43c-.14.09-.318.135-.4.307Z" transform="translate(-31.892 -255.835)" fill="#4850cc"/>
        <path id="Trazado_165049" data-name="Trazado 165049" d="M859.719,508.394a6.72,6.72,0,0,1-.916,1.648c-.809.561-1.624,1.114-2.425,1.685-1.235.88-2.461,1.773-3.69,2.661-.08.058-.183.1-.183.253,1.507.183,3.016.373,4.527.544.277.032.561.208.843.01,1.492.1,2.966.355,4.451.519.169.019.337.041.506.056,1.744.26,3.5.448,5.246.673a.934.934,0,0,0,.628-.172c2.457-1.5,4.922-2.985,7.382-4.479a6.271,6.271,0,0,1,1.416-.712,5.7,5.7,0,0,0,1.258-.013,3.628,3.628,0,0,1,3.031,5.348,12.376,12.376,0,0,1-1.679,2.048c-.594.72-1.254,1.385-1.886,2.074a34.054,34.054,0,0,1-8.7,3.472,55.965,55.965,0,0,1-9.068,1.784,39.009,39.009,0,0,1-6.719.21,20.421,20.421,0,0,1-7.425-1.7,11.059,11.059,0,0,1-4.1-3.107,3.867,3.867,0,0,1-.765-1.131c-.49-.835-.961-1.681-1.448-2.518a1.373,1.373,0,0,1-.275-.7,42.027,42.027,0,0,1,3.023-4.146,39,39,0,0,1,3.565-3.764,21.759,21.759,0,0,1,7.115-4.693,3.421,3.421,0,0,0,.644-.318,6.143,6.143,0,0,1,3.433-.094,3.783,3.783,0,0,1,2.443,4.117A.646.646,0,0,1,859.719,508.394Z" transform="translate(-59.359 -134.216)" fill="#fedccd"/>
        <path id="Trazado_165050" data-name="Trazado 165050" d="M857.84,627.378c.326.1.415.439.625.656a13.188,13.188,0,0,0,6.155,3.393,27.393,27.393,0,0,0,8.833.755,53.385,53.385,0,0,0,12.381-2.188A41.062,41.062,0,0,0,893,627.246c.276-.142.47-.49.858-.387-1,1.121-2,2.245-3.009,3.36-.563.621-1.144,1.225-1.718,1.837a5.461,5.461,0,0,1-3.564,1.593c-1.505.171-3.006.387-4.509.577-1.47.187-2.941.362-4.41.55-1.486.191-2.97.393-4.455.587q-2.077.271-4.155.535c-1.672.21-3.345.412-5.018.617-.557-1.155-1.252-2.233-1.885-3.345-.735-1.291-1.49-2.57-2.237-3.855A3.672,3.672,0,0,1,857.84,627.378Z" transform="translate(-74.988 -240.537)" fill="#fecabd"/>
        <path id="Trazado_165051" data-name="Trazado 165051" d="M1023.307,548.9c-.722.445-1.442.9-2.168,1.336-2.2,1.337-4.413,2.667-6.615,4.008a1.036,1.036,0,0,1-.764.139c-1.227-.181-2.463-.3-3.7-.451-.455-.056-.906-.137-1.36-.206.011-.277.252-.344.432-.45,2.536-1.492,5.093-2.949,7.637-4.428.266-.155.511-.343.789-.476.382.087.627-.2.9-.365A3.64,3.64,0,0,1,1023.307,548.9Z" transform="translate(-205.163 -172.039)" fill="#fecabd"/>
        <path id="Trazado_165052" data-name="Trazado 165052" d="M985.935,546.48c-.034.244-.251.316-.42.414q-3.987,2.315-7.98,4.619c-.161.093-.306.214-.458.322l-3.043-.345c-.49-.056-.981-.107-1.47-.174a.8.8,0,0,1-.514-.192c2.973-1.723,5.97-3.4,8.909-5.183A3.761,3.761,0,0,1,985.935,546.48Z" transform="translate(-173.535 -170.143)" fill="#e9ab9c"/>
        <path id="Trazado_165053" data-name="Trazado 165053" d="M1101.3,424.8c-.683-.044-1.3-.073-1.908-.126a1.453,1.453,0,0,1-1.37-1.406,1.409,1.409,0,0,1,1.193-1.594,15.788,15.788,0,0,1,2.7-.18,1.042,1.042,0,0,1,.484.152,1.788,1.788,0,0,1,.712,2.073,1.382,1.382,0,0,1-1.525,1.082C1101.468,424.8,1101.348,424.8,1101.3,424.8Z" transform="translate(-282.227 -63.351)" fill="#f5e166"/>
        <path id="Trazado_165054" data-name="Trazado 165054" d="M1086.417,481.425a1.343,1.343,0,0,1-.77-.253c-.63-.412-1.265-.819-1.873-1.263a1.52,1.52,0,0,1,1.559-2.593c.652.3,1.3.623,1.935.953a1.363,1.363,0,0,1,.8,1.559A1.9,1.9,0,0,1,1086.417,481.425Z" transform="translate(-269.364 -111.357)" fill="#f5e166"/>
        <path id="Trazado_165055" data-name="Trazado 165055" d="M1084.666,362.924a1.523,1.523,0,0,1-1.445-1.042,1.268,1.268,0,0,1,.365-1.577,23.654,23.654,0,0,1,2.252-1.522,1.226,1.226,0,0,1,1.55.269c1.015,1.1.973,2.282-.418,2.9-.563.249-1.113.53-1.668.8A1.288,1.288,0,0,1,1084.666,362.924Z" transform="translate(-269.35 -9.097)" fill="#f5e166"/>
        <path id="Trazado_165056" data-name="Trazado 165056" d="M782.852,581.509l1.054,1.938c-.282.156-.406.456-.6.687a8.485,8.485,0,0,1-5.771,3.151c-.512.051-1.021.043-1.53.085q-2.482-4.308-4.969-8.613c-.137-.237-.157-.374.1-.536q3.572-2.262,7.135-4.54c.213-.005.284.171.363.311.559.989,1.127,1.973,1.693,2.958a.587.587,0,0,1,.089.34C781.191,578.715,781.968,580.143,782.852,581.509Z" transform="translate(0 -194.667)" fill="#242ca3"/>
        <path id="Trazado_165057" data-name="Trazado 165057" d="M826.548,519.173q-.917-1.57-1.835-3.14c-.095-.161-.206-.312-.31-.468,2.392-1.858,4.745-3.767,7.249-5.475a30.722,30.722,0,0,1,3.727-2.013l1.578-.633c.127-.212.359-.242.562-.315.688-.244,1.392-.434,2.1-.626.408-.039.8-.315,1.225-.083a31.388,31.388,0,0,0-3.174,1.533,28.2,28.2,0,0,0-3.527,2.536c-.64.546-1.218,1.15-1.822,1.73a39.956,39.956,0,0,0-5.4,6.543A.976.976,0,0,1,826.548,519.173Z" transform="translate(-46.137 -136.552)" fill="#fecabd"/>
        <path id="Trazado_165058" data-name="Trazado 165058" d="M820.906,424.791c-1.274.035-1.781-.222-1.972-1a1.979,1.979,0,0,1,.236-1.762,1.2,1.2,0,0,1,.9-.521,13.892,13.892,0,0,1,2.75.181,1.424,1.424,0,0,1,1.166,1.566,1.455,1.455,0,0,1-1.352,1.425C822.009,424.734,821.379,424.761,820.906,424.791Z" transform="translate(-41.333 -63.353)" fill="#f5e166"/>
        <path id="Trazado_165059" data-name="Trazado 165059" d="M836.761,481.4a1.869,1.869,0,0,1-1.7-1.505,1.367,1.367,0,0,1,.737-1.63c.669-.346,1.344-.682,2.029-1a1.518,1.518,0,0,1,1.57,2.559c-.643.482-1.325.911-2,1.353A1.559,1.559,0,0,1,836.761,481.4Z" transform="translate(-55.288 -111.331)" fill="#f5e166"/>
        <path id="Trazado_165060" data-name="Trazado 165060" d="M838.494,363.063a1.128,1.128,0,0,1-.57-.151c-.648-.311-1.3-.615-1.94-.941-.945-.481-1.133-1.307-.547-2.326a1.417,1.417,0,0,1,2.2-.553c.615.4,1.237.8,1.827,1.239a1.352,1.352,0,0,1,.507,1.636A1.547,1.547,0,0,1,838.494,363.063Z" transform="translate(-55.37 -9.236)" fill="#f5e166"/>
        <path id="Trazado_165061" data-name="Trazado 165061" d="M918.194,380.253l-1.228.208a7.2,7.2,0,0,1-1.495-2.188,12.773,12.773,0,0,1-1.412-6.243,12.951,12.951,0,0,1,3.007-8.07c.164-.2.319-.4.477-.6a1.249,1.249,0,0,1,.286-.289,15.434,15.434,0,0,1,2.847-2.176c.254-.142.509-.283.775-.4.443-.2.539-.133.576.346a5.927,5.927,0,0,0,.1,1.625c.188.313.422.549.826.41s.453-.461.451-.823c0-.458-.005-.915,0-1.372,0-.2-.025-.413.151-.568a10.539,10.539,0,0,1,4.622,1.236c.065.185-.045.327-.121.476-.062.121-.145.23-.208.351-.253.486-.2.868.152,1.08s.724.063,1.009-.4c.072-.115.121-.244.2-.356.093-.135.145-.315.344-.345a10.8,10.8,0,0,1,3.417,3.378c-.119.282-.4.358-.632.5-.534.318-.724.671-.543,1.015.22.419.636.474,1.206.169.237-.127.438-.344.742-.309a11.1,11.1,0,0,1,1.264,4.626c-.237.2-.522.123-.789.134-.445.017-.892-.029-1.335.026a.714.714,0,0,0-.7.635c-.037.314.3.632.714.675.477.05.959.008,1.438.022a.931.931,0,0,1,.64.121,10.423,10.423,0,0,1-1.228,4.628c-.387.014-.639-.287-.964-.419a.683.683,0,0,0-.965.252c-.183.3-.092.564.274.869.283.237.69.312.876.674a11.028,11.028,0,0,1-3.415,3.378c-.35-.193-.426-.593-.659-.875-.324-.39-.759-.438-1.042-.1a.746.746,0,0,0-.017.9c.146.28.391.524.347.88a11.418,11.418,0,0,1-4.328,1.235,3.66,3.66,0,0,0-2.748-4.577,4.762,4.762,0,0,0-2.126.109C918.716,380.158,918.421,380.048,918.194,380.253Z" transform="translate(-123.49 -10.385)" fill="#fff"/>
        <path id="Trazado_165062" data-name="Trazado 165062" d="M895.48,376.244a15.952,15.952,0,0,0-2.189,3.261,13.833,13.833,0,0,0-1.221,4.462,13.146,13.146,0,0,0,1.22,6.906,12.1,12.1,0,0,0,1.315,2.133.576.576,0,0,1,.16.312l-2.655.816a14.22,14.22,0,0,1-1.745-2.141c.042-.219.239-.27.4-.361a3,3,0,0,0,.588-.4.591.591,0,0,0,.125-.822.618.618,0,0,0-.837-.249c-.356.147-.638.458-1.053.472A11.061,11.061,0,0,1,888.325,386c.381-.224.8-.093,1.2-.121a9.449,9.449,0,0,0,.971-.031.65.65,0,0,0-.007-1.3c-.491-.066-.989-.013-1.483-.03-.233-.008-.483.048-.684-.134a11.109,11.109,0,0,1,1.263-4.636.985.985,0,0,1,.608.233,1.961,1.961,0,0,0,.6.275.614.614,0,0,0,.7-.305.59.59,0,0,0-.064-.714,1.738,1.738,0,0,0-.612-.452.885.885,0,0,1-.457-.391,11,11,0,0,1,3.393-3.383c.171,0,.237.134.292.251A1.4,1.4,0,0,0,895.48,376.244Z" transform="translate(-101.29 -23.241)" fill="#d0d9e3"/>
        <path id="Trazado_165063" data-name="Trazado 165063" d="M942.781,362.467a4.521,4.521,0,0,1-.083-1.411c-.016-.183,0-.368,0-.619a11.378,11.378,0,0,0-2.858,1.754c-.391.326-.771.664-1.157,1,.111-.7-.464-1.2-.524-1.845a10.586,10.586,0,0,1,4.619-1.233.493.493,0,0,1,.171.412C942.9,361.171,943.139,361.845,942.781,362.467Z" transform="translate(-144.29 -10.387)" fill="#d0d9e3"/>
        <path id="Trazado_165064" data-name="Trazado 165064" d="M1047.849,444.963c-.668,0-1.336.006-2,0-.6-.007-.989-.345-.976-.822s.391-.779.959-.786c.685-.008,1.37,0,2.054,0A4.745,4.745,0,0,1,1047.849,444.963Z" transform="translate(-236.367 -82.211)" fill="#375f7d"/>
        <path id="Trazado_165065" data-name="Trazado 165065" d="M888.034,443.343c.682,0,1.364-.005,2.046,0,.584.007.979.356.962.831a.862.862,0,0,1-.96.782c-.682.007-1.364,0-2.046,0A6.994,6.994,0,0,1,888.034,443.343Z" transform="translate(-101.002 -82.203)" fill="#365e7d"/>
        <path id="Trazado_165066" data-name="Trazado 165066" d="M971.841,362.226q0-1.179-.005-2.357a8.173,8.173,0,0,1,1.578,0c0,.684-.011,1.369,0,2.053a.789.789,0,0,1-.643.91A.768.768,0,0,1,971.841,362.226Z" transform="translate(-173.35 -10.146)" fill="#365e7d"/>
        <path id="Trazado_165067" data-name="Trazado 165067" d="M1044.044,401.008c-.321.189-.632.4-.964.562a.792.792,0,0,1-1.094-.321.765.765,0,0,1,.318-1.053c.311-.2.645-.374.968-.559A6.222,6.222,0,0,1,1044.044,401.008Z" transform="translate(-233.792 -44.494)" fill="#375e7d"/>
        <path id="Trazado_165068" data-name="Trazado 165068" d="M1043.27,486.04c-.323-.188-.655-.362-.967-.566a.765.765,0,0,1-.313-1.056.785.785,0,0,1,1.093-.318c.332.169.645.374.966.563A7.07,7.07,0,0,1,1043.27,486.04Z" transform="translate(-233.795 -117.283)" fill="#375e7d"/>
        <path id="Trazado_165069" data-name="Trazado 165069" d="M898.31,399.677c.327.186.667.353.978.562a.777.777,0,0,1,.289,1.072.789.789,0,0,1-1.071.293c-.336-.167-.648-.38-.971-.573A5.886,5.886,0,0,1,898.31,399.677Z" transform="translate(-109.239 -44.528)" fill="#375e7d"/>
        <path id="Trazado_165070" data-name="Trazado 165070" d="M897.533,484.574c.335-.2.662-.41,1.006-.591a.781.781,0,0,1,.819,1.324c-.33.236-.7.42-1.046.626A6.309,6.309,0,0,1,897.533,484.574Z" transform="translate(-109.237 -117.182)" fill="#365e7d"/>
        <path id="Trazado_165071" data-name="Trazado 165071" d="M1013,515.758c-.175-.312-.359-.619-.523-.937a.792.792,0,0,1,.264-1.116.777.777,0,0,1,1.1.312c.194.3.355.621.531.933A5.325,5.325,0,0,1,1013,515.758Z" transform="translate(-208.314 -142.816)" fill="#365e7d"/>
        <path id="Trazado_165072" data-name="Trazado 165072" d="M929.328,369.1a7.685,7.685,0,0,0,.394.7,1.082,1.082,0,0,1,.13,1.141l-.2.2c-.684.206-.929.11-1.288-.5-.145-.246-.292-.491-.438-.737A5.493,5.493,0,0,1,929.328,369.1Z" transform="translate(-135.461 -18.148)" fill="#365e7d"/>
        <path id="Trazado_165073" data-name="Trazado 165073" d="M1014.366,369.925c-.186.324-.353.661-.562.97a.786.786,0,0,1-1.355-.8c.165-.335.36-.655.542-.981A4.849,4.849,0,0,1,1014.366,369.925Z" transform="translate(-208.305 -18.159)" fill="#365e7d"/>
        <path id="Trazado_165074" data-name="Trazado 165074" d="M844.83,679.681a1.54,1.54,0,0,1-1.611,1.552,1.622,1.622,0,0,1-1.581-1.561,1.666,1.666,0,0,1,1.638-1.63A1.623,1.623,0,0,1,844.83,679.681Z" transform="translate(-61.008 -284.716)" fill="#f8f5f8"/>
        <path id="Trazado_165075" data-name="Trazado 165075" d="M964.114,410.31q.012-1.207.023-2.413a1.683,1.683,0,1,1,3.349,0c.009,1.25,0,2.5,0,3.751,0,1.408-.708,2.053-2.134,1.956a1.4,1.4,0,0,1-1.262-1.152A3.66,3.66,0,0,1,964.114,410.31Z" transform="translate(-166.539 -50.019)" fill="#2b4d66"/>
        <path id="Trazado_165076" data-name="Trazado 165076" d="M927.139,437.146c0,.427.023.854,0,1.279a1.9,1.9,0,0,0,1.236,2.016c-1.9.006-3.793.025-5.689.011a1.649,1.649,0,0,1-.011-3.3C924.165,437.134,925.652,437.148,927.139,437.146Z" transform="translate(-129.564 -76.856)" fill="#365e7d"/>
      </g>
    </g>
  </g>
</svg>
