<svg xmlns="http://www.w3.org/2000/svg" xmlns:xlink="http://www.w3.org/1999/xlink" width="100" height="100" viewBox="0 0 100 100">
  <defs>
    <filter id="Rect치ngulo_41489" x="0" y="0" width="100" height="100" filterUnits="userSpaceOnUse">
      <feOffset dy="3" input="SourceAlpha"/>
      <feGaussianBlur stdDeviation="3" result="blur"/>
      <feFlood flood-opacity="0.161"/>
      <feComposite operator="in" in2="blur"/>
      <feComposite in="SourceGraphic"/>
    </filter>
  </defs>
  <g id="Grupo_124112" data-name="Grupo 124112" transform="translate(19361 10289)">
    <g id="Grupo_124077" data-name="Grupo 124077" transform="translate(-2149 1569)">
      <g id="Grupo_123522" data-name="Grupo 123522" transform="translate(-18156.332 -12117)">
        <g id="Grupo_109940" data-name="Grupo 109940">
          <g transform="matrix(1, 0, 0, 1, 944.33, 259)" filter="url(#Rect치ngulo_41489)">
            <rect id="Rect치ngulo_41489-2" data-name="Rect치ngulo 41489" width="82" height="82" rx="23" transform="translate(9 6)" fill="#fff"/>
          </g>
        </g>
      </g>
      <g id="Grupo_123523" data-name="Grupo 123523" transform="translate(-17958.609 -12187.607)">
        <path id="Trazado_164973" data-name="Trazado 164973" d="M986.957,393.681v34.667c-.369,1.184-.729,1.456-2,1.457q-8.262.009-16.525,0a3.884,3.884,0,0,1-.665-.052c-2.856-.036-5.711,0-8.567-.018a1.356,1.356,0,0,1-.812-.113c-.036-.065-.02.028-.035-.042a7.607,7.607,0,0,1,.02-3.6c.311-.287.7-.206,1.062-.206q7.547-.009,15.094,0,3.871,0,7.742,0c.828,0,.88-.054.88-.89q0-13.842,0-27.684c0-.892-.048-.938-.952-.939-2.9,0-5.793,0-8.689,0a2.211,2.211,0,0,1-.934-.087c-.32-.2-.214-.477-.113-.734a10.38,10.38,0,0,0,.509-1.808c.084-.429-.034-.637-.493-.62a.718.718,0,0,1-.566-.176.154.154,0,0,1,0-.172.879.879,0,0,1,.724-.2,2.431,2.431,0,0,0,.68-.22c3.962-.025,7.924-.017,11.885,0C986.156,392.234,986.633,392.654,986.957,393.681Z" transform="translate(-161.813 -37.583)" fill="#d0d0d5"/>
        <path id="Trazado_164974" data-name="Trazado 164974" d="M796.613,426.018l-.008,3.568c-.212.288-.529.231-.818.232-2.337.008-4.674,0-7.01,0-.5,0-1,0-1.5.029-.388-.039-.777-.029-1.166-.029H770.821c-.241,0-.482,0-.723,0-1.235-.011-1.663-.32-2.022-1.458V393.807a1.7,1.7,0,0,1,1.979-1.566q2.641-.011,5.281,0a1.02,1.02,0,0,1,.832.218.546.546,0,0,1,.09.317c-.013.871.047,1.74.071,2.61a.91.91,0,0,1-.185.68,1.032,1.032,0,0,1-.785.2c-.928.009-1.856-.008-2.784.008-.587.01-.672.1-.695.686-.007.167,0,.334,0,.5v27.124c0,.074,0,.149,0,.223,0,.939.037.976.97.976q11.333,0,22.666.005a1.65,1.65,0,0,1,1.028.141Z" transform="translate(0 -37.598)" fill="#ebeef0"/>
        <path id="Trazado_164979" data-name="Trazado 164979" d="M964.2,354.872a15,15,0,0,1,.293-1.577,6.938,6.938,0,0,1,5.6-5.1c.12-.026.267.019.345-.126h.334c.143.12.336,0,.483.1a.351.351,0,0,1,.1.146,3,3,0,0,1-.044,1.179c-.184.233-.455.214-.71.25a5.494,5.494,0,0,0-4.731,4.774,5.4,5.4,0,0,0,3.8,5.793,5.308,5.308,0,0,0,3.65-.168,1.9,1.9,0,0,1,.738-.231.492.492,0,0,1,.243.1,1.821,1.821,0,0,1,.553,1.158,1.753,1.753,0,0,1-1.093.7,7.181,7.181,0,0,1-8.808-3.238c-.021-.057-.041-.115-.063-.171a7.173,7.173,0,0,1-.874-3.045A.61.61,0,0,1,964.2,354.872Z" transform="translate(-166.799)" fill="#fecf64"/>
        <path id="Trazado_164980" data-name="Trazado 164980" d="M1013.555,348.072c.16.208.408.119.61.164a7.03,7.03,0,0,1,5.655,6.535c.011.255-.106.349-.363.338-.328-.014-.657.008-.985.014l-.075-.046a1.6,1.6,0,0,1-.232-.787,5.43,5.43,0,0,0-4.563-4.526c-.77-.128-.771-.128-.77-.881,0-.222-.011-.444.009-.665.086-.156.279-.031.38-.145Z" transform="translate(-208.362)" fill="#fc4755"/>
        <path id="Trazado_164981" data-name="Trazado 164981" d="M977.668,715.4a11.733,11.733,0,0,1,.1,2.457H959.937c0-.034-.007-.068-.009-.1l.065-.088a1.444,1.444,0,0,1,.969-.153q7.522-.009,15.044,0c.2,0,.409,0,.613,0,.737-.01.774-.068.813-.793C977.456,716.276,977.257,715.781,977.668,715.4Z" transform="translate(-163.327 -312.716)" fill="#ebeef0"/>
        <path id="Trazado_164982" data-name="Trazado 164982" d="M1012.632,348.072c-.074.133-.215.1-.329.128-.033.051-.062.051-.085-.008l-.047-.018q-.049-.043-.026-.074c.014-.019.028-.029.041-.029Z" transform="translate(-207.774)" fill="#fda380"/>
        <path id="Trazado_164983" data-name="Trazado 164983" d="M1009.914,348.072a.345.345,0,0,1-.016.1c-.151,0-.314.046-.43-.1Z" transform="translate(-205.501)" fill="#fee2a0"/>
        <path id="Trazado_164984" data-name="Trazado 164984" d="M960.318,417.421a7.125,7.125,0,0,0,4.576,3.421,6.751,6.751,0,0,0,5.122-.8,1.2,1.2,0,0,1,.451-.475,7.35,7.35,0,0,0,1.718-1.79c.121-.18.22-.4.485-.408,3.436,0,6.871,0,10.307-.013.446,0,.611.1.61.584q-.019,14.4,0,28.806c0,.477-.15.581-.6.581q-12.173-.016-24.346,0l.011-.016c-.279-.213-.245-.522-.246-.816-.006-1.892,0-3.784,0-5.676q0-11.1,0-22.2c0-1.33.1-1.419,1.44-1.326A.95.95,0,0,1,960.318,417.421Z" transform="translate(-162.027 -58.903)" fill="#685e68"/>
        <path id="Trazado_164985" data-name="Trazado 164985" d="M894.066,643.457l-.033.114c-.225.261-.535.221-.828.222-2.466.006-4.932,0-7.4,0-.851,0-.885.035-.887.87,0,2.281,0,4.561,0,6.842a1.2,1.2,0,0,1-.2.9.8.8,0,0,1-.567.187q-6.006.022-12.011,0c-.246,0-.542.023-.607-.336a15.334,15.334,0,0,0,3.747-7.97c.032-.237.033-.479.048-.719a1.308,1.308,0,0,1,.755-.114q4.3,0,8.6-.005Z" transform="translate(-88.074 -251.459)" fill="#d0d0d5"/>
        <path id="Trazado_164986" data-name="Trazado 164986" d="M1015.431,398.916l-.135-.107a1.022,1.022,0,0,1-.532-.536c-.714-1.207-1.431-2.413-2.125-3.632-.17-.3-.4-.625.047-.905a7.316,7.316,0,0,1,1.715-.07c1-.013,2-.006,3,0a.886.886,0,0,1,.718.225l.01.036a.461.461,0,0,0-.01.063.638.638,0,0,1,.168.563,5.833,5.833,0,0,1-2.646,4.3A.573.573,0,0,1,1015.431,398.916Z" transform="translate(-208.02 -38.802)" fill="#89c8fd"/>
        <path id="Trazado_164987" data-name="Trazado 164987" d="M1032.636,400.848c.024-.293.292-.37.473-.511a5.638,5.638,0,0,0,2.214-4.417l.717,0c.637,0,.685.061.6.7a9.533,9.533,0,0,1-.776,2.573,6.689,6.689,0,0,1-2.654,2.673Z" transform="translate(-225.224 -40.734)" fill="#60b6fe"/>
        <path id="Trazado_164988" data-name="Trazado 164988" d="M818.825,416.492c-.408.005-.816.025-1.223.011-.326-.011-.5.1-.458.444a2.047,2.047,0,0,1,0,.222q0,14.354,0,28.708c0,.167.009.334.013.5q-12.2,0-24.393.017c-.45,0-.569-.156-.568-.582q.013-14.4,0-28.794c0-.417.1-.6.559-.593,1.3.027,2.6.014,3.9.017l.072.073a8.287,8.287,0,0,1,.077,1.73c.117,1.4.045,2.811.073,4.216a30.927,30.927,0,0,0,.112,4.537,1.173,1.173,0,0,0,.554.8,6.127,6.127,0,0,0,2.322.874,27.064,27.064,0,0,0,4.461.482,22.414,22.414,0,0,0,5.06-.595,4.348,4.348,0,0,0,1.979-.955,1.283,1.283,0,0,0,.429-.984c0-1.352-.033-2.7.059-4.055.012-1.78,0-3.559-.063-5.337a1.14,1.14,0,0,1,.176-.851.793.793,0,0,1,.561-.189c1.526,0,3.053-.044,4.579.024.567.006,1.153-.17,1.683.18A.25.25,0,0,1,818.825,416.492Z" transform="translate(-20.534 -57.974)" fill="#a69aa6"/>
        <path id="Trazado_164989" data-name="Trazado 164989" d="M821.983,357.931c.006-1.074.035-2.149.011-3.222a1.872,1.872,0,0,1,1.131-1.863,11.912,11.912,0,0,1,3.726-1.032,17.837,17.837,0,0,1,2.826-.143.539.539,0,0,1,.229.48c.01,1.352.04,2.7-.016,4.055a.522.522,0,0,1-.052.156.512.512,0,0,1-.109.17,3.427,3.427,0,0,1-1.9.161,14.345,14.345,0,0,1-3.916-.7,4.185,4.185,0,0,1-1.572-.86c-.017,1.316,0,2.561-.008,3.805-.128.837.114,1.079.986.983a.483.483,0,0,1,.145.063,1.389,1.389,0,0,0,1.737.569.354.354,0,0,1,.156-.006,1.561,1.561,0,0,0,1.121.479.73.73,0,0,0,.657-.186.5.5,0,0,1,.327,0c.282.25.546.469.93.119.151-.137.419-.092.634-.135a.91.91,0,0,1,.748.232,13.108,13.108,0,0,1,0,4.334c-.29.281-.678.108-1.006.218a1.389,1.389,0,0,1-.655-.066c-.293-.234-.564-.586-.979-.185a.355.355,0,0,1-.233-.011c-.215-.306-.464-.385-.765-.112a.411.411,0,0,1-.159.01,7.2,7.2,0,0,0-1.8-.606,8.443,8.443,0,0,1-2.02-1,.635.635,0,0,1-.1-.422c-.016-.563.032-1.126-.025-1.688l-.013-.006Z" transform="translate(-45.891 -3.062)" fill="#fee077"/>
        <path id="Trazado_164990" data-name="Trazado 164990" d="M845.242,702.69c.188.176.422.109.637.109q6.258.005,12.515,0l.085.069a.786.786,0,0,1,.142.522c.009.977.007,1.954,0,2.931a.763.763,0,0,1-.227.6l-.011.012-16.923-.008c-.79,0-.818,0-.783-.784a4.912,4.912,0,0,1,.192-2.189,2.006,2.006,0,0,1,1.829-1.147c.63-.025,1.262-.007,1.893,0A1.237,1.237,0,0,0,845.242,702.69Z" transform="translate(-61.784 -301.894)" fill="#ebeef0"/>
        <path id="Trazado_164991" data-name="Trazado 164991" d="M959.935,652.929c0-2.727.01-5.455-.01-8.182,0-.478.117-.643.62-.639,2.912.027,5.825.02,8.737.025a14.664,14.664,0,0,0,3.151,7.859c.212.279.435.551.652.827-.051.328-.318.318-.551.334-.369.026-.74.012-1.111.012q-5.277,0-10.555,0c-.327,0-.677.059-.935-.233Z" transform="translate(-163.324 -252.022)" fill="#b0b0b4"/>
        <path id="Trazado_164992" data-name="Trazado 164992" d="M959.992,702.8q6.229,0,12.458,0c.233,0,.486.077.693-.107a9.359,9.359,0,0,0,2.429.105,2.088,2.088,0,0,1,2.15,1.784c0,.594-.029,1.19,0,1.782.022.44-.13.577-.571.574-2.655-.017-5.311-.008-7.966-.009l-9.192,0Q959.993,704.865,959.992,702.8Z" transform="translate(-163.381 -301.896)" fill="#d0d0d5"/>
        <path id="Trazado_164993" data-name="Trazado 164993" d="M872.432,380.86q0-2.174,0-4.348a.851.851,0,0,1-.233-.709q-.006-1.575,0-3.15a.848.848,0,0,1,.233-.708h0c.264-.281.612-.216.94-.224a16.506,16.506,0,0,0,4.7-.723,3.583,3.583,0,0,0,1.6-.952c.111-.12.23-.249.425-.211l.041,3.556a.823.823,0,0,1,.212.612c0,.778,0,1.555,0,2.333a.929.929,0,0,1-.228.664q-.012,3.1-.024,6.2a.128.128,0,0,1-.164-.034,1.252,1.252,0,0,1-.151-.8c-.008-.885.007-1.771-.01-2.7a11.147,11.147,0,0,1-5.358,1.432,5.85,5.85,0,0,1-1.824.04.534.534,0,0,1-.154-.1A.135.135,0,0,1,872.432,380.86Z" transform="translate(-88.641 -18.52)" fill="#fec954"/>
        <path id="Trazado_164994" data-name="Trazado 164994" d="M881.406,354.143c-.8,1.264-2.14,1.486-3.434,1.759a17.483,17.483,0,0,1-4.233.351q0-2.407-.009-4.814a12.191,12.191,0,0,1,2.87.139,11.719,11.719,0,0,1,3.382.856,3.011,3.011,0,0,1,1.174.825A1.1,1.1,0,0,1,881.406,354.143Z" transform="translate(-89.944 -2.83)" fill="#fecf64"/>
        <path id="Trazado_164995" data-name="Trazado 164995" d="M925.538,397.4q.007-1.8.014-3.609l5.114.007a.759.759,0,0,1,.224.6c.006.788.007,1.576,0,2.363a.722.722,0,0,1-.235.591Z" transform="translate(-134.05 -38.92)" fill="#ebeef0"/>
        <path id="Trazado_164996" data-name="Trazado 164996" d="M959.947,397.363q.006-1.776.012-3.552l.782,0a8.308,8.308,0,0,0,.853,3.544Z" transform="translate(-163.343 -38.935)" fill="#d0d0d5"/>
        <path id="Trazado_164997" data-name="Trazado 164997" d="M980.425,363.431a17.463,17.463,0,0,0,1.232,2.214c.505.9,1.033,1.785,1.551,2.677a5.628,5.628,0,1,1-2.874-10.483.787.787,0,0,1,.241.7c.006,1.418,0,2.837,0,4.255A1.3,1.3,0,0,1,980.425,363.431Z" transform="translate(-175.931 -8.314)" fill="#fee077"/>
        <path id="Trazado_164998" data-name="Trazado 164998" d="M1012.49,355.808a1.478,1.478,0,0,1-.074-.762c-.01-1.61-.012-3.22-.017-4.83q.021-.666.041-1.332a.511.511,0,0,1,.085.007c-.016,1.211-.016,1.211,1.178,1.433a5.649,5.649,0,0,1,4.285,4.519,4.2,4.2,0,0,1,.108.934Z" transform="translate(-207.996 -0.691)" fill="#fd646f"/>
        <path id="Trazado_164999" data-name="Trazado 164999" d="M1075.586,455.254c1.559-.116,2.034-.033,2.018,1.844-.046,5.228-.016,10.457-.016,15.685,0,1.3-.22,1.529-1.5,1.521-.166,0-.333-.016-.5-.024-.285-.238-.235-.569-.235-.879q-.008-4.29,0-8.579,0-4.345,0-8.691C1075.352,455.822,1075.291,455.488,1075.586,455.254Z" transform="translate(-261.585 -91.217)" fill="#60b6fe"/>
        <path id="Trazado_165000" data-name="Trazado 165000" d="M1065.972,455.351q0,9.513,0,19.026c-1.778.088-1.918-.044-1.918-1.8q0-7.844,0-15.687c0-1.362.21-1.568,1.585-1.554C1065.75,455.335,1065.861,455.345,1065.972,455.351Z" transform="translate(-251.971 -91.314)" fill="#89c8fd"/>
        <path id="Trazado_165001" data-name="Trazado 165001" d="M978.13,482.833c1.723-.148,1.985.092,1.985,1.816v11.294c0,1.741-.223,1.944-1.986,1.813a.831.831,0,0,1-.231-.712q-.007-6.749,0-13.5A.847.847,0,0,1,978.13,482.833Z" transform="translate(-178.622 -114.693)" fill="#fecf64"/>
        <path id="Trazado_165002" data-name="Trazado 165002" d="M968.126,482.952q0,7.462,0,14.924c-1.823.092-1.982-.058-1.982-1.872q0-5.727,0-11.454c0-1.429.2-1.626,1.65-1.613C967.9,482.938,968.015,482.947,968.126,482.952Z" transform="translate(-168.618 -114.813)" fill="#fee077"/>
        <path id="Trazado_165003" data-name="Trazado 165003" d="M1026.865,500.837c1.554-.121,2.031-.018,2,1.809-.048,2.969-.013,5.939-.013,8.909,0,1.33-.232,1.563-1.546,1.553-.148,0-.3-.014-.444-.022a.82.82,0,0,1-.237-.709q-.008-5.415,0-10.83A.834.834,0,0,1,1026.865,500.837Z" transform="translate(-220.105 -130.023)" fill="#12263f"/>
        <path id="Trazado_165004" data-name="Trazado 165004" d="M1017.146,500.953q0,6.124,0,12.249c-1.814.087-1.938-.031-1.938-1.84q0-4.48,0-8.961c0-1.277.2-1.469,1.495-1.462C1016.849,500.939,1017,500.948,1017.146,500.953Z" transform="translate(-210.386 -130.138)" fill="#12263f"/>
        <path id="Trazado_165005" data-name="Trazado 165005" d="M879.956,459.779l.089,0c0,1.373.007,2.745.015,4.118a1.609,1.609,0,0,1-1.018,1.409,8.112,8.112,0,0,1-2.853.872,17.024,17.024,0,0,1-3.814.268.5.5,0,0,1-.211-.376,32.705,32.705,0,0,1,.05-3.923.582.582,0,0,1,.1-.171,6.141,6.141,0,0,1,2.117-.294,15.638,15.638,0,0,0,3.958-.792A6.939,6.939,0,0,0,879.956,459.779Z" transform="translate(-88.582 -95.097)" fill="#fecf64"/>
        <path id="Trazado_165006" data-name="Trazado 165006" d="M828.083,431.919h.668c.321.147.677-.034,1,.11l.012,0a.817.817,0,0,1,.225.655q.007,1.571,0,3.142a.8.8,0,0,1-.225.654l-.008.008a.881.881,0,0,1-.776.217,26.742,26.742,0,0,1-4.133-.519,8.408,8.408,0,0,1-1.865-.718,1.382,1.382,0,0,1-.875-1.3c-.04-1.455-.065-2.91.013-4.365h.052l.121.333a6.287,6.287,0,0,0,2.012,1.034,10.584,10.584,0,0,1,1.775.526h.111a.6.6,0,0,1,.78.111h.223A.75.75,0,0,1,828.083,431.919Z" transform="translate(-45.963 -69.579)" fill="#fecf64"/>
        <path id="Trazado_165007" data-name="Trazado 165007" d="M822.223,459.162c.254.918,1.066,1.19,1.808,1.5a11.335,11.335,0,0,0,3.464.694,14.616,14.616,0,0,0,2.377.134q0,2.217,0,4.434a17.671,17.671,0,0,1-5.958-.835,4.138,4.138,0,0,1-.94-.472,1.479,1.479,0,0,1-.721-1.231C822.171,461.974,822.218,460.569,822.223,459.162Z" transform="translate(-46.081 -94.573)" fill="#fee077"/>
        <path id="Trazado_165008" data-name="Trazado 165008" d="M846,537.766c-1.434,0-2.695,0-3.956,0-.916,0-1.236-.322-1.239-1.239q0-1.5,0-3.009c0-.717.306-1.092.884-1.117.606-.025.957.347.98,1.089.021.649.017,1.3,0,1.95-.008.332.11.469.451.46.631-.017,1.263,0,1.894-.008.173,0,.413.1.5-.1.075-.166-.143-.276-.243-.4a.918.918,0,0,1-.1-1.134.874.874,0,0,1,.967-.39.839.839,0,0,1,.507.321c.626.71,1.26,1.414,1.867,2.14a.932.932,0,0,1-.036,1.395q-.888,1.036-1.785,2.063a.905.905,0,0,1-1.37.157.943.943,0,0,1-.031-1.349C845.49,538.354,845.7,538.123,846,537.766Z" transform="translate(-61.916 -156.922)" fill="#ebeef0"/>
        <path id="Trazado_165009" data-name="Trazado 165009" d="M919.272,538.787c-.315,0-.63.015-.945.009a.969.969,0,0,1-1.05-1.035q-.02-2.865,0-5.73a.974.974,0,0,1,1.052-1.04c.315-.009.63.006.945.011a.828.828,0,0,1,.23.71q.007,3.183,0,6.367A.84.84,0,0,1,919.272,538.787Z" transform="translate(-127.008 -155.72)" fill="#fd646f"/>
        <path id="Trazado_165010" data-name="Trazado 165010" d="M930.755,538.754v-7.786c1.791-.083,1.915.034,1.915,1.806q0,2.311,0,4.622c0,1.139-.237,1.377-1.361,1.376C931.125,538.771,930.94,538.76,930.755,538.754Z" transform="translate(-138.491 -155.687)" fill="#fc4755"/>
        <path id="Trazado_165011" data-name="Trazado 165011" d="M822.333,419.789h-.052q-.011-.875-.022-1.749A7.109,7.109,0,0,1,822.333,419.789Z" transform="translate(-46.126 -59.565)" fill="#fee077"/>
        <path id="Trazado_165012" data-name="Trazado 165012" d="M830.446,373.61q0,2.283,0,4.567h-.78a.643.643,0,0,0-.581-.007.774.774,0,0,1-.869-.1l-.334,0a1.9,1.9,0,0,1-1.783-.33h-.112a1.8,1.8,0,0,1-1.783-.557l-.11,0a1.26,1.26,0,0,1-1.216-1.01v-4.381a6.864,6.864,0,0,0,3.875,1.6A18.087,18.087,0,0,0,830.446,373.61Z" transform="translate(-46.652 -20.186)" fill="#fecf64"/>
        <path id="Trazado_165013" data-name="Trazado 165013" d="M827.353,433.6a8.342,8.342,0,0,1-3.2-.988,1.654,1.654,0,0,1-.589-.572,2.5,2.5,0,0,1,1.32.576,1.511,1.511,0,0,0,.886.338C826.451,432.881,826.867,433.294,827.353,433.6Z" transform="translate(-47.239 -71.484)" fill="#fee077"/>
        <path id="Trazado_165014" data-name="Trazado 165014" d="M831.8,408.06a12.428,12.428,0,0,0,1.783.557c-.038.081-.054.2-.118.238C833.017,409.159,831.856,408.6,831.8,408.06Z" transform="translate(-54.247 -51.069)" fill="#fee077"/>
        <path id="Trazado_165015" data-name="Trazado 165015" d="M844.548,411.814l1.783.33a.339.339,0,0,1-.255.318A1.7,1.7,0,0,1,844.548,411.814Z" transform="translate(-65.101 -54.265)" fill="#fee077"/>
        <path id="Trazado_165016" data-name="Trazado 165016" d="M822.863,401.252c.278.49.8.689,1.216,1.01C823.107,402.51,822.83,402.28,822.863,401.252Z" transform="translate(-46.638 -45.273)" fill="#fee077"/>
        <path id="Trazado_165017" data-name="Trazado 165017" d="M858.786,413.978c.482.053.981-.119,1.45.111-.176.016-.353-.027-.518.1C859.237,414.559,859.1,414.523,858.786,413.978Z" transform="translate(-77.222 -56.097)" fill="#fee077"/>
        <path id="Trazado_165018" data-name="Trazado 165018" d="M857.427,441.487c-.3-.037-.615.094-.892-.11.033-.275.218-.334.458-.335C857.3,441.042,857.385,441.24,857.427,441.487Z" transform="translate(-75.306 -79.148)" fill="#fee077"/>
        <path id="Trazado_165019" data-name="Trazado 165019" d="M850.569,440.76a1.5,1.5,0,0,1-.78-.111c.036-.284.224-.353.471-.324S850.57,440.542,850.569,440.76Z" transform="translate(-69.563 -78.532)" fill="#fee077"/>
        <path id="Trazado_165020" data-name="Trazado 165020" d="M868.024,444.146c-.332-.042-.685.1-1-.11h1Q868.028,444.091,868.024,444.146Z" transform="translate(-84.236 -81.696)" fill="#fee077"/>
        <path id="Trazado_165021" data-name="Trazado 165021" d="M873.818,438.154q0-2.226,0-4.451a21.17,21.17,0,0,0,4.885-.53,4.842,4.842,0,0,0,2.69-1.407v4.167a1.716,1.716,0,0,1-1.116,1.153,11.611,11.611,0,0,1-4.138.945A12.64,12.64,0,0,1,873.818,438.154Z" transform="translate(-90.019 -71.25)" fill="#fec244"/>
      </g>
    </g>
  </g>
</svg>
