<svg xmlns="http://www.w3.org/2000/svg" width="88" height="88" viewBox="0 0 88 88">
  <g id="Grupo_123952" data-name="Grupo 123952" transform="translate(-459 -2829)">
    <g id="Grupo_123774" data-name="Grupo 123774" transform="translate(459 2829)">
      <g id="Elipse_6763" data-name="Elipse 6763" fill="#fff" stroke="#2631a0" stroke-width="4">
        <circle cx="44" cy="44" r="44" stroke="none"/>
        <circle cx="44" cy="44" r="42" fill="none"/>
      </g>
      <g id="Grupo_123773" data-name="Grupo 123773" transform="translate(20.653 20.551)">
        <path id="Trazado_169751" data-name="Trazado 169751" d="M932.9,405.31a13.867,13.867,0,0,0-.364,1.94,17.884,17.884,0,0,1-14.182,13.881,17.593,17.593,0,0,1-12.44-2.2c-.092-.054-.187-.1-.281-.151a2.7,2.7,0,0,1-1.056-.594,14.066,14.066,0,0,1-1.845-1.538.93.93,0,0,1-.312-.437.436.436,0,0,1,.147-.367q.727-.754,1.481-1.48a.388.388,0,0,1,.326-.132,16.218,16.218,0,0,1,1.383,1.115,14.988,14.988,0,0,0,18.985-.363,14.428,14.428,0,0,0,5.155-9.358,14.676,14.676,0,0,0-3.42-11.76,5.035,5.035,0,0,1-.771-.956,5.678,5.678,0,0,1,1.921-1.962c.021-.014.059,0,.089.005a2.555,2.555,0,0,1,.846.755,18.122,18.122,0,0,1,4.136,8.357c.124.612.091,1.239.2,1.851v.549a1.191,1.191,0,0,0,0,.733v.733a.938.938,0,0,0,0,.641Z" transform="translate(-885.998 -385.711)" fill="#febf10"/>
        <path id="Trazado_169752" data-name="Trazado 169752" d="M866.85,376.653a11.235,11.235,0,0,0-1.861,1.952.2.2,0,0,1-.128-.011,14.31,14.31,0,0,1-2.446-2.983.47.47,0,0,1-.069-.26,17.878,17.878,0,0,1-2.229-5.574,17.536,17.536,0,0,1,5.713-17.284,17.2,17.2,0,0,1,8.94-4.2,2.531,2.531,0,0,0,1.044-.21h.458a.209.209,0,0,0,.275,0h2.015c.051.056.119.045.183.047s.133.009.183-.047h.275a17.515,17.515,0,0,1,3.006.487,17.82,17.82,0,0,1,7.693,4.323c.139.134.313.254.319.48-.337.081-.5.379-.724.6-.422.411-.821.846-1.23,1.27a.164.164,0,0,1-.14,0,22.066,22.066,0,0,0-2.916-2.2,15.217,15.217,0,0,0-6.307-2.016,14.336,14.336,0,0,0-8.229,1.61,15,15,0,0,0-4.459,23.1,9.7,9.7,0,0,1,.64.774A.165.165,0,0,1,866.85,376.653Z" transform="translate(-848.512 -348.082)" fill="#f9e424"/>
        <path id="Trazado_169753" data-name="Trazado 169753" d="M793.168,597.746l.085.022a17.079,17.079,0,0,0,3.159,2.55c-.112.123-.219.252-.337.369q-5.744,5.746-11.483,11.5a5.994,5.994,0,0,1-3.046,1.952h-1.374a3.385,3.385,0,0,1-1.78-.712.993.993,0,0,1-.388-.431c-.051-.292.168-.441.335-.609q1.514-1.524,3.036-3.039,5.607-5.607,11.217-11.21C792.754,597.972,792.875,597.724,793.168,597.746Z" transform="translate(-776.776 -567.244)" fill="#5c619e"/>
        <path id="Trazado_169754" data-name="Trazado 169754" d="M784.45,574.534c-.113.1-.231.2-.338.3q-7.208,7.206-14.414,14.415c-.147.147-.344.265-.368.5-.267-.011-.379-.226-.519-.4a3.693,3.693,0,0,1-.747-1.73v-1.557c.178-.2.168-.478.261-.714a4.2,4.2,0,0,1,.934-1.45q6.261-6.263,12.524-12.523a1,1,0,0,1,.108-.083A24.611,24.611,0,0,0,784.45,574.534Z" transform="translate(-768.058 -544.032)" fill="#242ca3"/>
        <path id="Trazado_169756" data-name="Trazado 169756" d="M768.02,704.94c.219.21.2.518.319.771a4.1,4.1,0,0,0,.947,1.358,3.845,3.845,0,0,0,1.89,1.066c.083.023.185,0,.232.1-1.053,0-2.107-.007-3.16.006-.2,0-.238-.038-.235-.235C768.027,706.985,768.02,705.963,768.02,704.94Z" transform="translate(-768.014 -661.344)" fill="#fefefe"/>
        <path id="Trazado_169757" data-name="Trazado 169757" d="M1151.163,486.01a.685.685,0,0,1,0-.733Z" transform="translate(-1104.262 -468.517)" fill="#fe5e0e"/>
        <path id="Trazado_169758" data-name="Trazado 169758" d="M1151.15,497.913a.529.529,0,0,1,0-.641Z" transform="translate(-1104.249 -479.046)" fill="#fe5c0c"/>
        <path id="Trazado_169759" data-name="Trazado 169759" d="M995.508,348.082c-.092.11-.183.141-.275,0Z" transform="translate(-967.475 -348.082)" fill="#fec06e"/>
        <path id="Trazado_169760" data-name="Trazado 169760" d="M1014.164,348.161a.154.154,0,0,1-.188-.079h.183c.028.016.039.033.031.051S1014.173,348.161,1014.164,348.161Z" transform="translate(-983.928 -348.082)" fill="#febc66"/>
        <path id="Trazado_169761" data-name="Trazado 169761" d="M1015.481,348.161c0-.026,0-.052,0-.079h.183C1015.63,348.177,1015.556,348.169,1015.481,348.161Z" transform="translate(-985.245 -348.082)" fill="#fecd8c"/>
        <path id="Trazado_169762" data-name="Trazado 169762" d="M939.361,406.563a.567.567,0,0,1,.085.012,15.9,15.9,0,0,1,3.705,6.113,15.143,15.143,0,0,1-11.077,19.333,14.892,14.892,0,0,1-13.9-3.92c-.044-.041-.095-.074-.143-.111a.477.477,0,0,1-.012-.085.815.815,0,0,1,.322-.429,23.593,23.593,0,0,1,1.938-1.859c.573-.16,1.149-.3,1.712-.5a.839.839,0,0,1,.818.13,9.583,9.583,0,0,0,2.049,1.191.739.739,0,0,1,.433.552c.123.472.225.949.359,1.418a1.316,1.316,0,0,0,1.46,1.106c.533.005,1.066,0,1.6,0,.595.006,1.19.013,1.785,0a1.249,1.249,0,0,0,1.3-1.007c.143-.5.257-1,.382-1.508a.724.724,0,0,1,.438-.544,9.6,9.6,0,0,0,1.975-1.146,1.011,1.011,0,0,1,.987-.154,12.436,12.436,0,0,0,1.366.382,1.314,1.314,0,0,0,1.6-.743c.481-.832.951-1.67,1.446-2.494a4.273,4.273,0,0,0,.331-.652,1.2,1.2,0,0,0-.266-1.353c-.367-.388-.748-.762-1.131-1.134a.924.924,0,0,1-.289-.866,7.031,7.031,0,0,0,0-2.051.893.893,0,0,1,.265-.83c.359-.353.717-.707,1.067-1.069a1.27,1.27,0,0,0,.236-1.7c-.574-1.024-1.167-2.039-1.756-3.054a1.542,1.542,0,0,0-1.231-.678c-.165-.139-.035-.257.05-.344.647-.665,1.289-1.336,1.975-1.961A.224.224,0,0,1,939.361,406.563Z" transform="translate(-899.693 -399.419)" fill="#e1def3"/>
        <path id="Trazado_169763" data-name="Trazado 169763" d="M907.814,374.969l-2.206,2.279a7.161,7.161,0,0,1-1.985.633.626.626,0,0,1-.5-.188,10.256,10.256,0,0,0-2.014-1.165.826.826,0,0,1-.495-.609c-.115-.474-.225-.949-.356-1.419a1.272,1.272,0,0,0-1.355-1.054c-.564-.011-1.128,0-1.691,0s-1.1-.007-1.648,0a1.319,1.319,0,0,0-1.464,1.106c-.136.469-.24.947-.36,1.42a.764.764,0,0,1-.474.571,8.559,8.559,0,0,0-1.935,1.123.942.942,0,0,1-.9.163c-.453-.136-.9-.279-1.366-.385a1.293,1.293,0,0,0-1.653.7c-.571.956-1.126,1.922-1.677,2.89a1.264,1.264,0,0,0,.213,1.708,9.278,9.278,0,0,0,1.012.993.892.892,0,0,1,.342.927,6.726,6.726,0,0,0,0,2.1.837.837,0,0,1-.311.852,11.049,11.049,0,0,0-1.108,1.092,1.23,1.23,0,0,0-.195,1.558c.6,1.048,1.193,2.095,1.815,3.127a1.2,1.2,0,0,0,.873.605.4.4,0,0,1,.285.125,29.787,29.787,0,0,1-2.194,2.2,14.17,14.17,0,0,1-4.093-7.66,14.711,14.711,0,0,1,4.495-13.993,15.086,15.086,0,0,1,20.794.139C907.721,374.849,907.765,374.911,907.814,374.969Z" transform="translate(-868.146 -367.824)" fill="#f8f8f8"/>
        <path id="Trazado_169764" data-name="Trazado 169764" d="M1004.661,393.072c.6,0,1.191-.009,1.786-.005a1.361,1.361,0,0,1,1.4,1.083c.136.514.27,1.03.377,1.55a.578.578,0,0,0,.385.452,9.182,9.182,0,0,1,2.05,1.191.666.666,0,0,0,.666.133,12.773,12.773,0,0,1,1.757-.481,1.507,1.507,0,0,1,1.55.96c.472.9,1.01,1.769,1.531,2.643a1.45,1.45,0,0,1-.244,2.047c-.356.355-.705.718-1.072,1.062a.592.592,0,0,0-.194.574,6.737,6.737,0,0,1,0,2.311.594.594,0,0,0,.2.57c.4.377.782.77,1.169,1.16a1.257,1.257,0,0,1,.289,1.62c-.611,1.138-1.249,2.264-1.927,3.364a1.316,1.316,0,0,1-1.542.512c-.546-.128-1.086-.287-1.623-.45a.428.428,0,0,0-.421.056,11.493,11.493,0,0,1-2.327,1.344c-.17.067-.2.207-.241.357-.124.516-.247,1.033-.378,1.548a1.368,1.368,0,0,1-1.454,1.122c-.579,0-1.159,0-1.738,0a.7.7,0,0,1-.148-.514q-.007-3.865,0-7.731a1.184,1.184,0,0,1,.039-.316c.141-.343.478-.284.744-.337a3.431,3.431,0,0,0,2.461-1.79,3.5,3.5,0,0,0-.6-4.173,3.693,3.693,0,0,0-1.972-.987c-.226-.044-.506-.012-.623-.3a1.858,1.858,0,0,1-.049-.543q0-3.668,0-7.336A.929.929,0,0,1,1004.661,393.072Z" transform="translate(-975.617 -387.57)" fill="#12263f"/>
        <path id="Trazado_169765" data-name="Trazado 169765" d="M920.747,409.066v8.7c-.563,0-1.127,0-1.69,0a1.423,1.423,0,0,1-1.515-1.166c-.128-.5-.254-1-.366-1.5a.536.536,0,0,0-.354-.433,8.092,8.092,0,0,1-2.079-1.206.672.672,0,0,0-.676-.113,8.469,8.469,0,0,1-1.842.483,1.3,1.3,0,0,1-1.312-.731c-.579-1-1.168-2-1.736-3a1.357,1.357,0,0,1,.266-1.857c.376-.378.757-.753,1.159-1.1.252-.219.172-.479.137-.718a6.558,6.558,0,0,1,.007-2.042.744.744,0,0,0-.3-.83,8.3,8.3,0,0,1-1.111-1.086,1.287,1.287,0,0,1-.2-1.679c.584-1.051,1.191-2.089,1.811-3.119a1.318,1.318,0,0,1,1.6-.649c.546.134,1.09.281,1.624.454a.542.542,0,0,0,.547-.111,8.357,8.357,0,0,1,2.126-1.23c.212-.079.274-.247.332-.451a12.561,12.561,0,0,1,.527-1.883,1.267,1.267,0,0,1,1.208-.747c.61-.021,1.221,0,1.831,0q0,4.344,0,8.688c-.166.171-.4.14-.6.181a3.542,3.542,0,0,0-1.909,5.983,3.582,3.582,0,0,0,1.819.977C920.289,408.925,920.549,408.89,920.747,409.066Z" transform="translate(-891.703 -387.54)" fill="#394758"/>
        <path id="Trazado_169766" data-name="Trazado 169766" d="M987.221,479.431a3.445,3.445,0,0,1-2.567-1.1c-.056-.207.108-.3.22-.416q2.242-2.252,4.494-4.493c.112-.112.21-.276.417-.221a3.662,3.662,0,0,1,.461,4.624A3.781,3.781,0,0,1,987.221,479.431Z" transform="translate(-958.178 -457.906)" fill="#e1def3"/>
        <path id="Trazado_169767" data-name="Trazado 169767" d="M981.951,465.341c-1.008.993-2.02,1.981-3.022,2.981-.711.709-1.406,1.433-2.108,2.15a3.558,3.558,0,0,1-.87-3.837,3.61,3.61,0,0,1,6-1.294Z" transform="translate(-950.345 -450.046)" fill="#f8f8f8"/>
      </g>
    </g>
  </g>
</svg>
