<svg xmlns="http://www.w3.org/2000/svg" width="88" height="88" viewBox="0 0 88 88">
  <g id="Grupo_123950" data-name="Grupo 123950" transform="translate(-459 -2573)">
    <g id="Grupo_123770" data-name="Grupo 123770" transform="translate(459 2573)">
      <g id="Grupo_120568" data-name="Grupo 120568">
        <g id="Elipse_6757" data-name="Elipse 6757" fill="#fff" stroke="#2631a0" stroke-width="4">
          <circle cx="44" cy="44" r="44" stroke="none"/>
          <circle cx="44" cy="44" r="42" fill="none"/>
        </g>
      </g>
      <g id="Grupo_123769" data-name="Grupo 123769" transform="translate(18.921 14.489)">
        <path id="Trazado_169707" data-name="Trazado 169707" d="M1064.958,457.148q.01-.975.019-1.95a.831.831,0,0,1,.644-.157c.684-.007,1.367,0,2.051,0a2.535,2.535,0,0,0,2.793-2.789q.011-7.715,0-15.43,0-9.912,0-19.824a1.464,1.464,0,0,1,.133-.9.706.706,0,0,1,.465-.109q1.512-.007,3.023,0a.694.694,0,0,1,.464.113,1.689,1.689,0,0,1,.134,1q.006,17.872,0,35.744c0,1.188,0,2.377,0,3.565a1.038,1.038,0,0,1-.158.745Z" transform="translate(-1028.014 -407.13)" fill="#43809f"/>
        <path id="Trazado_169708" data-name="Trazado 169708" d="M980.045,488.79c.013.161.038.322.038.484q0,15.284,0,30.568c0,.146-.008.293-.012.439H970.5l.017-1.955a.85.85,0,0,1,.646-.151c.715-.007,1.431,0,2.146,0a2.426,2.426,0,0,0,2.639-2.354c.012-.339.064-.678.064-1.02q0-12.609,0-25.218c0-.244-.02-.487-.006-.732a.269.269,0,0,1,.085-.165,1,1,0,0,1,.565-.108c.909,0,1.818-.007,2.727,0C979.62,488.58,979.878,488.552,980.045,488.79Z" transform="translate(-945.863 -470.263)" fill="#08a8f0"/>
        <path id="Trazado_169710" data-name="Trazado 169710" d="M880.415,563.8c1.236-.01,2.473-.016,3.709-.034.241,0,.319.1.3.321-.01.1,0,.2,0,.293v21.3h-9.574a3.077,3.077,0,0,1-.037-1.961.928.928,0,0,1,.651-.144c.748-.007,1.5.01,2.245-.007a2.6,2.6,0,0,0,1.9-.755,2.13,2.13,0,0,0,.661-1.57c-.007-1.057,0-2.115,0-3.173q0-6.712,0-13.423A1.175,1.175,0,0,1,880.415,563.8Z" transform="translate(-862.52 -535.661)" fill="#fc5426"/>
        <path id="Trazado_169711" data-name="Trazado 169711" d="M787.13,637.48l3.977-.006c.316.381.126.83.169,1.248,0,.063,0,.126,0,.189.029,3.44.009,6.879.01,10.319a.758.758,0,0,1-.155.548H781.56l0-1.954a.919.919,0,0,1,.651-.147c.716,0,1.432-.009,2.148,0a2.505,2.505,0,0,0,2.64-2.666c-.063-2.26-.018-4.523-.014-6.785A1.015,1.015,0,0,1,787.13,637.48Z" transform="translate(-781.544 -599.761)" fill="#fdb137"/>
        <path id="Trazado_169713" data-name="Trazado 169713" d="M1068.661,348.077a1.148,1.148,0,0,1,.487,1.055,1.011,1.011,0,0,1,.16.693q0,1.723,0,3.447a1.029,1.029,0,0,1-.161.694c0,.843.018,1.687-.013,2.529-.015.4.129.488.5.484,1.686-.02,3.372-.016,5.058-.014.169,0,.36-.071.5.087l-3.9.008a.877.877,0,0,1-.645.163c-1.43,0-2.86.005-4.289,0-.222,0-.463.029-.631-.178a3.679,3.679,0,0,1,1.4-.057c.469.023.562-.15.558-.582-.019-2.438,0-4.875-.019-7.313a1.032,1.032,0,0,1,.5-1.013Z" transform="translate(-1028.688 -348.077)" fill="#b3d1e1"/>
        <path id="Trazado_169714" data-name="Trazado 169714" d="M1065,416.872l5.565.017q0,18.091,0,36.182a2.667,2.667,0,0,1-2.912,2.9q-1.367,0-2.734,0c0-.162-.011-.325-.011-.487q0-19.006,0-38.012C1064.907,417.275,1064.824,417.051,1065,416.872Z" transform="translate(-1027.952 -407.907)" fill="#88c3e0"/>
        <path id="Trazado_169715" data-name="Trazado 169715" d="M976.063,489.429c.171.137.109.33.109.5q0,12.935,0,25.871a5.2,5.2,0,0,1-.156,1.3,2.524,2.524,0,0,1-2.509,1.844c-.993.008-1.985,0-2.978,0-.005-.065-.015-.13-.015-.194q0-14.651,0-29.3c.436-.272.921-.085,1.38-.148,1.237-.024,2.474-.027,3.71.006A.619.619,0,0,1,976.063,489.429Z" transform="translate(-945.874 -470.878)" fill="#01bff9"/>
        <path id="Trazado_169716" data-name="Trazado 169716" d="M874.965,582.844q-.007-4.182-.015-8.363c0-.21-.011-.421-.017-.631a2.02,2.02,0,0,1-.108-1.05c-.017-.406,0-.813,0-1.219a.516.516,0,0,1,.581-.606c.52-.009,1.041,0,1.561-.008s.573-.058.577-.553c.008-1.024.018-2.049,0-3.073a1.389,1.389,0,0,0-1.544-1.541c-1.2-.024-1.2-.024-1.187-1.238,0-.1.008-.195.009-.293a2.9,2.9,0,0,1,.132-1.39.828.828,0,0,1,.509-.12q1.546-.011,3.092,0a.741.741,0,0,1,.5.13l1.476.031c0,5.779-.034,11.559.024,17.338a2.661,2.661,0,0,1-2.606,2.584Z" transform="translate(-862.631 -534.78)" fill="#fc6930"/>
        <path id="Trazado_169717" data-name="Trazado 169717" d="M787.043,637.368c0,2.588-.03,5.176.011,7.763a2.583,2.583,0,0,1-2.556,2.578c-1.009.02-2.018,0-3.027,0q0-4.978-.013-9.955c0-.269.038-.416.365-.412C783.562,637.365,785.3,637.363,787.043,637.368Z" transform="translate(-781.457 -599.649)" fill="#fec244"/>
        <path id="Trazado_169718" data-name="Trazado 169718" d="M848.564,509.507l-.025,1.362a.69.69,0,0,1-.546.156q-1.488.011-2.977,0a.71.71,0,0,1-.547-.157c-.007-1.307-.009-2.614-.028-3.921a.814.814,0,0,1,.195-.474,11.514,11.514,0,0,1,1.98-1.974c.995-.983,2-1.957,2.978-2.956.258-.264.406-.27.653,0,.426.47.88.916,1.345,1.348.228.212.2.342-.01.545-.907.888-1.8,1.791-2.7,2.69-.172.172-.369.333-.317.62a.762.762,0,0,1,.143.457q.016.925,0,1.849A.671.671,0,0,1,848.564,509.507Z" transform="translate(-836.234 -481.37)" fill="#01bff9"/>
        <path id="Trazado_169719" data-name="Trazado 169719" d="M997.251,435.333c-1.333-.064-2.665-.038-4-.014a1.433,1.433,0,0,1-1.583-1.55c-.023-.614-.014-1.23,0-1.845.006-.366-.128-.534-.51-.522-.266.008-.558.066-.777-.17a1.141,1.141,0,0,1-.094-.568q-.005-1.455,0-2.909a1.007,1.007,0,0,1,.1-.564.838.838,0,0,1,.633-.049,3.967,3.967,0,0,1,3.523,4.056c0,.342.015.684,0,1.024-.016.3.11.4.4.4.667-.012,1.333,0,2-.005.2,0,.348.023.342.283C997.267,433.708,997.261,434.52,997.251,435.333Z" transform="translate(-963.069 -416.806)" fill="#fc9368"/>
        <path id="Trazado_169720" data-name="Trazado 169720" d="M844.612,574.442h4.07c.006.325.032.651.014.974-.016.287.056.42.373.391a7.162,7.162,0,0,1,.878,0,1.461,1.461,0,0,1,1.478,1.445c.025,1.235,0,2.472.014,3.708,0,.267-.1.328-.341.324-.683-.013-1.366.008-2.049-.01-.275-.007-.363.073-.358.353.012.8-.006,1.593-.013,2.389l-2.694,0c0-.032,0-.064,0-.1a.8.8,0,0,1,.6-.144c.488-.007.976,0,1.464,0,.248,0,.407-.088.409-.364q.013-2.171,0-4.342c0-.264-.161-.367-.394-.41a5.017,5.017,0,0,1-1.17-.334,1.618,1.618,0,0,1-.921-.753A3.811,3.811,0,0,1,844.612,574.442Z" transform="translate(-836.376 -544.943)" fill="#0680ae"/>
        <path id="Trazado_169721" data-name="Trazado 169721" d="M962.913,427.172q0,2.027-.009,4.054c-.145.247-.4.183-.612.2-.57.035-.594.049-.6.631-.006.862,0,1.724,0,2.586a.926.926,0,0,1-.138.652,16.633,16.633,0,0,1-2.722-.022c-.009-1.077-.013-2.153-.031-3.23,0-.161.1-.355-.092-.486a15.211,15.211,0,0,1-.052-2.036c-.021-.5.036-1.005-.03-1.507.044-.89.044-.89.941-.89.957,0,1.914,0,2.871,0A.852.852,0,0,1,962.913,427.172Z" transform="translate(-935.537 -416.815)" fill="#0681ae"/>
        <path id="Trazado_169722" data-name="Trazado 169722" d="M920.915,434.283a15.021,15.021,0,0,1-.029,3.506q-1.837,1.853-3.672,3.708c-.141.143-.25.171-.4.014-.512-.523-1.026-1.045-1.555-1.551-.27-.258-.013-.365.118-.5q2.031-2.042,4.07-4.075c.068-.068.126-.146.188-.22A9.423,9.423,0,0,0,920.915,434.283Z" transform="translate(-897.716 -423.049)" fill="#017296"/>
        <path id="Trazado_169723" data-name="Trazado 169723" d="M854.869,598.463a4.008,4.008,0,0,0,2.293.965c.284.031.35.136.348.393-.008,1.53-.012,3.061,0,4.591,0,.335-.127.413-.432.407-.732-.016-1.465-.005-2.2-.005q-.021-.633-.042-1.266Q854.855,601,854.869,598.463Z" transform="translate(-845.278 -565.834)" fill="#017296"/>
        <path id="Trazado_169724" data-name="Trazado 169724" d="M876.078,545.562q0-1.38,0-2.759c1.221,0,2.442.015,3.662,0,.344,0,.448.1.437.44-.025.764-.011,1.53-.013,2.295Z" transform="translate(-863.747 -517.424)" fill="#08a8f0"/>
        <path id="Trazado_169725" data-name="Trazado 169725" d="M939.739,412.67a1.805,1.805,0,0,1-1.283.885c-.851.195-.978.109-1.2-.775-.131-.517-.283-1.028-.412-1.546a1.35,1.35,0,0,1,1.6-1.78,1.3,1.3,0,0,1,.947.831,3.59,3.59,0,0,1,.2.6c.225.808.223.809,1.031.808,1.121,0,2.241,0,3.362,0,.173,0,.36-.056.514.079l-.577.021c-1.276-.01-2.552-.016-3.829-.032-.222,0-.262.086-.258.29A3.562,3.562,0,0,1,939.739,412.67Z" transform="translate(-916.54 -401.436)" fill="#feede5"/>
        <path id="Trazado_169726" data-name="Trazado 169726" d="M842.134,513.4c-.632.686-1.286,1.35-1.979,1.974a.934.934,0,0,1-.362-.446,5.644,5.644,0,0,1-.5-1.96,1.314,1.314,0,0,1,1.125-1.368,1.364,1.364,0,0,1,1.444.823A9.617,9.617,0,0,1,842.134,513.4Z" transform="translate(-831.752 -490.273)" fill="#fdd1a3"/>
        <path id="Trazado_169727" data-name="Trazado 169727" d="M960.206,489.7l2.7,0,.039.029-.008.048-1.384.029C961.107,489.729,960.64,489.915,960.206,489.7Z" transform="translate(-936.912 -471.242)" fill="#3da3c9"/>
        <path id="Trazado_169728" data-name="Trazado 169728" d="M980.957,462.794a.094.094,0,0,0-.031-.077c0-1.211.017-2.422,0-3.632,0-.313.079-.431.4-.406s.645,0,.967-.01c.34.008.681.034,1.019.02.279-.011.365.094.359.365-.015.681-.006,1.362,0,2.043a1.492,1.492,0,0,0,1.443,1.672l0,.039Z" transform="translate(-954.932 -444.256)" fill="#fefefe"/>
        <path id="Trazado_169729" data-name="Trazado 169729" d="M1091.931,361.007v-4.834q2.8,1.112,5.607,2.226c.1.04.255.053.255.189s-.155.151-.255.191Q1094.736,359.9,1091.931,361.007Z" transform="translate(-1051.471 -355.118)" fill="#fc4755"/>
      </g>
    </g>
  </g>
</svg>
