<svg xmlns="http://www.w3.org/2000/svg" width="88" height="88" viewBox="0 0 88 88">
  <g id="Grupo_123959" data-name="Grupo 123959" transform="translate(-1032 -3743)">
    <g id="Grupo_123790" data-name="Grupo 123790" transform="translate(1032 3743)">
      <g id="Elipse_6770" data-name="Elipse 6770" fill="#fff" stroke="#2631a0" stroke-width="4">
        <circle cx="44" cy="44" r="44" stroke="none"/>
        <circle cx="44" cy="44" r="42" fill="none"/>
      </g>
      <g id="Grupo_123789" data-name="Grupo 123789" transform="translate(16.474 16.578)">
        <path id="Trazado_169969" data-name="Trazado 169969" d="M916.605,358.684q-.007-4.65-.014-9.3a1.384,1.384,0,0,1,.846-1.3h9.533c.179.221.054.449,0,.663a13.654,13.654,0,0,1-3.351,5.831,14.211,14.211,0,0,1-6.284,4.016A1.086,1.086,0,0,1,916.605,358.684Z" transform="translate(-895.371 -348.081)" fill="#f67a9f"/>
        <path id="Trazado_169970" data-name="Trazado 169970" d="M916.648,358.684a14.336,14.336,0,0,0,4.519-2.106,14.971,14.971,0,0,0,5.461-7,14.244,14.244,0,0,0,.384-1.492h1.178a1.678,1.678,0,0,1,.758,1.584c-.028,3.052-.012,6.1-.012,9.157,0,1.156-.411,1.559-1.589,1.559h-9.1C917,360.381,916.577,359.935,916.648,358.684Z" transform="translate(-895.413 -348.081)" fill="#ff004c"/>
        <path id="Trazado_169971" data-name="Trazado 169971" d="M779.44,509.629c-.183.165-.408.1-.614.1-2.978,0-5.956-.023-8.933,0a1.919,1.919,0,0,1-1.82-.859v-.857c.178-.116.219-.32.3-.491q2.207-4.4,4.4-8.8c.072-.143.148-.285.215-.431a1.288,1.288,0,0,1,1.242-.856,1.358,1.358,0,0,1,1.186.872q1.079,2.181,2.169,4.356a14.953,14.953,0,0,1-6.489,6.813c2.539,0,5.19,0,7.842,0A.573.573,0,0,1,779.44,509.629Z" transform="translate(-768.072 -476.095)" fill="#fee077"/>
        <path id="Trazado_169972" data-name="Trazado 169972" d="M931.93,661.659l-4.054-2.377c.066-.346.395-.371.629-.5a15.281,15.281,0,0,0,6.609-6.688,11.206,11.206,0,0,0,.688-1.736c.063-.2.073-.5.433-.395a10.332,10.332,0,0,1,1.7.99,1.529,1.529,0,0,1,.643,1.289q.006,2.593,0,5.186a1.67,1.67,0,0,1-.923,1.518c-1.587.905-3.139,1.872-4.765,2.708Z" transform="translate(-905.044 -606.816)" fill="#fd73c4"/>
        <path id="Trazado_169973" data-name="Trazado 169973" d="M1086.983,516.113c-.261.6-.378,1.242-.683,1.828a6.123,6.123,0,0,1-10.143,1.071c-.014-.286.241-.269.4-.326a14.875,14.875,0,0,0,8.394-7.475c.068-.13.074-.328.292-.331a5.338,5.338,0,0,1,1.63,3.025c.022.1-.009.218.11.279Z" transform="translate(-1032.139 -487.621)" fill="#242ca3"/>
        <path id="Trazado_169974" data-name="Trazado 169974" d="M917.637,554.593q-5.694.007-11.389.01a1.04,1.04,0,0,1-1.115-1,33.052,33.052,0,0,1,.077-5.017,3.436,3.436,0,0,1,3.37-2.874c1.194-.022,2.388-.015,3.582-.021.438-.251.916-.1,1.375-.139.391-.013.764.15,1.157.115a3.566,3.566,0,0,1,3.077,3.51c.068,1.637.019,3.279.015,4.919A.677.677,0,0,1,917.637,554.593Z" transform="translate(-885.5 -517.328)" fill="#6c7fd7"/>
        <path id="Trazado_169975" data-name="Trazado 169975" d="M927.046,638.6c-.269.026-.268.267-.318.438a13.666,13.666,0,0,1-2.743,4.83,16.733,16.733,0,0,1-5.3,4.046c-.186-.1-.381-.194-.556-.313a1.921,1.921,0,0,1-.975-1.72c.03-1.6.024-3.208,0-4.811a1.827,1.827,0,0,1,.993-1.7c1.4-.818,2.8-1.623,4.208-2.428a1.809,1.809,0,0,1,1.927.045Z" transform="translate(-895.855 -595.453)" fill="#fd92d2"/>
        <path id="Trazado_169976" data-name="Trazado 169976" d="M1076.712,499.311a14.852,14.852,0,0,1-8.662,7.93c-.145.051-.321.055-.424.2a6.1,6.1,0,0,1,3.419-9.9,5.955,5.955,0,0,1,5.522,1.555A1.04,1.04,0,0,1,1076.712,499.311Z" transform="translate(-1023.608 -476.051)" fill="#4e53a5"/>
        <path id="Trazado_169977" data-name="Trazado 169977" d="M923.251,479.663a5.306,5.306,0,0,1,2.4-7.56,5.126,5.126,0,0,1,4.9.255,5.27,5.27,0,0,1-.334,5.434,5.507,5.507,0,0,1-6.038,2.267A5.248,5.248,0,0,1,923.251,479.663Z" transform="translate(-900.44 -453.951)" fill="#fdd1a3"/>
        <path id="Trazado_169978" data-name="Trazado 169978" d="M815.77,369.646c-.462-.462-.829-.821-1.187-1.188-.417-.427-.457-.876-.122-1.225a.8.8,0,0,1,1.228.069q1.26,1.238,2.5,2.5a.8.8,0,0,1,.01,1.3q-1.256,1.28-2.536,2.536a.8.8,0,1,1-1.129-1.127c.377-.394.775-.77,1.268-1.258h-.66q-3.239,0-6.477,0c-1.2,0-1.726.529-1.727,1.728q0,4.336,0,8.672a2.233,2.233,0,0,1-.043.583.737.737,0,0,1-.833.6.725.725,0,0,1-.721-.719,3.712,3.712,0,0,1-.008-.374c0-2.926.05-5.854-.018-8.778a3.172,3.172,0,0,1,3.358-3.326C810.986,369.683,813.305,369.646,815.77,369.646Z" transform="translate(-799.989 -364.278)" fill="#4f66cf"/>
        <path id="Trazado_169979" data-name="Trazado 169979" d="M1024.99,616.092c.386.365.785.719,1.156,1.1a.8.8,0,1,1-1.117,1.138q-1.3-1.273-2.575-2.575a.773.773,0,0,1,.01-1.224q1.273-1.3,2.575-2.576a.8.8,0,1,1,1.143,1.112c-.377.4-.781.779-1.171,1.165.125.191.282.111.406.111q3.321.009,6.641,0c1.158,0,1.693-.542,1.694-1.708q0-4.365,0-8.73a1.471,1.471,0,0,1,.089-.683.754.754,0,0,1,.829-.451.719.719,0,0,1,.674.651,2.623,2.623,0,0,1,.015.427q0,4.418,0,8.837a3.044,3.044,0,0,1-3.283,3.265q-3.505,0-7.011,0Z" transform="translate(-985.855 -566.378)" fill="#4f66cf"/>
        <path id="Trazado_169980" data-name="Trazado 169980" d="M1035.658,396.022c.335-.385.654-.784,1.008-1.151a.813.813,0,1,1,1.142,1.115q-1.221,1.238-2.459,2.459a.831.831,0,0,1-1.346-.019q-1.237-1.222-2.461-2.458c-.429-.434-.458-.86-.1-1.22a.83.83,0,0,1,1.23.084c.366.359.713.738,1.069,1.108.19-.154.124-.306.124-.435q.008-3.318,0-6.635c0-1.155-.542-1.691-1.709-1.693q-4.361-.006-8.722,0a3.042,3.042,0,0,1-.481-.014.789.789,0,0,1-.192-1.5,1.521,1.521,0,0,1,.682-.093c2.89,0,5.78.038,8.669-.013a3.181,3.181,0,0,1,3.378,3.36c-.073,2.316-.017,4.635-.017,6.953Z" transform="translate(-985.965 -380.203)" fill="#4f66cf"/>
        <path id="Trazado_169981" data-name="Trazado 169981" d="M789.2,605.4c-.333.386-.651.786-1,1.153a.813.813,0,1,1-1.142-1.115q1.2-1.219,2.424-2.423a.846.846,0,0,1,1.386-.016q1.239,1.222,2.46,2.462c.429.435.451.864.093,1.221a.834.834,0,0,1-1.232-.1c-.364-.358-.71-.735-1.064-1.1-.176.155-.122.287-.122.4q-.006,3.347,0,6.693a1.473,1.473,0,0,0,1.679,1.67q4.337.006,8.675,0a3.166,3.166,0,0,1,.587.022.789.789,0,0,1,.182,1.485,1.565,1.565,0,0,1-.735.1c-2.892,0-5.784-.032-8.675.01a3.168,3.168,0,0,1-3.339-3.346c.075-2.318.018-4.639.018-6.959Z" transform="translate(-784.049 -566.278)" fill="#4f66cf"/>
        <path id="Trazado_169982" data-name="Trazado 169982" d="M927.731,484.22c.512-.058.928.262,1.409.357a5.345,5.345,0,0,0,6.318-5.086,5.641,5.641,0,0,0-.435-2.34c-.036-.082-.083-.162.012-.236a5.357,5.357,0,0,1,1.311,8.18,6.493,6.493,0,0,1-2.732,1.683c-.189.145-.427-.013-.62.1l-1.411-.012a5.588,5.588,0,0,1-3.668-2.325C927.845,484.441,927.792,484.328,927.731,484.22Z" transform="translate(-904.92 -458.508)" fill="#febc85"/>
        <path id="Trazado_169983" data-name="Trazado 169983" d="M795.447,541q-4.331-.008-8.662-.018c-.007,0-.014-.024-.037-.065.792-.522,1.624-.984,2.381-1.569a14.936,14.936,0,0,0,4.116-4.892c.086-.162.1-.4.357-.422.868,1.731,1.75,3.455,2.6,5.195A1.189,1.189,0,0,1,795.447,541Z" transform="translate(-784.08 -507.462)" fill="#fed05b"/>
        <path id="Trazado_169984" data-name="Trazado 169984" d="M975.656,555.254c0-1.533-.043-3.068.006-4.6a3.848,3.848,0,0,0-2.9-4.271,15.306,15.306,0,0,1,2.675-.027,3.564,3.564,0,0,1,3.317,3.588c.007,1.335,0,2.671,0,4.006,0,.905-.4,1.316-1.286,1.32C976.866,555.273,976.261,555.26,975.656,555.254Z" transform="translate(-943.518 -517.989)" fill="#4f66cf"/>
        <path id="Trazado_169985" data-name="Trazado 169985" d="M968.408,546.023l-2.675.027-1.172-.023c.187-.153.413-.075.621-.1.888,0,1.776,0,2.665.007C968.036,545.934,968.24,545.874,968.408,546.023Z" transform="translate(-936.487 -517.655)" fill="#dbdef3"/>
      </g>
    </g>
  </g>
</svg>
