<svg xmlns="http://www.w3.org/2000/svg" width="88" height="88" viewBox="0 0 88 88">
  <g id="Grupo_123951" data-name="Grupo 123951" transform="translate(-1032 -2700)">
    <g id="Grupo_123772" data-name="Grupo 123772" transform="translate(1032 2700)">
      <g id="Elipse_6762" data-name="Elipse 6762" fill="#fff" stroke="#2631a0" stroke-width="4">
        <circle cx="44" cy="44" r="44" stroke="none"/>
        <circle cx="44" cy="44" r="42" fill="none"/>
      </g>
      <g id="Grupo_123771" data-name="Grupo 123771" transform="translate(18.793 18.875)">
        <path id="Trazado_169733" data-name="Trazado 169733" d="M842.761,649.826a9.191,9.191,0,0,1,4.9,6.9c.109.651.047,1.3.1,1.951a1.69,1.69,0,0,1-1.086,1.864H838.44a.7.7,0,0,1-.153-.5c0-2.668-.019-5.337.008-8a1.03,1.03,0,0,1,.02-.144.516.516,0,0,1,.063-.159.508.508,0,0,1,.4-.147,5.578,5.578,0,0,0,3.568-1.539C842.457,649.933,842.57,649.794,842.761,649.826Z" transform="translate(-829.124 -610.286)" fill="#fe1e61"/>
        <path id="Trazado_169734" data-name="Trazado 169734" d="M1083.765,649.835a9.14,9.14,0,0,1,4.9,6.967c.012.079,0,.165.091.21v2.454a1.2,1.2,0,0,1-1.079,1.08h-8.237a.768.768,0,0,1-.155-.553q-.008-3.876,0-7.752a1.27,1.27,0,0,1,.051-.387c.08-.224.273-.251.472-.267a5.755,5.755,0,0,0,3.509-1.5C1083.444,649.978,1083.554,649.811,1083.765,649.835Z" transform="translate(-1038.551 -610.296)" fill="#fec708"/>
        <path id="Trazado_169735" data-name="Trazado 169735" d="M777.72,651.691l-.006,8.82h-8.237a1.277,1.277,0,0,1-1.079-1.08v-2.65c.175-.1.127-.291.157-.436a9.281,9.281,0,0,1,4.839-6.543c.193-.047.3.09.417.2a5.848,5.848,0,0,0,3.461,1.545C777.431,651.567,777.6,651.538,777.72,651.691Z" transform="translate(-768.398 -610.261)" fill="#f583a5"/>
        <path id="Trazado_169736" data-name="Trazado 169736" d="M1018.583,651.665l0,8.814h-8.237a1.948,1.948,0,0,1-1.1-2.025,9.53,9.53,0,0,1,2.809-7.075,8.875,8.875,0,0,1,2.206-1.61.283.283,0,0,1,.306.1,6.161,6.161,0,0,0,3.905,1.693A.208.208,0,0,1,1018.583,651.665Z" transform="translate(-977.693 -610.229)" fill="#fee037"/>
        <path id="Trazado_169737" data-name="Trazado 169737" d="M959.817,348.072a13.184,13.184,0,0,1,1.864.674,5.894,5.894,0,0,1,1.691,9.072,1.776,1.776,0,0,0-.114.158.436.436,0,0,1-.177.333,5.911,5.911,0,0,1-3.519,1.656.867.867,0,0,1-.661-.107.5.5,0,0,1-.08-.161,2.575,2.575,0,0,1-.044-.635q0-5.1,0-10.193a1.117,1.117,0,0,1,.157-.8Z" transform="translate(-933.831 -348.072)" fill="#fedbb2"/>
        <path id="Trazado_169738" data-name="Trazado 169738" d="M920.966,348.072q0,5.879,0,11.757a.469.469,0,0,1-.488.138,5.956,5.956,0,0,1-3.573-1.6.657.657,0,0,1-.259-.4,6.027,6.027,0,0,1-1.568-4.1,5.93,5.93,0,0,1,4.414-5.612,1.244,1.244,0,0,0,.589-.193Z" transform="translate(-895.862 -348.072)" fill="#fee8ca"/>
        <path id="Trazado_169741" data-name="Trazado 169741" d="M893.833,423.648a6.129,6.129,0,0,0,3.735,1.853,4.874,4.874,0,0,0,.585,0l-.005.037a.833.833,0,0,1,.159.647q.006,3.773,0,7.546a1.016,1.016,0,0,1-.124.614,1.7,1.7,0,0,1-1.505.024l-6.128-.014a1.536,1.536,0,0,1-1.72-1.717,10.075,10.075,0,0,1,.838-4.585A9.3,9.3,0,0,1,893.833,423.648Z" transform="translate(-873.046 -413.746)" fill="#37c2fe"/>
        <path id="Trazado_169742" data-name="Trazado 169742" d="M844.066,505.271l1.473-.032.065.072a1.282,1.282,0,0,1,.09.622q0,2.348,0,4.7a.923.923,0,0,1-.151.7q-3.94.008-7.879.015c-1.991,0-3.981.012-5.971-.01-.4,0-.487.119-.478.493.022.881,0,1.763-.007,2.645-.49.125-.969-.123-1.458-.046a4.537,4.537,0,0,0-.951.084c-.166.034-.344.1-.5-.032,0-1.535-.02-3.07-.008-4.6a1.463,1.463,0,0,1,1.606-1.472c4.52,0,9.04-.011,13.559.012.52,0,.655-.14.629-.642C844.037,506.938,844.067,506.1,844.066,505.271Z" transform="translate(-820.435 -484.647)" fill="#6e809e"/>
        <path id="Trazado_169743" data-name="Trazado 169743" d="M799.007,574.5a4.386,4.386,0,0,1,1.456-.173.833.833,0,0,1,.158.645q.006,5.23,0,10.46a.84.84,0,0,1-.163.645l.011.024a5.889,5.889,0,0,1-5.892-5.993,5.933,5.933,0,0,1,3.916-5.449C798.663,574.6,798.836,574.553,799.007,574.5Z" transform="translate(-791.148 -544.672)" fill="#fee8ca"/>
        <path id="Trazado_169744" data-name="Trazado 169744" d="M959.988,434.349q0-4.4,0-8.8a5.917,5.917,0,0,0,4.325-1.89,9.179,9.179,0,0,1,4.9,6.914,13.663,13.663,0,0,1,.087,2.151,1.466,1.466,0,0,1-1.619,1.642l-6.222.016a1.784,1.784,0,0,1-1.47,0Z" transform="translate(-934.884 -413.757)" fill="#00a6f3"/>
        <path id="Trazado_169745" data-name="Trazado 169745" d="M960.013,505.489h1.47c0,.883.018,1.766-.01,2.648-.012.379.086.488.478.487,4.54-.015,9.08-.01,13.62-.009a1.486,1.486,0,0,1,1.7,1.708q0,2.182-.016,4.363c-.49.124-.968-.123-1.457-.047a4.527,4.527,0,0,0-.95.084c-.166.034-.344.1-.5-.032,0-.882-.036-1.765,0-2.645.016-.426-.127-.5-.519-.5-4.406.014-8.813.009-13.219.008-.2,0-.391-.01-.587-.015Q960.014,508.516,960.013,505.489Z" transform="translate(-934.908 -484.864)" fill="#5a6680"/>
        <path id="Trazado_169746" data-name="Trazado 169746" d="M1079.436,574.294a3.443,3.443,0,0,1,1.455.167,5.906,5.906,0,0,1,2.869,9.716,5.873,5.873,0,0,1-4.325,1.9l.005-.041a.815.815,0,0,1-.161-.646q-.007-5.223,0-10.445A.842.842,0,0,1,1079.436,574.294Z" transform="translate(-1038.545 -544.638)" fill="#fedbb2"/>
        <path id="Trazado_169747" data-name="Trazado 169747" d="M839.459,586.041l0-11.75a3.465,3.465,0,0,1,1.456.167,5.88,5.88,0,0,1-1.46,11.583Z" transform="translate(-830.149 -544.636)" fill="#fedbb2"/>
        <path id="Trazado_169748" data-name="Trazado 169748" d="M1041.462,574.337q0,5.87,0,11.74a5.62,5.62,0,0,1-3.888-1.461c-.148-.128-.291-.262-.436-.393a6.059,6.059,0,0,1-1.565-4.1,5.936,5.936,0,0,1,3.917-5.449c.169-.058.342-.106.513-.159A4.426,4.426,0,0,1,1041.462,574.337Z" transform="translate(-1000.572 -544.681)" fill="#fee8ca"/>
      </g>
    </g>
  </g>
</svg>
