<svg xmlns="http://www.w3.org/2000/svg" width="88" height="88" viewBox="0 0 88 88">
  <g id="Grupo_123953" data-name="Grupo 123953" transform="translate(-1032 -2955)">
    <g id="Grupo_123776" data-name="Grupo 123776" transform="translate(1032 2955)">
      <g id="Elipse_6764" data-name="Elipse 6764" fill="#fff" stroke="#2631a0" stroke-width="4">
        <circle cx="44" cy="44" r="44" stroke="none"/>
        <circle cx="44" cy="44" r="42" fill="none"/>
      </g>
      <g id="Grupo_123775" data-name="Grupo 123775" transform="translate(22.393 15.058)">
        <path id="Trazado_169769" data-name="Trazado 169769" d="M794.235,444h-19.37a1.617,1.617,0,0,1-1.326-1.8c0-.21,0-.421,0-.631q0-21.064-.017-42.128c0-1.734.725-2.516,2.45-2.472,2.47.062,4.943.014,7.415.018a1.431,1.431,0,0,1,.868.138.679.679,0,0,1,.14.437c.02.778.019,1.556,0,2.335a.715.715,0,0,1-.132.44,1.263,1.263,0,0,1-.812.146c-1.825,0-3.649,0-5.474,0-.936,0-.938,0-.938.921q0,9.4,0,18.791,0,9.764,0,19.528c0,.948,0,.949.96.949q7.632,0,15.264,0a1.634,1.634,0,0,1,.973.141.617.617,0,0,1,.158.435c.025.772.021,1.543,0,2.315A.646.646,0,0,1,794.235,444Z" transform="translate(-773.521 -390.102)" fill="#febf10"/>
        <path id="Trazado_169771" data-name="Trazado 169771" d="M924.6,348.072a1.894,1.894,0,0,1,1.172,2.057c-.055,1.31-.014,1.311,1.276,1.311.438,0,.876,0,1.313,0a1.554,1.554,0,0,1,1.606,1.629c.006.683,0,1.366,0,2.049a.836.836,0,0,1,.164.588c0,.851.019,1.7-.01,2.552.019.7.025,1.4,0,2.1a1.709,1.709,0,0,1-1.766,1.762c-2.624.031-5.248.014-7.872.008a1.092,1.092,0,0,1-.463-.079.333.333,0,0,1-.143-.147,1.961,1.961,0,0,1-.083-.778q0-6.1,0-12.2a1.2,1.2,0,0,1,.169-.855Z" transform="translate(-899.258 -348.072)" fill="#febf10"/>
        <path id="Trazado_169772" data-name="Trazado 169772" d="M858.782,348.072q0,6.943,0,13.885c-.192.208-.45.173-.69.174-2.509,0-5.018.013-7.527,0a1.792,1.792,0,0,1-1.951-1.929c-.009-.439-.006-.877,0-1.316a.825.825,0,0,1,.16-.595v-3.17c0-.667,0-1.333,0-2a1.588,1.588,0,0,1,1.684-1.678c.684,0,1.369-.018,2.052.006.357.013.522-.082.479-.464-.027-.242.016-.493-.009-.736a1.928,1.928,0,0,1,1.162-2.176Z" transform="translate(-838.067 -348.072)" fill="#f9e424"/>
        <path id="Trazado_169773" data-name="Trazado 169773" d="M921.033,627.475q0-1.573.006-3.146l.072-.074a1.923,1.923,0,0,1,.93-.106q7.629,0,15.259,0c.932,0,.932,0,.932-.923q0-4.289,0-8.577a6.744,6.744,0,0,1,.023-.84.967.967,0,0,1,.325-.637q1.255-1.264,2.52-2.519c.12-.119.234-.27.44-.235q.01,3.236.019,6.473c0,2.86-.025,5.72.016,8.579a1.906,1.906,0,0,1-1.173,2.007Z" transform="translate(-900.319 -573.572)" fill="#febf10"/>
        <path id="Trazado_169774" data-name="Trazado 169774" d="M1015.143,518.646l-3.156,3.156a7.228,7.228,0,0,1-1.987,1.963.642.642,0,0,1-.394-.235q-1.352-1.342-2.694-2.693a.782.782,0,0,1-.251-.389c-.026-.264.155-.417.315-.577q7.959-7.965,15.925-15.924c.153-.152.289-.378.573-.271.684.68,1.374,1.353,2.051,2.04a1.615,1.615,0,0,1-.025,2.533q-4.982,4.989-9.969,9.973C1015.4,518.357,1015.273,518.5,1015.143,518.646Z" transform="translate(-973.92 -481.801)" fill="#f66f97"/>
        <path id="Trazado_169775" data-name="Trazado 169775" d="M1002.975,487.035c-.212.03-.321.2-.454.337q-7.987,7.984-15.97,15.972c-.132.132-.314.236-.322.458a.161.161,0,0,1-.142.013c-1.1-.984-2.105-2.065-3.146-3.108a.418.418,0,0,1-.129-.278c.043-.287.276-.438.458-.621q4.082-4.093,8.17-8.179c.925-.908,1.832-1.834,2.754-2.745.147-.145.267-.33.489-.381l3.619-3.583a1.623,1.623,0,0,1,2.566,0C1001.574,485.618,1002.273,486.328,1002.975,487.035Z" transform="translate(-953.422 -465.16)" fill="#ff004c"/>
        <path id="Trazado_169776" data-name="Trazado 169776" d="M1002.8,414.464l-3.156,3.154c-.276-.272-.187-.624-.187-.946q-.01-7.1,0-14.191c0-.975,0-.976-.98-.976-1.8,0-3.609,0-5.413,0a1.129,1.129,0,0,1-.8-.165V398.17c2.841,0,5.684.047,8.524-.014a1.8,1.8,0,0,1,2.023,2.049c-.055,4.542-.021,9.086-.02,13.629C1002.783,414.044,1002.794,414.254,1002.8,414.464Z" transform="translate(-961.54 -391.122)" fill="#febf10"/>
        <path id="Trazado_169777" data-name="Trazado 169777" d="M804.69,420.789c0,.7-.007,1.4.005,2.1a1.573,1.573,0,0,0,1.56,1.577c2.814.008,5.628,0,8.442-.006l-.006.021a.653.653,0,0,1,.161.486c0,1.138.047,2.277-.028,3.413a.525.525,0,0,1-.177.313c-1.52,1.2-2.754,2.686-4.155,4-.051.048-.1.1-.151.146a.476.476,0,0,1-.771,0c-.374-.369-.731-.756-1.121-1.107a1.452,1.452,0,0,0-1.826-.294,1.379,1.379,0,0,0-.609,1.8,2.448,2.448,0,0,0,.515.723c.72.716,1.432,1.44,2.156,2.152a1.587,1.587,0,0,0,2.559-.015c1-.983,1.975-1.988,2.982-2.961.138-.134.335-.54.588-.072.091,1.853.045,3.705.027,5.556a.845.845,0,0,1-.041.169c-1.558,1.378-2.962,2.916-4.456,4.364a.481.481,0,0,1-.772,0c-.387-.381-.761-.775-1.156-1.147a1.486,1.486,0,0,0-2.12-.057,1.412,1.412,0,0,0,.115,2.1q1.2,1.217,2.415,2.414a1.472,1.472,0,0,0,2.271-.008c1.012-.993,2-2.009,3.016-3,.168-.164.338-.459.649-.184a.733.733,0,0,1,.087.353c0,1.76.052,3.52-.024,5.278a.523.523,0,0,1-.177.313c-1.485,1.158-2.687,2.609-4.044,3.9-.636.6-.667.615-1.3-.011-.311-.308-.6-.642-.94-.918a1.444,1.444,0,0,0-2.4.573,1.394,1.394,0,0,0,.366,1.5c.819.89,1.673,1.748,2.562,2.567a1.505,1.505,0,0,0,2.289-.139c.979-.954,1.936-1.931,2.9-2.9a2.58,2.58,0,0,1,.351-.316c.194-.133.324-.094.386.141.092.911.034,1.822.041,2.732.011,1.4.006,2.8,0,4.206a1,1,0,0,1-.17.748l.01.02q-8.342-.006-16.684-.014c-.79,0-.69.1-.691-.706q0-19.58,0-39.161c0-.755-.087-.662.681-.663Q801.348,420.782,804.69,420.789Z" transform="translate(-793.979 -410.572)" fill="#f3f0f0"/>
        <path id="Trazado_169778" data-name="Trazado 169778" d="M920.279,438.734l-.011-5.922a.183.183,0,0,1,0-.146,15.76,15.76,0,0,1,1.3-1.353c.673-.689.854-1.289.538-1.96a1.514,1.514,0,0,0-1.718-.79.132.132,0,0,1-.112-.084q0-2.028,0-4.055l8.243-.01a1.582,1.582,0,0,0,1.76-1.739c0-.647,0-1.3,0-1.943,2.3,0,4.6.009,6.894-.014.413,0,.483.129.482.506q-.018,7.553-.007,15.106c0,.228.013.455.02.683-.139.156-.27.32-.417.468q-3.932,3.937-7.866,7.871c-.135.135-.254.286-.38.43-1.021,2.126-1.965,4.288-2.95,6.43-.329.714-.669,1.424-.968,2.152a1.487,1.487,0,0,0,.221,1.665,1.4,1.4,0,0,0,1.685.313c1.414-.61,2.807-1.27,4.212-1.9,1.485-.665,2.961-1.35,4.444-2.018l1.982-1.906q.009,5.182.023,10.365c0,.3-.085.392-.385.386-.824-.018-1.648-.006-2.473-.006l-14.522-.008q0-3.956,0-7.912a.182.182,0,0,1,0-.146,15.786,15.786,0,0,1,1.3-1.353c.673-.689.854-1.289.538-1.96a1.515,1.515,0,0,0-1.718-.79.131.131,0,0,1-.112-.084c0-1.771,0-3.542,0-5.313,0-.184.071-.39-.1-.545a.285.285,0,0,1,.07-.287c.49-.524,1.014-1.014,1.512-1.531a1.364,1.364,0,0,0,.385-1.62,1.454,1.454,0,0,0-1.513-.907A.4.4,0,0,1,920.279,438.734Z" transform="translate(-899.562 -410.517)" fill="#d9d4d2"/>
        <path id="Trazado_169779" data-name="Trazado 169779" d="M966.725,626.435a.717.717,0,0,1-.412.308q-4.153,1.9-8.31,3.782a1.41,1.41,0,0,1-1.695-.41c.032-.209.2-.325.331-.458q3.077-3.083,6.162-6.159c.152-.151.271-.384.551-.333a.454.454,0,0,0,.1.005Z" transform="translate(-930.64 -584.528)" fill="#febd86"/>
        <path id="Trazado_169780" data-name="Trazado 169780" d="M960.463,602.57q-1.566,1.543-3.133,3.086-1.957,1.931-3.911,3.864a1.324,1.324,0,0,1-.331-1.625c.821-1.91,1.7-3.8,2.56-5.689q.563-1.241,1.135-2.479a.992.992,0,0,1,.409-.529q1.453,1.468,2.9,2.937A1.292,1.292,0,0,1,960.463,602.57Z" transform="translate(-927.751 -563.934)" fill="#fed1a9"/>
        <path id="Trazado_169781" data-name="Trazado 169781" d="M866.277,480.226a.354.354,0,0,0-.013.089q-1.683,1.661-3.365,3.322a1.663,1.663,0,0,1-2.719.006c-.757-.756-1.516-1.509-2.268-2.27a1.59,1.59,0,1,1,2.234-2.237c.351.343.716.675,1.037,1.045.254.293.412.306.7.013,1.147-1.183,2.326-2.335,3.486-3.506a3.638,3.638,0,0,1,.907-.706.1.1,0,0,1,0,.056.733.733,0,0,1,.167.588c.009.982,0,1.963,0,2.945A1.2,1.2,0,0,1,866.277,480.226Z" transform="translate(-845.557 -458.021)" fill="#12263f"/>
        <path id="Trazado_169782" data-name="Trazado 169782" d="M866.277,626.42a.354.354,0,0,0-.013.089q-1.683,1.661-3.365,3.322a1.663,1.663,0,0,1-2.719.006c-.757-.756-1.516-1.509-2.268-2.27a1.59,1.59,0,1,1,2.234-2.237c.351.343.716.675,1.037,1.045.254.293.412.305.7.013,1.147-1.183,2.326-2.335,3.486-3.506a3.637,3.637,0,0,1,.907-.706.1.1,0,0,1,0,.056.733.733,0,0,1,.167.588c.009.982,0,1.963,0,2.945A1.2,1.2,0,0,1,866.277,626.42Z" transform="translate(-845.557 -583.686)" fill="#12263f"/>
        <path id="Trazado_169783" data-name="Trazado 169783" d="M866.286,553.677l-.12.171-3.322,3.293a1.618,1.618,0,0,1-2.6.013q-1.173-1.17-2.343-2.343a1.583,1.583,0,0,1-.111-2.334,1.608,1.608,0,0,1,2.34.109c.338.331.693.649,1,1.009.286.336.466.374.8.02,1.176-1.228,2.4-2.414,3.6-3.617a1.548,1.548,0,0,1,.726-.5.744.744,0,0,1,.185.631c.01.945,0,1.89.005,2.834A1.87,1.87,0,0,1,866.286,553.677Z" transform="translate(-845.558 -521.215)" fill="#12263f"/>
        <path id="Trazado_169784" data-name="Trazado 169784" d="M821.411,512.426A1.578,1.578,0,1,1,823,510.868,1.595,1.595,0,0,1,821.411,512.426Z" transform="translate(-813.336 -486.634)" fill="#12263f"/>
        <path id="Trazado_169785" data-name="Trazado 169785" d="M822.993,657.05a1.577,1.577,0,1,1-1.557-1.584A1.593,1.593,0,0,1,822.993,657.05Z" transform="translate(-813.335 -612.3)" fill="#12263f"/>
        <path id="Trazado_169786" data-name="Trazado 169786" d="M821.426,582.454a1.566,1.566,0,1,1-1.589,1.554A1.571,1.571,0,0,1,821.426,582.454Z" transform="translate(-813.334 -549.541)" fill="#12263f"/>
        <path id="Trazado_169787" data-name="Trazado 169787" d="M920.94,553q-.016-2.088-.031-4.176a.233.233,0,0,1,.021-.069,1.619,1.619,0,0,1,1.921.787,1.572,1.572,0,0,1-.407,1.992C921.95,552.026,921.442,552.508,920.94,553Z" transform="translate(-900.212 -520.534)" fill="#08475e"/>
        <path id="Trazado_169788" data-name="Trazado 169788" d="M921.026,479.883q0-2.094-.008-4.187a1.516,1.516,0,0,1,1.81.513,1.574,1.574,0,0,1-.087,1.986C922.2,478.784,921.6,479.323,921.026,479.883Z" transform="translate(-900.306 -457.678)" fill="#08475e"/>
        <path id="Trazado_169789" data-name="Trazado 169789" d="M921.026,626.078q0-2.094-.008-4.187a1.516,1.516,0,0,1,1.81.513,1.574,1.574,0,0,1-.087,1.986C922.2,624.978,921.6,625.517,921.026,626.078Z" transform="translate(-900.306 -583.343)" fill="#08475e"/>
      </g>
    </g>
  </g>
</svg>
