<svg xmlns="http://www.w3.org/2000/svg" width="88" height="88" viewBox="0 0 88 88">
  <g id="Grupo_123954" data-name="Grupo 123954" transform="translate(-459 -3087)">
    <g id="Grupo_123778" data-name="Grupo 123778" transform="translate(459 3087)">
      <g id="Elipse_6765" data-name="Elipse 6765" fill="#fff" stroke="#2631a0" stroke-width="4">
        <circle cx="44" cy="44" r="44" stroke="none"/>
        <circle cx="44" cy="44" r="42" fill="none"/>
      </g>
      <g id="Grupo_123777" data-name="Grupo 123777" transform="translate(19.486 14.866)">
        <path id="Trazado_169793" data-name="Trazado 169793" d="M1016.038,644.737a5.768,5.768,0,0,1,4.58,3.307,4.967,4.967,0,0,1,.514,2.135c.007,2.538,0,5.076,0,7.615h-8.194a1.038,1.038,0,0,1-.182-.753q-.005-5.644,0-11.287a1.145,1.145,0,0,1,.192-.808,5.549,5.549,0,0,1,1.74-.4C1015.139,644.61,1015.632,644.364,1016.038,644.737Z" transform="translate(-980.112 -599.524)" fill="#186a80"/>
        <path id="Trazado_169794" data-name="Trazado 169794" d="M967.244,645.074a1.144,1.144,0,0,0-.113.714q0,6.065,0,12.131h-8.194a.745.745,0,0,1-.175-.527c0-2.46-.052-4.921.027-7.38a6.447,6.447,0,0,1,1.04-2.781,5.953,5.953,0,0,1,4.815-2.549c.3-.018.6,0,.905,0,.519.078,1.027.222,1.551.274A.3.3,0,0,1,967.244,645.074Z" transform="translate(-934.302 -599.65)" fill="#438299"/>
        <path id="Trazado_169795" data-name="Trazado 169795" d="M913.174,649.888q0,4.031,0,8.061H904.98a1.038,1.038,0,0,1-.183-.752q-.006-5.67,0-11.339a1.649,1.649,0,0,1,.089-.669c.25-.361.668-.242,1.008-.346a3.917,3.917,0,0,1,.6-.116,6.269,6.269,0,0,1,5.184,1.8,4.817,4.817,0,0,1,1.5,3.273C913.174,649.828,913.174,649.858,913.174,649.888Z" transform="translate(-888.541 -599.681)" fill="#febf10"/>
        <path id="Trazado_169796" data-name="Trazado 169796" d="M860.161,645.461l.006,12.845h-8.194c0-2.481-.023-4.961,0-7.442a5.623,5.623,0,0,1,4.321-5.444.886.886,0,0,1,.721-.243,12.724,12.724,0,0,0,1.627-.048,6.462,6.462,0,0,1,1.459.26Z" transform="translate(-843.728 -600.037)" fill="#f9e424"/>
        <path id="Trazado_169797" data-name="Trazado 169797" d="M876.567,360.232c.209-.175.479-.025.763-.146a5.365,5.365,0,0,1-1.991-1.579,4.5,4.5,0,0,1-.935-2.732c.017-.926.043-1.855-.005-2.779a4.781,4.781,0,0,1,3.7-4.8c.108-.026.23-.009.3-.124h.8a1.037,1.037,0,0,1,.183.752q.006,5.389,0,10.778c0,.412.043.878-.573.919A6.621,6.621,0,0,1,876.567,360.232Z" transform="translate(-862.754 -348.072)" fill="#feccbd"/>
        <path id="Trazado_169798" data-name="Trazado 169798" d="M1013.323,348.072a5.8,5.8,0,0,1,2.718,1.516,4.655,4.655,0,0,1,1.271,3.066q.014,1.5,0,3.005a4.591,4.591,0,0,1-2.661,4.269l-.549.293c-.465.423-1.06.271-1.6.364-.151-.039-.266-.106-.232-.292a6.012,6.012,0,0,0,.071-1.132q0-5.082,0-10.164a1.3,1.3,0,0,1,.18-.924Z" transform="translate(-979.7 -348.072)" fill="#febda9"/>
        <path id="Trazado_169799" data-name="Trazado 169799" d="M902.938,360.371c.5.056.47-.272.47-.612q-.007-5.843,0-11.687h.8a6.022,6.022,0,0,1,2.6,1.4,4.662,4.662,0,0,1,1.39,3.3c0,.965.013,1.93,0,2.894a4.7,4.7,0,0,1-2.59,4.219c-.2.112-.393.222-.589.333-.473.362-1.06.254-1.589.388C903.227,360.6,903,360.65,902.938,360.371Z" transform="translate(-886.966 -348.072)" fill="#febda9"/>
        <path id="Trazado_169800" data-name="Trazado 169800" d="M986.969,348.072q0,5.853,0,11.707c0,.22.126.521-.246.6a1.2,1.2,0,0,1-1.334-.158,5.63,5.63,0,0,1-2.639-2.31,3.606,3.606,0,0,1-.5-1.492,19.784,19.784,0,0,1,.041-4.414,4.59,4.59,0,0,1,3.591-3.806c.106-.031.23-.01.3-.126Z" transform="translate(-954.142 -348.072)" fill="#feccbd"/>
        <path id="Trazado_169801" data-name="Trazado 169801" d="M1068.453,537.2c.689.141,1.392.012,2.089.15a5.625,5.625,0,0,1,4.573,5.412c.037,3.485.011,6.97.017,10.455,0,.267.005.466-.372.463-2.575-.022-5.15-.024-7.726-.032a1.7,1.7,0,0,1-.255-.685,4.426,4.426,0,0,1-.043-.794q0-6.848,0-13.7a2.706,2.706,0,0,1,.069-.845C1067.241,537.049,1067.865,537.194,1068.453,537.2Z" transform="translate(-1025.899 -508.474)" fill="#feba17"/>
        <path id="Trazado_169802" data-name="Trazado 169802" d="M1012.926,428.357l1.579-.253a8.363,8.363,0,0,1,2.75.3,5.668,5.668,0,0,1,3.741,4.157c-.178.209-.442.2-.675.249a4.59,4.59,0,0,0-3.829,4.721q0,1.276,0,2.553a4.646,4.646,0,0,0,2.437,4.142c.229.142.558.175.62.52-.217.217-.5.153-.753.153a5.474,5.474,0,0,0-5.377,3.627c-.08.184-.109.412-.342.494a.238.238,0,0,1-.248-.148,2.03,2.03,0,0,1-.086-.786q0-9.4,0-18.8A1.3,1.3,0,0,1,1012.926,428.357Z" transform="translate(-980.099 -415.955)" fill="#ff004c"/>
        <path id="Trazado_169803" data-name="Trazado 169803" d="M1015.247,541.248a5.657,5.657,0,0,1,5.565-4.216l.849-.01c.292-.207.575-.051.86.021.209.1.454.059.664.16l.064.058q0,7.8-.007,15.606a.661.661,0,0,1-.005.56l-5.094.038-1.385-.035c0-.3.26-.341.444-.446a4.519,4.519,0,0,0,2.47-4.175c0-.891-.042-1.784.008-2.672a4.607,4.607,0,0,0-3.961-4.609.9.9,0,0,1-.435-.115A.143.143,0,0,1,1015.247,541.248Z" transform="translate(-982.217 -508.253)" fill="#fedc00"/>
        <path id="Trazado_169804" data-name="Trazado 169804" d="M1068.471,470.044a8.866,8.866,0,0,1-1.522.282v0a.583.583,0,0,1-.114-.189,4.322,4.322,0,0,1-.078-1.075q0-4.921,0-9.842c0-.133,0-.266,0-.4.036-.774.185-.892.991-.788a4.612,4.612,0,0,1,3.916,3.808,14.522,14.522,0,0,1-.006,4.532A4.563,4.563,0,0,1,1068.471,470.044Z" transform="translate(-1025.917 -441.318)" fill="#863f2e"/>
        <path id="Trazado_169805" data-name="Trazado 169805" d="M1041.876,457.556c-.808.031-.813.034-.813.851,0,3.5,0,7.008-.008,10.511,0,.279.121.558,0,.836a1.231,1.231,0,0,1-.672.007l-.9-.156a5.589,5.589,0,0,1-2.578-2.222,4.538,4.538,0,0,1-.63-2.268,27.789,27.789,0,0,1,.062-3.573,4.751,4.751,0,0,1,4.6-4.105C1041.25,457.492,1041.581,457.384,1041.876,457.556Z" transform="translate(-1000.041 -440.837)" fill="#a24f3e"/>
        <path id="Trazado_169806" data-name="Trazado 169806" d="M1067.945,642.543q0-.28.005-.56c.183.158.083.371.11.56Z" transform="translate(-1026.926 -597.368)" fill="#fec225"/>
        <path id="Trazado_169807" data-name="Trazado 169807" d="M797.781,553.53c-.009-2.579-.034-5.157-.021-7.735a22.907,22.907,0,0,1,.091-3.974,5.606,5.606,0,0,1,5.607-4.688c.3,0,.606-.011.909-.016a2.748,2.748,0,0,1,1.382.057.545.545,0,0,1,.317.284,2.373,2.373,0,0,1,.081.843q0,7.153,0,14.306a1.428,1.428,0,0,1-.156.932.434.434,0,0,1-.217.052h-7.778A.363.363,0,0,1,797.781,553.53Z" transform="translate(-797.718 -508.353)" fill="#6a6eab"/>
        <path id="Trazado_169808" data-name="Trazado 169808" d="M860.444,428.319c.133.134.308.08.465.1a.966.966,0,0,1,.184.7q.006,9.689,0,19.378a2.386,2.386,0,0,1-.032.4.6.6,0,0,1-.081.2c-.132.145-.237.046-.342-.039a7.256,7.256,0,0,0-1.655-2.61,5.4,5.4,0,0,0-3.586-1.482c-.406-.018-.834.118-1.215-.138.012-.277.265-.292.436-.382a4.677,4.677,0,0,0,2.73-4.432c-.006-.815,0-1.63,0-2.445a4.593,4.593,0,0,0-3.82-4.688,1.213,1.213,0,0,1-.686-.237,5.658,5.658,0,0,1,5.446-4.455Z" transform="translate(-844.472 -416.02)" fill="#f9e424"/>
        <path id="Trazado_169809" data-name="Trazado 169809" d="M825.025,469.909a5.616,5.616,0,0,1-1.342-.157,5.742,5.742,0,0,1-2.315-1.767,4.534,4.534,0,0,1-.875-2.531c0-1.08.01-2.161,0-3.241a4.733,4.733,0,0,1,4.793-4.6,1,1,0,0,1,.179.751c0,3.589.011,7.178-.011,10.766C825.448,469.421,825.651,469.922,825.025,469.909Z" transform="translate(-817.033 -440.988)" fill="#feccbd"/>
        <path id="Trazado_169810" data-name="Trazado 169810" d="M850.369,469.837c.373-.076.248-.378.248-.6q.01-5.677,0-11.355c0-.114,0-.227,0-.341l.117-.013a4.774,4.774,0,0,1,4.659,4.809,26.035,26.035,0,0,1-.051,3.4,4.772,4.772,0,0,1-3.248,3.941,1.586,1.586,0,0,1-1.485.245Z" transform="translate(-842.377 -440.916)" fill="#febda9"/>
        <path id="Trazado_169811" data-name="Trazado 169811" d="M798.133,644.686l8.191-.016a.692.692,0,0,1,.474-.151c1.373-.012,2.747-.021,4.12.005a.734.734,0,0,1,.326.083.133.133,0,0,1,.071.182l-.68.1c-.2-.166-.437-.09-.657-.09q-5.6-.009-11.2-.012C798.563,644.789,798.321,644.883,798.133,644.686Z" transform="translate(-798.07 -599.508)" fill="#cdc6be"/>
        <path id="Trazado_169812" data-name="Trazado 169812" d="M905.972,449.067q0-10.333,0-20.666l1.606-.246a8.958,8.958,0,0,1,2.357.188,5.622,5.622,0,0,1,4.034,4.043c.063.421-.295.388-.519.439a5.149,5.149,0,0,0-1.787.691,4.466,4.466,0,0,0-2.122,3.908c0,.889.012,1.779,0,2.668a4.539,4.539,0,0,0,2.653,4.281c.191.1.449.127.522.391-.145.2-.367.167-.569.171a5.879,5.879,0,0,0-5.637,3.814,1.306,1.306,0,0,1-.156.3C906.232,449.147,906.108,449.26,905.972,449.067Z" transform="translate(-889.539 -415.999)" fill="#febf10"/>
        <path id="Trazado_169813" data-name="Trazado 169813" d="M968.963,428.355q0,10.3.006,20.591a.269.269,0,0,1-.334.061,3.843,3.843,0,0,1-.477-.893,5.876,5.876,0,0,0-5.119-3.226c-.248-.012-.587.127-.692-.276a1.814,1.814,0,0,1,.614-.4,4.508,4.508,0,0,0,2.435-4.13c0-.908,0-1.816,0-2.724a4.576,4.576,0,0,0-3.647-4.523c-.288-.064-.61-.046-.842-.284a5.659,5.659,0,0,1,5.792-4.438c.226,0,.453-.01.679-.015a6.749,6.749,0,0,0,1.334.158Z" transform="translate(-936.135 -415.954)" fill="#f84b7e"/>
        <path id="Trazado_169814" data-name="Trazado 169814" d="M931.14,468.409a4.683,4.683,0,0,1-3.179-3.62,12.809,12.809,0,0,1,.061-4.963,4.554,4.554,0,0,1,3.722-3.481c.238-.053.606.085.7-.317l.205.244a.842.842,0,0,1,.174.64q.008,5.592,0,11.184a1.494,1.494,0,0,1-.047.393.526.526,0,0,1-.1.186A1.848,1.848,0,0,1,931.14,468.409Z" transform="translate(-908.011 -439.64)" fill="#fcd0a2"/>
        <path id="Trazado_169815" data-name="Trazado 169815" d="M959.958,469.816q.005-6.173.011-12.347l.133-.029a4.721,4.721,0,0,1,4.555,3.893,13.976,13.976,0,0,1,0,4.585,4.569,4.569,0,0,1-3.095,3.625A1.55,1.55,0,0,1,959.958,469.816Z" transform="translate(-935.331 -440.838)" fill="#feba84"/>
        <path id="Trazado_169816" data-name="Trazado 169816" d="M1013.17,565.977a4.68,4.68,0,0,1,4.559,4.633c.015,1.021.03,2.043,0,3.063a4.633,4.633,0,0,1-2.5,4.044c-.192.112-.432.144-.576.337l-1.6.246-.116-.037a.969.969,0,0,1-.179-.751q-.007-5.4,0-10.8a1.322,1.322,0,0,1,.111-.665A.229.229,0,0,1,1013.17,565.977Z" transform="translate(-980.112 -532.876)" fill="#feba84"/>
        <path id="Trazado_169817" data-name="Trazado 169817" d="M958.914,537.443a6.544,6.544,0,0,0,1.605-.273c.577.2,1.186.039,1.777.192a6.034,6.034,0,0,1,4.5,4.095.316.316,0,0,1-.169.208,5.047,5.047,0,0,0-2.95,1.566,4.366,4.366,0,0,0-1.186,2.873c-.027,1-.012,2.007,0,3.011a4.535,4.535,0,0,0,2.5,4.1c.2.114.495.118.537.431a6.582,6.582,0,0,0-4.242,1.117,5.471,5.471,0,0,0-2.257,3.658,1.242,1.242,0,0,1-.1.255l-.017-.033a21.786,21.786,0,0,1-.175-2.771c.012-5.782,0-11.564.009-17.346a1.529,1.529,0,0,1,.178-1.041Z" transform="translate(-934.287 -508.466)" fill="#6fbe6b"/>
        <path id="Trazado_169818" data-name="Trazado 169818" d="M985.153,577.961a4.659,4.659,0,0,1-3.092-3.628,13.926,13.926,0,0,1,.046-4.857,4.684,4.684,0,0,1,4.188-3.6c.153-.017.312-.083.449.05q0,6.125,0,12.249A4.864,4.864,0,0,1,985.153,577.961Z" transform="translate(-953.916 -532.783)" fill="#fcd0a2"/>
        <path id="Trazado_169819" data-name="Trazado 169819" d="M915.741,537.842q-.006,10.579-.012,21.159a6.518,6.518,0,0,0-1.023-2.547,5.735,5.735,0,0,0-4.7-2.429c-.283-.01-.566-.014-.85-.021-.005-.288.259-.291.423-.381a4.564,4.564,0,0,0,2.6-4.268q0-1.306,0-2.612a4.622,4.622,0,0,0-3.765-4.617c-.212-.044-.47-.007-.587-.267a6.071,6.071,0,0,1,5.906-4.25c.17,0,.339-.008.509-.013Z" transform="translate(-891.114 -508.826)" fill="#a4e786"/>
        <path id="Trazado_169820" data-name="Trazado 169820" d="M905.249,565.678a5.123,5.123,0,0,1,3.279,1.619,4.621,4.621,0,0,1,1.23,3.034c.017.795-.019,1.591.014,2.385a4.937,4.937,0,0,1-3.192,5.108,6.82,6.82,0,0,1-1.612.247l.009-.023a1,1,0,0,1-.186-.751q-.007-5.4,0-10.791a.984.984,0,0,1,.174-.753v-.038A.3.3,0,0,0,905.249,565.678Z" transform="translate(-888.535 -532.646)" fill="#863f2e"/>
        <path id="Trazado_169821" data-name="Trazado 169821" d="M878.353,565.495q.006,6.147.011,12.295a4.922,4.922,0,0,1-1.492-.2.331.331,0,0,1-.269,0,4.746,4.746,0,0,1-3.169-4.179c-.026-1.211-.03-2.424,0-3.636.059-2.327,2.555-4.633,4.715-4.383Z" transform="translate(-861.922 -532.388)" fill="#a24f3e"/>
        <path id="Trazado_169822" data-name="Trazado 169822" d="M886.446,644.682l.231.03a6.459,6.459,0,0,1-1.7.079c0-.026.006-.053.007-.08C885.462,644.352,885.954,644.554,886.446,644.682Z" transform="translate(-871.727 -599.51)" fill="#dfaf92"/>
        <path id="Trazado_169823" data-name="Trazado 169823" d="M1011.466,565.556l-.449-.05.132-.1h.324l.2,0a.238.238,0,0,1,.028.105Z" transform="translate(-978.639 -532.418)" fill="#96a08a"/>
        <path id="Trazado_169824" data-name="Trazado 169824" d="M1063.486,538.588l.673-.007a.622.622,0,0,1,.016.094C1063.943,538.665,1063.7,538.76,1063.486,538.588Z" transform="translate(-1023.143 -509.662)" fill="#feba17"/>
        <path id="Trazado_169825" data-name="Trazado 169825" d="M858.493,553.977l-1.466.029-5-.039q-.006-8.076-.012-16.151l1.485-.245a8.317,8.317,0,0,1,3.008.365A5.618,5.618,0,0,1,860,541.81c-.262.2-.584.106-.875.179a4.741,4.741,0,0,0-3.708,4.637c-.013.985-.024,1.971.005,2.956a4.632,4.632,0,0,0,2.493,4.058C858.109,553.753,858.346,553.789,858.493,553.977Z" transform="translate(-843.775 -508.806)" fill="#242ca3"/>
      </g>
    </g>
  </g>
</svg>
