<svg xmlns="http://www.w3.org/2000/svg" width="88" height="88" viewBox="0 0 88 88">
  <g id="Grupo_123955" data-name="Grupo 123955" transform="translate(-1032 -3214)">
    <g id="Grupo_123780" data-name="Grupo 123780" transform="translate(1032 3214)">
      <g id="Elipse_6766" data-name="Elipse 6766" fill="#fff" stroke="#2631a0" stroke-width="4">
        <circle cx="44" cy="44" r="44" stroke="none"/>
        <circle cx="44" cy="44" r="42" fill="none"/>
      </g>
      <g id="Grupo_123779" data-name="Grupo 123779" transform="translate(18.627 18.734)">
        <path id="Trazado_169827" data-name="Trazado 169827" d="M791.318,615.651c-.11.12-.215.245-.329.36q-5.848,5.85-11.693,11.7a5.22,5.22,0,0,1-2.2,1.539h-1.185a1.962,1.962,0,0,1-1.536-.848c-.006-.246.18-.377.327-.525q6.929-6.933,13.862-13.863a.974.974,0,0,1,.386-.3,4.724,4.724,0,0,1,1.163.867c.314.234.611.49.94.706C791.177,615.373,791.368,615.431,791.318,615.651Z" transform="translate(-773.542 -578.719)" fill="#12263f"/>
        <path id="Trazado_169828" data-name="Trazado 169828" d="M783.459,598.97c-.134.144-.265.291-.4.43q-6.862,6.864-13.724,13.726c-.138.139-.263.291-.394.437-.519-.115-.6-.585-.769-.973-.07-.159-.031-.354-.115-.516V610.89a5.512,5.512,0,0,1,1.638-2.28q5.818-5.8,11.62-11.612c.116-.115.24-.221.361-.332.188-.027.258.128.339.239a12.854,12.854,0,0,0,1.372,1.673.412.412,0,0,1,.129.26A.249.249,0,0,1,783.459,598.97Z" transform="translate(-768.052 -563.909)" fill="#3c506a"/>
        <path id="Trazado_169829" data-name="Trazado 169829" d="M774.474,412.636c-1.659,0-3.318.017-4.976.01a1.64,1.64,0,0,1-1.445-1.081v-3.356a5.328,5.328,0,0,1,2.492-3.717,1.029,1.029,0,0,1,.586-.23.65.65,0,0,1,.393.187,4.773,4.773,0,0,0,2.616,1.161.618.618,0,0,1,.367.127.5.5,0,0,1,.077.159c.09.833.033,1.668.04,2.5.011,1.179.006,2.357,0,3.536A.944.944,0,0,1,774.474,412.636Z" transform="translate(-768.052 -396.859)" fill="#feee4a"/>
        <path id="Trazado_169830" data-name="Trazado 169830" d="M1108.249,411.272a1.741,1.741,0,0,1-1.877,1.1c-1.511-.052-3.025-.024-4.538-.029a.529.529,0,0,1-.147-.405c0-2.1-.048-4.2.021-6.3a.521.521,0,0,1,.062-.158.506.506,0,0,1,.4-.151,4.189,4.189,0,0,0,2.619-1.178.66.66,0,0,1,.37-.223,5.029,5.029,0,0,1,2.482,2.2,4.3,4.3,0,0,1,.613,1.986Z" transform="translate(-1057.713 -396.566)" fill="#ff004c"/>
        <path id="Trazado_169831" data-name="Trazado 169831" d="M1055.181,676.247a1.9,1.9,0,0,1-1.1-2.135,11.517,11.517,0,0,1,.257-2.925,5.528,5.528,0,0,1,2.581-3.163c.083-.049.161-.109.241-.164a.294.294,0,0,1,.308.1,4.664,4.664,0,0,0,2.766,1.251.519.519,0,0,1,.315.123.526.526,0,0,1,.074.16c.087.966.029,1.933.039,2.9.01,1.049.005,2.1,0,3.147a.977.977,0,0,1-.156.7Z" transform="translate(-1016.391 -625.713)" fill="#bbe9f8"/>
        <path id="Trazado_169832" data-name="Trazado 169832" d="M1102.9,676.308q0-3.448,0-6.9c.085-.125.22-.125.349-.137a4.318,4.318,0,0,0,2.58-1.154c.115-.106.222-.25.417-.192a5.645,5.645,0,0,1,3,3.971c.005.025.045.042.069.064v3.257a1.208,1.208,0,0,1-1.086,1.086Z" transform="translate(-1058.783 -625.775)" fill="#7dd4f3"/>
        <path id="Trazado_169833" data-name="Trazado 169833" d="M816.472,348.076a5.633,5.633,0,0,1,2.257,1.2,4.4,4.4,0,0,1,.573,5.809l-.277.4a1.975,1.975,0,0,1-.844.869,4.723,4.723,0,0,1-1.928.711.707.707,0,0,1-.568-.1l0-.038a.83.83,0,0,1-.157-.648q-.007-3.781,0-7.562a.9.9,0,0,1,.159-.651Z" transform="translate(-809.266 -348.076)" fill="#fec48e"/>
        <path id="Trazado_169834" data-name="Trazado 169834" d="M1105.189,355.486a4.34,4.34,0,0,1-3.346,1.456.847.847,0,0,1-.155-.65q-.007-3.782,0-7.564a.9.9,0,0,1,.159-.652h.79a4.484,4.484,0,0,1,3.467,6.12A2.292,2.292,0,0,1,1105.189,355.486Z" transform="translate(-1057.725 -348.076)" fill="#fec48e"/>
        <path id="Trazado_169835" data-name="Trazado 169835" d="M1073.635,348.076q0,4.433,0,8.866l.006.033a.347.347,0,0,1-.128.07c-.882.141-2.927-.731-3.207-1.542a4.88,4.88,0,0,1-1.111-3.075,4.442,4.442,0,0,1,3.174-4.154.585.585,0,0,0,.38-.2Z" transform="translate(-1029.515 -348.076)" fill="#fed6a9"/>
        <path id="Trazado_169836" data-name="Trazado 169836" d="M786.654,348.076q0,4.431,0,8.862a4.359,4.359,0,0,1-2.963-1.121c-.125-.1-.224-.245-.4-.265a4.147,4.147,0,0,1-1.176-3.415,4.422,4.422,0,0,1,2.809-3.84c.277-.121.584-.073.845-.221Z" transform="translate(-780.238 -348.076)" fill="#fed6a9"/>
        <path id="Trazado_169841" data-name="Trazado 169841" d="M884.913,485.167l-.011-.113c.591-.649,1.231-1.249,1.852-1.868a.44.44,0,0,1,.388-.166,3.97,3.97,0,0,1,.879.706,10.525,10.525,0,0,0,7.589,2.357,10.693,10.693,0,0,0,9.792-9.233,10.521,10.521,0,0,0-2.762-8.777.856.856,0,0,1-.218-.324.438.438,0,0,1,.162-.393q.806-.831,1.637-1.638a.408.408,0,0,1,.26-.126,11.185,11.185,0,0,1,2.531,3.354,13.827,13.827,0,0,1-9.16,19.913,13.492,13.492,0,0,1-9.882-1.448c-.228-.127-.459-.247-.689-.371Z" transform="translate(-869.506 -450.106)" fill="#242ca3"/>
        <path id="Trazado_169842" data-name="Trazado 169842" d="M861.015,456.522q-.865.852-1.731,1.7c-.124.121-.224.287-.433.28a25.984,25.984,0,0,1-1.777-2.19,17.184,17.184,0,0,1-1.7-3.913A13.814,13.814,0,0,1,866.525,435.2a13.5,13.5,0,0,1,11.64,3.557c.1.087.177.191.266.288l-2.009,2.074a.125.125,0,0,1-.142.031,13.191,13.191,0,0,0-2.654-1.865,10.515,10.515,0,0,0-11.779,1.348,10.08,10.08,0,0,0-3.755,6.927,10.578,10.578,0,0,0,2.781,8.584.938.938,0,0,1,.173.239A.127.127,0,0,1,861.015,456.522Z" transform="translate(-843.455 -423.558)" fill="#4a51b1"/>
        <path id="Trazado_169843" data-name="Trazado 169843" d="M1057.1,404.437a4.875,4.875,0,0,0,3.335,1.473q0,3.438,0,6.877c-1.656,0-3.312.022-4.968.009a1.391,1.391,0,0,1-1.418-1.251,12.367,12.367,0,0,1,.118-3.428A5.477,5.477,0,0,1,1057.1,404.437Z" transform="translate(-1016.313 -397.011)" fill="#ec4778"/>
        <path id="Trazado_169844" data-name="Trazado 169844" d="M816.767,405.847a4.572,4.572,0,0,0,3.339-1.484,5.437,5.437,0,0,1,3.012,4.12,14.887,14.887,0,0,1,.034,3.047,1.374,1.374,0,0,1-1.359,1.2c-1.674.011-3.349,0-5.024-.009Q816.769,409.285,816.767,405.847Z" transform="translate(-810.348 -396.947)" fill="#feca00"/>
        <path id="Trazado_169845" data-name="Trazado 169845" d="M1105.191,619.244a4.618,4.618,0,0,1-3.345,1.482l.005-.032a.828.828,0,0,1-.162-.65q-.007-3.775,0-7.55a.847.847,0,0,1,.163-.652,4.434,4.434,0,0,1,3.858,6.626C1105.56,618.74,1105.365,618.986,1105.191,619.244Z" transform="translate(-1057.726 -577.089)" fill="#fec48e"/>
        <path id="Trazado_169846" data-name="Trazado 169846" d="M1073.636,611.834v8.852a4.331,4.331,0,0,1-2.949-1.1c-.136-.116-.268-.237-.4-.356a4.861,4.861,0,0,1-1.1-3.126A4.449,4.449,0,0,1,1073.636,611.834Z" transform="translate(-1029.51 -577.08)" fill="#fed6a9"/>
        <path id="Trazado_169847" data-name="Trazado 169847" d="M916.607,481.292l.086.005a11.539,11.539,0,0,1,2.7,4.521,10.86,10.86,0,0,1-8.341,13.85,10.642,10.642,0,0,1-9.572-2.815c-.06-.055-.128-.1-.192-.15,0-.029,0-.057-.006-.085a10.535,10.535,0,0,1,.958-.962c.119-.116.27-.276.446-.051a1.729,1.729,0,0,0,1.892,1.163c1.461-.04,2.923-.021,4.385-.006,1.559,0,3.119,0,4.678,0,1.127,0,1.637-.5,1.627-1.62a15.318,15.318,0,0,0-.074-2.6,5.415,5.415,0,0,0-2.44-3.608c-.16-.109-.361-.17-.445-.37a.45.45,0,0,1,.106-.368,4.615,4.615,0,0,0,.893-3.253.851.851,0,0,1,.256-.614C914.575,483.312,915.573,482.284,916.607,481.292Z" transform="translate(-883.725 -463.739)" fill="#7dd4f3"/>
        <path id="Trazado_169848" data-name="Trazado 169848" d="M881.926,474.743c-.474.315-.734.88-1.286,1.1a10.469,10.469,0,0,1-3.058-8.8,10.638,10.638,0,0,1,7.993-9.288,10.5,10.5,0,0,1,10.393,2.762c-.017.221-.193.333-.328.47q-1.279,1.285-2.564,2.565c-.151.151-.314.292-.294.535-.258-.064-.21-.3-.26-.476a4.324,4.324,0,0,0-4.177-3.145,4.316,4.316,0,0,0-3.554,6.731c.126.2.34.378.233.664a16.051,16.051,0,0,0-1.4,1.082,5.3,5.3,0,0,0-1.552,3.77c-.01.492,0,.985,0,1.478C882.065,474.385,882.1,474.594,881.926,474.743Z" transform="translate(-863.086 -442.969)" fill="#bbe9f8"/>
        <path id="Trazado_169849" data-name="Trazado 169849" d="M962.114,536.12a5.482,5.482,0,0,1,3.074,5.294c-.015.541.007,1.083-.005,1.625a1.438,1.438,0,0,1-1.435,1.446c-1.657.01-3.315-.005-4.972-.01a.65.65,0,0,1-.158-.5c-.007-1.986-.013-3.972,0-5.958a.982.982,0,0,1,.045-.29c.07-.2.242-.245.428-.267a4.227,4.227,0,0,0,2.637-1.184C961.83,536.173,961.94,536.056,962.114,536.12Z" transform="translate(-933.502 -511.328)" fill="#fe1f3d"/>
        <path id="Trazado_169850" data-name="Trazado 169850" d="M917.474,537.861q0,3.439,0,6.878c-1.653,0-3.307.019-4.96.009-.768,0-1.271-.5-1.473-1.382a24.579,24.579,0,0,1,.1-3,5.267,5.267,0,0,1,2.963-3.929c.163-.084.288,0,.4.1a4.752,4.752,0,0,0,2.692,1.18.547.547,0,0,1,.23.077Z" transform="translate(-892.201 -511.591)" fill="#fe8392"/>
        <path id="Trazado_169851" data-name="Trazado 169851" d="M962.109,487.407a4.705,4.705,0,0,1-2.564,1.407c-.255.042-.517.048-.775.071l-.008-.042a.84.84,0,0,1-.154-.652q-.007-3.771,0-7.542a.844.844,0,0,1,.161-.651,4.415,4.415,0,0,1,4.338,3.465,2.388,2.388,0,0,0,.085.273A4.806,4.806,0,0,1,962.109,487.407Z" transform="translate(-933.497 -462.614)" fill="#fec48e"/>
        <path id="Trazado_169852" data-name="Trazado 169852" d="M930.615,480q0,4.422-.007,8.844a4.287,4.287,0,0,1-2.921-1.077c-.137-.114-.24-.275-.436-.3a9.312,9.312,0,0,1-.951-1.971A4.434,4.434,0,0,1,930.615,480Z" transform="translate(-905.343 -462.62)" fill="#fed6a9"/>
      </g>
    </g>
  </g>
</svg>
