<svg xmlns="http://www.w3.org/2000/svg" width="88" height="88" viewBox="0 0 88 88">
  <g id="Grupo_123956" data-name="Grupo 123956" transform="translate(-459 -3345)">
    <g id="Grupo_123782" data-name="Grupo 123782" transform="translate(459 3345)">
      <g id="Elipse_6767" data-name="Elipse 6767" fill="#fff" stroke="#2631a0" stroke-width="4">
        <circle cx="44" cy="44" r="44" stroke="none"/>
        <circle cx="44" cy="44" r="42" fill="none"/>
      </g>
      <g id="Grupo_123781" data-name="Grupo 123781" transform="translate(18.049 20.54)">
        <path id="Trazado_169855" data-name="Trazado 169855" d="M854.144,386.751l.007.1a.776.776,0,0,1-.571.165c-2.352,0-4.7.021-7.057-.01-2.354.03-4.709.01-7.063.01a.747.747,0,0,1-.568-.172,9.223,9.223,0,0,0-3.643-7.17,17.656,17.656,0,0,1-5.923-9.136,17.093,17.093,0,0,1-.6-5.62,17.567,17.567,0,0,1,2.588-8.288,17.809,17.809,0,0,1,9.75-7.7,19.027,19.027,0,0,1,3.458-.748c.1-.014.206,0,.269-.107h.611a1.041,1.041,0,0,0,.713,0h.407a.665.665,0,0,1,.156.468c.006,1.767.026,3.533-.01,5.3a.737.737,0,0,1-.04.2c-.107.281-.368.265-.6.293a5.82,5.82,0,0,0-3.8,1.948,5.424,5.424,0,0,0-1.38,3.416,5.583,5.583,0,0,0,1.466,4.2c.1.112.206.232.15.406a1.329,1.329,0,0,1-.529.382,9.7,9.7,0,0,0-4.78,6.687,11.238,11.238,0,0,0-.161,2.377,1.467,1.467,0,0,0,1.652,1.664c2.27.008,4.54,0,6.81,0,.22,0,.441-.007.66.008.187.012.377.027.486.218a2.178,2.178,0,0,1,.083.854q0,4.649,0,9.3c0,.787.007.794.789.795,1.965,0,3.93,0,5.894,0A1.072,1.072,0,0,1,854.144,386.751Z" transform="translate(-820.465 -348.08)" fill="#f6ed93"/>
        <path id="Trazado_169856" data-name="Trazado 169856" d="M959.961,354.184l0-6.1h.407a1.041,1.041,0,0,0,.712,0h.611a18.244,18.244,0,0,0,2.065.395,17.746,17.746,0,0,1,13.773,14.5,17.413,17.413,0,0,1-5.594,16.1,19.525,19.525,0,0,0-2.6,2.566,9.148,9.148,0,0,0-1.752,5.111c-2.39,0-4.779,0-7.168.018-.414,0-.463-.166-.462-.513q.013-5.338,0-10.677l.053-.067a1.438,1.438,0,0,1,.747-.093c2.324,0,4.648,0,6.971,0,1.3,0,1.719-.452,1.764-1.738a9.857,9.857,0,0,0-1.4-5.641,9.453,9.453,0,0,0-3.174-3.169,3.056,3.056,0,0,1-.793-.543c-.107-.275.088-.441.23-.625a5.482,5.482,0,0,0,.9-5.809,5.584,5.584,0,0,0-4.845-3.572.947.947,0,0,1-.394-.079Z" transform="translate(-933.904 -348.08)" fill="#febf10"/>
        <path id="Trazado_169857" data-name="Trazado 169857" d="M964.538,690.31a6.738,6.738,0,0,1-.2,2.408,4.5,4.5,0,0,1-3.491,3.1.729.729,0,0,0-.169.085h-1.73a.672.672,0,0,1-.155-.472c-.007-1.492-.02-2.983.007-4.475a.78.78,0,0,1,.051-.248.364.364,0,0,1,.119-.153,1.393,1.393,0,0,1,.693-.1q1.417-.006,2.834,0a4.949,4.949,0,0,0,1.653-.17A.383.383,0,0,1,964.538,690.31Z" transform="translate(-932.895 -643.793)" fill="#453d82"/>
        <path id="Trazado_169858" data-name="Trazado 169858" d="M924.369,690.567q0,2.64-.006,5.279h-1.934c-.06-.154-.213-.149-.335-.186a4.555,4.555,0,0,1-3.328-4.445c0-.321,0-.642,0-.963a.3.3,0,0,1,.286-.062,20.764,20.764,0,0,0,4.344.207C923.728,690.414,924.083,690.3,924.369,690.567Z" transform="translate(-898.308 -643.734)" fill="#5f55ae"/>
        <path id="Trazado_169859" data-name="Trazado 169859" d="M768.078,367.778a4.293,4.293,0,0,1,.545-.656,1.475,1.475,0,0,1,1.88-.065q1.506.992,3,2a1.472,1.472,0,0,1,.419,2.1,1.4,1.4,0,0,1-1.951.49c-1.155-.7-2.268-1.479-3.4-2.225-.234-.154-.232-.495-.493-.629Z" transform="translate(-768.078 -364.216)" fill="#f6ed93"/>
        <path id="Trazado_169860" data-name="Trazado 169860" d="M768.078,557.4a3.054,3.054,0,0,1,1.311-1.282c.783-.5,1.545-1.037,2.321-1.549a1.529,1.529,0,1,1,1.709,2.527c-.813.549-1.633,1.088-2.448,1.634-1.354.907-1.9.83-2.893-.414Z" transform="translate(-768.078 -526.255)" fill="#f6ed93"/>
        <path id="Trazado_169861" data-name="Trazado 169861" d="M1113.055,368.647a3.083,3.083,0,0,1-1.268,1.26c-.844.535-1.651,1.127-2.5,1.646a1.515,1.515,0,0,1-1.715-2.5c1.047-.719,2.1-1.434,3.171-2.112.888-.561,1.8-.154,2.317.989Z" transform="translate(-1060.944 -364.169)" fill="#febf10"/>
        <path id="Trazado_169862" data-name="Trazado 169862" d="M1113.021,558.094c-.053.083-.113.163-.159.25a1.46,1.46,0,0,1-2.148.634c-1.093-.678-2.162-1.4-3.215-2.135a1.483,1.483,0,0,1-.345-2,1.423,1.423,0,0,1,1.905-.555c1.187.717,2.327,1.512,3.476,2.29.272.185.334.532.487.808Z" transform="translate(-1060.91 -526.135)" fill="#febf10"/>
        <path id="Trazado_169863" data-name="Trazado 169863" d="M768.078,469.028a1.93,1.93,0,0,1,2.151-1.13c.759.05,1.524.008,2.286.011a1.532,1.532,0,1,1,0,3.052c-.762,0-1.527-.039-2.286.01a1.93,1.93,0,0,1-2.151-1.13Z" transform="translate(-768.078 -451.624)" fill="#f6ed93"/>
        <path id="Trazado_169864" data-name="Trazado 169864" d="M1113.052,469.88a1.906,1.906,0,0,1-2.1,1.131c-.792-.055-1.59-.006-2.385-.013a1.528,1.528,0,1,1-.009-3.051c.846-.007,1.694.033,2.537-.01a1.741,1.741,0,0,1,1.955,1.23Z" transform="translate(-1060.942 -451.661)" fill="#febf10"/>
        <path id="Trazado_169865" data-name="Trazado 169865" d="M952.464,348.08a.588.588,0,0,1-.713,0Z" transform="translate(-926.815 -348.08)" fill="#fef8af"/>
        <path id="Trazado_169866" data-name="Trazado 169866" d="M963.708,348.08a.588.588,0,0,1-.712,0Z" transform="translate(-936.534 -348.08)" fill="#fee265"/>
        <path id="Trazado_169867" data-name="Trazado 169867" d="M911.427,641.707c-1.135,0-2.27-.027-3.4-.007a6.115,6.115,0,0,1-2.194-.307,3.715,3.715,0,0,1-1.975-2.62,2.789,2.789,0,0,1-.062-.5c0-1.543,0-3.086,0-4.629l7.626.019a.889.889,0,0,1,.164.67q.007,3.341,0,6.682a.871.871,0,0,1-.168.668Z" transform="translate(-885.365 -594.875)" fill="#bdeaf9"/>
        <path id="Trazado_169868" data-name="Trazado 169868" d="M959.96,641.722q0-4.01,0-8.02l7.632-.013c0,1.441-.013,2.882.006,4.323a3.533,3.533,0,0,1-1.8,3.25c-.086.054-.169.113-.254.169a4.513,4.513,0,0,1-1.832.308C962.468,641.715,961.214,641.726,959.96,641.722Z" transform="translate(-933.91 -594.915)" fill="#9de1f7"/>
        <path id="Trazado_169869" data-name="Trazado 169869" d="M898.307,478.468c-2.507-.006-5.014-.061-7.52,0-1.488.036-2.193-.574-2.167-2.191A10.043,10.043,0,0,1,892,468.623a9.751,9.751,0,0,1,2.237-1.481c.175-.049.287.067.4.16a6.084,6.084,0,0,0,3.219,1.331c.213.025.449.022.554.275a2,2,0,0,1,.064.656q0,4.046,0,8.091a1.035,1.035,0,0,1-.159.776Z" transform="translate(-872.255 -450.968)" fill="#fc6190"/>
        <path id="Trazado_169870" data-name="Trazado 169870" d="M922.936,404.76a6.157,6.157,0,0,1-4.078-1.652,5.872,5.872,0,0,1,4.076-10.071v0a.942.942,0,0,1,.16.676q0,5.186,0,10.371a1.245,1.245,0,0,1-.091.6Z" transform="translate(-896.877 -386.934)" fill="#fee3c1"/>
        <path id="Trazado_169871" data-name="Trazado 169871" d="M959.977,478.254q0-4.819,0-9.638l-.008-.027a.729.729,0,0,1,.429-.121,5.62,5.62,0,0,0,3.221-1.309c.146-.122.277-.319.52-.194a9.825,9.825,0,0,1,5.147,6.1,11.639,11.639,0,0,1,.345,3.871,1.444,1.444,0,0,1-1.424,1.329C965.464,478.272,962.72,478.259,959.977,478.254Z" transform="translate(-933.919 -450.79)" fill="#ff004c"/>
        <path id="Trazado_169872" data-name="Trazado 169872" d="M964.14,403.107a8.352,8.352,0,0,1-2.145,1.294,5,5,0,0,1-2.025.33q0-5.846.006-11.693a5.864,5.864,0,0,1,5.812,5.1,5.8,5.8,0,0,1-1.362,4.556C964.32,402.822,964.235,402.968,964.14,403.107Z" transform="translate(-933.919 -386.933)" fill="#f1d0a4"/>
      </g>
    </g>
  </g>
</svg>
