<svg xmlns="http://www.w3.org/2000/svg" width="88" height="88" viewBox="0 0 88 88">
  <g id="Grupo_123957" data-name="Grupo 123957" transform="translate(-1032 -3481)">
    <g id="Grupo_123784" data-name="Grupo 123784" transform="translate(1032 3481)">
      <g id="Elipse_6768" data-name="Elipse 6768" fill="#fff" stroke="#2631a0" stroke-width="4">
        <circle cx="44" cy="44" r="44" stroke="none"/>
        <circle cx="44" cy="44" r="42" fill="none"/>
      </g>
      <g id="Grupo_123783" data-name="Grupo 123783" transform="translate(21.826 22.058)">
        <path id="Trazado_169874" data-name="Trazado 169874" d="M932.014,342.614c.292-.45.491-.971,1.033-1.217a2.326,2.326,0,0,1,1.031-.252c.717.015,1.435.007,2.153.009-.014.221-.212.253-.355.328a1.876,1.876,0,0,0-1.051,1.748c0,.1,0,.2,0,.3V382.3c0,.129,0,.259,0,.388a1.866,1.866,0,0,0,1.011,1.641c.154.083.37.112.393.348-.675,0-1.35-.006-2.025.006a2.018,2.018,0,0,1-2.089-1.337.609.609,0,0,0-.1-.131Z" transform="translate(-932.014 -341.144)" fill="#c4bdc6"/>
        <path id="Trazado_169875" data-name="Trazado 169875" d="M1393,462.657v23.535a.74.74,0,0,1-.527.138q-1.8.005-3.606,0a.8.8,0,0,1-.532-.125.915.915,0,0,1-.129-.618q0-11.125,0-22.25c0-.254-.03-.525.2-.719a1.1,1.1,0,0,1,.585-.1q1.7,0,3.4,0A.85.85,0,0,1,1393,462.657Z" transform="translate(-1348.858 -452.049)" fill="#fed35e"/>
        <path id="Trazado_169876" data-name="Trazado 169876" d="M1393.243,420.425l-4.57.018a.1.1,0,0,1-.124-.036,3.613,3.613,0,0,1,1.41-3.791,1.607,1.607,0,0,1,.87-.318,3.024,3.024,0,0,1,2.324,2.266c.023.078-.007.176.091.223Z" transform="translate(-1349.104 -409.817)" fill="#fe4d48"/>
        <path id="Trazado_169877" data-name="Trazado 169877" d="M1388.031,737.047h4.641v.172a14.66,14.66,0,0,0-.779,1.975c-.22.541-.417,1.09-.625,1.636a.876.876,0,0,1-.642.144c-.408,0-.816,0-1.224,0a3.672,3.672,0,0,1-1.541-.13l-.016-.084c.284-.2.609-.1.915-.11.463-.02.469-.018.3-.464-.329-.884-.655-1.77-.966-2.661a1.006,1.006,0,0,1-.1-.414Z" transform="translate(-1348.533 -702.902)" fill="#f8bf6e"/>
        <path id="Trazado_169878" data-name="Trazado 169878" d="M964.514,384.719a2.111,2.111,0,0,1-1.548-1.992q.005-19.771.008-39.543A1.863,1.863,0,0,1,964.1,341.4c.14-.067.278-.137.417-.206l24.906,0q2.154,0,4.309,0a1.985,1.985,0,0,1,2,1.989q0,19.778,0,39.557a1.973,1.973,0,0,1-1.913,1.987Q979.164,384.725,964.514,384.719Z" transform="translate(-960.297 -341.183)" fill="#e5e5e5"/>
        <path id="Trazado_169879" data-name="Trazado 169879" d="M1373.41,462.475l.086.026a.679.679,0,0,0-.084.414q0,11.466,0,22.932c0,.057.007.115.011.172h-.013a2.913,2.913,0,0,1-1.476.1c-.107-.107-.069-.243-.069-.368q0-11.527,0-23.055c0-.071.01-.143.015-.214A1.994,1.994,0,0,1,1373.41,462.475Z" transform="translate(-1333.927 -451.874)" fill="#feab38"/>
        <path id="Trazado_169880" data-name="Trazado 169880" d="M1373.434,419.254l-1.529,0a7.849,7.849,0,0,1,.065-1.794,3.079,3.079,0,0,1,3.7-2.331,3.247,3.247,0,0,0-2.113,2.245A7.664,7.664,0,0,0,1373.434,419.254Z" transform="translate(-1333.95 -408.653)" fill="#ba1c4f"/>
        <path id="Trazado_169881" data-name="Trazado 169881" d="M1372.735,736.995c.48-.218.985-.044,1.476-.1q.641,1.724,1.282,3.449c.08.214,0,.273-.211.266-.414-.014-.83-.006-1.244-.007C1373.577,739.41,1373.123,738.214,1372.735,736.995Z" transform="translate(-1334.726 -702.752)" fill="#fe9438"/>
        <path id="Trazado_169882" data-name="Trazado 169882" d="M1388.026,780.976l1.539,0c.051.05.132.074.159.14.26.641.507,1.286.777,1.923a1.145,1.145,0,0,1-1.882-.459C1388.39,782.057,1388.222,781.51,1388.026,780.976Z" transform="translate(-1348.698 -743.04)" fill="#817676"/>
        <path id="Trazado_169883" data-name="Trazado 169883" d="M1406.8,782.985a4.58,4.58,0,0,1-.731-1.554c-.065-.171-.137-.339-.206-.509l1.869,0A5.292,5.292,0,0,1,1406.8,782.985Z" transform="translate(-1365.002 -742.99)" fill="#a29a9a"/>
        <path id="Trazado_169884" data-name="Trazado 169884" d="M1126.477,524.122h6.549a2.168,2.168,0,0,1,.43.015.666.666,0,0,1,.115,1.286,1.355,1.355,0,0,1-.552.06q-6.549,0-13.1,0a1.827,1.827,0,0,1-.428-.026.633.633,0,0,1-.555-.705.641.641,0,0,1,.646-.625,3.392,3.392,0,0,1,.344,0Z" transform="translate(-1102.814 -508.339)" fill="#817676"/>
        <path id="Trazado_169885" data-name="Trazado 169885" d="M1126.432,763.483h-6.549a1.33,1.33,0,0,1-.55-.071.665.665,0,0,1-.01-1.217,1.208,1.208,0,0,1,.506-.077h13.27c.072,0,.144,0,.215,0a.679.679,0,1,1,.01,1.357c-.114.01-.229,0-.344,0Z" transform="translate(-1102.811 -725.813)" fill="#817676"/>
        <path id="Trazado_169886" data-name="Trazado 169886" d="M1126.474,646.17h6.592a1.267,1.267,0,0,1,.509.06.659.659,0,0,1-.008,1.245,1.3,1.3,0,0,1-.509.057h-13.184a1.3,1.3,0,0,1-.55-.075.665.665,0,0,1,.008-1.217,1.328,1.328,0,0,1,.55-.072Z" transform="translate(-1102.812 -619.864)" fill="#817676"/>
        <path id="Trazado_169887" data-name="Trazado 169887" d="M1126.39,481.283q-3.4,0-6.8,0a.673.673,0,0,1-.724-.484.628.628,0,0,1,.251-.722.73.73,0,0,1,.491-.116q6.781,0,13.561,0a.668.668,0,0,1,.756.643c.009.4-.292.672-.775.673Q1129.77,481.288,1126.39,481.283Z" transform="translate(-1102.72 -467.991)" fill="#807676"/>
        <path id="Trazado_169888" data-name="Trazado 169888" d="M1126.413,603.286h-6.458c-.115,0-.23,0-.344,0a.659.659,0,1,1-.011-1.317c.086,0,.172,0,.258,0h13.173a1.959,1.959,0,0,1,.429.016.655.655,0,0,1-.032,1.29,3.312,3.312,0,0,1-.473.014Z" transform="translate(-1102.792 -579.468)" fill="#807676"/>
        <path id="Trazado_169889" data-name="Trazado 169889" d="M1126.448,717.923h6.595a2.2,2.2,0,0,1,.43.013.616.616,0,0,1,.551.664.61.61,0,0,1-.582.633,3.343,3.343,0,0,1-.387.009h-13.147a2.777,2.777,0,0,1-.387-.011.6.6,0,0,1-.57-.6.622.622,0,0,1,.517-.692,1.758,1.758,0,0,1,.429-.019Z" transform="translate(-1102.826 -685.426)" fill="#807676"/>
        <path id="Trazado_169890" data-name="Trazado 169890" d="M1105.481,382.121c.213-.69.388-1.28.578-1.865.148-.455.42-.612.8-.487.319.1.441.439.288.86-.317.875-.644,1.747-.972,2.619-.128.339-.326.637-.731.624s-.54-.327-.65-.653c-.161-.474-.324-.946-.521-1.523-.2.584-.379,1.07-.536,1.562-.1.323-.257.6-.629.613a.742.742,0,0,1-.713-.582c-.339-.9-.681-1.795-1.01-2.7a.586.586,0,0,1,.292-.824c.38-.127.663.034.807.48.19.585.367,1.174.583,1.87.135-.4.243-.707.344-1.018.08-.245.145-.495.23-.738.105-.3.211-.627.606-.635s.553.3.658.627c.148.464.294.929.442,1.392C1105.379,381.842,1105.414,381.935,1105.481,382.121Z" transform="translate(-1086.726 -376.4)" fill="#817676"/>
        <path id="Trazado_169891" data-name="Trazado 169891" d="M1179.719,380.932c-.164.487-.327.974-.493,1.461-.108.316-.277.593-.647.6a.725.725,0,0,1-.69-.557c-.348-.911-.691-1.824-1.022-2.741a.582.582,0,1,1,1.087-.381c.11.311.2.629.3.943.094.3.192.592.318.98.216-.669.4-1.239.583-1.807.1-.295.22-.574.6-.575s.518.254.617.558c.18.558.359,1.116.558,1.732a3.131,3.131,0,0,0,.351-.9c.119-.338.2-.687.323-1.025a.528.528,0,0,1,.694-.346.512.512,0,0,1,.4.622,1.222,1.222,0,0,1-.073.29q-.477,1.291-.96,2.58c-.128.342-.325.636-.731.622s-.539-.329-.648-.656c-.157-.473-.317-.945-.476-1.417Z" transform="translate(-1155.7 -375.595)" fill="#817676"/>
        <path id="Trazado_169892" data-name="Trazado 169892" d="M1030.923,382.049c.221-.7.413-1.293.6-1.891a.6.6,0,0,1,.4-.466.557.557,0,0,1,.725.7c-.348,1.016-.745,2.015-1.134,3.016a.613.613,0,0,1-.614.4.646.646,0,0,1-.592-.49c-.187-.522-.362-1.049-.582-1.689l-.471,1.372c-.126.367-.216.8-.707.8s-.642-.406-.785-.793c-.288-.779-.582-1.556-.872-2.335a1.4,1.4,0,0,1-.087-.287c-.047-.332.025-.608.4-.7a.54.54,0,0,1,.7.4,18.579,18.579,0,0,0,.665,1.837l.458-1.4c.049-.15.095-.3.149-.448a.564.564,0,0,1,.539-.422.6.6,0,0,1,.57.45C1030.491,380.707,1030.685,381.322,1030.923,382.049Z" transform="translate(-1018.614 -376.328)" fill="#817676"/>
        <path id="Trazado_169893" data-name="Trazado 169893" d="M1014.722,582.561c.473-.4.947-.789,1.417-1.186.391-.33.8-.348,1.066-.039s.228.685-.18,1.046c-.762.675-1.534,1.339-2.3,2.008a8.777,8.777,0,0,1-1.463,1.361,8.665,8.665,0,0,1-.815.691.855.855,0,0,1-1.343-.131c-.1-.1-.177-.224-.27-.332a9.1,9.1,0,0,1-.848-.969.8.8,0,0,1-.072-.959.722.722,0,0,1,.906-.28,2.22,2.22,0,0,1,.735.706c.316.374.385.383.755.051.672-.6,1.376-1.164,2.045-1.768A.565.565,0,0,1,1014.722,582.561Z" transform="translate(-1003.078 -560.419)" fill="#817676"/>
        <path id="Trazado_169894" data-name="Trazado 169894" d="M1011.347,468.609c.459-.39.915-.783,1.376-1.169a.665.665,0,0,1,1.022.019.694.694,0,0,1-.141.989c-.772.683-1.555,1.354-2.333,2.03-.122.313-.419.465-.651.667-.539.468-1.072.945-1.631,1.389a.783.783,0,0,1-1.24-.046c-.146-.137-.287-.279-.429-.421-.222-.281-.465-.543-.708-.805a.933.933,0,0,1-.293-.818c.082-.457.416-.631,1.031-.553a2.622,2.622,0,0,1,.782.726c.248.315.427.269.689.035.674-.6,1.365-1.181,2.051-1.766A1.318,1.318,0,0,1,1011.347,468.609Z" transform="translate(-999.897 -456.339)" fill="#817676"/>
        <path id="Trazado_169895" data-name="Trazado 169895" d="M1014.619,700.015c.53-.344.958-.812,1.454-1.2.41-.318.787-.313,1.05.02s.182.672-.193,1.008c-.766.687-1.6,1.3-2.318,2.037a17,17,0,0,1-1.8,1.63c-.156.144-.316.288-.483.422a.817.817,0,0,1-1.185-.056c-.165-.157-.326-.319-.488-.48-.222-.282-.468-.542-.709-.807a.854.854,0,0,1-.181-.99.76.76,0,0,1,.916-.38,3.176,3.176,0,0,1,.844.784c.218.256.354.279.616.043.734-.66,1.5-1.286,2.255-1.921A.363.363,0,0,1,1014.619,700.015Z" transform="translate(-1002.976 -667.757)" fill="#817676"/>
        <path id="Trazado_169896" data-name="Trazado 169896" d="M999.179,592.111a.667.667,0,0,0-.861.26.724.724,0,0,0,.179.932c.265.28.505.583.756.876,0,.086.032.171.032.255a2.041,2.041,0,0,0,.524,1.727,13.14,13.14,0,0,1-1.932.02.853.853,0,0,1-.849-.933q-.012-2.06,0-4.121a.9.9,0,0,1,.984-.99c.586,0,1.173,0,1.76.007a.231.231,0,0,1-.1.222,1.413,1.413,0,0,0-.386,1.091C999.285,591.677,999.347,591.915,999.179,592.111Z" transform="translate(-991.414 -568.661)" fill="#242ca3"/>
        <path id="Trazado_169897" data-name="Trazado 169897" d="M999.174,709.478c-.384-.064-.744-.009-.907.384a.814.814,0,0,0,.315.951,3.175,3.175,0,0,1,.6.724,1.054,1.054,0,0,1,.108.62,1.434,1.434,0,0,0,.423,1.241.183.183,0,0,1,.057.193c-.586,0-1.173.013-1.759.006a.9.9,0,0,1-.984-.994q-.011-2.06,0-4.12a.852.852,0,0,1,.763-.928c.569-.062,1.14-.013,1.71-.027.121,0,.286.035.166.18a2.53,2.53,0,0,0-.393,1.586A.272.272,0,0,1,999.174,709.478Z" transform="translate(-991.417 -675.926)" fill="#242ca3"/>
        <path id="Trazado_169898" data-name="Trazado 169898" d="M996.082,478.2a1.372,1.372,0,0,0-.67.05.709.709,0,0,0-.061,1.136,5.72,5.72,0,0,1,.743.873.829.829,0,0,1,.119.4,1.927,1.927,0,0,0,.436,1.58,13.779,13.779,0,0,1-2.025.012.822.822,0,0,1-.691-.894q-.008-2.1,0-4.206a.875.875,0,0,1,.944-.935c.6-.008,1.2,0,1.8.008a2.236,2.236,0,0,0-.49,1.751A.257.257,0,0,1,996.082,478.2Z" transform="translate(-988.588 -464.566)" fill="#242ca3"/>
        <path id="Trazado_169899" data-name="Trazado 169899" d="M1001.994,508.637h1.961c-.74-.569-.43-1.321-.491-2,.135.126.272.25.4.38a.68.68,0,0,0,1.109.05q1.177-.992,2.356-1.98c0,.9.013,1.809,0,2.714a.776.776,0,0,1-.76.826c-1.448.037-2.9.055-4.343.08A.3.3,0,0,1,1001.994,508.637Z" transform="translate(-995.959 -490.951)" fill="#5a5faf"/>
        <path id="Trazado_169900" data-name="Trazado 169900" d="M1006.939,622.635h1.9c-.787-.569-.639-1.288-.522-2a.18.18,0,0,1,.034.026c.723.86.942.861,1.788.106.646-.577,1.322-1.12,1.985-1.679,0,.891.008,1.781,0,2.672a.789.789,0,0,1-.769.863c-1.391.035-2.782.053-4.173.073A.993.993,0,0,1,1006.939,622.635Z" transform="translate(-1000.477 -595.116)" fill="#5a5faf"/>
        <path id="Trazado_169901" data-name="Trazado 169901" d="M1022.522,740.38a1.542,1.542,0,0,1-.593-1.583c.008-.157,0-.314,0-.472.125.115.256.225.374.347.468.479.761.477,1.273.023.671-.595,1.353-1.176,2.034-1.759a.9.9,0,0,1,.188-.1c0,.886.016,1.773.01,2.66a.819.819,0,0,1-.888.883C1024.123,740.4,1023.322,740.382,1022.522,740.38Z" transform="translate(-1014.166 -702.714)" fill="#5a5faf"/>
        <path id="Trazado_169902" data-name="Trazado 169902" d="M1007.321,708.795c0-.228.019-.458,0-.685a1.333,1.333,0,0,1,.554-1.238h-1.939a6.1,6.1,0,0,1,1.872-.049c.83.065,1.656.039,2.484.05a.873.873,0,0,1,.911.626c-.667.686-1.438,1.254-2.16,1.877-.21.182-.378.527-.66.494-.267-.031-.382-.392-.593-.581C1007.623,709.139,1007.477,708.961,1007.321,708.795Z" transform="translate(-999.563 -675.243)" fill="#5a5faf"/>
        <path id="Trazado_169903" data-name="Trazado 169903" d="M1018.8,478.137a6.059,6.059,0,0,0,0-.762,1.165,1.165,0,0,1,.6-1.209c.77,0,1.54.009,2.309-.015.5-.016.744.346,1.051.626q-1.361,1.164-2.721,2.329c-.12.1-.208.177-.348.013C1019.4,478.782,1019.095,478.463,1018.8,478.137Z" transform="translate(-1011.304 -464.506)" fill="#5a5faf"/>
        <path id="Trazado_169904" data-name="Trazado 169904" d="M1021.985,592.117c0-.242.01-.486,0-.727a1.283,1.283,0,0,1,.593-1.24c.786,0,1.573-.013,2.359-.005a.874.874,0,0,1,.931.664c-.876.755-1.756,1.5-2.624,2.268-.16.141-.242.117-.38-.021A7.594,7.594,0,0,0,1021.985,592.117Z" transform="translate(-1014.22 -568.667)" fill="#5a5faf"/>
      </g>
    </g>
  </g>
</svg>
