<svg xmlns="http://www.w3.org/2000/svg" width="88" height="88" viewBox="0 0 88 88">
  <g id="Grupo_123958" data-name="Grupo 123958" transform="translate(-459 -3610)">
    <g id="Grupo_123788" data-name="Grupo 123788" transform="translate(459 3610)">
      <g id="Elipse_6769" data-name="Elipse 6769" fill="#fff" stroke="#2631a0" stroke-width="4">
        <circle cx="44" cy="44" r="44" stroke="none"/>
        <circle cx="44" cy="44" r="42" fill="none"/>
      </g>
      <g id="Grupo_123785" data-name="Grupo 123785" transform="translate(19.535 22.999)">
        <path id="Trazado_169907" data-name="Trazado 169907" d="M772.167,444.739a11.093,11.093,0,0,1-1.526-1.5c.166-.187.392-.15.6-.154.519-.009,1.039-.006,1.558,0a4.2,4.2,0,0,0,3.278-1.577.8.8,0,0,0,.262-.728.627.627,0,0,0-.935-.4,3.047,3.047,0,0,0-.778.654,2.38,2.38,0,0,1-1.787.731c-1.092-.016-2.184.03-3.276-.023a10.243,10.243,0,0,1-1.288-3.362c-.044-.217-.023-.463-.2-.64v-.108a.823.823,0,0,0,0-.646v-.969c.118-.24.028-.5.056-.743-.028-.218.061-.446-.056-.657v-.646a6.754,6.754,0,0,0,.311-1.815,26.694,26.694,0,0,1,1.077-4.449,2.994,2.994,0,0,0,.9.091,4.594,4.594,0,0,1,3.158,1.14,2.558,2.558,0,0,0,.208.171c.311.206.646.295.92-.019a.646.646,0,0,0-.056-.924,5.3,5.3,0,0,0-2.928-1.578,5.1,5.1,0,0,0-1.172-.124.68.68,0,0,1-.557-.131,24.24,24.24,0,0,1,1.464-3.14c1.091-.062,2.183-.037,3.273-.019a2.936,2.936,0,0,0,2.3-.95c.491-.52,1.035-.991,1.5-1.536a.585.585,0,0,0,0-.868.618.618,0,0,0-.875-.038,2.921,2.921,0,0,0-.359.323c-.343.341-.7.673-1.023,1.027a2.055,2.055,0,0,1-1.717.715c-.535-.031-1.074,0-1.611-.009-.21,0-.435.033-.609-.137a27.052,27.052,0,0,1,9.777-9.373,25.582,25.582,0,0,1,6.854-2.735,4.827,4.827,0,0,1,1.121-.07,1.153,1.153,0,0,1,.4.343,5.966,5.966,0,0,1,.85,4.134c-.095.147-.261.173-.406.238a.675.675,0,0,0-.462.653.65.65,0,0,0,.459.6c.177.076.385.107.457.33a1.922,1.922,0,0,1,.06.588q0,3.795,0,7.59a2.074,2.074,0,0,1-.055.587c-.138.356-.454.4-.773.44a.68.68,0,0,1-.464-.232q-.708-.687-1.395-1.395c-.121-.125-.258-.255-.2-.463a6.82,6.82,0,0,0,1.425-2.612,12.3,12.3,0,0,0,.279-2.012,1.172,1.172,0,0,0-.079-.527.615.615,0,0,0-.7-.447.567.567,0,0,0-.527.578c-.031.356-.069.712-.092,1.066a5.251,5.251,0,0,1-1.363,3.137c-1.826,1.223-3.154,2.975-4.731,4.463-.514.485-.484.738-.06,1.289.1.135.27.256.149.467-1.006.973-1.964,2-2.981,2.955a3.461,3.461,0,0,0-.51,4.118c.508.825.985,1.669,1.5,2.489a1.973,1.973,0,0,1,.321,1.17c-.016.376,0,.753,0,1.13a1.521,1.521,0,0,1-1.514,1.557,6.606,6.606,0,0,0-.859.034.629.629,0,0,0-.6.649.621.621,0,0,0,.619.628,3.1,3.1,0,0,0,3.483-1.74c.287-.572.307-.581.881-.256a3.813,3.813,0,0,0,1.953.515c1-.01,2.01,0,3.014,0a3.592,3.592,0,0,0,2.357-.763,1.634,1.634,0,0,1,.313-.208c.1-.046.2-.114.3-.052.132.08.1.226.072.34a4.547,4.547,0,0,1-2.176,3.054.505.505,0,0,1-.174-.011,6.463,6.463,0,0,0-3.37-.669c-.571.014-1.143-.016-1.714.009-.893.039-1.14.484-.712,1.255a.426.426,0,0,1,.072.253.225.225,0,0,1-.123.144,1.991,1.991,0,0,1-.795.084q-3.808,0-7.616,0A11.585,11.585,0,0,1,772.167,444.739Z" transform="translate(-768.073 -409.504)" fill="#fea698"/>
        <path id="Trazado_169908" data-name="Trazado 169908" d="M1013.205,547.722a10.285,10.285,0,0,1-6.383,3.645,16.887,16.887,0,0,1-2.836.191q-5.192.008-10.384.017a1.076,1.076,0,0,1-.679-.093.266.266,0,0,1,.228-.12c.7.085,1.108-.368,1.532-.81a6.614,6.614,0,0,1,1.016-.944.864.864,0,0,1,.47-.2,7.99,7.99,0,0,1-2.332-.024.134.134,0,0,1-.06-.155,4.507,4.507,0,0,1,3.519-1.766c.963-.049,1.929-.021,2.894-.006a1.465,1.465,0,0,1,.623.14.885.885,0,0,1,.534.8.726.726,0,0,1-.464.816c-1.272.117-2.544.014-3.815.06a34.845,34.845,0,0,0,4.431-.135,11.02,11.02,0,0,0,5.528-2.162c.128-.1.247-.206.373-.307a.364.364,0,0,0,.067-.59.938.938,0,0,1-.235-.988.882.882,0,0,1,1.354-.475c.411.263.606.159.857-.206.439-.636.659-1.391,1.131-2a.418.418,0,0,1,.305-.077,2.4,2.4,0,0,0,2.255-1.086.61.61,0,0,0,.047-.872.655.655,0,0,0-.923-.075c-.182.118-.314.294-.483.425-.223.173-.455.311-.707.04a2.855,2.855,0,0,1,.055-1.217,23.751,23.751,0,0,0-.349-5.649c-.042-.284-.168-.334-.39-.153a1.529,1.529,0,0,1-.173.126.967.967,0,0,1-1.269-.119.987.987,0,0,1,.053-1.277,2.8,2.8,0,0,1,1.328-.953c.13.028.191.131.254.232a2.507,2.507,0,0,1,.2.666c.118.491.163.526.607.3a5.214,5.214,0,0,1,2.673-.44.563.563,0,0,1,.4.136,24.946,24.946,0,0,1,1.1,4.848,3.992,3.992,0,0,0,.209,1.294v.323a.822.822,0,0,0,0,.646v1.938a.822.822,0,0,0,0,.646v.108a5.732,5.732,0,0,0-.321,1.269,10.172,10.172,0,0,1-1.161,2.742c-1.161.03-2.323.016-3.484.006a2.353,2.353,0,0,1-1.38-.523c-.38-.278-.449-.221-.918.344-.262.315-.148.486.111.7a3.69,3.69,0,0,0,2.23.8c.589.028,1.179,0,1.769.01C1012.817,547.566,1013.044,547.528,1013.205,547.722Z" transform="translate(-960.627 -513.978)" fill="#fd8e82"/>
        <path id="Trazado_169909" data-name="Trazado 169909" d="M768.179,588.515c-.039.251.1.528-.106.756v-.754Q768.125,588.444,768.179,588.515Z" transform="translate(-768.073 -562.756)" fill="#feb1a4"/>
        <path id="Trazado_169910" data-name="Trazado 169910" d="M1151.194,583.385a.487.487,0,0,1,0-.646Z" transform="translate(-1096.058 -557.84)" fill="#fdaea4"/>
        <path id="Trazado_169911" data-name="Trazado 169911" d="M768.179,584.883l-.106,0v-.646C768.275,584.426,768.143,584.669,768.179,584.883Z" transform="translate(-768.073 -559.124)" fill="#fec0b6"/>
        <path id="Trazado_169912" data-name="Trazado 169912" d="M768.073,600.732a.489.489,0,0,1,0,.646Z" transform="translate(-768.073 -573.248)" fill="#fed1ca"/>
        <path id="Trazado_169913" data-name="Trazado 169913" d="M1151.19,601.378a.484.484,0,0,1,0-.646Z" transform="translate(-1096.054 -573.248)" fill="#fda79d"/>
        <path id="Trazado_169914" data-name="Trazado 169914" d="M971.617,444.524a.758.758,0,0,0,.292-.9.737.737,0,0,0-.747-.586,18.571,18.571,0,0,0-4.208.153,3.932,3.932,0,0,0-1.892,1.045c-.178.173-.37.332-.555.5a.539.539,0,0,1-.436.162c-1.366,0-2.733.063-4.1-.034a7.175,7.175,0,0,1-1.063-2.3c-.061-.282-.206-.565.014-.843.255-.036.38.164.536.3a3.953,3.953,0,0,0,1.906.921,1.843,1.843,0,0,0,.586.028c.38-.05.648-.243.656-.647a.638.638,0,0,0-.592-.651c-.123-.026-.249-.022-.373-.039a2.3,2.3,0,0,1-2-2.005,1.51,1.51,0,0,0-.8-1.179,2.286,2.286,0,0,1-.067-1.025,1.059,1.059,0,0,1,.361-.582q2.259-2.265,4.529-4.518c.148-.146.287-.462.6-.213a17.69,17.69,0,0,1,.066,2.464c.016.483-.023.968.018,1.45.044.521.307.8.708.782s.582-.262.589-.8c.014-1.075.008-2.15,0-3.224a6.037,6.037,0,0,1,.192-1.488c.132-.532.35-.606.735-.241.689.653,1.355,1.331,2.016,2.012a1.341,1.341,0,0,1,.371.978c0,.573,0,1.146,0,1.72a1.8,1.8,0,0,0,.049.533.617.617,0,0,0,.661.512.571.571,0,0,0,.573-.545,16.261,16.261,0,0,0-.033-3,1.994,1.994,0,0,0-.658-1.085c-.889-.908-1.831-1.765-2.673-2.719-.126-.255.058-.408.2-.556q2.96-2.975,5.934-5.935c.125-.124.251-.266.462-.219a25.664,25.664,0,0,1,1.973,1.9,4.972,4.972,0,0,0,2.859,1.49,1.168,1.168,0,0,0,.684-.062.628.628,0,0,0-.1-1.2,3.023,3.023,0,0,0-.319-.047,3.359,3.359,0,0,1-1.974-1,21.031,21.031,0,0,0-2.322-2.239.5.5,0,0,1-.159-.616c.228-.831.423-1.67.635-2.505.031-.122.066-.243.088-.366a.666.666,0,1,0-1.286-.326c-.19.6-.31,1.217-.473,1.823a1.146,1.146,0,0,1-.245.588c-.016.008-.039.027-.047.022a4.263,4.263,0,0,1-1.851-1.915,7.33,7.33,0,0,0,.848-3.346c-.011-.579-.2-.83-.6-.843s-.667.282-.719.828a4.186,4.186,0,0,1-.608,2.238c-.207.11-.331-.05-.473-.147-.485-.331-.693-.325-1.125.089-.632.606-1.234,1.242-1.866,1.848-.148.141-.281.412-.57.21a2.073,2.073,0,0,1-.176-1.092c-.018-.581-.193-.829-.6-.845s-.669.276-.711.831a6.963,6.963,0,0,0,.221,1.957,1.519,1.519,0,0,1,.059.528,6.541,6.541,0,0,1-1.641,1.774.166.166,0,0,1-.272-.04,4.1,4.1,0,0,1-.078-1.172c-.032-.524-.267-.834-.645-.839s-.662.3-.658.822a10.916,10.916,0,0,0,.1,2.568.575.575,0,0,1-.233.509c-.61.62-1.217,1.243-1.851,1.839-.146.137-.354.475-.559.025a16.476,16.476,0,0,1-.043-2.246c.011-1.641-.057-3.283.037-4.922a.507.507,0,0,1,.194-.312,20.184,20.184,0,0,0,2.381-2.249,2.713,2.713,0,0,1,2-.892.67.67,0,0,0,.776-.638c0-.395-.306-.681-.8-.686a3.663,3.663,0,0,0-2.641,1.022c-.443.419-.853.872-1.3,1.283-.144.132-.3.434-.562.126a5.905,5.905,0,0,1-.03-1.764c.073-.2.058-.436.218-.607a5.727,5.727,0,0,1,5.117-4.743,10.528,10.528,0,0,1,4.07.852,5.794,5.794,0,0,1,1.392.546,24.3,24.3,0,0,1,2.041,1.445,28.192,28.192,0,0,1,7.219,8.565,1.149,1.149,0,0,1,.125.3c.021.089.034.189-.051.245s-.171,0-.247-.045a2.249,2.249,0,0,1-.361-.32c-.408-.4-.8-.821-1.221-1.21-.389-.361-.752-.381-1.04-.086s-.262.633.083,1c.554.585,1.12,1.16,1.711,1.707a2.532,2.532,0,0,0,1.494.67,1.027,1.027,0,0,1,.517.121,1.475,1.475,0,0,1,.385.635c.329.794.586,1.614.835,2.436.069.228.2.474.012.714a6.28,6.28,0,0,0-1.224.951.917.917,0,0,0-.1,1.2.883.883,0,0,0,1.212-.05c.054-.047.1-.1.154-.15.093-.075.16-.232.3-.174s.168.218.189.36a31.7,31.7,0,0,1,.424,5.16c-.011.655-.133,1.308-.2,1.962l-.06.053c-.284.092-.478-.078-.675-.236-.1-.079-.169-.187-.26-.271a3.305,3.305,0,0,1-1.143-2.577,4.65,4.65,0,0,0-1.524-3.182c-1.057-1.074-2.127-2.137-3.2-3.2-.506-.5-.88-.574-1.2-.249s-.248.678.263,1.19q1.464,1.467,2.931,2.932a4.163,4.163,0,0,1,.682,5.609c-.2.339-.41.675-.608,1.017-.289.5-.23.9.157,1.121.358.206.691.07,1-.433.256-.411.5-.829.744-1.248.267-.459.466-.5.828-.119a7.025,7.025,0,0,0,1.49,1.131l.029.075a10.982,10.982,0,0,1-1.247,2.364c-.189.281-.344.289-.63.06-.6-.481-1.158-.313-1.4.352a.78.78,0,0,0,.3.854c.3.286.209.421-.057.648a10.3,10.3,0,0,1-5.911,2.509C972.109,444.669,971.83,444.823,971.617,444.524Z" transform="translate(-931.342 -409.394)" fill="#fea698"/>
        <path id="Trazado_169915" data-name="Trazado 169915" d="M1044.554,431.589a2.834,2.834,0,0,1-2.3-.951c-.459-.479-.938-.937-1.4-1.409s-.51-.9-.155-1.264.815-.335,1.3.152c.531.53,1.053,1.069,1.579,1.6l.118-.082c-.356-.619-.692-1.252-1.072-1.856a28.051,28.051,0,0,0-4.785-5.751,23.757,23.757,0,0,0-3.194-2.51c-.125-.08-.324-.115-.3-.336a25.517,25.517,0,0,1,6.505,3.83,27.506,27.506,0,0,1,6.059,6.718,2.664,2.664,0,0,1,.122.238c-.189.188-.432.139-.658.142-.73.009-1.46,0-2.225,0,.1.5.491.89.456,1.407Z" transform="translate(-996.096 -417.779)" fill="#fd8e83"/>
        <path id="Trazado_169916" data-name="Trazado 169916" d="M926.6,414.8q0,.969,0,1.938l-.073.028c-.231-.039-.361-.22-.512-.368-.383-.375-.768-.749-1.137-1.138a4.41,4.41,0,0,0-2.647-1.155l-.053-.058A6.657,6.657,0,0,0,921,409.526a5.6,5.6,0,0,1,5.5,4.629C926.586,414.363,926.724,414.562,926.6,414.8Z" transform="translate(-899.032 -409.507)" fill="#fd8e83"/>
        <path id="Trazado_169917" data-name="Trazado 169917" d="M792.138,480.8c.805,0,1.611-.022,2.416,0a1.627,1.627,0,0,0,1.285-.542q.69-.714,1.4-1.4a.8.8,0,1,1,1.127,1.128c-.549.564-1.1,1.127-1.672,1.669a2.634,2.634,0,0,1-1.886.761c-1.02-.007-2.04,0-3.06,0-.172,0-.364.056-.5-.116A7.84,7.84,0,0,1,792.138,480.8Z" transform="translate(-787.924 -468.603)" fill="#fd8e83"/>
        <path id="Trazado_169918" data-name="Trazado 169918" d="M1106.725,508.235a16.887,16.887,0,0,0-1.293-3.765l.006-.007a.574.574,0,0,1,.394-.15c.985,0,1.97-.062,2.954.03a21.753,21.753,0,0,1,1.465,3.146c-.226.2-.505.123-.764.142a4.734,4.734,0,0,0-2.656.821A.228.228,0,0,1,1106.725,508.235Z" transform="translate(-1056.974 -490.661)" fill="#fd8e82"/>
        <path id="Trazado_169919" data-name="Trazado 169919" d="M778.214,526.495a5.92,5.92,0,0,1,4.742,1.7.89.89,0,0,1,.1,1.2.849.849,0,0,1-1.17-.023,4.613,4.613,0,0,0-3.579-1.278c-.2.01-.492.127-.569-.227A6.617,6.617,0,0,1,778.214,526.495Z" transform="translate(-776.349 -509.665)" fill="#fd8e83"/>
        <path id="Trazado_169920" data-name="Trazado 169920" d="M1115.154,527.414c-.034-.374.284-.417.512-.51a6.476,6.476,0,0,1,2.908-.454,7.664,7.664,0,0,1,.551,1.606,5.681,5.681,0,0,0-3.353.612c-.212.137-.329.052-.38-.166C1115.309,528.14,1115.233,527.776,1115.154,527.414Z" transform="translate(-1065.297 -509.622)" fill="#fd7c66"/>
        <path id="Trazado_169921" data-name="Trazado 169921" d="M1104.7,495.77c-.131.178-.324.123-.5.124-.951,0-1.9,0-2.852,0a12.071,12.071,0,0,0-.692-1.611h3.163A7.317,7.317,0,0,1,1104.7,495.77Z" transform="translate(-1052.885 -482.087)" fill="#fd7c66"/>
        <path id="Trazado_169922" data-name="Trazado 169922" d="M959.4,442.408l-.1-.646.2.1C959.484,442.049,959.571,442.253,959.4,442.408Z" transform="translate(-931.826 -437.113)" fill="#fec1b8"/>
        <path id="Trazado_169923" data-name="Trazado 169923" d="M854.772,553.585c-.079.279.222.559,0,.837a6.867,6.867,0,0,1-1.074,2.355,5.258,5.258,0,0,1-2.8,1.851c-.766-.93-1.681-1.715-2.508-2.585-.115-.121-.325-.183-.293-.411a5.183,5.183,0,0,0,2.159-3.346c-.242.173-.41.28-.562.4a3.532,3.532,0,0,1-2.287.784c-1.077.007-2.154-.007-3.23,0a3.562,3.562,0,0,1-2.166-.67c-.251-.18-.29-.12-.395.129-.769,1.83-2.163,2.19-3.783,2.032a.744.744,0,0,1-.708-.809.766.766,0,0,1,.742-.781c.3-.036.61,0,.914-.012A1.464,1.464,0,0,0,840.143,552a5.158,5.158,0,0,0-1.18-3.722,12.155,12.155,0,0,1-.755-1.236,3.569,3.569,0,0,1,.55-4c.909-.893,1.8-1.8,2.706-2.7.136-.135.243-.322.47-.331.579.094.831.54,1.076,1,0,.284-.206.447-.38.622-.807.814-1.624,1.619-2.43,2.435a1.831,1.831,0,0,0-.316,2.356c.852,1.453,1.723,2.894,2.6,4.334a1.893,1.893,0,0,0,1.743.965c1.021-.007,2.042,0,3.064,0a2.074,2.074,0,0,0,1.544-.637c.328-.331.654-.664.99-.986.151-.144.28-.339.535-.306.288.65.047,1.326.142,1.977.559-.467,1.017-1.1,1.647-1.553a.363.363,0,0,1,.3.068.86.86,0,0,0,1.15-.188c.228-.223.448-.455.68-.673.138-.13.256-.3.484-.283l.012,1.207-.047.065a1.132,1.132,0,0,0-.685,1.056,2.237,2.237,0,0,1-2.051,2.012c-.711.043-.982.467-.925.8.072.42.5.641,1.129.543a3.88,3.88,0,0,0,2.019-.937.986.986,0,0,1,.48-.326Z" transform="translate(-827.202 -521.253)" fill="#fd8e83"/>
        <path id="Trazado_169924" data-name="Trazado 169924" d="M796.573,645c.489-.217.965.05,1.449.053.221,0,.456.055.687.055q4.369,0,8.738,0c1.171-.12,2.343-.013,3.316-.048-.971-.065-2.145.074-3.313-.059a.872.872,0,0,1-.4-1.013.756.756,0,0,1,.757-.578,18.893,18.893,0,0,1,4.265.17,2.957,2.957,0,0,1,1.192.566c.035.291-.213.346-.389.441a2.779,2.779,0,0,1-1.349.432,2.262,2.262,0,0,1,1.356.657,9.419,9.419,0,0,1,.724.72,1.736,1.736,0,0,0,1.452.77.2.2,0,0,1,.171.115,3.865,3.865,0,0,1-1.433.06c-3.365.008-6.73.019-10.095,0a11.557,11.557,0,0,1-4.555-.818A9.947,9.947,0,0,1,796.573,645Z" transform="translate(-792.479 -609.766)" fill="#fd8e83"/>
        <path id="Trazado_169925" data-name="Trazado 169925" d="M778.458,624c.15-.19.363-.121.551-.122.915-.006,1.829-.012,2.744,0a2.16,2.16,0,0,0,1.678-.7,3.717,3.717,0,0,1,.806-.7.7.7,0,0,1,.894.079c.25.246.469.569.206.954a4.231,4.231,0,0,1-3.328,1.976c-.822.053-1.649.015-2.474.018A5.612,5.612,0,0,1,778.458,624Z" transform="translate(-776.966 -591.761)" fill="#fd8e83"/>
        <path id="Trazado_169926" data-name="Trazado 169926" d="M1103.444,630.06c-.664,0-1.328-.028-1.991-.01a4.135,4.135,0,0,1-3-1.075c-.214-.192-.2-.3-.019-.467a2.972,2.972,0,0,0,.325-.357c.464-.619.453-.609,1.059-.154a2.029,2.029,0,0,0,1.246.435q1.453-.007,2.907,0c.189,0,.4-.063.548.132A5.322,5.322,0,0,1,1103.444,630.06Z" transform="translate(-1050.865 -596.317)" fill="#fd7c66"/>
        <path id="Trazado_169927" data-name="Trazado 169927" d="M902.743,651.869a1.831,1.831,0,0,1-1.707-.762,3.374,3.374,0,0,0-2.269-1.441,5.1,5.1,0,0,0,2.01-.932c.035,0,.071,0,.106,0,.966.837,1.817,1.793,2.738,2.676.1.1.153.191.063.32A2.608,2.608,0,0,1,902.743,651.869Z" transform="translate(-879.994 -614.354)" fill="#fd7c66"/>
        <path id="Trazado_169928" data-name="Trazado 169928" d="M967.4,655.526c.149-.192.362-.121.551-.122,1.328-.006,2.655,0,3.983-.006l.005.006c.059.264-.164.372-.3.52a18.826,18.826,0,0,0-1.425,1.507A4.9,4.9,0,0,1,967.4,655.526Z" transform="translate(-938.769 -620.057)" fill="#fd8f83"/>
        <path id="Trazado_169929" data-name="Trazado 169929" d="M986.694,657.505c-.148-.228.068-.314.178-.429.511-.537,1.03-1.067,1.547-1.6h2.72a4.533,4.533,0,0,0-1.86,1.477,1.786,1.786,0,0,1-1.732.679A2.051,2.051,0,0,1,986.694,657.505Z" transform="translate(-955.248 -620.13)" fill="#fd7c66"/>
        <path id="Trazado_169930" data-name="Trazado 169930" d="M867.985,472.3a5.966,5.966,0,0,0-.987-.988c-.836-1.025-.83-1.116.123-2.069,1.18-1.18,2.363-2.356,3.536-3.542a1.538,1.538,0,0,1,.868-.495c.666-.107.913.393,1.2.831a24.024,24.024,0,0,0,1.94,1.936,3.572,3.572,0,0,1,.811.692q.275.286.563.559c.54.545,1.092,1.078,1.623,1.631.21.219.367.216.572,0,.367-.389.751-.762,1.133-1.136.137-.134.253-.307.471-.327q1.29-1.193,2.484-2.483a4,4,0,0,1,1.392-1.395,20.718,20.718,0,0,0,1.723-1.726,4.154,4.154,0,0,1,1.4-1.4c.673-.659,1.348-1.316,2.017-1.979.815-.809,1-.82,1.854-.085a3.566,3.566,0,0,1,1.186,1.189,23.4,23.4,0,0,0,1.833,1.81,3.639,3.639,0,0,1,1.156,1.1.988.988,0,0,1-.528,1.48l-6.578,6.575a.261.261,0,0,1-.063.2q-1.171,1.246-2.416,2.417a.27.27,0,0,1-.2.068q-2.686,2.59-5.277,5.275c-.335.322-.674.641-1,.967-.61.6-.9.632-1.58.157a7.705,7.705,0,0,1-1.122-1.026c-.215-.225-.436-.444-.66-.661q-.479-.491-.972-.969-.745-.759-1.5-1.5c-.637-.65-1.285-1.289-1.93-1.93-.356-.369-.721-.729-1.088-1.088A26.071,26.071,0,0,1,867.985,472.3Z" transform="translate(-852.267 -452.547)" fill="#febf10"/>
        <path id="Trazado_169931" data-name="Trazado 169931" d="M933.653,462.346c-.559.572-1.122,1.138-1.673,1.718-.164.172-.269.159-.427-.007-.588-.617-1.188-1.222-1.784-1.832.091-.145.254-.192.383-.285a2.319,2.319,0,0,0,1.085-2.037c-.023-.823,0-1.647-.005-2.47a2.157,2.157,0,0,0-.031-.481.615.615,0,0,0-.623-.557.625.625,0,0,0-.623.561,2.658,2.658,0,0,0-.034.588c0,.806.015,1.611-.01,2.416-.012.4-.119.75-.607.8l-.077-.047q0-4.519,0-9.039l.053-.058a1.808,1.808,0,0,1,1.728.636c.5.44.947.929,1.413,1.4a7.977,7.977,0,0,0,1.2,1.066l.026.075Q933.651,458.57,933.653,462.346Z" transform="translate(-906.078 -445.508)" fill="#fd8e82"/>
        <path id="Trazado_169932" data-name="Trazado 169932" d="M788,534.108a5.6,5.6,0,0,1,1.663-4.006c1.117-1.142,2.256-2.262,3.386-3.391a.8.8,0,0,1,.973-.229.817.817,0,0,1,.458.893.841.841,0,0,1-.317.481c-.975.979-1.923,1.988-2.937,2.925a4.208,4.208,0,0,0-.676,5.965c.191.281.369.572.531.869a.813.813,0,1,1-1.4.833c-.282-.435-.54-.886-.79-1.341-.306-.557-.305-.568-.764-.094a2.975,2.975,0,0,1-1.812,1.053,2.175,2.175,0,0,1-1.771-.533c-.2-.176-.374-.388-.576-.566a.717.717,0,0,1-.1-1.056.785.785,0,0,1,1.055-.207.8.8,0,0,1,.172.127c1.059.885,1.062.888,2.061-.12C787.622,535.253,788.257,534.876,788,534.108Z" transform="translate(-781.448 -509.59)" fill="#fd8e82"/>
        <path id="Trazado_169933" data-name="Trazado 169933" d="M824.314,470.261a2.452,2.452,0,0,1-2.113-1.255c-.2-.3-.318-.3-.575-.047a13.273,13.273,0,0,1-2.638,2.346,5.052,5.052,0,0,1-1.883.555.9.9,0,0,1-1.008-.814c-.02-.418.349-.721.887-.8a2.956,2.956,0,0,0,1.861-.848c.734-.785,1.5-1.542,2.283-2.281a.745.745,0,0,0,.23-.843c-.239-.878-.45-1.763-.67-2.646a.829.829,0,0,1,.472-1.006.8.8,0,0,1,1.057.557q.567,2.119,1.079,4.253c.164.689.448,1.173,1.242,1.252a.886.886,0,0,1,.805.865C825.3,469.989,824.911,470.259,824.314,470.261Z" transform="translate(-809.199 -454.941)" fill="#fd8e83"/>
        <path id="Trazado_169934" data-name="Trazado 169934" d="M869.931,441.022c.6.02.9.336.895.778a9.363,9.363,0,0,0,1.4,4.229.76.76,0,0,1-.524,1.2.676.676,0,0,1-.843-.4,12.975,12.975,0,0,1-1.569-3.855,5.463,5.463,0,0,1-.034-1.282A.721.721,0,0,1,869.931,441.022Z" transform="translate(-854.701 -436.479)" fill="#fd8e83"/>
        <path id="Trazado_169935" data-name="Trazado 169935" d="M903.358,468.577c-.4-.271-.644-.782-1.2-.831a11.387,11.387,0,0,1,.825-1.295,6.565,6.565,0,0,0,.588-2.794c.026-.6.2-.852.689-.9a.738.738,0,0,1,.9.76A6.274,6.274,0,0,1,903.358,468.577Z" transform="translate(-882.897 -455.09)" fill="#fd8f83"/>
        <path id="Trazado_169936" data-name="Trazado 169936" d="M923.478,442.645c-.6-.022-.951-.291-.964-.744-.014-.529.312-.827.965-.881l.006.006a1.8,1.8,0,0,1,0,1.611Z" transform="translate(-900.33 -436.478)" fill="#fd8e82"/>
        <path id="Trazado_169937" data-name="Trazado 169937" d="M924.78,516.228a3.637,3.637,0,0,1-.75-.754l.749-.218.007.006A.793.793,0,0,1,924.78,516.228Z" transform="translate(-901.628 -500.05)" fill="#f99082"/>
        <path id="Trazado_169938" data-name="Trazado 169938" d="M872.277,654.706H875.7v.107h-3.425C872.276,654.778,872.277,654.742,872.277,654.706Z" transform="translate(-857.308 -619.47)" fill="#fe988b"/>
        <path id="Trazado_169939" data-name="Trazado 169939" d="M1116.491,591.258c.385.074.59-.2.8-.432a.973.973,0,0,1,.833-.4.771.771,0,0,1,.685.524.784.784,0,0,1-.177.8,2.561,2.561,0,0,1-2.683,1.123h0a2.321,2.321,0,0,1,.536-1.614Z" transform="translate(-1065.985 -564.42)" fill="#fd7c66"/>
        <path id="Trazado_169940" data-name="Trazado 169940" d="M1024.763,653.96c.227.208.5.064.755.109-.061.033-.121.1-.182.1-1.516.005-3.031,0-4.548-.1h3.3A1.2,1.2,0,0,0,1024.763,653.96Z" transform="translate(-984.488 -618.831)" fill="#fe998c"/>
        <path id="Trazado_169941" data-name="Trazado 169941" d="M990.377,542.98c.144,1.038-.544,1.83-1.031,2.692-.342.606-.724,1.191-1.088,1.785a1.007,1.007,0,0,0-.142.564c.008.448,0,.9,0,1.345a1.377,1.377,0,0,0,1.506,1.483,6.233,6.233,0,0,1,.753.008.8.8,0,0,1-.006,1.6c-1.633.122-2.985-.2-3.748-2.079-.1-.246-.163-.247-.371-.1a3.627,3.627,0,0,1-2.215.679c-1-.015-2.009-.027-3.013,0a4.027,4.027,0,0,1-2.991-1.217c-.662-.631-1.3-1.287-1.942-1.938a.907.907,0,0,1-.149-1.288,1,1,0,0,1,1.317.1c.706.688,1.4,1.39,2.095,2.09a2.074,2.074,0,0,0,1.543.634c1.058,0,2.116-.008,3.174,0a2,2,0,0,0,1.842-1.075c.814-1.367,1.612-2.744,2.468-4.083a2.2,2.2,0,0,0-.3-2.825c-.98-.864-1.866-1.835-2.79-2.763-.455-.457-.493-.948-.115-1.317.332-.324.789-.265,1.227.17.979.974,1.949,1.957,2.932,2.927A3.172,3.172,0,0,1,990.377,542.98Z" transform="translate(-945.905 -518.734)" fill="#fd8e82"/>
        <path id="Trazado_169942" data-name="Trazado 169942" d="M1069.475,536.429l-.536,1.614a3.476,3.476,0,0,1-1.641-1.16c-.264-.293-.412-.238-.582.1-.235.461-.514.9-.776,1.346-.324.551-.728.7-1.187.427s-.545-.7-.229-1.243.67-1.058.958-1.612a3.948,3.948,0,0,0-.71-4.652c-1.121-1.135-2.256-2.257-3.382-3.386-.412-.413-.444-.805-.107-1.167a.759.759,0,0,1,1.215.021c1.237,1.221,2.511,2.412,3.675,3.7a4.919,4.919,0,0,1,1.354,3.52,1.524,1.524,0,0,0,.575,1.4,3.607,3.607,0,0,1,.453.525C1068.8,536.146,1069.042,536.444,1069.475,536.429Z" transform="translate(-1018.969 -509.591)" fill="#fd8e82"/>
        <path id="Trazado_169943" data-name="Trazado 169943" d="M996.681,550.817c.858-.928,1.758-1.816,2.677-2.683,1.117.983,2.137,2.066,3.165,3.137a1.691,1.691,0,0,1,.413,1.194c-.005.824,0,1.649,0,2.473a.791.791,0,0,1-.754.859.8.8,0,0,1-.854-.825c-.021-.734-.013-1.47,0-2.2a1.008,1.008,0,0,0-.3-.773c-.7-.7-1.4-1.39-2.09-2.093-.247-.252-.359-.24-.423.131a8.631,8.631,0,0,0-.2,1.532c.009,1.129,0,2.258.005,3.387,0,.454-.159.769-.64.839a.8.8,0,0,1-.933-.679,2.376,2.376,0,0,1-.043-.532Q996.682,552.7,996.681,550.817Z" transform="translate(-963.844 -528.206)" fill="#fd8e83"/>
        <path id="Trazado_169944" data-name="Trazado 169944" d="M1057.369,468.289c.106-.12.216-.237.319-.36a.856.856,0,0,0-.028-1.248c-.3-.328-.612-.648-.918-.972.212-.829.409-1.662.641-2.485a.812.812,0,0,1,1.074-.6.837.837,0,0,1,.451,1.059c-.245.986-.488,1.972-.749,2.954-.042.159-.057.243.093.352a20.6,20.6,0,0,1,2.477,2.376,3.093,3.093,0,0,0,1.9.88c.567.077.935.407.878.852a.959.959,0,0,1-1.109.761,4.9,4.9,0,0,1-2.813-1.305A29.738,29.738,0,0,1,1057.369,468.289Z" transform="translate(-1015.277 -454.936)" fill="#fd8e83"/>
        <path id="Trazado_169945" data-name="Trazado 169945" d="M958.828,443.75c.54-.522,1.084-1.04,1.619-1.566a3.839,3.839,0,0,1,2.862-1.118.826.826,0,0,1,.9.852.778.778,0,0,1-.907.753,2.336,2.336,0,0,0-1.862.783c-.591.6-1.2,1.187-1.783,1.79a1.819,1.819,0,0,1-.831.558l-.007-.009a2.784,2.784,0,0,1,0-2.036Z" transform="translate(-931.256 -436.516)" fill="#fd8e83"/>
        <path id="Trazado_169946" data-name="Trazado 169946" d="M958.955,611.945c.586.114.832.364.846,1.038a2.238,2.238,0,0,0,2.09,1.991.817.817,0,0,1,.934.811.835.835,0,0,1-.956.793,3.774,3.774,0,0,1-2.475-1.007l-.442-.387-.007-.006a.572.572,0,0,1-.156-.439q-.029-1.172,0-2.345a.651.651,0,0,1,.16-.441Z" transform="translate(-931.382 -582.851)" fill="#fd8e83"/>
        <path id="Trazado_169947" data-name="Trazado 169947" d="M1036.912,445.46a7.065,7.065,0,0,1-1.186-1.189,5.394,5.394,0,0,0,.537-2.263c.016-.618.312-.969.822-.966.579,0,.78.257.8.949a7.493,7.493,0,0,1-.731,3.194A.481.481,0,0,1,1036.912,445.46Z" transform="translate(-997.28 -436.497)" fill="#fd998c"/>
        <path id="Trazado_169948" data-name="Trazado 169948" d="M977.135,486.053a13.931,13.931,0,0,1-1.392,1.395c-.027-.023-.072-.041-.079-.069a7.156,7.156,0,0,1-.025-3.16.65.65,0,0,1,.831-.42.775.775,0,0,1,.651.754C977.147,485.051,977.132,485.552,977.135,486.053Z" transform="translate(-945.684 -473.092)" fill="#fd8e83"/>
        <path id="Trazado_169949" data-name="Trazado 169949" d="M998.424,464.946a13.484,13.484,0,0,1-1.4,1.4,13.253,13.253,0,0,1-.329-2.587c.04-.664.337-1,.873-.98a.678.678,0,0,1,.739.736A6.213,6.213,0,0,0,998.424,464.946Z" transform="translate(-963.85 -455.107)" fill="#fd8f83"/>
        <path id="Trazado_169950" data-name="Trazado 169950" d="M933.682,443.751q0,1.018,0,2.036a1.655,1.655,0,0,1-.792-.514c-.623-.64-1.257-1.269-1.893-1.9a2.146,2.146,0,0,0-1.723-.705q0-.806,0-1.612a3.744,3.744,0,0,1,2.833,1.161C932.622,442.739,933.156,443.241,933.682,443.751Z" transform="translate(-906.116 -436.51)" fill="#fd7c66"/>
        <path id="Trazado_169951" data-name="Trazado 169951" d="M857.034,546.893a22.863,22.863,0,0,1,2.031,2.032,1.178,1.178,0,0,1-.513.668,2.775,2.775,0,0,0-1.053,2.566c.048.534,0,1.076.013,1.613.016.487.259.779.629.792s.644-.272.675-.753a14.678,14.678,0,0,0,.007-1.775,2.168,2.168,0,0,1,1.33-2.021,20.194,20.194,0,0,1,1.929,1.925,16.213,16.213,0,0,1,.063,1.923c.039.556.389.827.84.662a.707.707,0,0,0,.426-.515c.056-.184.033-.4.191-.546a5.169,5.169,0,0,1,.959.952,2.925,2.925,0,0,1,.011,1.143.311.311,0,0,1-.105.142c-.488.473-.981.94-1.463,1.419a2.091,2.091,0,0,1-1.542.631c-1.057,0-2.113-.009-3.17,0a1.993,1.993,0,0,1-1.842-1.07c-.813-1.365-1.607-2.742-2.464-4.079a2.193,2.193,0,0,1,.318-2.86c.853-.734,1.61-1.58,2.4-2.381C856.841,547.227,857.029,547.122,857.034,546.893Z" transform="translate(-841.315 -527.143)" fill="#fea698"/>
        <path id="Trazado_169952" data-name="Trazado 169952" d="M936.9,611.989q0,1.613,0,3.225a4.588,4.588,0,0,1-2.335,1.347,3.014,3.014,0,0,1-.692.053.822.822,0,0,1-.843-.8.81.81,0,0,1,.838-.8,2.242,2.242,0,0,0,2.063-1.377,3.344,3.344,0,0,0,.172-.943A.763.763,0,0,1,936.9,611.989Z" transform="translate(-909.329 -582.888)" fill="#fd7c66"/>
        <path id="Trazado_169953" data-name="Trazado 169953" d="M929.241,604.264c0-.034.006-.068.007-.1.186-.258.267-.66.733-.537a7.4,7.4,0,0,1,1.085,1.092l-1.825,1.708Z" transform="translate(-906.091 -575.706)" fill="#fd7c66"/>
        <path id="Trazado_169954" data-name="Trazado 169954" d="M929.248,489.284q0-.483.007-.966a.667.667,0,0,0,.537-.747c-.011-.93-.007-1.86,0-2.79,0-.61.326-.994.815-.988s.8.385.8,1.006c0,1,.011,2,0,3a2.206,2.206,0,0,1-1.612,2.021A2.163,2.163,0,0,1,929.248,489.284Z" transform="translate(-906.097 -473.106)" fill="#fd7c66"/>
        <path id="Trazado_169955" data-name="Trazado 169955" d="M882.55,562.13c-.008.016-.013.037-.026.046a2.924,2.924,0,0,0-1.156,3.055,3.936,3.936,0,0,1,0,.858.809.809,0,0,1-.862.76.787.787,0,0,1-.744-.812q-.012-1.288,0-2.576a1.814,1.814,0,0,1,.475-1.223c.385-.421.815-.8,1.226-1.2A6.78,6.78,0,0,1,882.55,562.13Z" transform="translate(-863.712 -539.258)" fill="#fd8e83"/>
        <path id="Trazado_169956" data-name="Trazado 169956" d="M913.521,583.556a2.519,2.519,0,0,1-.049.637.776.776,0,0,1-.919.625.683.683,0,0,1-.64-.827,7.839,7.839,0,0,1,.089-1.959A13.321,13.321,0,0,1,913.521,583.556Z" transform="translate(-891.235 -557.234)" fill="#fc8f83"/>
        <path id="Trazado_169957" data-name="Trazado 169957" d="M929.922,599.913c-.346.04-.45.411-.733.537.04-.393-.109-.8.088-1.182A2.54,2.54,0,0,1,929.922,599.913Z" transform="translate(-906.032 -571.994)" fill="#f89183"/>
      </g>
      <g id="Grupo_123787" data-name="Grupo 123787" transform="translate(13.298 18.467)">
        <path id="Trazado_169958" data-name="Trazado 169958" d="M713.225,284.1h2.326a.3.3,0,0,1,.1.26q.009,2.451,0,4.9a.464.464,0,0,1-.023.153c-.006.025-.013.051-.021.076-.061.107-.166.114-.271.117a5.7,5.7,0,0,0-3.425,1.238,5.783,5.783,0,0,0-2.256,3.919,5.667,5.667,0,0,0,.582,3.468,5.873,5.873,0,0,0,4.551,3.224,4.179,4.179,0,0,0,.533.038.307.307,0,0,1,.28.105.46.46,0,0,1,.024.078.994.994,0,0,1,.029.31q0,2.31,0,4.621c0,.137.03.288-.1.394h-2.326c-.463-.111-.583-.26-.588-.742q-.008-.76,0-1.52a.3.3,0,0,0-.229-.33,8.879,8.879,0,0,1-.908-.374.275.275,0,0,0-.357.065c-.329.335-.681.649-.99,1a.9.9,0,0,1-1.4.011c-.7-.714-1.409-1.414-2.116-2.12-.237-.237-.468-.481-.712-.71a.874.874,0,0,1,0-1.255c.368-.337.706-.706,1.064-1.054a.3.3,0,0,0,.072-.395,8.75,8.75,0,0,1-.374-.908.272.272,0,0,0-.3-.207c-.41,0-.82,0-1.229,0-.1,0-.209,0-.313,0-.482-.008-.631-.126-.742-.589v-4.652c.111-.463.26-.583.742-.588q.76-.008,1.52,0a.3.3,0,0,0,.329-.229,8.893,8.893,0,0,1,.374-.908.275.275,0,0,0-.065-.357c-.355-.35-.694-.719-1.063-1.054a.889.889,0,0,1,0-1.289c.952-.934,1.886-1.886,2.834-2.824a.9.9,0,0,1,.684-.322.822.822,0,0,1,.581.239c.359.358.721.712,1.073,1.076a.323.323,0,0,0,.432.078,7.865,7.865,0,0,1,.887-.365.272.272,0,0,0,.207-.3c0-.41,0-.82,0-1.229,0-.1,0-.209,0-.313C712.644,284.359,712.762,284.21,713.225,284.1Z" transform="translate(-704.099 -284.099)" fill="#666dd5"/>
        <path id="Trazado_169959" data-name="Trazado 169959" d="M960.006,289.474,960,284.1h2.326c.466.106.585.254.589.739s.006,1,0,1.5a.313.313,0,0,0,.248.36,5.69,5.69,0,0,1,.887.367.27.27,0,0,0,.357-.061q.526-.534,1.059-1.06a.805.805,0,0,1,1.272-.005q1.474,1.452,2.926,2.925a.788.788,0,0,1,.006,1.159c-.355.372-.721.734-1.091,1.091a.316.316,0,0,0-.073.432,4.451,4.451,0,0,1,.341.825.333.333,0,0,0,.39.27c.492-.01.984-.006,1.476,0s.633.123.739.589v4.652c-.106.466-.254.585-.739.589s-.969,0-1.454,0c-.314,0-.313,0-.416.288a7.8,7.8,0,0,1-.356.844.269.269,0,0,0,.06.357q.534.525,1.06,1.059a.806.806,0,0,1,.006,1.272q-1.428,1.449-2.878,2.878a.806.806,0,0,1-1.272-.006c-.35-.345-.7-.692-1.043-1.045a.292.292,0,0,0-.395-.066,4.79,4.79,0,0,1-.845.35.334.334,0,0,0-.27.39c.01.492.006.984,0,1.476s-.123.632-.589.739H960q0-2.687,0-5.375a.456.456,0,0,1,.343-.132,5.948,5.948,0,0,0,4.235-9.745,5.9,5.9,0,0,0-3.57-2.077,3.119,3.119,0,0,0-.643-.067A.444.444,0,0,1,960.006,289.474Z" transform="translate(-948.549 -284.099)" fill="#242ca3"/>
        <path id="Trazado_169966" data-name="Trazado 169966" d="M957.766,434.933l.273-.007a4.688,4.688,0,0,1,4.383,4.024,4.594,4.594,0,0,1-2.118,4.644,4.317,4.317,0,0,1-2.309.737l-.229-.008a.262.262,0,0,1-.1-.217c-.007-.954-.016-1.907,0-2.861a.2.2,0,0,1,.023-.085c.069-.189.254-.155.395-.2a1.354,1.354,0,0,0,1-.981,1.372,1.372,0,0,0-.988-1.69c-.142-.038-.324-.008-.4-.188a.625.625,0,0,1-.034-.263q0-1.291,0-2.582C957.667,435.143,957.656,435.018,957.766,434.933Z" transform="translate(-946.316 -428.176)" fill="#242ca3"/>
        <path id="Trazado_169967" data-name="Trazado 169967" d="M859.325,441.078q0,1.6,0,3.209a4.356,4.356,0,0,1-2.954-1.024,4.708,4.708,0,0,1,2.731-8.375c.074,0,.149,0,.223.008q0,1.6,0,3.209c-.038.107-.138.1-.222.116a1.389,1.389,0,0,0,0,2.74C859.187,440.982,859.287,440.971,859.325,441.078Z" transform="translate(-847.87 -428.14)" fill="#666dd5"/>
      </g>
    </g>
  </g>
</svg>
