<svg xmlns="http://www.w3.org/2000/svg" xmlns:xlink="http://www.w3.org/1999/xlink" width="100" height="100" viewBox="0 0 100 100">
  <defs>
    <filter id="Rect치ngulo_41991" x="0" y="0" width="100" height="100" filterUnits="userSpaceOnUse">
      <feOffset dy="3" input="SourceAlpha"/>
      <feGaussianBlur stdDeviation="3" result="blur"/>
      <feFlood flood-opacity="0.161"/>
      <feComposite operator="in" in2="blur"/>
      <feComposite in="SourceGraphic"/>
    </filter>
  </defs>
  <g id="Grupo_124113" data-name="Grupo 124113" transform="translate(19194 10293)">
    <g id="Grupo_124075" data-name="Grupo 124075" transform="translate(-20298.332 -10368)">
      <g transform="matrix(1, 0, 0, 1, 1104.33, 75)" filter="url(#Rect치ngulo_41991)">
        <rect id="Rect치ngulo_41991-2" data-name="Rect치ngulo 41991" width="82" height="82" rx="23" transform="translate(9 6)" fill="#fff"/>
      </g>
      <g id="Grupo_118325" data-name="Grupo 118325" transform="translate(361.074 -250.216)">
        <path id="Trazado_165022" data-name="Trazado 165022" d="M791.111,348.074h.921a1.8,1.8,0,0,0,.921,0h.614c.516.1,1.044.066,1.564.129a22.194,22.194,0,0,1,11.607,5.151,23.286,23.286,0,0,1,7.225,10.352,22.214,22.214,0,0,1,1.308,6.746,10.038,10.038,0,0,1,.087,1.374c-.022.211,0,.458-.285.53-.067-.056-.06-.134-.061-.208,0-.133,0-.266,0-.329a3.5,3.5,0,0,1,0,.378,4.5,4.5,0,0,1-.154,1.795c-.029.317-.112.63-.165.946a.764.764,0,0,1-.341.49c-.427.34-.87.659-1.307.987a.861.861,0,0,1-1.046.064c-.351-.212-.72-.39-1.078-.589a.687.687,0,0,1-.394-.445,5.157,5.157,0,0,1,.208-1.444c.052-.385.05-.77.1-1.152a3.466,3.466,0,0,0,.05-1.36,20.356,20.356,0,0,0-1.7-7.739,19.357,19.357,0,0,0-16.08-11.369c-.492-.046-.989.024-1.481-.048a21.356,21.356,0,0,0-4.006.416,19,19,0,0,0-8.565,4.241,2.676,2.676,0,0,1-.481.377,13.891,13.891,0,0,0-1.193,1.192c-.438.588-.937,1.127-1.368,1.721a18.964,18.964,0,0,0-3.55,9.2c-.051.458-.084.915-.112,1.375a3.721,3.721,0,0,1,.036.756,2.8,2.8,0,0,0-.056.663,18.961,18.961,0,0,0,1.812,7.436,18.493,18.493,0,0,0,3.89,5.535,18.834,18.834,0,0,0,4.227,3.187,19.747,19.747,0,0,0,7.708,2.346,20.391,20.391,0,0,0,5.079-.238,1.142,1.142,0,0,1,.456,0,4.173,4.173,0,0,1,1.116,1.842.379.379,0,0,1-.139.414,7.753,7.753,0,0,1-2.591.5,22.818,22.818,0,0,1-8.6-.741,23.755,23.755,0,0,1-16.308-15.726,15.192,15.192,0,0,1-.8-4.292,9.847,9.847,0,0,0-.1-1.122v-.307a.8.8,0,0,0,0-.614v-1.024c.166-.9.115-1.824.307-2.726a23.8,23.8,0,0,1,18.36-18.367,20.323,20.323,0,0,1,2.536-.25c.1-.009.206.027.292-.051h.614A1.8,1.8,0,0,0,791.111,348.074Z" transform="translate(0 0)" fill="#fee17a"/>
        <path id="Trazado_165023" data-name="Trazado 165023" d="M943.952,540.264c.168-.133.139-.268.039-.438-.314-.535-.612-1.079-.917-1.62a3.236,3.236,0,0,1-.769-1.736.745.745,0,0,0-.76-.669,14.39,14.39,0,0,1-1.565-.249,1.1,1.1,0,0,1-1-1.214c-.018-.494-.019-.99,0-1.484a1.162,1.162,0,0,1,1.059-1.236c.533-.115,1.077-.169,1.617-.248a.675.675,0,0,0,.622-.571,10.858,10.858,0,0,1,1.35-3.245.658.658,0,0,0-.051-.839c-.325-.438-.673-.86-.964-1.323a1.136,1.136,0,0,1,.161-1.652c.34-.359.685-.714,1.052-1.046a1.067,1.067,0,0,1,1.445-.155,17.674,17.674,0,0,1,1.461,1.034.657.657,0,0,0,.836.046,10.877,10.877,0,0,1,3.2-1.331.729.729,0,0,0,.617-.7q.087-.71.208-1.416a1.232,1.232,0,0,1,1.384-1.2c.494-.009.99-.024,1.483.01a1.056,1.056,0,0,1,1.078.911c.14.581.205,1.176.289,1.766a.648.648,0,0,0,.568.611,5.2,5.2,0,0,1,1.443.5c.179.029.27.169.374.294.543.307,1.093.6,1.625.927a.379.379,0,0,0,.5-.065c.593-.448,1.188-.893,1.783-1.339a.442.442,0,0,1,.3-.253.328.328,0,0,1,.1-.013,3.993,3.993,0,0,1,2.306,2.126,1.29,1.29,0,0,1-.276,1.006c-.311.427-.628.849-.948,1.27a.653.653,0,0,0-.037.836,10.9,10.9,0,0,1,1.332,3.2.724.724,0,0,0,.729.635,15.442,15.442,0,0,1,1.565.239.936.936,0,0,1,.858.746v2.354c-.074.577-.471.782-.984.855-.556.08-1.11.176-1.665.26a.476.476,0,0,0-.448.407,11.47,11.47,0,0,1-1.414,3.433.588.588,0,0,0,.05.744c.327.436.671.86.969,1.316a1.246,1.246,0,0,1-.145,1.754c-.3.325-.612.641-.941.937a1.225,1.225,0,0,1-1.674.136c-.46-.293-.885-.636-1.316-.968a.646.646,0,0,0-.833-.054,10.99,10.99,0,0,1-3.339,1.375.55.55,0,0,0-.473.512c-.088.537-.155,1.078-.239,1.616-.08.511-.28.909-.857.984h-2.354a.936.936,0,0,1-.746-.858c-.112-.569-.188-1.143-.265-1.717a.559.559,0,0,0-.463-.53,12.089,12.089,0,0,1-3.433-1.427.567.567,0,0,0-.7.059c-.429.308-.842.639-1.273.944a1.233,1.233,0,0,1-1.791-.114c-.338-.313-.657-.644-.977-.975a1.255,1.255,0,0,1-.4-.961A4.908,4.908,0,0,1,943.952,540.264Z" transform="translate(-147.553 -147.556)" fill="#12263f"/>
        <path id="Trazado_165024" data-name="Trazado 165024" d="M794.919,549.31a23.173,23.173,0,0,1-20.1-6.834,22.933,22.933,0,0,1-6.509-13.1,4.232,4.232,0,0,0-.233-1.28v-1.126a.134.134,0,0,1,.2,0,20.169,20.169,0,0,0,1.184,5.1,23.53,23.53,0,0,0,10.306,12.366,22.864,22.864,0,0,0,8.474,2.962,20.123,20.123,0,0,0,4.928.171c1.081-.115,2.159-.222,3.225-.434A25.9,25.9,0,0,0,794.919,549.31Z" transform="translate(0 -154.434)" fill="#f8ce58"/>
        <path id="Trazado_165025" data-name="Trazado 165025" d="M768.282,520.139l-.2,0v-1.126A4.264,4.264,0,0,1,768.282,520.139Z" transform="translate(0 -147.598)" fill="#fad568"/>
        <path id="Trazado_165026" data-name="Trazado 165026" d="M930.937,348.074a.954.954,0,0,1-.921,0Z" transform="translate(-139.826 0)" fill="#fee99d"/>
        <path id="Trazado_165027" data-name="Trazado 165027" d="M944.432,348.074a.947.947,0,0,1-.921,0Z" transform="translate(-151.478 0)" fill="#fee795"/>
        <path id="Trazado_165028" data-name="Trazado 165028" d="M768.08,512.264a.479.479,0,0,1,0,.614Z" transform="translate(0 -141.772)" fill="#fde38c"/>
        <path id="Trazado_165029" data-name="Trazado 165029" d="M877.277,401.232c-.571-.169-1.137-.359-1.715-.5a.5.5,0,0,1-.44-.516c-.074-.643-.181-1.282-.29-1.92a.858.858,0,0,0-.974-.828c-.511-.009-1.023-.008-1.535,0-.653.009-.919.229-1.034.887-.105.6-.19,1.212-.265,1.82a.564.564,0,0,1-.509.577,9.923,9.923,0,0,0-3.522,1.452.546.546,0,0,1-.759-.034c-.49-.4-1.005-.762-1.52-1.127a.89.89,0,0,0-1.32.113q-.551.534-1.085,1.086a.885.885,0,0,0-.089,1.321c.377.527.758,1.051,1.156,1.562a.461.461,0,0,1,.035.63,10.49,10.49,0,0,0-1.517,3.661.477.477,0,0,1-.473.43q-.913.115-1.822.259c-.743.119-.963.379-.968,1.123,0,.478-.006.955,0,1.433a.87.87,0,0,0,.847,1.009,10.838,10.838,0,0,0,1.665.248c.624.009.793.325.8.853-.178.266-.476.252-.734.282a20.794,20.794,0,0,1-5.142,0,19.945,19.945,0,0,1-10.309-4.585.3.3,0,0,1-.026-.311,1.7,1.7,0,0,1,.358-.428q5.02-5.021,10.043-10.04c.2-.2.385-.443.708-.465a1.727,1.727,0,0,1,.7.3,2.184,2.184,0,0,0,2.493-.2,2.38,2.38,0,0,0,.892-2.5.985.985,0,0,0-.171-.312,2.254,2.254,0,0,0-1.693-1.363c-.23-.049-.465-.105-.564-.366a2.1,2.1,0,0,1-.062-.76q0-7.539,0-15.078c0-.316-.068-.657.2-.916a19.456,19.456,0,0,1,19.22,16.508,17.347,17.347,0,0,1,.222,2.748,2.758,2.758,0,0,0-.085.78,18.18,18.18,0,0,1-.422,2.706A.705.705,0,0,1,877.277,401.232Z" transform="translate(-67.026 -25.865)" fill="#fe4755"/>
        <path id="Trazado_165030" data-name="Trazado 165030" d="M817.54,378.029l0,16.879a.4.4,0,0,1-.328.2,2.556,2.556,0,0,0-1.951,1.647,2.656,2.656,0,0,0,.292,1.973c.1.172.239.341.158.567q-4.993,4.982-9.987,9.964c-.313.312-.635.614-.954.92-.342.082-.545-.166-.751-.35a16.755,16.755,0,0,1-2.329-2.637A18.689,18.689,0,0,1,798.4,400a10.907,10.907,0,0,1-.191-1.2c-.053-.535.044-.642.573-.648.8-.009,1.6-.007,2.4,0a1.418,1.418,0,0,0,.736-.167.549.549,0,0,0,.322-.674.626.626,0,0,0-.678-.431c-.917-.019-1.835,0-2.753-.009a.838.838,0,0,1-.706-.21,18.7,18.7,0,0,1,2.319-8.494,17.615,17.615,0,0,1,2.8-3.883c.291-.084.435.141.6.3.6.58,1.179,1.173,1.767,1.761.108.108.215.216.332.315a.564.564,0,0,0,.824.024.554.554,0,0,0-.026-.823c-.563-.612-1.171-1.181-1.753-1.774-.155-.157-.319-.306-.462-.474-.109-.128-.235-.255-.158-.451A18.909,18.909,0,0,1,817.54,378.029Z" transform="translate(-25.927 -25.865)" fill="#f8f5f5"/>
        <path id="Trazado_165031" data-name="Trazado 165031" d="M840.65,614.924a1.207,1.207,0,0,1,.753.39,19.357,19.357,0,0,0,9.252,4.036,25.1,25.1,0,0,0,4.229.175c.659-.009,1.317-.133,1.975-.2l.6,1.745a19.257,19.257,0,0,1-17.376-5.011c-.1-.091-.181-.2-.271-.3A.938.938,0,0,1,840.65,614.924Z" transform="translate(-61.938 -230.415)" fill="#fb2b3a"/>
        <path id="Trazado_165032" data-name="Trazado 165032" d="M804.644,536.54l-.838.829a17.783,17.783,0,0,1-4.009-5.743,18.024,18.024,0,0,1-1.684-7.257.869.869,0,0,1,.158-.125,1.755,1.755,0,0,1,.849-.092c.745-.007,1.491-.008,2.236,0,.235,0,.483-.017.644.215-.159.14-.355.1-.538.1-.886,0-1.772.017-2.658-.005-.423-.01-.542.144-.466.548a21.472,21.472,0,0,0,1.249,4.25,19.816,19.816,0,0,0,4.143,6.194c.317.328.693.6,1.042.9Z" transform="translate(-25.932 -152.031)" fill="#ebd9eb"/>
        <path id="Trazado_165033" data-name="Trazado 165033" d="M836.75,415.621q1.218,1.236,2.435,2.471a.786.786,0,1,1-1.086,1.086q-1.237-1.216-2.471-2.435A6.614,6.614,0,0,1,836.75,415.621Z" transform="translate(-58.324 -58.324)" fill="#d9b8d7"/>
        <path id="Trazado_165034" data-name="Trazado 165034" d="M801.956,516.033l-3.791-.006c-.133-.224.035-.491-.1-.715q0-.41.006-.82,1.75,0,3.5,0a.8.8,0,0,1,.87.554A.752.752,0,0,1,801.956,516.033Z" transform="translate(-25.889 -143.695)" fill="#d9b9d7"/>
        <path id="Trazado_165035" data-name="Trazado 165035" d="M1076.947,527.514c.184-.86.372-1.719.548-2.581.044-.214.048-.436.07-.654.286.209.13.485.111.739a12.978,12.978,0,0,1-.323,2.641Z" transform="translate(-266.696 -152.147)" fill="#fb2f3c"/>
        <path id="Trazado_165036" data-name="Trazado 165036" d="M1109.03,524.178a16.263,16.263,0,0,1-.2,2.56l-.316.119c.015-.765.266-1.494.337-2.25.02-.218.043-.436.065-.654q.048-.1.084.005Z" transform="translate(-293.951 -151.822)" fill="#f8d05e"/>
        <path id="Trazado_165037" data-name="Trazado 165037" d="M1081.571,520.512c-.054-.244.069-.514-.111-.74a1.164,1.164,0,0,1,.186-.712A4.761,4.761,0,0,1,1081.571,520.512Z" transform="translate(-270.591 -147.64)" fill="#fc3d45"/>
        <path id="Trazado_165038" data-name="Trazado 165038" d="M798.063,520.5c.178.218.076.476.1.715l-.095.007Q798.066,520.86,798.063,520.5Z" transform="translate(-25.889 -148.883)" fill="#d2a9cf"/>
        <path id="Trazado_165039" data-name="Trazado 165039" d="M1111.542,520.522a.705.705,0,0,0-.084-.005c0-.16,0-.321,0-.594A1.018,1.018,0,0,1,1111.542,520.522Z" transform="translate(-296.495 -148.386)" fill="#fbd769"/>
        <path id="Trazado_165040" data-name="Trazado 165040" d="M992.921,579.572a7.227,7.227,0,0,1,5.664-6.814,7.32,7.32,0,0,1,8.851,6.147,4.5,4.5,0,0,1,.018.509,5.112,5.112,0,0,1-1.257,3.414,7.506,7.506,0,0,1-4.792,2.591,7.823,7.823,0,0,1-7.053-2.411A4.974,4.974,0,0,1,992.921,579.572Z" transform="translate(-194.141 -193.862)" fill="#fee17a"/>
        <path id="Trazado_165041" data-name="Trazado 165041" d="M992.629,622.728a8.28,8.28,0,0,0,.794,2.246,7.2,7.2,0,0,0,5.263,3.4,7.567,7.567,0,0,0,6-1.514,5.767,5.767,0,0,0,2.392-4.112.647.647,0,0,1,.08-.182,7.4,7.4,0,0,1-.158,2.247,5.507,5.507,0,0,1-1.4,3.1,7.434,7.434,0,0,1-10.05,1.243,6.82,6.82,0,0,1-2.7-3.558,3.147,3.147,0,0,1-.147-1.1A5.939,5.939,0,0,1,992.629,622.728Z" transform="translate(-193.849 -237.018)" fill="#f8ce58"/>
        <path id="Trazado_165042" data-name="Trazado 165042" d="M992.993,636.746a7.327,7.327,0,0,0,14.158.749c.047-.146.091-.292.136-.438a3.479,3.479,0,0,1-.385,1.967,7.155,7.155,0,0,1-5.661,4.475,7.009,7.009,0,0,1-6.142-2.063,6.821,6.821,0,0,1-2.116-3.536A2.142,2.142,0,0,1,992.993,636.746Z" transform="translate(-194.131 -249.258)" fill="#485667"/>
        <path id="Trazado_165043" data-name="Trazado 165043" d="M922.62,503.414a2.538,2.538,0,0,1,2.428-1.76,2.42,2.42,0,0,1,2.288,1.526.938.938,0,0,1-.276.972,2.775,2.775,0,0,1-4.137-.106A3.721,3.721,0,0,1,922.62,503.414Z" transform="translate(-133.44 -132.611)" fill="#fee17a"/>
        <path id="Trazado_165044" data-name="Trazado 165044" d="M921.8,513.067c.334.19.445.58.743.811a2.458,2.458,0,0,0,2.336.518,2.052,2.052,0,0,0,1.638-1.562,2.432,2.432,0,0,1-.594,2.91,2.523,2.523,0,0,1-3.015.29c-.174-.1-.339-.224-.509-.336A2.688,2.688,0,0,1,921.8,513.067Z" transform="translate(-132.617 -142.264)" fill="#f8ce58"/>
        <path id="Trazado_165045" data-name="Trazado 165045" d="M1023.475,612.44a.728.728,0,0,1-.609-.232c-.55-.532-1.112-1.052-1.659-1.588-.481-.471-.522-.9-.144-1.284s.759-.329,1.237.133c.294.284.584.571.878.855a.317.317,0,0,0,.52-.018c.741-.775,1.492-1.539,2.241-2.306a3.6,3.6,0,0,1,.587-.561.73.73,0,0,1,1.016.116.7.7,0,0,1,.024,1.017c-1.185,1.245-2.391,2.469-3.59,3.7A.6.6,0,0,1,1023.475,612.44Z" transform="translate(-218.222 -223.822)" fill="#97da7c"/>
      </g>
    </g>
  </g>
</svg>
