<svg xmlns="http://www.w3.org/2000/svg" width="128.734" height="128.734" viewBox="0 0 128.734 128.734">
  <g id="Grupo_124173" data-name="Grupo 124173" transform="translate(-228 9579.8)">
    <g id="Grupo_123821" data-name="Grupo 123821" transform="translate(-885.325 -11382.688)">
      <circle id="Elipse_6004" data-name="Elipse 6004" cx="64.367" cy="64.367" r="64.367" transform="translate(1113.325 1802.888)" fill="#fff"/>
      <g id="Grupo_122287" data-name="Grupo 122287" transform="translate(1144.137 1833.435)">
        <path id="Trazado_166752" data-name="Trazado 166752" d="M882.079,594.979c.235.117.4-.029.593-.136.769-.438,1.52-.916,2.319-1.29a2.5,2.5,0,0,1,3.28,1.225c.075.15.049.352.224.45v1.308a2.7,2.7,0,0,1-1.187,1.646c-6.558,4.914-13.08,9.877-19.634,14.8q-2.144,1.609-4.273,3.238a4.7,4.7,0,0,1-2.512,1.123h-1.7c-5.923-1.347-11.732-3.13-17.608-4.657-2.024-.526-4.038-1.087-6.058-1.629a4.277,4.277,0,0,0-2.129-.117c-.192.045-.395.092-.5-.16a2.417,2.417,0,0,1-.086-.842q0-6.3,0-12.61c0-.356-.088-.751.254-1.03,1.3-.375,2.485-1.029,3.736-1.524a21.124,21.124,0,0,1,4.083-1.51,14.893,14.893,0,0,1,5.048.185c3.1.516,6.2,1.013,9.3,1.517q5.068.824,10.136,1.642c.555.089,1.118.136,1.677.2a13,13,0,0,1,3.538.518,2.5,2.5,0,0,1,1.853,2.343c-.02.411-.275.561-.646.587-.239.017-.479.014-.719.014H850.3a7.74,7.74,0,0,1-1.3-.077,2.36,2.36,0,0,0-1.1.076.89.89,0,0,0-.713.9.936.936,0,0,0,.889.888c.65.074,1.307,0,1.959.036a8.183,8.183,0,0,1,2.652.174c2.123,1.237,4.2,2.547,6.267,3.884a2.9,2.9,0,0,0,3.394.008c2.211-1.3,4.443-2.57,6.705-3.783.079-.037-.025-.017.058-.028a5.085,5.085,0,0,0,3.248-1.854C875.593,598.654,878.848,596.837,882.079,594.979Z" transform="translate(-821.5 -550.342)" fill="#f2c6a3"/>
        <path id="Trazado_166756" data-name="Trazado 166756" d="M911.787,365.342a9.27,9.27,0,0,1,2.934-17.151c.12-.023.27.021.333-.14h2.617c.121.221.35.13.527.169a9.248,9.248,0,0,1,3.064,16.9c-.11.071-.216.147-.324.221-.342-.019-.379-.321-.486-.543a4.449,4.449,0,0,0-8.179,0C912.167,365.021,912.13,365.324,911.787,365.342Z" transform="translate(-882.86 -348.041)" fill="#ee4678"/>
        <path id="Trazado_166757" data-name="Trazado 166757" d="M778.543,348.05c.555.155,1.123.274,1.663.469a9.255,9.255,0,0,1,2.165,16.507l-.426.3c-.45.148-.43-.255-.527-.477a4.3,4.3,0,0,0-3.309-2.667,4.491,4.491,0,0,0-4.755,2.354c-.149.291-.156.7-.561.819a9.253,9.253,0,0,1-4.515-6.126c-.035-.152.009-.365-.2-.447V355.9a9.055,9.055,0,0,1,5.243-7.123,7.949,7.949,0,0,1,2.738-.727Z" transform="translate(-768.067 -348.041)" fill="#ee4678"/>
        <path id="Trazado_166758" data-name="Trazado 166758" d="M1050.656,365.319a9.4,9.4,0,0,1-4.348-5.864,9.232,9.232,0,0,1,6.9-11.17c.24-.056.528-.008.716-.235h2.617a9.073,9.073,0,0,1,7.981,7.981v2.617c-.2.1-.136.3-.171.462a9.314,9.314,0,0,1-4.543,6.24c-.378-.08-.378-.447-.5-.7a4.409,4.409,0,0,0-5.8-2.167,4.315,4.315,0,0,0-2.275,2.239C1051.111,364.978,1051.083,365.348,1050.656,365.319Z" transform="translate(-997.528 -348.041)" fill="#ee4678"/>
        <path id="Trazado_166759" data-name="Trazado 166759" d="M779.636,596.083q-.012,5.639-.023,11.278c0,1.108.014,2.216.022,3.324a2.319,2.319,0,0,1-1.527,3,5.06,5.06,0,0,1-1.54.234q-2.737,0-5.474,0a6.068,6.068,0,0,1-.971-.092,2.168,2.168,0,0,1-2.047-1.932V594.622a2.689,2.689,0,0,1,2.927-1.76c1.935.073,3.877.083,5.811,0a2.432,2.432,0,0,1,2.8,2.765A2.962,2.962,0,0,0,779.636,596.083Z" transform="translate(-768.067 -550.128)" fill="#197790"/>
        <path id="Trazado_166761" data-name="Trazado 166761" d="M1114.176,355.99a10.335,10.335,0,0,1-.425-1.534,9.2,9.2,0,0,0-7.22-6.311c-.12-.025-.268.019-.335-.136,2.529,0,5.059.007,7.588-.009.327,0,.4.074.4.4C1114.169,350.931,1114.176,353.46,1114.176,355.99Z" transform="translate(-1047.18 -348)" fill="#fefefe"/>
        <path id="Trazado_166762" data-name="Trazado 166762" d="M776.015,348.009a8.029,8.029,0,0,1-1.41.389,9.187,9.187,0,0,0-6.33,6.75c-.062.239-.016.524-.24.711,0-2.486.007-4.972-.009-7.458,0-.327.074-.4.4-.4C770.956,348.016,773.486,348.009,776.015,348.009Z" transform="translate(-768.026 -348)" fill="#fefefe"/>
        <path id="Trazado_166763" data-name="Trazado 166763" d="M816.571,456.168a1,1,0,0,0,.93.931,3.606,3.606,0,0,0,.651.039c6.537,0,13.074-.005,19.61.014.532,0,.709-.116.7-.672-.032-1.327.009-2.657.02-3.985a.471.471,0,0,1,.306-.175c.66.017,1.342-.214,1.97.172.006,1.351.028,2.7.01,4.053-.006.427.07.607.559.606,6.646-.016,13.292-.009,19.939-.014.882,0,1.188-.233,1.383-.97.13-1.038.029-2.08.056-3.12.017-.664.072-.732.741-.772,1.612-.1,1.621-.1,1.608,1.526a24.106,24.106,0,0,1-.042,2.6,3.489,3.489,0,0,1-3.8,3.027c-6.581,0-13.162.01-19.743-.015-.594,0-.717.163-.707.724.038,2.07.021,4.14.024,6.211a3.005,3.005,0,0,1-2.349,0c0-2.07-.014-4.141.024-6.211.01-.562-.114-.726-.707-.724-6.581.024-13.163.016-19.744.015a3.492,3.492,0,0,1-3.8-3.027c-.1-1.215-.015-2.431-.046-3.647a.4.4,0,0,1,.377-.443c.064-.014.128-.021.193-.03,1.632-.207,1.771-.078,1.786,1.546A15.47,15.47,0,0,0,816.571,456.168Z" transform="translate(-806.106 -434.023)" fill="#12263f"/>
        <path id="Trazado_166764" data-name="Trazado 166764" d="M1044.064,594.752c-.317.612-.984.745-1.507,1.048-2.644,1.536-5.316,3.023-7.98,4.525a.739.739,0,0,1-.188.048c-.308-.026-.251-.235-.171-.4a.67.67,0,0,0,.041-.653,2.575,2.575,0,0,0-2.434-2.23,18.574,18.574,0,0,1-2.79-.505c3.249-1.168,6.482-2.384,9.754-3.485a4.444,4.444,0,0,1,4.649,1.083C1043.645,594.374,1043.855,594.562,1044.064,594.752Z" transform="translate(-983.485 -550.115)" fill="#e1ab7f"/>
        <path id="Trazado_166765" data-name="Trazado 166765" d="M920.568,533.241h2.349l5.161.015c.174,0,.349-.007.523,0a1.16,1.16,0,1,1,.034,2.318c-.152.01-.3,0-.457,0h-13c-.958,0-1.509-.419-1.521-1.147s.548-1.174,1.491-1.176c1.59,0,3.18,0,4.77,0C920.133,533.255,920.351,533.246,920.568,533.241Z" transform="translate(-888.241 -500.914)" fill="#12263f"/>
        <path id="Trazado_166766" data-name="Trazado 166766" d="M800.846,435.82a17.67,17.67,0,0,1-.067-3.05c0-.475-.111-.633-.614-.629-1.674.011-1.673-.011-1.674,1.633,0,.761-.005,1.521-.008,2.282a9.17,9.17,0,0,1-.106-2.511c-.031-1.352-.01-1.344-1.277-1.673a6.788,6.788,0,0,1-1.993-.887,5.03,5.03,0,0,1,2.665-3.032,4.6,4.6,0,0,1,6.144,2.512c.073.178.031.467.342.49a7.216,7.216,0,0,1-2.754,1.065c-.451.092-.685.269-.657.808C800.9,433.824,800.852,434.823,800.846,435.82Z" transform="translate(-790.381 -413.675)" fill="#eff1f4"/>
        <path id="Trazado_166767" data-name="Trazado 166767" d="M1078.237,436.044c0-1.13-.019-2.26,0-3.39.006-.388-.093-.517-.507-.522-1.776-.024-1.764-.04-1.781,1.734a7.629,7.629,0,0,1-.075,1.941c-.006-1.02-.042-2.041,0-3.059.019-.513-.2-.685-.65-.757a6.6,6.6,0,0,1-2.757-1.049c.228-.027.233-.226.3-.381a4.62,4.62,0,0,1,8.711.13,2.969,2.969,0,0,0,.144.283,6.43,6.43,0,0,1-2.566,1c-.509.107-.745.274-.712.84.05.866.017,1.738.01,2.607C1078.348,435.634,1078.414,435.863,1078.237,436.044Z" transform="translate(-1019.335 -413.663)" fill="#eff1f4"/>
        <path id="Trazado_166768" data-name="Trazado 166768" d="M938.946,629.949c.391.309-.2.738.13,1.055-.294.313-.57.648-.888.935a2.414,2.414,0,0,1-1.744.753c-.271-.013-.438.162-.649.262-4.431.188-8.864.039-13.3.083a24.6,24.6,0,0,1-3.042-.083,1.331,1.331,0,0,0-.912-.262c-1.221.014-2.441.01-3.662,0a1.215,1.215,0,0,1-1.308-1.1c-.047-.509.394-.946,1.014-1.158a4.744,4.744,0,0,1,1.672.025q11.085.012,22.17.013C938.839,630.481,938.991,630.337,938.946,629.949Z" transform="translate(-888.172 -580.745)" fill="#edbc90"/>
        <path id="Trazado_166769" data-name="Trazado 166769" d="M947.3,646.5c.195-.213.451-.123.679-.123q7.49-.008,14.98,0c.228,0,.485-.09.679.122-1.248.563-2.386,1.325-3.588,1.973-1.28.69-2.541,1.416-3.81,2.127a2.072,2.072,0,0,1-2.219-.015c-1.8-1.094-3.583-2.208-5.378-3.308C948.2,647.009,947.749,646.761,947.3,646.5Z" transform="translate(-916.014 -594.293)" fill="#e1ab7f"/>
        <path id="Trazado_166770" data-name="Trazado 166770" d="M939.507,432.135l-2.062-.016a.734.734,0,0,0-.646,0,9.053,9.053,0,0,1-3.012-1.152c.165-.069.18-.236.236-.372a4.612,4.612,0,0,1,8.677,0c.057.136.074.3.237.372A8.044,8.044,0,0,1,939.507,432.135Z" transform="translate(-904.859 -413.666)" fill="#eff1f4"/>
        <path id="Trazado_166771" data-name="Trazado 166771" d="M951.047,453.067a.438.438,0,0,1,.646,0l-.214.019Z" transform="translate(-919.107 -434.614)" fill="#c5e3f0"/>
        <path id="Trazado_166772" data-name="Trazado 166772" d="M946.7,376.772a2.321,2.321,0,1,1,2.287,2.323A2.38,2.38,0,0,1,946.7,376.772Z" transform="translate(-915.518 -369.835)" fill="#eff1f4"/>
        <path id="Trazado_166773" data-name="Trazado 166773" d="M812.407,376.769a2.3,2.3,0,1,1-2.269-2.312A2.308,2.308,0,0,1,812.407,376.769Z" transform="translate(-800.867 -369.84)" fill="#eff1f4"/>
        <path id="Trazado_166774" data-name="Trazado 166774" d="M1090.446,376.786a2.333,2.333,0,0,1-2.345,2.314,2.321,2.321,0,0,1,.081-4.642A2.335,2.335,0,0,1,1090.446,376.786Z" transform="translate(-1030.385 -369.84)" fill="#eff1f4"/>
        <path id="Trazado_166775" data-name="Trazado 166775" d="M790.46,614.992c-.369,0-.74.026-1.106-.006a1.059,1.059,0,0,1-1.08-1.2,1.039,1.039,0,0,1,1.086-1.127c.758-.038,1.519-.034,2.277,0a1.183,1.183,0,0,1,1.212,1.189,1.3,1.3,0,0,1-1.219,1.144C791.242,615.013,790.85,614.992,790.46,614.992Z" transform="translate(-784.74 -566.447)" fill="#30a5c5"/>
        <path id="Trazado_166776" data-name="Trazado 166776" d="M790.359,680.825c-.371,0-.742.01-1.112,0a1,1,0,0,1-1.044-.89,1.016,1.016,0,0,1,.691-1.306,5.819,5.819,0,0,1,3.214.048.991.991,0,0,1,.638,1.1,1.154,1.154,0,0,1-1.08,1.046c-.043,0-.087,0-.131,0Z" transform="translate(-784.658 -620.76)" fill="#30a5c5"/>
      </g>
    </g>
  </g>
</svg>
