<svg xmlns="http://www.w3.org/2000/svg" width="53.658" height="70.45" viewBox="0 0 53.658 70.45">
  <g id="Grupo_124193" data-name="Grupo 124193" transform="translate(-4697.342 9050.225)">
    <g id="Grupo_109649" data-name="Grupo 109649" transform="translate(4697.342 -9050.225)">
      <path id="Trazado_161555" data-name="Trazado 161555" d="M693.288,352.234H671.55c-.054-.125-.176-.127-.283-.16a6.193,6.193,0,0,1-4.807-6.5q0-28.644,0-57.289a6.188,6.188,0,0,1,6.474-6.494q4.5-.007,9.009,0,5.673.007,11.346.022,0,14.495,0,28.99c-.641.006-1.281.018-1.922.018-3.457,0-6.913-.005-10.37,0a2.057,2.057,0,0,0-.543,4.063,3.679,3.679,0,0,0,.818.059q6.008.014,12.017.021v4.09c-.641.006-1.281.018-1.922.018-3.457,0-6.913,0-10.37,0a2.057,2.057,0,0,0-.543,4.064,3.686,3.686,0,0,0,.818.059q6.008.014,12.017.021v4.09c-.641.006-1.281.018-1.922.018-3.457,0-6.913,0-10.37,0a2.057,2.057,0,0,0-.543,4.063,3.675,3.675,0,0,0,.818.059q6.008.014,12.017.021v4.09c-.641.006-1.281.018-1.922.018-3.457,0-6.913,0-10.37,0a2.057,2.057,0,0,0-.543,4.063,3.679,3.679,0,0,0,.818.058q6.008.015,12.017.021Q693.291,345.983,693.288,352.234Z" transform="translate(-666.459 -281.784)" fill="#eeecee"/>
      <path id="Trazado_161556" data-name="Trazado 161556" d="M839.148,300.469c.007.275.019.549.019.824q0,22.24,0,44.48a6.144,6.144,0,0,1-4.933,6.441c-.059.016-.106.078-.158.118H812.34q0-6.251.006-12.5l-.014-.04c1.418.007,2.836.031,4.253.015a2.061,2.061,0,0,0,0-4.116c-1.417-.016-2.835.008-4.253.015l.014-.04v-4.09l-.014-.04c4.191.006,8.381.026,12.572.011a2.062,2.062,0,0,0,0-4.108c-4.191-.014-8.381,0-12.572.011l.014-.04v-4.09l-.014-.04c4.191.006,8.381.026,12.572.011a2.062,2.062,0,0,0,0-4.108c-4.191-.014-8.381,0-12.572.011l.014-.04v-4.09l-.014-.04c4.191.007,8.381.026,12.572.011a2.062,2.062,0,0,0,0-4.108c-4.191-.015-8.381,0-12.572.011l.014-.04q0-14.495-.005-28.99l8.244,0q.005,7.081.011,14.161a4.144,4.144,0,0,0,4.393,4.393Q832.068,300.466,839.148,300.469Z" transform="translate(-785.511 -281.882)" fill="#eeecee"/>
      <path id="Trazado_161557" data-name="Trazado 161557" d="M875.779,300.458q-7.08-.005-14.16-.011a4.144,4.144,0,0,1-4.393-4.393q-.008-7.081-.011-14.161a2.238,2.238,0,0,1,1.724.851q7.382,7.393,14.772,14.777.729.729,1.455,1.461A1.916,1.916,0,0,1,875.779,300.458Z" transform="translate(-822.141 -281.871)" fill="#6976ed"/>
      <path id="Trazado_161558" data-name="Trazado 161558" d="M812,443.821v-4.086c4.208-.007,8.417-.026,12.625-.011a2.061,2.061,0,0,1,0,4.108C820.417,443.846,816.209,443.827,812,443.821Z" transform="translate(-785.24 -410.679)" fill="#b4acb5"/>
      <path id="Trazado_161559" data-name="Trazado 161559" d="M812,488.72v-4.086c4.208-.007,8.417-.026,12.625-.011a2.061,2.061,0,0,1,0,4.108C820.417,488.746,816.209,488.727,812,488.72Z" transform="translate(-785.24 -447.323)" fill="#b4acb5"/>
      <path id="Trazado_161560" data-name="Trazado 161560" d="M747.844,484.634v4.086c-4.191.007-8.381.026-12.572.011a2.062,2.062,0,0,1,0-4.108C739.462,484.608,743.653,484.627,747.844,484.634Z" transform="translate(-721.084 -447.323)" fill="#b4acb5"/>
      <path id="Trazado_161561" data-name="Trazado 161561" d="M747.844,439.734v4.086c-4.191.007-8.381.026-12.572.011a2.062,2.062,0,0,1,0-4.108C739.462,439.709,743.653,439.728,747.844,439.734Z" transform="translate(-721.084 -410.679)" fill="#b4acb5"/>
      <path id="Trazado_161562" data-name="Trazado 161562" d="M747.844,574.634v4.086c-4.191.007-8.381.026-12.572.011a2.062,2.062,0,0,1,0-4.108C739.462,574.608,743.653,574.627,747.844,574.634Z" transform="translate(-721.084 -520.775)" fill="#b4acb5"/>
      <path id="Trazado_161563" data-name="Trazado 161563" d="M747.844,529.734v4.086c-4.191.007-8.381.026-12.572.011a2.062,2.062,0,0,1,0-4.108C739.462,529.708,743.653,529.728,747.844,529.734Z" transform="translate(-721.084 -484.131)" fill="#b4acb5"/>
      <path id="Trazado_161564" data-name="Trazado 161564" d="M812.332,533.62v-4.086c4.191-.007,8.381-.026,12.572-.011a2.062,2.062,0,0,1,0,4.108C820.713,533.646,816.523,533.627,812.332,533.62Z" transform="translate(-785.511 -483.967)" fill="#b4acb5"/>
      <path id="Trazado_161565" data-name="Trazado 161565" d="M812.332,578.5v-4.086c1.418-.007,2.835-.031,4.253-.015a2.061,2.061,0,0,1,0,4.116C815.168,578.534,813.75,578.509,812.332,578.5Z" transform="translate(-785.511 -520.594)" fill="#b4acb5"/>
    </g>
  </g>
</svg>
