<svg xmlns="http://www.w3.org/2000/svg" width="128.734" height="128.734" viewBox="0 0 128.734 128.734">
  <g id="Grupo_124171" data-name="Grupo 124171" transform="translate(-241 10008)">
    <g id="Grupo_123823" data-name="Grupo 123823" transform="translate(-117.862 -11810.888)">
      <circle id="Elipse_6004" data-name="Elipse 6004" cx="64.367" cy="64.367" r="64.367" transform="translate(358.862 1802.888)" fill="#fff"/>
      <g id="Grupo_122285" data-name="Grupo 122285" transform="translate(390.871 1833.435)">
        <path id="Trazado_166721" data-name="Trazado 166721" d="M844.967,441.21a4.972,4.972,0,0,1-5.04,3.756H803.194a4.973,4.973,0,0,1-5.209-5.181q0-24.956.005-49.913c0-.295-.121-.625.146-.881,2.234-.151,4.471-.053,6.706-.068,3.4-.022,5.3-1.923,5.321-5.321.012-1.826-.087-3.654.061-5.479.238-.234.538-.134.81-.134q14.517-.008,29.034,0a4.965,4.965,0,0,1,5.044,5.027c0,2.039,0,4.078-.007,6.117l-.1.1a2.245,2.245,0,0,1-1.133.148c-2.647.005-5.294,0-7.941,0-1.441,0-1.617.192-1.773,1.6a2.681,2.681,0,0,1-.683,1.982,2.994,2.994,0,0,1-1.3.139q-9.449.005-18.9,0a5.992,5.992,0,0,0-1.236.061,1.569,1.569,0,0,0,.014,3.114,5.88,5.88,0,0,0,1.159.058q7.978,0,15.956,0a3.287,3.287,0,0,1,1.225.11c.418.437-.095.526-.288.638a7.163,7.163,0,0,1-3.145.944c-1.2.082-1.412.289-1.484,1.481-.02.326.033.682-.3.906a3.247,3.247,0,0,1-1.3.124q-9.057.005-18.114,0a5.252,5.252,0,0,0-1.234.075,1.563,1.563,0,0,0,0,3.081,5.662,5.662,0,0,0,1.311.076q9.057,0,18.114,0a2.141,2.141,0,0,1,1.35.211,7.65,7.65,0,0,1,.019,3.756,1.931,1.931,0,0,1-1.34.235q-9.024.01-18.048,0a9.813,9.813,0,0,0-1.084.025,1.588,1.588,0,1,0-.032,3.176,9.015,9.015,0,0,0,1.083.029q9.024,0,18.048,0a2.16,2.16,0,0,1,1.352.21,7.641,7.641,0,0,1,.021,3.757,1.921,1.921,0,0,1-1.339.236q-9.1.01-18.195.005a5.538,5.538,0,0,0-1.234.07,1.564,1.564,0,0,0,.019,3.1,5.843,5.843,0,0,0,1.235.065q9.059,0,18.117,0a2.655,2.655,0,0,1,1.292.152.843.843,0,0,1,.262.62c.116.841.207,1.686.334,2.526a.793.793,0,0,1-.114.733,2.336,2.336,0,0,1-1.285.172q-9.294.007-18.587,0a5.437,5.437,0,0,0-1.311.079,1.563,1.563,0,0,0,.021,3.08,5.4,5.4,0,0,0,1.234.072q9.8,0,19.594,0a7.966,7.966,0,0,1,1.312.047.952.952,0,0,1,.679.575,20.874,20.874,0,0,0,8.423,8.48c2.933,1.716,5.778,3.581,8.654,5.393C844.672,440.757,844.985,440.843,844.967,441.21Z" transform="translate(-797.963 -377.968)" fill="#90ade1"/>
        <path id="Trazado_166722" data-name="Trazado 166722" d="M1024.95,431.942l9.605.019c1.147,0,1.509.35,1.577,1.5a7.484,7.484,0,0,0,7.172,7.167c1.155.076,1.5.433,1.5,1.583,0,6.4.049,12.81-.013,19.214a17.787,17.787,0,0,1-7.744,15c-3.816,2.721-7.9,5.061-11.9,7.5-.349-.027-.393-.313-.4-.553a39.388,39.388,0,0,1,.063-5.047,2.7,2.7,0,0,1,1.169-.976c2.489-1.573,5.009-3.1,7.479-4.7a13.232,13.232,0,0,0,6.08-9.474,7.939,7.939,0,0,0,.092-1.234c0-5.244-.017-10.489.017-15.733a1.367,1.367,0,0,0-1-1.478,12.154,12.154,0,0,1-6.681-6.765,1.17,1.17,0,0,0-1.275-.845c-1.6.03-3.2.018-4.8,0-.372,0-.793.085-1.052-.322a25.6,25.6,0,0,1-.078-4.348.661.661,0,0,1,.224-.473Z" transform="translate(-977.807 -420.78)" fill="#f83a72"/>
        <path id="Trazado_166723" data-name="Trazado 166723" d="M948.75,432.083l-.01,4.911c-.282.32-.666.227-1.015.23-1.6.012-3.2.02-4.8,0a1.035,1.035,0,0,0-1.114.731,12.909,12.909,0,0,1-4.376,5.6,13.281,13.281,0,0,1-2.653,1.426,1.015,1.015,0,0,0-.727,1.116c.032.488.012.98.008,1.47,0,4.541-.012,9.081,0,13.622a13.337,13.337,0,0,0,6.525,11.764c2.47,1.6,4.98,3.127,7.476,4.682a1.676,1.676,0,0,1,.644.541c.008.042.016.084.025.126,0,1.647-.006,3.294,0,4.941,0,.27-.1.576.178.789-.078.143-.207.105-.329.09q-3.325-2.107-6.648-4.217c-1.867-1.192-3.805-2.273-5.6-3.582a19.224,19.224,0,0,1-5.761-7.053,6.47,6.47,0,0,1-1.253-3.723,28.038,28.038,0,0,1-.459-3.715,6.545,6.545,0,0,1,0-3.725v-3.717a6.616,6.616,0,0,1,0-3.725v-3.717a6.616,6.616,0,0,1,0-3.726c.107-2.158.107-2.156,2.234-2.534a6.8,6.8,0,0,0,3.047-1.179c.124-.34.443-.5.7-.705a12,12,0,0,0,2.253-3.02,6.15,6.15,0,0,0,.479-2.4,1.2,1.2,0,0,1,1.291-1.317C942.161,432.057,945.455,432.074,948.75,432.083Z" transform="translate(-901.584 -420.876)" fill="#f35f8c"/>
        <path id="Trazado_166724" data-name="Trazado 166724" d="M810.89,378.72c.243.2.158.474.159.721.006,1.779.01,3.558,0,5.337a4.979,4.979,0,0,1-4.953,4.964c-2.191.01-4.383,0-6.574,0-.246,0-.523.091-.722-.153q2.554-2.286,5.107-4.573Q807.4,381.872,810.89,378.72Z" transform="translate(-798.628 -378.565)" fill="#a4c2db"/>
        <path id="Trazado_166725" data-name="Trazado 166725" d="M844.828,593.963a31.5,31.5,0,0,0,1.253,3.723q-10.922,0-21.844,0a1.881,1.881,0,1,1-.013-3.719Q834.526,593.963,844.828,593.963Z" transform="translate(-817.081 -549.296)" fill="#a4c2db"/>
        <path id="Trazado_166726" data-name="Trazado 166726" d="M844.355,485.993v3.726q-10.106,0-20.212,0a1.853,1.853,0,0,1-1.921-2.566,1.915,1.915,0,0,1,1.921-1.158c3.769.013,7.538.006,11.307.005Z" transform="translate(-817.071 -463.651)" fill="#a4c2db"/>
        <path id="Trazado_166727" data-name="Trazado 166727" d="M844.355,521.982v3.725q-10.106,0-20.212,0a1.854,1.854,0,0,1-1.921-2.567,1.915,1.915,0,0,1,1.921-1.158c3.769.013,7.538.006,11.307.005Z" transform="translate(-817.071 -492.198)" fill="#a4c2db"/>
        <path id="Trazado_166728" data-name="Trazado 166728" d="M844.356,557.972q0,1.862,0,3.725-10.107,0-20.214,0a1.854,1.854,0,0,1-1.925-2.564,1.913,1.913,0,0,1,1.92-1.16c3.666.013,7.332.005,11,.005Z" transform="translate(-817.072 -520.746)" fill="#a4c2db"/>
        <path id="Trazado_166729" data-name="Trazado 166729" d="M881.126,450.007a6.634,6.634,0,0,1-2.949,3.726q-9.026,0-18.053-.009a1.854,1.854,0,0,1-1.92-2.569A1.919,1.919,0,0,1,860.129,450c3.719.013,7.438.005,11.157.006Z" transform="translate(-845.612 -435.104)" fill="#a4c2db"/>
        <path id="Trazado_166730" data-name="Trazado 166730" d="M833.217,633.691q-4.49,0-8.979,0a1.881,1.881,0,1,1-.018-3.719q9.018,0,18.035,0a1.876,1.876,0,1,1,.018,3.718Q837.745,633.7,833.217,633.691Z" transform="translate(-817.082 -577.856)" fill="#a4c2db"/>
        <path id="Trazado_166731" data-name="Trazado 166731" d="M953.808,466.482c-.26-1.57.043-2.594,1.8-3.307a11.124,11.124,0,0,0,6.054-6.671.75.75,0,0,1,.831-.58c2.059.014,4.119-.006,6.178-.014,2.065.008,4.13.028,6.195.014a.743.743,0,0,1,.831.579,12.166,12.166,0,0,0,7.315,7.3.7.7,0,0,1,.545.774c-.012,5.6.127,11.21-.057,16.807a12.316,12.316,0,0,1-5.3,9.8c-3.037,2.215-6.319,4.076-9.533,6.03v-.069a1.281,1.281,0,0,1-.244-.8c-.007-2.937-.024-5.874.01-8.811a1.438,1.438,0,0,1,.062-.379c.158-.445.559-.391.907-.424a11.357,11.357,0,0,0,7.4-3.616,11.054,11.054,0,0,0-.06-14.733,11.352,11.352,0,0,0-7.346-3.553c-.278-.026-.575.006-.8-.222a2.006,2.006,0,0,1-.142-1.058c-.008-1.391-.011-2.782,0-4.173,0-.519-.2-.75-.727-.748-1.674.009-3.348.015-5.022,0-.683-.007-.835.473-1.036.955a12.493,12.493,0,0,1-6.406,6.606C954.818,466.4,954.357,466.711,953.808,466.482Z" transform="translate(-921.515 -439.792)" fill="#a9c2d6"/>
        <path id="Trazado_166732" data-name="Trazado 166732" d="M968.855,496.53q0,5.087.006,10.175c-2.325-1.289-4.515-2.8-6.785-4.172a19.486,19.486,0,0,1-4.547-3.45A13.048,13.048,0,0,1,954,490.3c-.064-4.753,0-9.507,0-14.261a12.035,12.035,0,0,0,7.827-7.4.892.892,0,0,1,1.006-.68q2.666.046,5.332,0c.537-.009.713.156.7.7-.03,1.829-.013,3.658-.014,5.487a3.047,3.047,0,0,1-1.627.358,10.957,10.957,0,0,0-1.363,21.376,20.3,20.3,0,0,0,2.285.408C968.4,496.335,968.676,496.283,968.855,496.53Z" transform="translate(-921.707 -449.353)" fill="#d6e5e5"/>
        <path id="Trazado_166733" data-name="Trazado 166733" d="M983.066,520.268a10.989,10.989,0,0,1-9.979-6.233,11.106,11.106,0,0,1,8.441-15.991c.51-.07,1.025-.1,1.538-.154a10.976,10.976,0,0,1,9.971,6.206,11.1,11.1,0,0,1-8.437,16.015C984.091,520.181,983.578,520.217,983.066,520.268Z" transform="translate(-935.918 -473.091)" fill="#ff004c"/>
        <path id="Trazado_166734" data-name="Trazado 166734" d="M999.388,538.863a1.687,1.687,0,0,1-1.36-.533c-.8-.8-1.617-1.594-2.4-2.41a1.855,1.855,0,1,1,2.558-2.688l.058.052c.39.329.678.992,1.128.975.491-.019.8-.66,1.186-1.036,1.177-1.158,2.333-2.336,3.507-3.5a1.863,1.863,0,1,1,2.626,2.593c-1.944,1.959-3.9,3.9-5.851,5.858A1.8,1.8,0,0,1,999.388,538.863Z" transform="translate(-954.272 -497.743)" fill="#d6e5e5"/>
      </g>
    </g>
  </g>
</svg>
