<svg xmlns="http://www.w3.org/2000/svg" width="171.06" height="171.06" viewBox="0 0 171.06 171.06">
  <g id="Grupo_124197" data-name="Grupo 124197" transform="translate(-9273.47 10922.996)">
    <g id="Grupo_123843" data-name="Grupo 123843" transform="translate(8559 -12073.023)">
      <circle id="Elipse_6004" data-name="Elipse 6004" cx="85.53" cy="85.53" r="85.53" transform="translate(714.47 1150.027)" fill="#fff"/>
      <g id="Grupo_123466" data-name="Grupo 123466" transform="translate(-8561.723 12367.217)">
        <g id="Grupo_123464" data-name="Grupo 123464" transform="translate(9319.824 -11166.611)">
          <g id="Grupo_123465" data-name="Grupo 123465" transform="translate(0 0)">
            <path id="Trazado_167094" data-name="Trazado 167094" d="M941.943,373.419c1.882,0,1.882.012,1.882,1.923,0,3.175-.02,6.349.016,9.523.008.682-.176.874-.865.87q-7.6-.044-15.2,0c-.649,0-.819-.193-.814-.827q.043-5.311,0-10.622c-.006-.657.13-.973.849-.881C928.23,373.457,941.357,373.418,941.943,373.419Z" transform="translate(-890.525 -373.388)" fill="#595fbc"/>
            <path id="Trazado_167105" data-name="Trazado 167105" d="M1060.906,496.719c-4.362.009-8.724,0-13.085.043-.721.006-.6-.292-.489-.769,1.278-5.329,2.532-10.663,3.816-15.99a4.226,4.226,0,0,0,0-2.056c-1.279-5.3-2.519-10.6-3.807-15.9-.168-.689-.082-.87.663-.863,4.3.044,8.6.036,12.9.045a1.656,1.656,0,0,1,.455.972c1.254,5.244,2.487,10.493,3.735,15.738a4.32,4.32,0,0,1,0,2.068c-1.248,5.245-2.481,10.494-3.735,15.738A1.657,1.657,0,0,1,1060.906,496.719Z" transform="translate(-981.425 -439.736)" fill="#f9759d"/>
            <path id="Trazado_167106" data-name="Trazado 167106" d="M782.511,505.826c.787-4.212,1.559-8.435,2.381-12.648a4.871,4.871,0,0,0-.122-1.89c-.7-3.8-1.406-7.607-2.158-11.4-.129-.652.033-.754.628-.75q4.9.034,9.792,0c.526,0,.718.146.817.689.743,4.075,1.558,8.136,2.288,12.213.235,1.316-.316,2.585-.539,3.867-.543,3.12-1.175,6.224-1.758,9.337-.071.377-.075.7-.614.7-3.508-.023-7.016-.02-10.524-.03C782.649,505.913,782.595,505.865,782.511,505.826Z" transform="translate(-781.366 -453.302)" fill="#fed6e4"/>
            <path id="Trazado_167107" data-name="Trazado 167107" d="M833.423,385.753c-2.5,0-5-.02-7.5.013-.67.009-.956-.108-.946-.881.045-3.537.033-7.074.007-10.611,0-.613.128-.845.8-.841q7.638.04,15.277,0c.664,0,.806.219.8.837-.026,3.537-.037,7.075.007,10.611.009.766-.264.9-.941.886C838.425,385.732,835.924,385.753,833.423,385.753Z" transform="translate(-813.456 -373.421)" fill="#595fbc"/>
            <path id="Trazado_167108" data-name="Trazado 167108" d="M833.386,656.4c-2.5,0-5-.018-7.5.012-.632.008-.913-.089-.9-.83.041-3.567.035-7.135,0-10.7-.006-.668.229-.8.841-.8q7.593.032,15.185,0c.7,0,.86.212.855.879q-.047,5.306,0,10.611c.008.717-.232.855-.889.846C838.448,656.376,835.917,656.4,833.386,656.4Z" transform="translate(-813.46 -577.944)" fill="#595fbc"/>
            <path id="Trazado_167109" data-name="Trazado 167109" d="M935.4,656.4c-2.531,0-5.062-.016-7.593.012-.6.006-.858-.1-.852-.787q.049-5.4,0-10.794c0-.632.229-.749.8-.747q7.639.027,15.277,0c.662,0,.808.215.8.835-.027,3.537-.037,7.075.006,10.611.009.764-.26.9-.94.888C940.4,656.381,937.9,656.4,935.4,656.4Z" transform="translate(-890.522 -577.95)" fill="#595fbc"/>
            <path id="Trazado_167110" data-name="Trazado 167110" d="M838.522,534h55.047" transform="translate(-823.693 -494.759)" fill="none" stroke="#ff004c" stroke-linecap="round" stroke-width="4"/>
          </g>
        </g>
        <path id="Trazado_167111" data-name="Trazado 167111" d="M9438.5-11089.814l-4.582-26.611" transform="translate(-86.22 -37.925)" fill="none" stroke="#ff004c" stroke-width="3"/>
        <path id="Trazado_167112" data-name="Trazado 167112" d="M9439.09-11003.893l-4.391,26.155" transform="translate(-86.81 -122.965)" fill="none" stroke="#ff004c" stroke-width="3"/>
        <path id="Trazado_167113" data-name="Trazado 167113" d="M9536.29-11117.206l6.109,26.8-6.109,27.419" transform="translate(-163.582 -37.335)" fill="none" stroke="#ff004c" stroke-width="3"/>
      </g>
    </g>
  </g>
</svg>
