<svg xmlns="http://www.w3.org/2000/svg" width="124" height="124" viewBox="0 0 124 124">
  <g id="Grupo_123949" data-name="Grupo 123949" transform="translate(-1158 -8068.327)">
    <g id="Grupo_123762" data-name="Grupo 123762" transform="translate(0 -29.464)">
      <g id="Elipse_6020" data-name="Elipse 6020" transform="translate(1158 8097.791)" fill="#fff" stroke="#2631a0" stroke-width="4">
        <circle cx="62" cy="62" r="62" stroke="none"/>
        <circle cx="62" cy="62" r="60" fill="none"/>
      </g>
      <g id="Grupo_119184" data-name="Grupo 119184" transform="translate(418.146 7775.279)">
        <path id="Trazado_165472" data-name="Trazado 165472" d="M768.062,395.539V353.9c.139-.22.037-.464.068-.7a5.419,5.419,0,0,1,4.852-5.088c.131,0,.271.036.385-.067h29.525a.658.658,0,0,1,.232.4,14.347,14.347,0,0,1-.1,3.621.566.566,0,0,1-.187.193,2.514,2.514,0,0,1-1.268.143q-13.192.007-26.384,0c-.34,0-.681-.016-1.02.015a1.909,1.909,0,0,0-1.731,1.722c-.028.293-.015.589-.015.884q0,16.184,0,32.368c0,.068,0,.136,0,.2.005,1.082.033,1.114,1.1,1.114q14.076,0,28.152,0a10.81,10.81,0,0,1,1.222.039,7.993,7.993,0,0,1,.882-.04q14.305,0,28.611.006c.418,0,.871-.109,1.228.238.035.41-.3.395-.542.434a6.033,6.033,0,0,1-.951.023H804.445c-1.269,0-1.27,0-1.27,1.289q0,4.591,0,9.183c0,1.029.042,1.071,1.074,1.072q13.128,0,26.256.006c.418,0,.873-.108,1.224.253.017.362-.276.367-.505.415a3.639,3.639,0,0,1-.744.027q-8.244,0-16.488,0a7.7,7.7,0,0,1-.88-.04c-3.4.06-6.806.068-10.209,0-3.378.061-6.755.069-10.133,0-1.608.073-3.218.029-4.828.032-4.263.007-8.526.021-12.788-.009a8.062,8.062,0,0,1-3.889-.8,7.582,7.582,0,0,1-2.377-2.1,4.03,4.03,0,0,1-.758-2.42C768.1,396.076,768.2,395.8,768.062,395.539Z" transform="translate(-0.04 -0.044)" fill="#414952"/>
        <path id="Trazado_165473" data-name="Trazado 165473" d="M959.907,352.109q0-2.027,0-4.055h29.525a5.621,5.621,0,0,1,4.9,3.41,8.446,8.446,0,0,1,.408,1.9V395.4c-.139.225-.037.473-.068.709.066,1.963-1.065,3.246-2.505,4.324a5.392,5.392,0,0,1-2.356,1c-.352.059-.721.148-1.023-.156-.293-.015-.587-.044-.88-.044q-13.568,0-27.137.024c-.676,0-.886-.155-.878-.859q.057-5.2,0-10.406c-.008-.718.222-.856.887-.854q14.521.031,29.042.008c.279,0,.6.12.831-.151-.35-.322-.27-.751-.27-1.151q-.008-9.966,0-19.932c0-4.331-.043-8.663.021-12.993a2.206,2.206,0,0,0-2.5-2.522c-8.911.041-17.822.022-26.734.013C960.734,352.41,960.245,352.551,959.907,352.109Z" transform="translate(-157.059 -0.044)" fill="#23272b"/>
        <path id="Trazado_165476" data-name="Trazado 165476" d="M837.393,712.24a2.7,2.7,0,0,1-1.265-.967,1.95,1.95,0,0,1-.076-2.006,2,2,0,0,1,1.885-1.108q4.69,0,9.381,0c.271,0,.543-.015.814-.024a1.184,1.184,0,0,1,.884-.256q4.228,0,8.457,0a1.291,1.291,0,0,1,.9.224.876.876,0,0,1,.243.616c.024.972.022,1.945,0,2.918a.855.855,0,0,1-.269.6Z" transform="translate(-55.493 -294.567)" fill="#414952"/>
        <path id="Trazado_165477" data-name="Trazado 165477" d="M959.995,712.24l.008-4.066.083-.108a.97.97,0,0,1,.638-.183c2.913-.012,5.827-.008,8.74,0a1.075,1.075,0,0,1,.75.253c3.4.008,6.8.012,10.194.028a2.037,2.037,0,0,1,.767,3.949,2.269,2.269,0,0,0-.227.13Z" transform="translate(-157.142 -294.567)" fill="#23272b"/>
        <path id="Trazado_165478" data-name="Trazado 165478" d="M773.328,348.013a7.792,7.792,0,0,0-2.966,1.335,5.927,5.927,0,0,0-2.223,3.809q-.027.153-.117.027c0-1.61.01-3.22-.009-4.83,0-.293.056-.352.349-.349C770.018,348.023,771.673,348.013,773.328,348.013Z" transform="translate(0 -0.004)" fill="#fefefe"/>
        <path id="Trazado_165479" data-name="Trazado 165479" d="M1127.993,353.316a10.639,10.639,0,0,0-.8-2.185,6.063,6.063,0,0,0-4.279-3.011.891.891,0,0,1-.223-.11c1.645,0,3.29.011,4.934-.01.319,0,.385.062.381.381C1127.982,350.026,1127.993,351.671,1127.993,353.316Z" transform="translate(-290.309 0)" fill="#fefefe"/>
        <path id="Trazado_165480" data-name="Trazado 165480" d="M768.062,376.4a.124.124,0,0,1,.117-.027.815.815,0,0,1-.117.707Z" transform="translate(-0.04 -23.222)" fill="#73797f"/>
        <path id="Trazado_165481" data-name="Trazado 165481" d="M1151.272,609.646l-.112.037a.807.807,0,0,1,.112-.717Z" transform="translate(-313.588 -213.607)" fill="#55585b"/>
        <path id="Trazado_165482" data-name="Trazado 165482" d="M768.185,610.414a.572.572,0,0,0-.123-.018v-.68A.816.816,0,0,1,768.185,610.414Z" transform="translate(-0.04 -214.221)" fill="#7c8188"/>
        <path id="Trazado_165483" data-name="Trazado 165483" d="M848.378,370.4c.271.009.543.026.814.026H876.6c1.764,0,2.531.76,2.53,2.512q0,17.173-.008,34.347c-.272.007-.543.021-.815.021q-14.59,0-29.181,0c-.249,0-.5-.012-.747-.018a.569.569,0,0,1-.214-.335,13.485,13.485,0,0,1,.081-3.681.594.594,0,0,1,.19-.191,1.359,1.359,0,0,1,.723-.141q7.5-.011,15.007,0a3.315,3.315,0,0,1,.473.037c2.556-.077,5.113-.018,7.67-.035,1.8-.012,2.458-.66,2.461-2.462q.005-3.463,0-6.925c-.006-1.638-.674-2.291-2.315-2.3-2.6-.02-5.2.049-7.807-.036a6.546,6.546,0,0,1-1.016.041H849.467a9.423,9.423,0,0,1-1.083-.039c-.271.026-.542.04-.814.04q-11.417,0-22.834,0c-.377,0-.781.076-1.094-.237-.044-.414.294-.4.535-.436a5.749,5.749,0,0,1,.949-.023h21.395c.249,0,.5,0,.747,0,.725-.022.816-.11.831-.836.013-.679,0-1.358.007-2.038a1.184,1.184,0,0,1,.224-.832,1.622,1.622,0,0,1,1.054-.154q11.291-.008,22.582,0a3.7,3.7,0,0,0,1.335-.2,1.867,1.867,0,0,0,1.455-1.969q.068-3.84,0-7.682a1.909,1.909,0,0,0-2.059-2.045c-.294-.016-.589-.007-.884-.007q-11.048,0-22.1,0a2.918,2.918,0,0,1-1.21-.108.62.62,0,0,1-.213-.16,1.285,1.285,0,0,1-.188-.773c0-.832-.006-1.664,0-2.5a.933.933,0,0,1,.283-.8Z" transform="translate(-45.53 -18.333)" fill="#d9d9ec"/>
        <path id="Trazado_165484" data-name="Trazado 165484" d="M821.23,387.009c0,1.066-.032,2.133.014,3.2.027.61-.184.765-.775.763q-11.564-.027-23.128-.009a1.563,1.563,0,0,0-.865.092.8.8,0,0,1-.488.441,1.906,1.906,0,0,0-1.13,1.8q-.057,3.907,0,7.814a1.891,1.891,0,0,0,1.944,1.944c.317.018.634.008.951.008q11.144,0,22.289.005c.414,0,.876-.12,1.2.3q0,2.024-.007,4.049c-.248.012-.5.034-.745.034q-14.616,0-29.233.014c-.593,0-.787-.114-.786-.759q.034-16.826.017-33.653c0-1.717.773-2.5,2.476-2.5q13.8,0,27.6,0c.226,0,.452.016.678.025q-.006,2.024-.012,4.049a.734.734,0,0,1-.657.278c-2.478,0-4.957.058-7.434-.03-1.968.078-3.937.027-5.905.033-3.169.01-6.338,0-9.506,0-.271,0-.544-.008-.815.007a1.91,1.91,0,0,0-2.051,2.047c-.043,2.557-.036,5.115,0,7.673a1.887,1.887,0,0,0,1.584,1.995,4.226,4.226,0,0,0,1.337.183c4.84-.006,9.681.045,14.52-.024,2.645-.038,5.289-.037,7.934-.055C820.582,386.729,820.964,386.67,821.23,387.009Z" transform="translate(-18.376 -18.454)" fill="#f4f4fb"/>
        <path id="Trazado_165485" data-name="Trazado 165485" d="M913.928,653.995q-4.672-.008-9.344-.017c-.293,0-.586-.016-.879-.024q.007-6.115.013-12.23c2.7-.014,5.408-.032,8.112-.04.7,0,1.394.029,2.091.045a1.091,1.091,0,0,1,.278.873q.006,5.247,0,10.494a1.018,1.018,0,0,1-.287.867Z" transform="translate(-111.067 -240.387)" fill="#c0c0e2"/>
        <path id="Trazado_165486" data-name="Trazado 165486" d="M959.952,654.167q0-6.117.009-12.234l10.21.011q0,6.107.008,12.214Z" transform="translate(-157.107 -240.591)" fill="#a2a2cb"/>
        <path id="Trazado_165487" data-name="Trazado 165487" d="M958.856,393.094q12.063,0,24.125,0a2.139,2.139,0,0,1,2.386,2.34q.018,3.84,0,7.679a2.1,2.1,0,0,1-1.621,2.221,1.349,1.349,0,0,1-.668.06q-11.834,0-23.669,0c-.886,0-.973-.072-.976-.969q-.017-5.169,0-10.338C958.434,393.7,958.416,393.3,958.856,393.094Z" transform="translate(-155.858 -36.907)" fill="#a2a2cb"/>
        <path id="Trazado_165488" data-name="Trazado 165488" d="M839.812,495.851c-1.36-.007-2.719-.021-4.079-.021q-10.064,0-20.129,0c-1.667,0-2.441-.781-2.442-2.465q0-3.74,0-7.48a2.112,2.112,0,0,1,1.89-2.339q7.108.01,14.216.021,5.271.01,10.542.027a1.065,1.065,0,0,1,.275.877q.006,5.233,0,10.466a1,1,0,0,1-.283.87Z" transform="translate(-36.953 -110.946)" fill="#fbc000"/>
        <path id="Trazado_165489" data-name="Trazado 165489" d="M959.973,495.879q0-6.106.008-12.212c1.63-.011,3.259-.03,4.888-.03q5.739,0,11.479.011a1.276,1.276,0,0,1,.237.9q0,5.231,0,10.461a1.163,1.163,0,0,1-.246.89Z" transform="translate(-157.124 -111.022)" fill="#fba300"/>
        <path id="Trazado_165490" data-name="Trazado 165490" d="M1050.151,495.947q0-6.124.01-12.247,4.007,0,8.014,0a2.071,2.071,0,0,1,2.272,2.279q.012,3.837,0,7.674a2.113,2.113,0,0,1-2.283,2.3C1055.493,495.958,1052.822,495.95,1050.151,495.947Z" transform="translate(-230.937 -111.074)" fill="#a2a2cb"/>
        <path id="Trazado_165491" data-name="Trazado 165491" d="M847.863,393.022a1.248,1.248,0,0,0-.145.786c0,3.554.015,7.109-.014,10.663-.005.631.184.8.8.8q12.123-.027,24.245-.01c-.234.2-.518.129-.782.13q-12.127,0-24.253,0-12.014,0-24.029,0a1.617,1.617,0,0,1-.865-.092c.281-.42.722-.316,1.114-.316q7.025-.013,14.05-.006c1.282,0,1.283,0,1.284-1.265q0-4.819,0-9.639c0-.357-.057-.734.243-1.023l8.193-.044Z" transform="translate(-44.865 -36.834)" fill="#c0c0e2"/>
        <path id="Trazado_165492" data-name="Trazado 165492" d="M831.577,393.181c.008,3.895.006,7.79.032,11.685,0,.626-.378.544-.762.544q-7.643,0-15.286,0c-.226,0-.452.013-.678.019a2.09,2.09,0,0,1-1.753-2.242q-.013-3.87,0-7.74a2.07,2.07,0,0,1,2.154-2.277C820.716,393.159,826.147,393.175,831.577,393.181Z" transform="translate(-36.924 -36.97)" fill="#4c53b5"/>
      </g>
    </g>
  </g>
</svg>
