<svg xmlns="http://www.w3.org/2000/svg" width="88" height="88" viewBox="0 0 88 88">
  <g id="Grupo_124168" data-name="Grupo 124168" transform="translate(4149 7193.61)">
    <g id="Grupo_123818" data-name="Grupo 123818" transform="translate(-4149 -7193.61)">
      <g id="Grupo_123798" data-name="Grupo 123798" transform="translate(0)">
        <g id="Elipse_6768" data-name="Elipse 6768" fill="#fff" stroke="#2631a0" stroke-width="4">
          <circle cx="44" cy="44" r="44" stroke="none"/>
          <circle cx="44" cy="44" r="42" fill="none"/>
        </g>
      </g>
      <g id="Grupo_123817" data-name="Grupo 123817" transform="translate(20.501 21.591)">
        <path id="Trazado_170171" data-name="Trazado 170171" d="M778.642,392.138q-4.552.007-9.1.012a1.625,1.625,0,0,1-1.457-1.091V372.334a1.85,1.85,0,0,1,1.954-1.11c2.868.045,5.738.025,8.607.031a.86.86,0,0,1,.155.659c0,3.017.008,6.034,0,9.05a.483.483,0,0,1-.062.333,1.3,1.3,0,0,1-.228.261c-.4.385-.516.39-.909.018-.289-.274-.555-.571-.85-.839a1.321,1.321,0,0,0-1.882-.011,1.357,1.357,0,0,0-.041,1.892c.732.791,1.509,1.54,2.282,2.291a1.332,1.332,0,0,0,1,.354c.192,0,.4-.091.579.047a.508.508,0,0,1,.07.16c.083,1.64.017,3.279.037,4.919,0,.4.006.8,0,1.193A.741.741,0,0,1,778.642,392.138Z" transform="translate(-768.081 -371.223)" fill="#f15583"/>
        <path id="Trazado_170172" data-name="Trazado 170172" d="M768.081,552.256a1.85,1.85,0,0,1,1.954-1.11c2.868.045,5.738.025,8.607.031a.86.86,0,0,1,.155.659c0,3.017.008,6.034,0,9.05a.483.483,0,0,1-.062.333,1.308,1.308,0,0,1-.228.261c-.4.385-.516.39-.909.018-.289-.274-.555-.571-.85-.839a1.32,1.32,0,0,0-1.882-.011,1.357,1.357,0,0,0-.041,1.892c.732.791,1.509,1.54,2.282,2.291a1.331,1.331,0,0,0,1,.354c.192,0,.4-.091.579.047a.508.508,0,0,1,.07.16c.083,1.64.017,3.279.037,4.919,0,.4.006.8,0,1.193a.741.741,0,0,1-.153.559q-4.552.007-9.1.012a1.624,1.624,0,0,1-1.457-1.091Z" transform="translate(-768.081 -527.24)" fill="#f15583"/>
        <path id="Trazado_170173" data-name="Trazado 170173" d="M1108.092,395.835q-1.873,3.1-3.747,6.2c-.1.168-.219.328-.328.491a.254.254,0,0,1-.238-.01,19.786,19.786,0,0,1-2.385-1.469.283.283,0,0,1-.015-.144c1.323-2.248,2.712-4.456,4.038-6.7a1.023,1.023,0,0,1,.287-.336c.313-.006.627-.024.939-.015a1.64,1.64,0,0,1,1.449,1.091Z" transform="translate(-1057.093 -390.839)" fill="#febd40"/>
        <path id="Trazado_170174" data-name="Trazado 170174" d="M847.584,381.227c-.133-.139-.082-.313-.082-.473q0-4.686,0-9.372c3.035,0,6.07-.018,9.1-.009a1.426,1.426,0,0,1,1.349,1.345c.007.116,0,.232,0,.348q0,8.756,0,17.513a1.493,1.493,0,0,1-1.7,1.7q-4.378-.006-8.756-.016,0-3.409-.006-6.818c.028-.165.175-.233.278-.336q2.251-2.244,4.494-4.5a1.3,1.3,0,0,0,.123-1.941,1.25,1.25,0,0,0-1.926-.084c-.8.769-1.568,1.568-2.36,2.345C847.963,381.075,847.851,381.3,847.584,381.227Z" transform="translate(-836.942 -371.35)" fill="#ff004c"/>
        <path id="Trazado_170175" data-name="Trazado 170175" d="M847.584,561.149c-.133-.139-.082-.313-.082-.473q0-4.686,0-9.372c3.035,0,6.07-.018,9.1-.009a1.426,1.426,0,0,1,1.349,1.345c.007.116,0,.232,0,.348q0,8.757,0,17.513a1.493,1.493,0,0,1-1.7,1.7q-4.378-.006-8.756-.016,0-3.409-.006-6.818c.028-.165.175-.234.278-.336q2.251-2.244,4.494-4.5a1.3,1.3,0,0,0,.123-1.942,1.25,1.25,0,0,0-1.926-.084c-.8.769-1.569,1.568-2.36,2.345C847.963,561,847.851,561.221,847.584,561.149Z" transform="translate(-836.942 -527.368)" fill="#ff004c"/>
        <path id="Trazado_170176" data-name="Trazado 170176" d="M1031.72,447.768l2.6,1.515c-1,1.689-2,3.382-3.009,5.066q-3.734,6.227-7.479,12.447c-.084.14-.183.27-.276.4-.03.015-.067.032-.093.019a12.927,12.927,0,0,1-2.447-1.516c-.066-.219.063-.383.164-.552q5.1-8.49,10.193-16.983C1031.463,448.017,1031.521,447.829,1031.72,447.768Z" transform="translate(-987.394 -437.598)" fill="#242ca3"/>
        <path id="Trazado_170177" data-name="Trazado 170177" d="M1015.131,437.635q-1.645,2.768-3.292,5.535-2.76,4.612-5.529,9.218c-.544.906-1.085,1.814-1.632,2.718a1.072,1.072,0,0,0-.2.445.149.149,0,0,1-.126.051c-.792-.385-1.515-.889-2.275-1.329a.344.344,0,0,1-.208-.262q2.471-4.131,4.943-8.262,2.758-4.6,5.525-9.189c.093-.154.2-.3.3-.449.031-.014.068-.036.094-.024a9.9,9.9,0,0,1,2.387,1.465C1015.122,437.579,1015.127,437.607,1015.131,437.635Z" transform="translate(-970.804 -427.465)" fill="#6b71c1"/>
        <path id="Trazado_170178" data-name="Trazado 170178" d="M970.848,582.625a.386.386,0,0,0,.1-.01l2.49,1.516a53.6,53.6,0,0,1-4.052,6.417,8.909,8.909,0,0,1-2.5,2.026,1.5,1.5,0,0,0-.583.579c-.339.589-.683,1.175-1.051,1.746a1.468,1.468,0,0,1-1.981.562c-.153-.206-.029-.38.072-.548,2.034-3.381,4.047-6.774,6.1-10.145.362-.595.714-1.2,1.084-1.786C970.61,582.844,970.664,582.675,970.848,582.625Z" transform="translate(-937.276 -554.529)" fill="#febd40"/>
        <path id="Trazado_170179" data-name="Trazado 170179" d="M965.911,572.572q-1.59,2.66-3.18,5.32-2.131,3.55-4.27,7.095a.7.7,0,0,0-.126.422,1.45,1.45,0,0,1-.51-2.212,7.8,7.8,0,0,0,1.445-4.036,6.593,6.593,0,0,1,1.016-2.938c1.026-1.741,2.075-3.468,3.114-5.2Z" transform="translate(-932.338 -544.476)" fill="#fede40"/>
        <path id="Trazado_170180" data-name="Trazado 170180" d="M1085.406,401.041l-2.481-1.441a24.926,24.926,0,0,1,2.128-3.463,5.673,5.673,0,0,1,4.652-2.159c-.424.912-1,1.735-1.511,2.6q-1.207,2.038-2.445,4.058C1085.659,400.781,1085.6,400.969,1085.406,401.041Z" transform="translate(-1041.094 -390.955)" fill="#fede40"/>
        <path id="Trazado_170181" data-name="Trazado 170181" d="M846.576,424.885q1.307-1.293,2.615-2.585a1.481,1.481,0,0,1,2.236-.133,1.5,1.5,0,0,1-.092,2.243q-2.12,2.134-4.253,4.256a1.848,1.848,0,0,1-.594.441.1.1,0,0,1,.007-.051.751.751,0,0,1-.161-.6c-.008-.908,0-1.816,0-2.724a1.4,1.4,0,0,1,.157-.667Z" transform="translate(-835.934 -415.009)" fill="#febf10"/>
        <path id="Trazado_170182" data-name="Trazado 170182" d="M819.343,439.888q0,2,.008,3.993a1.4,1.4,0,0,1-1.646-.28q-1.141-1.106-2.248-2.247a1.494,1.494,0,0,1,0-2.1,1.474,1.474,0,0,1,2.1,0,11.524,11.524,0,0,1,.84.845c.241.278.442.361.686.015A1.421,1.421,0,0,1,819.343,439.888Z" transform="translate(-808.79 -429.835)" fill="#f9e424"/>
        <path id="Trazado_170183" data-name="Trazado 170183" d="M846.576,604.807q1.307-1.293,2.615-2.585a1.481,1.481,0,0,1,2.236-.133,1.5,1.5,0,0,1-.092,2.243q-2.12,2.134-4.253,4.256a1.849,1.849,0,0,1-.594.441.1.1,0,0,1,.007-.051.751.751,0,0,1-.161-.6c-.008-.908,0-1.816,0-2.724a1.4,1.4,0,0,1,.157-.667Z" transform="translate(-835.934 -571.026)" fill="#febf10"/>
        <path id="Trazado_170184" data-name="Trazado 170184" d="M819.343,619.81q0,2,.008,3.993a1.4,1.4,0,0,1-1.646-.28q-1.141-1.106-2.248-2.247a1.494,1.494,0,0,1,0-2.1,1.474,1.474,0,0,1,2.1,0,11.488,11.488,0,0,1,.84.845c.241.278.442.361.686.015A1.423,1.423,0,0,1,819.343,619.81Z" transform="translate(-808.79 -585.852)" fill="#f9e424"/>
      </g>
    </g>
  </g>
</svg>
