<svg xmlns="http://www.w3.org/2000/svg" width="88" height="88" viewBox="0 0 88 88">
  <g id="Grupo_124167" data-name="Grupo 124167" transform="translate(4381 7204.61)">
    <g id="Grupo_123816" data-name="Grupo 123816" transform="translate(-4381 -7204.61)">
      <g id="Elipse_6767" data-name="Elipse 6767" fill="#fff" stroke="#2631a0" stroke-width="4">
        <circle cx="44" cy="44" r="44" stroke="none"/>
        <circle cx="44" cy="44" r="42" fill="none"/>
      </g>
      <g id="Grupo_123815" data-name="Grupo 123815" transform="translate(20.017 22.06)">
        <path id="Trazado_170159" data-name="Trazado 170159" d="M788.99,348.072H805.9a.576.576,0,0,1,.186.479q.009,3.558,0,7.116c0,.193.005.416-.2.5s-.4-.062-.561-.187a4.391,4.391,0,0,0-2.762-.954,4.436,4.436,0,1,0,.18,8.869,4.348,4.348,0,0,0,2.184-.671c.138-.087.269-.185.409-.268.172-.1.333-.307.556-.2.239.119.2.378.2.6q.008,3.491,0,6.983a.96.96,0,0,1-.083.477.349.349,0,0,1-.1.116,1.269,1.269,0,0,1-.736.11q-3.4,0-6.808,0a2.011,2.011,0,0,0-.55.034,4.93,4.93,0,0,1,1.463,4.293,4.674,4.674,0,0,1-1.919,3.145,4.843,4.843,0,0,1-6.191-7.424.932.932,0,0,0-.468-.048c-1.557,0-3.115,0-4.672,0a1.169,1.169,0,0,1-.692-.111.354.354,0,0,1-.1-.124,1.382,1.382,0,0,1-.083-.655q0-8.874,0-17.748a4.389,4.389,0,0,1,2.295-3.994A5,5,0,0,1,788.99,348.072Z" transform="translate(-783.116 -348.072)" fill="#fed05b"/>
        <path id="Trazado_170160" data-name="Trazado 170160" d="M785.266,540.037h6.416a4.717,4.717,0,0,0-1.873,3.79,4.481,4.481,0,0,0,1.922,3.726,4.59,4.59,0,0,0,6.1-.622,4.476,4.476,0,0,0,1.217-3.55,4.711,4.711,0,0,0-1.9-3.358h8.684c.25.182.179.455.179.7.007,2.282,0,4.564.006,6.846a.956.956,0,0,0,.041.476,4.859,4.859,0,1,1,0,6.743.9.9,0,0,0-.043.475c0,2.282,0,4.564,0,6.847,0,.248.042.512-.187.7H788.918a.277.277,0,0,0-.168-.044c-1.907.042-3.266-1.775-3.571-3.277a5.706,5.706,0,0,1-.106-1.147q0-8.737.007-17.475C785.08,540.583,784.979,540.261,785.266,540.037Z" transform="translate(-783.043 -517.235)" fill="#575dac"/>
        <path id="Trazado_170161" data-name="Trazado 170161" d="M959.975,561.263V552.6a4.728,4.728,0,0,0,3.851,1.893,4.494,4.494,0,0,0,3.706-1.964,4.621,4.621,0,0,0-.64-6.067,4.539,4.539,0,0,0-3.554-1.209,4.692,4.692,0,0,0-3.357,1.894c0-2.968,0-5.82,0-8.672l-.008,0a.556.556,0,0,1,.434-.187c.163,0,.326-.008.489-.008q10.471,0,20.943,0c.314,0,.662-.095.922.192v19.4a4.3,4.3,0,0,1-.524,1.577,3.831,3.831,0,0,1-2.947,1.805Z" transform="translate(-937.188 -515.69)" fill="#eb6b91"/>
        <path id="Trazado_170163" data-name="Trazado 170163" d="M770.272,538.563c0,6.06.03,12.121-.012,18.18a4.357,4.357,0,0,0,3.551,4.523c.04.006.075.044.113.068h-2.4a3.834,3.834,0,0,1-3.178-2.2,7.241,7.241,0,0,1-.294-1.185v-19.4a.5.5,0,0,1,.341-.179c.513-.025,1.026-.023,1.539,0a.544.544,0,0,1,.348.168Z" transform="translate(-768.049 -515.761)" fill="#242ca3"/>
        <path id="Trazado_170164" data-name="Trazado 170164" d="M770.277,370.845l-2.228.013v-19.4a3.819,3.819,0,0,1,1.966-2.96,4.586,4.586,0,0,1,1.506-.423h2.4a7.339,7.339,0,0,0-1.6.611,4.08,4.08,0,0,0-2.033,3.577C770.258,358.455,770.277,364.65,770.277,370.845Z" transform="translate(-768.049 -348.072)" fill="#fec244"/>
        <path id="Trazado_170168" data-name="Trazado 170168" d="M1004.37,377.979c-.282,0-.564.011-.845,0a1.22,1.22,0,0,1-1.216-1.222c-.015-.34-.018-.683,0-1.023a.392.392,0,0,0-.3-.456,6.042,6.042,0,0,1-1.989-1.152.364.364,0,0,0-.507-.042c-.3.189-.609.37-.926.529a1.2,1.2,0,0,1-1.661-.455q-.449-.715-.842-1.464a1.2,1.2,0,0,1,.446-1.663c.371-.242.907-.38,1.091-.717.17-.312-.042-.825-.067-1.25a5.448,5.448,0,0,1,.114-1.371.3.3,0,0,0-.176-.391c-.314-.166-.623-.345-.924-.533a1.221,1.221,0,0,1-.465-1.728c.251-.47.519-.933.8-1.386a1.228,1.228,0,0,1,1.729-.473c.38.2.754.581,1.126.575.341-.006.671-.429,1.015-.654a5,5,0,0,1,1.234-.6.384.384,0,0,0,.311-.451,10.036,10.036,0,0,1,.008-1.112,1.154,1.154,0,0,1,1.114-1.118c.621-.029,1.246-.029,1.868,0a1.163,1.163,0,0,1,1.128,1.154c.018.37.018.742,0,1.112a.34.34,0,0,0,.257.394,6.413,6.413,0,0,1,2.1,1.22.281.281,0,0,0,.389.025c.315-.194.634-.386.962-.555a1.216,1.216,0,0,1,1.67.439c.309.488.6.99.861,1.5a1.2,1.2,0,0,1-.446,1.631c-.377.257-.959.354-1.119.742-.15.362.067.865.077,1.307a4.687,4.687,0,0,1-.088,1.15.469.469,0,0,0,.308.62,7.179,7.179,0,0,1,.806.47,1.2,1.2,0,0,1,.449,1.663c-.267.512-.556,1.014-.867,1.5a1.2,1.2,0,0,1-1.6.444c-.429-.2-.811-.672-1.244-.612-.4.056-.743.5-1.136.739a6.611,6.611,0,0,1-1.081.513.393.393,0,0,0-.307.454c.018.325.011.653,0,.979a1.232,1.232,0,0,1-1.259,1.273C1004.9,377.987,1004.637,377.979,1004.37,377.979Z" transform="translate(-968.859 -358.401)" fill="#12263f"/>
        <path id="Trazado_170169" data-name="Trazado 170169" d="M1048.714,414.97a2.871,2.871,0,1,1-2.878-2.887A2.855,2.855,0,0,1,1048.714,414.97Z" transform="translate(-1010.335 -404.484)" fill="#fefefe"/>
      </g>
    </g>
  </g>
</svg>
