<svg xmlns="http://www.w3.org/2000/svg" width="128.734" height="128.734" viewBox="0 0 128.734 128.734">
  <g id="Grupo_124174" data-name="Grupo 124174" transform="translate(-369.734 9414.855)">
    <g id="Grupo_123825" data-name="Grupo 123825" transform="translate(68.102 -10835.371)">
      <circle id="Elipse_6771" data-name="Elipse 6771" cx="64.367" cy="64.367" r="64.367" transform="translate(301.633 1420.516)" fill="#fff"/>
      <g id="Grupo_123820" data-name="Grupo 123820" transform="translate(332.149 1446.648)">
        <path id="Trazado_166779" data-name="Trazado 166779" d="M790.442,505.564q-12.914.009-25.828.019c-.325,0-.613.045-.6-.458.1-3.983-.217-7.976.322-11.95a33.068,33.068,0,0,1,8.692-18.435,33.427,33.427,0,0,1,19.561-10.468,38.762,38.762,0,0,1,5.225-.433l-.02.064a1.4,1.4,0,0,1,.3,1.127q.012,14.54,0,29.08a2.531,2.531,0,0,1-.123.931.869.869,0,0,1-.762.46c-.841.137-1.658.373-2.481.582-.563.012-.857-.419-1.195-.756q-5.855-5.842-11.7-11.695c-.183-.183-.366-.365-.553-.544a.57.57,0,0,0-.9-.016q-1.257,1.24-2.5,2.5a.569.569,0,0,0,.007.9c.179.187.361.37.543.553q5.849,5.849,11.7,11.7c.3.3.672.555.761,1.018a2.771,2.771,0,0,1-.22,1,7.19,7.19,0,0,0-.189,3.739A1.21,1.21,0,0,1,790.442,505.564Z" transform="translate(-763.999 -443.192)" fill="#3165b7"/>
        <path id="Trazado_166780" data-name="Trazado 166780" d="M797.751,409.134q-8.225-.011-16.45-.022c-5.512,0-11.025-.011-16.537.013-.623,0-.853-.12-.819-.792a32.392,32.392,0,0,0,0-3.53c-.043-.742.208-.881.906-.88q15.934.035,31.868.015c.344,0,.688-.014,1.032-.022l-.022.056c.055.063.14.114.154.2a14.923,14.923,0,0,1,0,4.708c-.013.085-.1.135-.154.2Z" transform="translate(-763.94 -393.601)" fill="#00cbfe"/>
        <path id="Trazado_166781" data-name="Trazado 166781" d="M919.447,646.569a10.094,10.094,0,0,1,3.368-.76l.117.125a2.539,2.539,0,0,1,.174,1.263q.007,6.367,0,12.733a1.784,1.784,0,0,1-.3,1.387l.014.056a7.958,7.958,0,0,1-7.367-5.216,8.5,8.5,0,0,1,.335-5.957c-.079-.615.353-1.015.681-1.409C917.274,647.82,918.072,646.8,919.447,646.569Z" transform="translate(-889.007 -593.787)" fill="#feee00"/>
        <path id="Trazado_166782" data-name="Trazado 166782" d="M959.954,495.5q-.007-15.655-.013-31.31a31.869,31.869,0,0,1,17.885,5.091,33.424,33.424,0,0,1,15.324,22.278,27.446,27.446,0,0,1,.584,5.718c-.013,2.64-.015,5.28.01,7.92,0,.5-.086.685-.647.683q-12.871-.038-25.741-.031c-.252-.284-.117-.6-.057-.9a7.528,7.528,0,0,0-6.625-9.177,1.329,1.329,0,0,1-.727-.219Z" transform="translate(-926.147 -443.482)" fill="#13499f"/>
        <path id="Trazado_166783" data-name="Trazado 166783" d="M959.914,409.168v-5.105c.344-.011.687-.031,1.031-.031q15.8,0,31.6,0c1.344,0,1.15-.18,1.165,1.2q.015,1.378,0,2.755c-.015,1.385.18,1.2-1.164,1.2q-15.8.008-31.6,0C960.6,409.2,960.258,409.178,959.914,409.168Z" transform="translate(-926.125 -393.691)" fill="#2fbcf2"/>
        <path id="Trazado_166784" data-name="Trazado 166784" d="M959.959,646.1a7.714,7.714,0,0,1,7.769,7.242,12.248,12.248,0,0,1-.36,3.051,8.085,8.085,0,0,1-5.308,4.92,4.946,4.946,0,0,1-2.1.24Z" transform="translate(-926.159 -594.017)" fill="#fec500"/>
        <path id="Trazado_166785" data-name="Trazado 166785" d="M1011.163,346.661a2.582,2.582,0,1,1-2.569-2.574A2.617,2.617,0,0,1,1011.163,346.661Z" transform="translate(-964.263 -344.087)" fill="#2fbcf2"/>
        <path id="Trazado_166786" data-name="Trazado 166786" d="M1068.589,349.252a2.583,2.583,0,1,1,2.55-2.593A2.619,2.619,0,0,1,1068.589,349.252Z" transform="translate(-1013.898 -344.087)" fill="#2fbcf2"/>
        <path id="Trazado_166787" data-name="Trazado 166787" d="M1131.116,346.7a2.583,2.583,0,1,1-2.529-2.613A2.61,2.61,0,0,1,1131.116,346.7Z" transform="translate(-1063.534 -344.086)" fill="#e1095a"/>
        <path id="Trazado_166788" data-name="Trazado 166788" d="M858.461,585.806a8.891,8.891,0,0,0-3.661,3.633q-6.58-6.567-13.167-13.127c-.348-.345-.349-.554,0-.89.934-.892,1.855-1.8,2.736-2.741.4-.432.634-.36,1.017.025Q851.91,579.271,858.461,585.806Z" transform="translate(-828.022 -533.024)" fill="#e1095a"/>
      </g>
    </g>
  </g>
</svg>
