<svg xmlns="http://www.w3.org/2000/svg" width="88" height="88" viewBox="0 0 88 88">
  <g id="Grupo_124163" data-name="Grupo 124163" transform="translate(4140 7377.61)">
    <g id="Grupo_123814" data-name="Grupo 123814" transform="translate(-4140 -7377.61)">
      <g id="Elipse_6763" data-name="Elipse 6763" fill="#fff" stroke="#2631a0" stroke-width="4">
        <circle cx="44" cy="44" r="44" stroke="none"/>
        <circle cx="44" cy="44" r="42" fill="none"/>
      </g>
      <g id="Grupo_123807" data-name="Grupo 123807" transform="translate(19.704 19.305)">
        <path id="Trazado_170055" data-name="Trazado 170055" d="M821.574,546.268a8.668,8.668,0,0,1,4.62,6.259,2.215,2.215,0,0,1,.016.322.477.477,0,0,1-.45.119,18.89,18.89,0,0,1-4.671-.99,11.3,11.3,0,0,1-3.354-2.212,11.372,11.372,0,0,0-3.26-1.842,13.336,13.336,0,0,1-3.008-1.657,6.809,6.809,0,0,1-2.533-5.207c-.059-1.955-.016-3.913-.01-5.87a1.316,1.316,0,0,1,.353-1.089,1.916,1.916,0,0,1,1.732,1.919q.253,2.851.551,5.7a1.478,1.478,0,0,0,.883,1.212,36.38,36.38,0,0,0,3.883,1.4.756.756,0,0,0,.214,0,6.463,6.463,0,0,1,1.422.463c1.009.323,2,.691,2.99,1.076A1.072,1.072,0,0,1,821.574,546.268Z" transform="translate(-807.343 -509.933)" fill="#f8daae"/>
        <path id="Trazado_170056" data-name="Trazado 170056" d="M1000.36,544.435c1.3-.452,2.606-.88,3.891-1.367a1.762,1.762,0,0,0,1.186-1.628c.176-1.968.377-3.935.637-5.894a1.631,1.631,0,0,1,1.619-1.447,1.135,1.135,0,0,1,.348.927c.014,2.064.1,4.134-.019,6.191a6.862,6.862,0,0,1-4.254,6.124c-.943.44-1.884.886-2.847,1.282a7.114,7.114,0,0,0-2.015,1.417,10.71,10.71,0,0,1-6.148,2.721c-.464.052-.925.124-1.387.185a.662.662,0,0,1-.611-.1,7.985,7.985,0,0,1,1.614-4.031,8.1,8.1,0,0,1,2.5-2.239,4.483,4.483,0,0,0,.424-.321,14.488,14.488,0,0,1,2.874-1.177c.563-.23,1.156-.383,1.722-.609A.509.509,0,0,1,1000.36,544.435Z" transform="translate(-963.046 -509.933)" fill="#f8daae"/>
        <path id="Trazado_170057" data-name="Trazado 170057" d="M799.984,534.093a4.34,4.34,0,0,0-.212,1.636c.011,1.668,0,3.337,0,5.006a6.889,6.889,0,0,0,4.365,6.534c.824.349,1.616.776,2.45,1.1a12.289,12.289,0,0,1,2.949,2.117,10.626,10.626,0,0,0,5.575,2.142c.6.06,1.2.144,1.8.216a8.536,8.536,0,0,1,.109,2.137c.013.215,0,.431,0,.646a.683.683,0,0,1-.592.187c-2.629,0-5.258.026-7.887-.01-.346-.009-.713.1-1.012-.177a26.063,26.063,0,0,0-.1-3.6,3.191,3.191,0,0,0-1.806-2.4c-1-.491-2.005-.966-3.031-1.393a7,7,0,0,1-4.509-5.585,4.216,4.216,0,0,1-.042-.7q-.005-2.99,0-5.981A1.763,1.763,0,0,1,799.984,534.093Z" transform="translate(-798.05 -509.926)" fill="#ecb78d"/>
        <path id="Trazado_170058" data-name="Trazado 170058" d="M990.1,552.841c2.738-.214,5.43-.637,7.581-2.528a13.362,13.362,0,0,1,3.773-2.4,16.55,16.55,0,0,0,2.469-1.173,6.443,6.443,0,0,0,3.2-4.833,65.76,65.76,0,0,0,.106-7.035,3.026,3.026,0,0,0-.2-.774,1.763,1.763,0,0,1,1.933,1.88c0,1.922.028,3.844-.005,5.765a6.664,6.664,0,0,1-3.821,6.149c-1.142.6-2.345,1.08-3.519,1.617a3.463,3.463,0,0,0-2.141,3.372c-.008.916,0,1.832,0,2.748-.3.277-.664.164-1.008.177-2.612.034-5.224.011-7.837.011a.748.748,0,0,1-.645-.188q0-1.1,0-2.209A1.054,1.054,0,0,1,990.1,552.841Z" transform="translate(-962.382 -509.925)" fill="#ecb78d"/>
        <path id="Trazado_170059" data-name="Trazado 170059" d="M894.822,379.442l-.408-1.649s3.148-2.466,3.914-3.017c1.133-.816,2.247-1.658,3.371-2.485a.9.9,0,0,1,1.1-.01c1.957,1.229,3.92,2.447,5.873,3.684a.506.506,0,0,0,.73-.031c1.271-1.1,2.57-2.169,3.856-3.252q2.711-2.28,5.418-4.565c.08-.068.146-.153.311-.329-.7,0-1.3,0-1.89,0-.681,0-1.053-.321-1.042-.88.011-.539.372-.841,1.025-.843q1.994-.005,3.987,0c.718,0,1.02.3,1.023,1.007q.007,2.021,0,4.041c0,.637-.334,1-.881.987-.522-.011-.835-.366-.841-.973-.007-.682,0-1.363,0-2.081a3.326,3.326,0,0,0-1.205.9c-2.022,1.683-4.01,3.406-6.014,5.109-1.118.95-2.245,1.888-3.367,2.834a.935.935,0,0,1-1.229.038c-1.969-1.243-3.953-2.463-5.921-3.707a.473.473,0,0,0-.652.023c-2.311,1.721-4.636,3.422-6.959,5.127A.784.784,0,0,1,894.822,379.442Z" transform="translate(-880.686 -366.061)" fill="#687687"/>
        <path id="Trazado_170060" data-name="Trazado 170060" d="M1047.356,462.889c.005.736,0,1.473.021,2.209.007.263-.046.385-.349.379-.916-.019-1.833-.017-2.749,0-.285.005-.37-.083-.363-.365.017-.772.006-1.545.006-2.317,0-4.114,0-8.229-.008-12.343,0-.38.058-.561.489-.514.409.045.825.019,1.238.025.233.256.17.574.171.872,0,3.226.026,6.452-.01,9.678-.012,1.088.258,1.907,1.388,2.245A.439.439,0,0,1,1047.356,462.889Z" transform="translate(-1008.554 -437.867)" fill="#febf10"/>
        <path id="Trazado_170061" data-name="Trazado 170061" d="M951.388,468.023c.005.736,0,1.473.021,2.209.007.263-.046.385-.349.379-.916-.019-1.833-.017-2.749,0-.285.005-.367-.084-.363-.365.015-1.06.006-2.12.006-3.18,0-3.539.006-7.079-.008-10.618,0-.38.058-.561.489-.515.409.045.825.019,1.238.025.233.256.169.574.17.872,0,2.939.028,5.878-.01,8.817-.014,1.088.257,1.907,1.388,2.244A.44.44,0,0,1,951.388,468.023Z" transform="translate(-926.388 -443.001)" fill="#febf10"/>
        <path id="Trazado_170062" data-name="Trazado 170062" d="M858.817,683.784l.976.036c.239.106.294.348.4.551a3.247,3.247,0,0,0,3.034,1.859c1.719.015,3.438,0,5.156.006a1.024,1.024,0,0,1,.768.155c0,.553.193,1.256-.073,1.614-.255.343-1,.1-1.533.1-3.03.01-6.061,0-9.091.014-.389,0-.523-.075-.51-.493.033-1.075.037-2.152,0-3.227-.017-.484.109-.693.606-.605A1.15,1.15,0,0,0,858.817,683.784Z" transform="translate(-849.328 -638.086)" fill="#242ca3"/>
        <path id="Trazado_170063" data-name="Trazado 170063" d="M993.318,683.849l.976-.036c.862.045.862.045.862.942,0,.986-.009,1.972.006,2.958,0,.3-.034.44-.4.439q-5.218-.023-10.436,0c-.3,0-.413-.075-.393-.387.029-.446.018-.9.024-1.343a1.025,1.025,0,0,1,.768-.155c1.7-.005,3.4,0,5.106,0a3.226,3.226,0,0,0,3.108-1.909C993.035,684.161,993.1,683.945,993.318,683.849Z" transform="translate(-957.2 -638.115)" fill="#242ca3"/>
        <path id="Trazado_170064" data-name="Trazado 170064" d="M999.369,483.428c.005.736,0,1.473.021,2.209.007.263-.046.385-.349.379-.9-.019-1.8-.022-2.695,0-.335.009-.422-.09-.419-.421.016-1.868.008-3.737.008-5.605,0-1.851.01-3.7-.009-5.551,0-.381.059-.561.489-.514.409.044.825.019,1.238.025a1.08,1.08,0,0,1,.168.818c0,2.1.032,4.192-.01,6.288-.022,1.087.256,1.907,1.39,2.24A.444.444,0,0,1,999.369,483.428Z" transform="translate(-967.468 -458.406)" fill="#febf10"/>
        <path id="Trazado_170065" data-name="Trazado 170065" d="M993.284,683.831a3.493,3.493,0,0,1-2.713,2.519,2.841,2.841,0,0,1-.584.048q-3.031.005-6.062,0c-.006-.68.016-1.362-.028-2.04-.029-.445.1-.63.552-.552a1.463,1.463,0,0,0,.321-.015l7.653.019C992.71,683.814,993,683.825,993.284,683.831Z" transform="translate(-957.166 -638.096)" fill="#5157bb"/>
        <path id="Trazado_170066" data-name="Trazado 170066" d="M880.171,686.419c-1.85,0-3.7-.063-5.549.017a3.649,3.649,0,0,1-3.809-2.588l7.545-.019c.323,0,.646-.011.969-.017.862.045.864.045.861.942C880.187,685.309,880.177,685.864,880.171,686.419Z" transform="translate(-860.348 -638.114)" fill="#5157bb"/>
        <path id="Trazado_170067" data-name="Trazado 170067" d="M1057.635,462.559a1.711,1.711,0,0,1-1.708-1.883q-.005-5.522-.007-11.045c.554-.012,1.254-.232,1.617.074s.108,1.013.109,1.543C1057.651,455.019,1057.641,458.789,1057.635,462.559Z" transform="translate(-1018.834 -437.537)" fill="#f9e424"/>
        <path id="Trazado_170068" data-name="Trazado 170068" d="M961.668,467.693a1.711,1.711,0,0,1-1.708-1.883q-.006-5.091-.007-10.182c.553-.012,1.254-.232,1.617.074s.108,1.013.109,1.543C961.684,460.728,961.674,464.211,961.668,467.693Z" transform="translate(-936.668 -442.672)" fill="#f9e424"/>
        <path id="Trazado_170069" data-name="Trazado 170069" d="M903.428,504.041c.005.736,0,1.473.021,2.209.007.263-.046.385-.349.379-.934-.019-1.868-.013-2.8,0-.235,0-.308-.076-.307-.309q.01-4.015,0-8.03c0-.25.106-.3.323-.293.466.015.933.014,1.4.019a.922.922,0,0,1,.162.712c.005,1.057.023,2.114,0,3.17a1.75,1.75,0,0,0,1.291,1.97A.628.628,0,0,1,903.428,504.041Z" transform="translate(-885.329 -479.019)" fill="#febf10"/>
        <path id="Trazado_170070" data-name="Trazado 170070" d="M1009.652,483.1a1.711,1.711,0,0,1-1.708-1.883q-.006-3.8-.007-7.6c.553-.011,1.253-.232,1.617.074s.108,1.013.109,1.543C1009.67,477.858,1009.658,480.478,1009.652,483.1Z" transform="translate(-977.751 -458.077)" fill="#f9e424"/>
        <path id="Trazado_170071" data-name="Trazado 170071" d="M855.444,524.581c.005.736,0,1.473.021,2.208.007.263-.045.385-.348.379-.934-.019-1.868-.013-2.8,0-.235,0-.31-.075-.308-.308q.012-2.29,0-4.581c0-.25.106-.3.323-.293.466.015.933.014,1.4.019a.585.585,0,0,1,.145.5,1.7,1.7,0,0,0,1.348,1.93A.485.485,0,0,1,855.444,524.581Z" transform="translate(-844.246 -499.559)" fill="#febf10"/>
        <path id="Trazado_170072" data-name="Trazado 170072" d="M1027.381,582.079l-5.06,1.822,1.4-2.677a.784.784,0,0,1,.45-.151,2.158,2.158,0,0,0,2.01-2.71.378.378,0,0,1,.015-.261,1.753,1.753,0,0,1,1.821,2.5C1027.8,581.095,1027.593,581.588,1027.381,582.079Z" transform="translate(-990.067 -547.577)" fill="#d99267"/>
        <path id="Trazado_170073" data-name="Trazado 170073" d="M862.649,583.915c-1.464-.621-2.981-1.1-4.473-1.642a1.4,1.4,0,0,1-.561-.3c-.19-.46-.368-.924-.571-1.378a1.754,1.754,0,0,1,1.825-2.494.437.437,0,0,1,0,.314,2.156,2.156,0,0,0,1.915,2.648.944.944,0,0,1,.557.161A21.292,21.292,0,0,1,862.649,583.915Z" transform="translate(-848.417 -547.58)" fill="#d99267"/>
        <path id="Trazado_170074" data-name="Trazado 170074" d="M913.684,503.638a1.712,1.712,0,0,1-1.708-1.882q-.006-2.073-.007-4.146c.553-.011,1.253-.232,1.617.073s.105,1.012.109,1.542C913.706,500.7,913.69,502.168,913.684,503.638Z" transform="translate(-895.585 -478.617)" fill="#f9e424"/>
        <path id="Trazado_170075" data-name="Trazado 170075" d="M1034.546,578.312a2.231,2.231,0,0,1-1.94,3.112,5.191,5.191,0,0,1-.534.01c.353-.716.7-1.437,1.062-2.146A1.611,1.611,0,0,1,1034.546,578.312Z" transform="translate(-998.415 -547.786)" fill="#ecb78e"/>
        <path id="Trazado_170076" data-name="Trazado 170076" d="M871.8,581.434a2.529,2.529,0,0,1-2.34-1.111,1.851,1.851,0,0,1-.135-2.012,1.655,1.655,0,0,1,1.414.977C871.106,580,871.452,580.719,871.8,581.434Z" transform="translate(-858.879 -547.786)" fill="#ecb78e"/>
        <path id="Trazado_170077" data-name="Trazado 170077" d="M865.7,524.178a1.713,1.713,0,0,1-1.709-1.878c0-.233,0-.466-.006-.7.553-.012,1.251-.231,1.615.072s.085,1.009.112,1.539C865.729,523.533,865.706,523.856,865.7,524.178Z" transform="translate(-854.502 -499.156)" fill="#f9e424"/>
      </g>
    </g>
  </g>
</svg>
