<svg xmlns="http://www.w3.org/2000/svg" width="88" height="88" viewBox="0 0 88 88">
  <g id="Grupo_124164" data-name="Grupo 124164" transform="translate(3913 7379.61)">
    <g id="Grupo_123810" data-name="Grupo 123810" transform="translate(-3913 -7379.61)">
      <g id="Elipse_6764" data-name="Elipse 6764" fill="#fff" stroke="#2631a0" stroke-width="4">
        <circle cx="44" cy="44" r="44" stroke="none"/>
        <circle cx="44" cy="44" r="42" fill="none"/>
      </g>
      <g id="Grupo_123808" data-name="Grupo 123808" transform="translate(24.746 17.784)">
        <path id="Trazado_170078" data-name="Trazado 170078" d="M826.686,409.216H807.232a.8.8,0,0,1-.188-.569c-.008-.2-.006-.409-.006-.614q0-23.362,0-46.725c0-1.436,0-1.436,1.458-1.436,1.484,0,2.968,0,4.452,0a1.417,1.417,0,0,1,.844.143,1,1,0,0,1,.181.724c.012.647,0,1.293.007,1.94,0,.318.132.472.457.466.2,0,.408.005.613.005q5.361,0,10.722,0a1.4,1.4,0,0,1,.935.169,1.057,1.057,0,0,1,.171.729q.009,3.4,0,6.795a1.156,1.156,0,0,1-.139.69,1.193,1.193,0,0,1-.876.182c-2.011.006-4.021,0-6.032,0-.94,0-.94,0-.941.964,0,.29,0,.579,0,.869,0,.856,0,.859.839.86,2.028,0,4.055,0,6.083,0,.335,0,.693-.045.944.27a.57.57,0,0,1,.086.237c.065,1.32.05,2.64.008,3.96a.552.552,0,0,1-.127.327,1.206,1.206,0,0,1-.877.184c-2.062.006-4.124,0-6.186,0-.758,0-.766.014-.77.774,0,.46.016.921,0,1.38s.214.543.6.541q2.249-.008,4.5,0c.7,0,1.4-.007,2.1.005a.92.92,0,0,1,.629.167.846.846,0,0,1,.163.576c.013,1.121.011,2.242,0,3.364a.918.918,0,0,1-.149.582,1.2,1.2,0,0,1-.876.186c-2.062.006-4.124,0-6.187,0-.759,0-.768.013-.771.773,0,.46.016.921,0,1.38s.212.544.6.542q2.25-.008,4.5,0c.7,0,1.4-.007,2.1.005a.645.645,0,0,1,.793.794q.015,1.682,0,3.364a1,1,0,0,1-.151.633,1.2,1.2,0,0,1-.877.186c-2.063.006-4.126,0-6.189,0-.756,0-.764.014-.768.776,0,.443-.008.887,0,1.33.012.534.05.579.6.583,1.62.011,3.24,0,4.86,0,.6,0,1.194-.009,1.79.007a.828.828,0,0,1,.575.171,1.1,1.1,0,0,1,.162.734q.007,5.114,0,10.228A.956.956,0,0,1,826.686,409.216Z" transform="translate(-807.037 -356.783)" fill="#f3d378"/>
        <path id="Trazado_170080" data-name="Trazado 170080" d="M973.034,361.349l5.887,0c.651,0,.651,0,.651.674q0,24.009,0,48.017c0,.154,0,.307,0,.461H960.12l-.006-11.656.064-.077a1.724,1.724,0,0,1,.949-.128q6.218-.006,12.437,0c.9,0,.905,0,.906-.9,0-.444,0-.887,0-1.331,0-.327-.147-.465-.466-.458-.187,0-.375,0-.563,0q-6.142,0-12.283,0a2.34,2.34,0,0,1-.911-.083.3.3,0,0,1-.136-.142q0-2.266,0-4.532a.3.3,0,0,1,.136-.141,2.312,2.312,0,0,1,.91-.085q6.066,0,12.131,0c.188,0,.375,0,.563,0,.572-.016.61-.05.619-.618.008-.512-.01-1.024,0-1.536.012-.4-.163-.559-.55-.537-.187.011-.375,0-.563,0q-6.091,0-12.182,0a2.621,2.621,0,0,1-.913-.074.344.344,0,0,1-.149-.13l0-4.468.062-.078a1.7,1.7,0,0,1,.948-.13q6.217-.006,12.434,0c.91,0,.912,0,.912-.892,0-.46,0-.921-.005-1.382a.362.362,0,0,0-.4-.41c-.2,0-.409-.008-.614-.008q-6.141,0-12.281,0a2.441,2.441,0,0,1-.912-.08.331.331,0,0,1-.143-.137l.006-4.471c.222-.231.512-.151.775-.152q6.37-.008,12.74,0a.975.975,0,0,0,.729-.149,4.391,4.391,0,0,0,.113-1.7,1.188,1.188,0,0,0-.122-.882,1.042,1.042,0,0,0-.737-.138q-6.363,0-12.726,0c-.262,0-.552.08-.773-.154l0-8.181.068-.073a1.715,1.715,0,0,1,.9-.119q5.371-.005,10.742,0c.153,0,.308-.011.46,0,.389.025.555-.14.547-.538q-.019-.92,0-1.841C972.841,361.81,972.807,361.541,973.034,361.349Z" transform="translate(-940.471 -358.071)" fill="#febf10"/>
        <path id="Trazado_170081" data-name="Trazado 170081" d="M859.542,339.078c0-.936.015-1.872,0-2.808-.007-.348.093-.475.46-.474q6.228.02,12.456.015a.951.951,0,0,1,.182.721q.008,2.547,0,5.095a.935.935,0,0,1-.184.719l-.01.014c-4.094,0-8.188-.011-12.283.006-.493,0-.646-.133-.626-.627C859.572,340.853,859.543,339.965,859.542,339.078Z" transform="translate(-852.798 -335.796)" fill="#6066c2"/>
        <path id="Trazado_170082" data-name="Trazado 170082" d="M905.814,450.65q6.957,0,13.913.007c.212,0,.446-.083.633.1a1.237,1.237,0,0,1-.926.191q-6.213.006-12.427,0c-1,0-1,0-1,1.011,0,.375,0,.75,0,1.125,0,.292.124.443.427.444.2,0,.409.007.614.007q6.188,0,12.376,0a1.246,1.246,0,0,1,.927.188c-.185.187-.42.1-.632.1q-6.956.009-13.912.006a1.1,1.1,0,0,0-.646-.1c-2.266,0-4.531-.01-6.8.008-.415,0-.578-.1-.554-.539.034-.611.009-1.226.009-1.839,0-.7,0-.7.679-.7H905.2C905.406,450.666,905.61,450.656,905.814,450.65Z" transform="translate(-886.172 -435.906)" fill="#f6749b"/>
        <path id="Trazado_170083" data-name="Trazado 170083" d="M905.822,513.549l-7.319-.023c-.665,0-.665,0-.665-.665,0-.631.022-1.264-.008-1.894-.019-.4.109-.526.518-.522,2.286.018,4.573.009,6.859.008.2,0,.408-.016.612-.025l.018.041a.429.429,0,0,1,.142.262,17.09,17.09,0,0,1,0,2.516.406.406,0,0,1-.139.262Z" transform="translate(-886.181 -488.025)" fill="#f6749b"/>
        <path id="Trazado_170084" data-name="Trazado 170084" d="M905.815,572.715q-2.4-.016-4.809-.031c-.9,0-1.809-.015-2.713.006-.362.008-.477-.115-.465-.47.022-.7.029-1.4,0-2.1-.018-.41.121-.522.523-.519,2.286.017,4.573.009,6.859.007.2,0,.409-.014.613-.022a.4.4,0,0,1,.024.045A.511.511,0,0,1,906,570c.032.75.028,1.5,0,2.25a.6.6,0,0,1-.168.417Z" transform="translate(-886.178 -539.596)" fill="#f6749b"/>
        <path id="Trazado_170085" data-name="Trazado 170085" d="M905.823,632.416l-7.318-.022c-.667,0-.667,0-.667-.664,0-.631.022-1.264-.008-1.894-.019-.4.109-.527.517-.524,2.337.018,4.675.009,7.013.007.152,0,.305-.02.458-.031l.016.044a.5.5,0,0,1,.154.316,18.953,18.953,0,0,1,0,2.453.4.4,0,0,1-.136.268A.379.379,0,0,1,905.823,632.416Z" transform="translate(-886.181 -591.639)" fill="#f6749b"/>
        <path id="Trazado_170086" data-name="Trazado 170086" d="M848.41,513.668c-.374,0-.75-.02-1.122.006s-.523-.073-.507-.475c.03-.73.02-1.462,0-2.193-.007-.307.1-.421.409-.415.816.016,1.632.014,2.448,0,.293,0,.435.07.428.4-.018.765-.014,1.53,0,2.3,0,.284-.094.4-.383.388C849.26,513.656,848.835,513.667,848.41,513.668Z" transform="translate(-841.682 -488.167)" fill="#f6749b"/>
        <path id="Trazado_170087" data-name="Trazado 170087" d="M848.515,569.745c.408,0,.816.007,1.224,0,.246-.006.379.063.376.342-.011.8-.008,1.6,0,2.4,0,.234-.088.338-.329.337-.867-.006-1.734-.009-2.6,0-.273,0-.352-.116-.349-.369q.013-1.173,0-2.345c0-.259.089-.37.355-.363C847.631,569.754,848.073,569.745,848.515,569.745Z" transform="translate(-841.728 -539.73)" fill="#f6749b"/>
        <path id="Trazado_170088" data-name="Trazado 170088" d="M848.456,632.583c-.408,0-.816-.013-1.224,0-.3.013-.427-.085-.42-.4.017-.764.014-1.53,0-2.295,0-.291.109-.385.391-.381q1.249.017,2.5,0c.279,0,.4.086.393.379-.013.782-.011,1.564,0,2.346,0,.269-.107.361-.365.354C849.306,632.574,848.881,632.582,848.456,632.583Z" transform="translate(-841.709 -591.828)" fill="#f6749b"/>
        <path id="Trazado_170089" data-name="Trazado 170089" d="M848.466,453.914c-.426,0-.851-.009-1.277,0-.267.008-.359-.1-.356-.364q.014-1.174,0-2.349c0-.259.09-.367.356-.364q1.251.014,2.5,0c.305,0,.426.124.422.428-.01.749-.015,1.5,0,2.247.007.321-.125.416-.424.4C849.283,453.9,848.874,453.914,848.466,453.914Z" transform="translate(-841.727 -436.081)" fill="#f6749b"/>
        <path id="Trazado_170090" data-name="Trazado 170090" d="M960.243,342.346q0-3.267,0-6.535,6.219,0,12.437-.015c.356,0,.474.1.467.463-.019.938,0,1.876,0,2.815s-.021,1.877,0,2.815c.006.354-.1.471-.464.469Q966.463,342.341,960.243,342.346Z" transform="translate(-940.589 -335.797)" fill="#242ca3"/>
        <path id="Trazado_170091" data-name="Trazado 170091" d="M960.265,513.6q0-1.52,0-3.04l9.766-.017c1.432,0,2.864.014,4.3-.009.392-.006.495.119.481.494-.027.732-.017,1.466,0,2.2.005.276-.068.394-.37.393Q967.347,513.606,960.265,513.6Z" transform="translate(-940.604 -488.122)" fill="#ff004c"/>
        <path id="Trazado_170092" data-name="Trazado 170092" d="M960.233,572.8q.007-1.519.014-3.037l12.474-.015c.528,0,1.058.026,1.584-.008.407-.027.486.141.473.5-.025.681-.032,1.364,0,2.044.022.427-.115.543-.54.541-3.7-.016-7.4-.008-11.094-.01C962.175,572.815,961.2,572.8,960.233,572.8Z" transform="translate(-940.58 -539.723)" fill="#ff004c"/>
        <path id="Trazado_170093" data-name="Trazado 170093" d="M960.248,632.472q-.007-1.519-.014-3.037c1.295-.006,2.589-.017,3.884-.018,3.374,0,6.749.007,10.123-.01.426,0,.561.114.54.541-.034.7-.022,1.4,0,2.1.009.318-.067.452-.42.451Q967.3,632.471,960.248,632.472Z" transform="translate(-940.581 -591.74)" fill="#ff004c"/>
        <path id="Trazado_170094" data-name="Trazado 170094" d="M974.7,454.407q-7.063.007-14.127.018c-.3,0-.426-.084-.418-.4q.028-1.1,0-2.2c-.008-.321.118-.405.419-.4q7.063.017,14.127.019Q974.7,452.921,974.7,454.407Z" transform="translate(-940.512 -436.584)" fill="#ff004c"/>
      </g>
    </g>
  </g>
</svg>
