<svg xmlns="http://www.w3.org/2000/svg" width="124" height="124" viewBox="0 0 124 124">
  <g id="Grupo_124190" data-name="Grupo 124190" transform="translate(-4664 9303.65)">
    <g id="Grupo_123841" data-name="Grupo 123841" transform="translate(4356 -11407.42)">
      <g id="Grupo_123835" data-name="Grupo 123835" transform="translate(-640 -1896.942)">
        <g id="Grupo_123828" data-name="Grupo 123828" transform="translate(-210 -4097.079)">
          <g id="Elipse_6020" data-name="Elipse 6020" transform="translate(1158 8097.791)" fill="#fff" stroke="#2631a0" stroke-width="4">
            <circle cx="62" cy="62" r="62" stroke="none"/>
            <circle cx="62" cy="62" r="60" fill="none"/>
          </g>
        </g>
      </g>
      <g id="Grupo_123460" data-name="Grupo 123460" transform="translate(-432.347 1782.422)">
        <path id="Trazado_166968" data-name="Trazado 166968" d="M780.434,348.016q.011,2.07.022,4.14a.884.884,0,0,1,.187.572q.031,1.5,0,3a.883.883,0,0,1-.187.572c-.007,1.171-.045,2.343-.008,3.513.017.528-.147.642-.653.639-3.928-.021-7.855-.012-11.783-.012,0-3.992.007-7.983-.011-11.975,0-.382.076-.46.458-.458C772.45,348.022,776.442,348.016,780.434,348.016Z" transform="translate(0 -0.004)" fill="#f1c95c"/>
        <path id="Trazado_166969" data-name="Trazado 166969" d="M1083.44,352.152q.011-2.07.021-4.14c3.98,0,7.959.008,11.939-.012.412,0,.5.083.495.495-.02,3.98-.012,7.96-.012,11.939-3.929,0-7.858-.01-11.786.012-.507,0-.667-.112-.65-.639.038-1.17,0-2.342-.007-3.514a.881.881,0,0,1-.188-.572q-.031-1.5,0-3A.882.882,0,0,1,1083.44,352.152Z" transform="translate(-257.202 0)" fill="#f6c334"/>
        <path id="Trazado_166970" data-name="Trazado 166970" d="M780.455,672.689l-.022,4.14c-3.992,0-7.984-.007-11.975.011-.382,0-.46-.076-.458-.458.018-3.992.011-7.983.011-11.975,3.928,0,7.856.009,11.783-.012.506,0,.67.111.653.64-.037,1.169,0,2.342.008,3.513a.883.883,0,0,1,.187.571q.031,1.5,0,3A.884.884,0,0,1,780.455,672.689Z" transform="translate(0 -258.147)" fill="#f1c95c"/>
        <path id="Trazado_166971" data-name="Trazado 166971" d="M1083.462,676.827q-.011-2.07-.021-4.14a.882.882,0,0,1-.188-.572q-.031-1.5,0-3a.881.881,0,0,1,.188-.572c.007-1.171.045-2.344.007-3.513-.017-.527.143-.642.65-.639,3.929.022,7.858.012,11.786.012,0,3.98-.008,7.96.012,11.939,0,.412-.083.5-.495.495C1091.421,676.819,1087.442,676.827,1083.462,676.827Z" transform="translate(-257.202 -258.145)" fill="#f6c334"/>
        <path id="Trazado_166972" data-name="Trazado 166972" d="M930.347,360.508c-1.171-.007-2.343-.045-3.513-.008-.528.017-.642-.147-.64-.653.021-3.928.012-7.856.012-11.783h6.211a1.263,1.263,0,0,1,.222.915q.007,5.313,0,10.625a1.44,1.44,0,0,1-.174.865A2.4,2.4,0,0,1,930.347,360.508Z" transform="translate(-129.071 -0.052)" fill="#f1c95c"/>
        <path id="Trazado_166973" data-name="Trazado 166973" d="M960,360.462l0-12.4h6.211c0,3.929-.01,7.857.012,11.786,0,.507-.111.667-.639.65-1.17-.037-2.342,0-3.513.007a2.791,2.791,0,0,1-1.984.052Z" transform="translate(-156.651 -0.052)" fill="#f6c334"/>
        <path id="Trazado_166974" data-name="Trazado 166974" d="M926.207,675.788c0-3.928.009-7.855-.012-11.783,0-.506.111-.669.64-.653,1.17.037,2.341,0,3.513-.008a2.455,2.455,0,0,1,2.108.027,1.245,1.245,0,0,1,.183.788q.013,5.393,0,10.787a1.164,1.164,0,0,1-.221.843Z" transform="translate(-129.071 -257.106)" fill="#f1c95c"/>
        <path id="Trazado_166975" data-name="Trazado 166975" d="M960,675.865l0-12.4.084-.1a2.785,2.785,0,0,1,1.984.051c1.171.007,2.344.045,3.513.007.527-.017.642.143.639.65-.022,3.929-.012,7.857-.012,11.786Z" transform="translate(-156.651 -257.183)" fill="#f6c334"/>
        <path id="Trazado_166976" data-name="Trazado 166976" d="M805.719,441.565c1.284-.492,2.469-1.2,3.758-1.689a30.038,30.038,0,0,1,7.2-1.914c.5-.058,1-.128,1.5-.144a1.86,1.86,0,0,1,2.086-.085,1.157,1.157,0,0,1,.153.659q.016,3.464,0,6.928a1.533,1.533,0,0,1-.07.472c-.135.35-.448.344-.747.371a10.325,10.325,0,0,0-8.259,5.17,10.22,10.22,0,0,0,1.332,11.8,10.557,10.557,0,0,0,7.033,3.381c.257.02.51.055.629.339a3.134,3.134,0,0,1,.088,1.022q0,3.021,0,6.041a1.936,1.936,0,0,1-.147,1.006,1.83,1.83,0,0,1-2.1-.072,28.012,28.012,0,0,1-9.393-2.354c-1.032-.437-2.042-.926-3.063-1.391a4.85,4.85,0,0,1-1.9-.921,8.1,8.1,0,0,1-2.248-1.55l-2.722-2.063c-1.149-.87-2.221-1.829-3.3-2.782-1.034-.911-2.032-1.859-2.971-2.862-1.312-1.4-2.588-2.838-3.8-4.33a.344.344,0,0,1,0-.527,62.831,62.831,0,0,1,6.046-6.565,50.217,50.217,0,0,1,6.632-5.3c.052-.034.076-.112.113-.17a7.622,7.622,0,0,1,2.189-1.514A5.021,5.021,0,0,1,805.719,441.565Z" transform="translate(-16.855 -72.987)" fill="#f2f4f8"/>
        <path id="Trazado_166977" data-name="Trazado 166977" d="M844.065,386.979l-4.146,2.469c0-4.656-.021-9.312.013-13.967.005-.692-.2-.832-.836-.8-1.144.054-2.293.016-3.44.016q0-2.071,0-4.142h7.372c1.026,0,1.025,0,1.026.992Q844.059,379.263,844.065,386.979Z" transform="translate(-55.201 -18.402)" fill="#4d5e80"/>
        <path id="Trazado_166978" data-name="Trazado 166978" d="M839.919,606.806l4.146,2.471q-.006,7.716-.011,15.433c0,.992,0,.992-1.026.992h-7.372q0-2.071,0-4.142c1.147,0,2.3-.039,3.44.016.64.03.841-.11.836-.8C839.9,616.118,839.917,611.462,839.919,606.806Z" transform="translate(-55.201 -211.16)" fill="#4d5e7f"/>
        <path id="Trazado_166979" data-name="Trazado 166979" d="M960.011,446.018q0-4.115,0-8.23l.083-.1a2.624,2.624,0,0,1,1.98.068,15.155,15.155,0,0,0,2.476.393,31.384,31.384,0,0,1,7.4,2.271c.862.375,1.7.8,2.551,1.2a.266.266,0,0,1,.263-.016,25.233,25.233,0,0,1,3.7,2.258.93.93,0,0,1,.164.22c1.369,1.072,2.815,2.04,4.134,3.179a58.9,58.9,0,0,1,5.806,5.566c.939,1.066,1.886,2.123,2.791,3.219.224.271.223.411,0,.684a62.11,62.11,0,0,1-5.863,6.38,54.691,54.691,0,0,1-6.329,5.164c-.187.128-.358.28-.537.422a4.014,4.014,0,0,1-1.242.965c-.773.542-1.63.946-2.437,1.432a.422.422,0,0,1-.452.065,35.524,35.524,0,0,1-9.406,3.381c-.828.157-1.671.236-2.507.344-.178.023-.373-.03-.508.142a3,3,0,0,1-1.88.124.371.371,0,0,1-.183-.153q0-4.115,0-8.23l.065-.086a5.76,5.76,0,0,1,1.49-.216,10.194,10.194,0,0,0-.821-20.245,1.312,1.312,0,0,1-.67-.121Z" transform="translate(-156.662 -73.049)" fill="#d7dfef"/>
        <path id="Trazado_166980" data-name="Trazado 166980" d="M1038.653,609.309l4.132-2.462c0,4.679.017,9.357,0,14.036,0,.546.089.755.693.727,1.19-.055,2.384-.016,3.577-.017v4.142c-2.527,0-5.054-.035-7.58.021-.734.016-.836-.218-.833-.872C1038.667,619.692,1038.654,614.5,1038.653,609.309Z" transform="translate(-220.816 -211.194)" fill="#3d4b66"/>
        <path id="Trazado_166981" data-name="Trazado 166981" d="M1042.8,389.36l-4.13-2.462c0-5.215.01-10.429-.011-15.644,0-.592.1-.812.762-.8,2.549.045,5.1.018,7.649.017v4.142c-1.193,0-2.387.038-3.577-.017-.6-.028-.7.181-.693.727C1042.813,380,1042.8,384.682,1042.8,389.36Z" transform="translate(-220.827 -18.321)" fill="#3d4b66"/>
        <path id="Trazado_166982" data-name="Trazado 166982" d="M948.794,640.568a7.933,7.933,0,0,0,2.032.093l-.012.054a.521.521,0,0,1,.185.359,30.318,30.318,0,0,1,0,3.507.523.523,0,0,1-.184.36l.008.051-2.074-.046Q948.771,642.756,948.794,640.568Z" transform="translate(-147.474 -238.707)" fill="#4d5e80"/>
        <path id="Trazado_166983" data-name="Trazado 166983" d="M950.826,419.739a7.912,7.912,0,0,0-2.031.092q-.023-2.188-.046-4.375l2.074-.046-.008.05a.523.523,0,0,1,.184.36,30.318,30.318,0,0,1,0,3.507.522.522,0,0,1-.185.359Z" transform="translate(-147.474 -54.999)" fill="#4d5e80"/>
        <path id="Trazado_166984" data-name="Trazado 166984" d="M959.963,645.479q0-2.113,0-4.226l2.076-.025q0,2.127,0,4.255Z" transform="translate(-156.622 -239.246)" fill="#3d4b66"/>
        <path id="Trazado_166985" data-name="Trazado 166985" d="M959.962,419.888q0-2.113,0-4.226l2.076,0q0,2.127,0,4.255Z" transform="translate(-156.622 -55.202)" fill="#3d4b66"/>
        <path id="Trazado_166986" data-name="Trazado 166986" d="M914.143,504.387a10.372,10.372,0,0,1-7.253-17.753,10.655,10.655,0,0,1,7.253-3l-.006.051a1.061,1.061,0,0,1,.222.834q.013,3.285,0,6.571a1.535,1.535,0,0,1-.144.8c-.328.349-.766.266-1.165.254-.548-.015-.8.174-.778.754.03.709,0,1.421.009,2.132.008.792.043.817.878.846.36.013.743-.056,1.04.24a1.677,1.677,0,0,1,.161.934q.007,3.157,0,6.315a1.253,1.253,0,0,1-.223.974Z" transform="translate(-110.794 -110.663)" fill="#7f8198"/>
        <path id="Trazado_166987" data-name="Trazado 166987" d="M959.977,504.536q0-4.114.009-8.227l.071-.091a2.484,2.484,0,0,1,1.207-.137c.393-.011.585-.172.585-.577,0-.843-.007-1.686,0-2.529.006-.478-.227-.644-.673-.636a3.013,3.013,0,0,1-1.018-.075.359.359,0,0,1-.174-.152q0-4.114-.009-8.228a9.646,9.646,0,0,1,6.482,2.242,9.991,9.991,0,0,1,3.824,6.845,10.35,10.35,0,0,1-10.306,11.564Z" transform="translate(-156.634 -110.864)" fill="#242ca3"/>
        <path id="Trazado_166988" data-name="Trazado 166988" d="M950.806,532.8c-.547-.01-1.094-.034-1.641-.023-.321.006-.443-.1-.439-.433q.021-1.643,0-3.286c0-.328.118-.439.439-.433.547.01,1.094-.014,1.641-.023l-.01.055a.6.6,0,0,1,.2.428q.074,1.616,0,3.232a.6.6,0,0,1-.2.428Z" transform="translate(-147.455 -147.353)" fill="#4d5e7f"/>
        <path id="Trazado_166989" data-name="Trazado 166989" d="M959.969,532.781v-4.088c2.076-.128,2.076-.128,2.076,1.907,0,.594-.014,1.188,0,1.781.01.329-.116.445-.438.43C961.064,532.787,960.516,532.79,959.969,532.781Z" transform="translate(-156.628 -147.39)" fill="#3d4b66"/>
      </g>
    </g>
  </g>
</svg>
