<svg xmlns="http://www.w3.org/2000/svg" width="88" height="88" viewBox="0 0 88 88">
  <g id="Grupo_124165" data-name="Grupo 124165" transform="translate(3704 7392.61)">
    <g id="Grupo_123813" data-name="Grupo 123813" transform="translate(-3704 -7392.61)">
      <g id="Elipse_6765" data-name="Elipse 6765" fill="#fff" stroke="#2631a0" stroke-width="4">
        <circle cx="44" cy="44" r="44" stroke="none"/>
        <circle cx="44" cy="44" r="42" fill="none"/>
      </g>
      <g id="Grupo_123812" data-name="Grupo 123812" transform="translate(19.264 19.308)">
        <path id="Trazado_170142" data-name="Trazado 170142" d="M769.343,435.893c-.709-.047-1.011-.559-1.272-1.116V399.994a1.836,1.836,0,0,1,1.949-1.132c2.734.047,5.469.028,8.2.034,0,.216-.2.246-.318.341a1.379,1.379,0,0,0,.226,2.41c.121.065.592.089.117.373a3.4,3.4,0,0,1-.8.046c-1.859,0-3.719,0-5.578,0-.546,0-.6.067-.616.609-.005.167,0,.335,0,.5v28.6c0,.084,0,.167,0,.251,0,.746.025.773.752.773,4,0,8.01.08,12.011-.025,3.066-.081,6.129-.026,9.193-.074.2,0,.4,0,.6.013.3-.026.6-.014.9-.014q10.437,0,20.874,0a1.467,1.467,0,0,1,.925.136c.035.264-.184.237-.328.265a3.656,3.656,0,0,1-.7.024H794.913c-.941,0-.941,0-.942.932,0,.435,0,.87,0,1.3a.964.964,0,0,1-.142.623,1.036,1.036,0,0,1-.717.154q-4.6.006-9.208,0a1.342,1.342,0,0,1-.637-.1c-.178-.187-.409-.116-.618-.116q-6.377-.005-12.754,0A1.42,1.42,0,0,1,769.343,435.893Z" transform="translate(-768.071 -393.576)" fill="#6065af"/>
        <path id="Trazado_170143" data-name="Trazado 170143" d="M959.924,435.9c0-.837.027-1.675,0-2.511-.014-.407.124-.506.514-.5,3.048.016,6.1.013,9.143.014q6.254,0,12.509,0c.188,0,.406.091.561-.107a1.309,1.309,0,0,1-.158-.918q-.006-9.422,0-18.845,0-5,0-10c0-.167-.009-.335,0-.5.017-.389-.173-.533-.548-.531-1.005.005-2.01.01-3.015,0a6.358,6.358,0,0,1-1.5-.063c-.2-.09-.219-.278-.232-.463a4.854,4.854,0,0,1-.006-.7,1.656,1.656,0,0,0-.735-1.7.237.237,0,0,1-.133-.249l6.057-.027c.467,0,.937.028,1.4-.006a1.694,1.694,0,0,1,1.891,1.136V434.8a1.927,1.927,0,0,1-1.98,1.111c-4.368-.027-8.735-.008-13.1-.006a.619.619,0,0,1-.168.106,2.162,2.162,0,0,1-.7.056q-4.468,0-8.937,0a1.617,1.617,0,0,1-.788-.1Z" transform="translate(-934.195 -393.501)" fill="#242ca3"/>
        <path id="Trazado_170144" data-name="Trazado 170144" d="M975.306,364.786a1.773,1.773,0,0,1,1.015,1.935,9.069,9.069,0,0,0,.008,1.1.857.857,0,0,1,.134.621c0,2.759.008,5.518,0,8.278a1.66,1.66,0,1,1-3.312,0c-.017-2.475,0-4.95-.007-7.425,0-.653-.038-.68-.648-.481-.7.229-1.395.469-2.095.694-3.23,1.041-6.441,2.144-9.664,3.209-.413.137-.83.261-1.25.37-.245.063-.5.115-.66-.179a2.018,2.018,0,0,1-.068-.7q0-5.964,0-11.928c0-.277-.056-.575.165-.811a25.372,25.372,0,0,1,3.342,1.024c4.077,1.343,8.145,2.711,12.218,4.067C974.753,364.655,975.032,364.713,975.306,364.786Z" transform="translate(-933.184 -359.471)" fill="#febf10"/>
        <path id="Trazado_170145" data-name="Trazado 170145" d="M852.49,359.45l0,13.55-.056.056a.977.977,0,0,1-.775-.075c-3.2-1.122-6.411-2.219-9.605-3.363-.315-.113-.633-.215-.951-.318-1.176-.432-2.365-.826-3.542-1.254-.17-.062-.359-.1-.451-.286a1.552,1.552,0,0,1-1.191-1.08,1.536,1.536,0,0,1,.987-1.913q3.717-1.283,7.433-2.566,3.74-1.295,7.477-2.595A1.559,1.559,0,0,1,852.49,359.45Z" transform="translate(-826.75 -359.446)" fill="#f9e424"/>
        <path id="Trazado_170146" data-name="Trazado 170146" d="M777.558,674.95l13.51-.009c.147,0,.307-.031.413.118.209.263.136.575.143.869.012.484.011.969,0,1.453-.006.359.145.516.505.513.518,0,1.036,0,1.553,0q3.758,0,7.517,0a1.311,1.311,0,0,1,.824.139.6.6,0,0,1,.144.415c.022.731.019,1.461,0,2.192a.542.542,0,0,1-.147.411l-10.143.015q-2.41,0-4.821,0a1.517,1.517,0,1,1-.023-3.014c1.306,0,2.611-.012,3.917.007.345,0,.468-.087.455-.445-.026-.7-.032-1.407,0-2.108.02-.411-.127-.5-.511-.5q-6.377.019-12.755.005A1.015,1.015,0,0,1,777.558,674.95Z" transform="translate(-776.286 -632.633)" fill="#6065af"/>
        <path id="Trazado_170147" data-name="Trazado 170147" d="M959.962,681.706l-.01-2.991.07-.068a1.757,1.757,0,0,1,.839-.1q4.345,0,8.691,0c.8,0,.8,0,.8-.818,0-.469,0-.938,0-1.406a.891.891,0,0,1,.143-.621l.112-.01c0,.871.01,1.743-.018,2.613-.011.349.12.41.431.407,1.307-.015,2.614-.009,3.921-.005a1.519,1.519,0,1,1,0,3.018H960.362C960.229,681.724,960.1,681.712,959.962,681.706Z" transform="translate(-934.222 -633.286)" fill="#242ca3"/>
        <path id="Trazado_170148" data-name="Trazado 170148" d="M797.843,421.385l4.02,1.421a.929.929,0,0,1,.137.672c0,1.675,0,3.35,0,5.025,0,1.106.229,1.472,1.25,1.863,3.206,1.228,6.393,2.506,9.622,3.673a.645.645,0,0,1,.438.307,21.148,21.148,0,0,1,.062,2.9,4.187,4.187,0,0,1-.085,1.489c-.2.252-.479.2-.739.2-1.688.007-3.376,0-5.063,0a1.884,1.884,0,0,0-.878.16,1.309,1.309,0,0,0-.767,1.3,1.246,1.246,0,0,0,.82,1.156c.138.061.283.1.426.149a1.722,1.722,0,0,0,.645.063c1.62,0,3.239,0,4.859,0,.686,0,.8.1.784.782a8.858,8.858,0,0,1-.091,2.239c-.207.234-.49.182-.751.183-1.573.007-3.146,0-4.72,0a3.481,3.481,0,0,0-.9.081,1.341,1.341,0,0,0-1.069,1.435,1.3,1.3,0,0,0,1.329,1.185c1.724.027,3.448,0,5.171.012a1.6,1.6,0,0,1,.883.118.448.448,0,0,1,.1.165c.108,1.34.041,2.682.037,4.024a.512.512,0,0,1-.146.361c-.133.011-.266.031-.4.031q-10.88.029-21.76.067c-.475,0-.57-.14-.57-.586q.018-14.953,0-29.906c0-.442.089-.592.566-.586C793.32,421.4,795.581,421.386,797.843,421.385Z" transform="translate(-787.486 -413.072)" fill="#ebf3fe"/>
        <path id="Trazado_170149" data-name="Trazado 170149" d="M919.737,452.468l.007-4.43a1.3,1.3,0,0,1,.873-.139q8.215-.006,16.429,0a4.937,4.937,0,0,0,.9-.046,1.365,1.365,0,0,0,.232-2.7,2.079,2.079,0,0,0-.8-.073q-8.416,0-16.831,0c-.276,0-.575.08-.816-.142,0-.8-.017-1.6.009-2.406.013-.387-.093-.52-.5-.515-1.737.022-3.475.011-5.213.007-.178,0-.37.058-.528-.084a.648.648,0,0,1,.553-.172c1.885,0,3.77-.023,5.655.009,3.166-.022,6.332-.006,9.5-.009q4.071,0,8.142,0a6.068,6.068,0,0,0,.653-.016,1.337,1.337,0,0,0,1.252-1.28,1.4,1.4,0,0,0-1.223-1.378,5.476,5.476,0,0,0-.753-.022q-8.293,0-16.586,0a1.818,1.818,0,0,1-.889-.1l-.066-.072q0-2.248-.006-4.5a.644.644,0,0,1,.338-.221c3.283-1.212,6.535-2.5,9.809-3.737a1.54,1.54,0,0,0,1.079-1.621c-.014-1.674-.006-3.349,0-5.023a.937.937,0,0,1,.135-.672l3.028-1.048c0,.689,0,1.306,0,1.922,0,2.194-.009,4.389,0,6.583a1.5,1.5,0,0,0,1.237,1.49,1.513,1.513,0,0,0,1.712-.992,2.113,2.113,0,0,0,.077-.744q0-4.4,0-8.795c1.673-.009,3.346-.016,5.019-.031.211,0,.317.061.292.284a1.776,1.776,0,0,0,0,.2q0,15.24,0,30.48a2.455,2.455,0,0,1-.249.024Z" transform="translate(-894.003 -413.183)" fill="#d4e6fc"/>
        <path id="Trazado_170150" data-name="Trazado 170150" d="M891.812,678.671c-3.328,0-6.655-.012-9.983,0-.429,0-.59-.089-.567-.549.04-.817.014-1.638.015-2.457l7.925-.02,2.608-.007.013.013a.539.539,0,0,1,.142.362q.037,1.14,0,2.28a.53.53,0,0,1-.14.362Z" transform="translate(-866.082 -633.242)" fill="#6065af"/>
        <path id="Trazado_170151" data-name="Trazado 170151" d="M960.036,678.741q0-1.5,0-3l10.535,0c0,.854-.01,1.707.015,2.56.01.354-.107.455-.456.453C966.763,678.741,963.4,678.743,960.036,678.741Z" transform="translate(-934.292 -633.325)" fill="#242ca3"/>
        <path id="Trazado_170152" data-name="Trazado 170152" d="M970.293,433.535q0,2.937,0,5.875a1.459,1.459,0,0,1-.977,1.487q-4.906,1.891-9.821,3.76a1.4,1.4,0,0,1-.245.047c-.246.1-.384,0-.442-.241a1.927,1.927,0,0,1-.037-.449q0-3.088,0-6.176a.922.922,0,0,1,.149-.669l.014-.014a4.123,4.123,0,0,0,1.5-.353Q965.367,435.181,970.293,433.535Z" transform="translate(-933.2 -423.6)" fill="#febf10"/>
        <path id="Trazado_170153" data-name="Trazado 170153" d="M886.638,435.873q.006,3.527.013,7.054c0,.23-.054.5.316.482-.086.095-.206.087-.318.106-2.077-.644-4.068-1.521-6.1-2.277-1.362-.506-2.715-1.038-4.071-1.562a1.576,1.576,0,0,1-1.18-1.711q-.005-2.962,0-5.925l7.926,2.759,2.687.935A2.021,2.021,0,0,0,886.638,435.873Z" transform="translate(-860.914 -422.306)" fill="#f9e424"/>
        <path id="Trazado_170154" data-name="Trazado 170154" d="M817.663,560.351c-.971,0-1.941.007-2.912,0a1.506,1.506,0,0,1-1.624-1.633q-.013-2.886,0-5.773a1.545,1.545,0,0,1,1.67-1.655c1.874,0,3.748,0,5.623,0a1.584,1.584,0,0,1,1.806,1.778c.019,1.071,0,2.142,0,3.213,0,.787.014,1.573,0,2.359a1.543,1.543,0,0,1-1.752,1.714C819.538,560.354,818.6,560.351,817.663,560.351Z" transform="translate(-807.081 -525.561)" fill="#fb6283"/>
        <path id="Trazado_170155" data-name="Trazado 170155" d="M977.422,596.575a1.478,1.478,0,0,1,1.195,1.408,1.532,1.532,0,0,1-1.11,1.5,3.4,3.4,0,0,1-.9.091q-8.543,0-17.085,0c-.2,0-.4.006-.6.01a.379.379,0,0,1-.013-.068.954.954,0,0,1-.156-.62c0-.552-.008-1.1,0-1.656.01-.668.053-.707.711-.707q8.154,0,16.308,0A9.108,9.108,0,0,1,977.422,596.575Z" transform="translate(-933.181 -564.728)" fill="#12263f"/>
        <path id="Trazado_170156" data-name="Trazado 170156" d="M929.726,596.3c-5.959,0-11.918.009-17.877-.008-.508,0-.669.121-.639.637.044.767.007,1.539.005,2.309-1.993,0-3.986.014-5.979,0a1.478,1.478,0,0,1-1.568-1.475,1.5,1.5,0,0,1,1.577-1.531c1.809-.017,3.617,0,5.426-.007.183,0,.366-.02.549-.03q8.938.005,17.876.014C929.307,596.214,929.534,596.145,929.726,596.3Z" transform="translate(-885.486 -564.452)" fill="#2b415d"/>
        <path id="Trazado_170157" data-name="Trazado 170157" d="M911.187,554.158l-6.235.026a1.534,1.534,0,0,1-1.309-1.724,1.559,1.559,0,0,1,1.741-1.3l5.806-.022-.011.04a.324.324,0,0,1,.124.212,16.014,16.014,0,0,1,0,2.551A.37.37,0,0,1,911.187,554.158Z" transform="translate(-885.45 -525.434)" fill="#2b415d"/>
        <path id="Trazado_170158" data-name="Trazado 170158" d="M959.954,554.259q0-1.49-.008-2.979c.1-.008.2-.023.3-.023h17.831a1.487,1.487,0,0,1,1.389.822,1.409,1.409,0,0,1-.1,1.56,1.385,1.385,0,0,1-1.085.635c-.2.016-.4.012-.6.012q-8.564,0-17.128,0C960.354,554.283,960.154,554.267,959.954,554.259Z" transform="translate(-934.217 -525.535)" fill="#12263f"/>
      </g>
    </g>
  </g>
</svg>
