<svg xmlns="http://www.w3.org/2000/svg" width="124" height="124" viewBox="0 0 124 124">
  <g id="Grupo_123948" data-name="Grupo 123948" transform="translate(-738 -8068.327)">
    <g id="Grupo_123761" data-name="Grupo 123761" transform="translate(0 -29.464)">
      <g id="Elipse_6018" data-name="Elipse 6018" transform="translate(738 8097.791)" fill="#fff" stroke="#2631a0" stroke-width="4">
        <circle cx="62" cy="62" r="62" stroke="none"/>
        <circle cx="62" cy="62" r="60" fill="none"/>
      </g>
      <g id="Grupo_119183" data-name="Grupo 119183" transform="translate(7.904 7787.277)">
        <path id="Trazado_165458" data-name="Trazado 165458" d="M801.546,444.944H755.907a.616.616,0,0,1-.358-.639c.012-.166,0-.333,0-.5v-62.6c0-1.312.149-1.467,1.473-1.468q11.047-.006,22.094,0a1.862,1.862,0,0,1,1.106.181c.262.3.047.544-.115.756a31.232,31.232,0,0,0-2.485,3.736,1.556,1.556,0,0,1-1.512.75h-6.061q-3.636,0-7.273,0a4.412,4.412,0,0,0-.712.029.649.649,0,0,0-.581.546.693.693,0,0,0,.361.784,2.3,2.3,0,0,0,1.178.212q5.918,0,11.836,0c1.476,0,1.591.164,1.145,1.57-.542,1.706-.542,1.707-2.316,1.707q-5.383,0-10.767,0c-1.061,0-1.429.2-1.441.757s.442.811,1.489.813q5.2.006,10.41,0c.262,0,.523-.009.784.013.754.063.979.31.9,1.048-.04.38-.034.759-.056,1.138-.046.82-.26,1.029-1.1,1.072-.261.013-.523.007-.784.007q-5.062,0-10.125,0a2.35,2.35,0,0,0-1.112.188.7.7,0,0,0-.415.757.666.666,0,0,0,.558.574,3.285,3.285,0,0,0,.852.051q5.17,0,10.339,0c.261,0,.523-.009.784.012.711.057.915.246,1,.952a24.938,24.938,0,0,0,1.415,6.019c.371.954.8,1.878,1.256,2.794.154.311.393.616.159.994a1.44,1.44,0,0,1-.952.214c-.523.008-1.045-.008-1.568.012a.8.8,0,0,0-.859.843c-.015.261-.012.523-.012.784q0,14.473,0,28.947c0,1.508,0,1.5,1.5,1.512.878.006,1.758-.051,2.635.043.947-.093,1.9-.034,2.844-.044,1.265-.012,1.283-.02,1.284-1.264q0-10.463.007-20.927a25.715,25.715,0,0,1,.083-3.833c.29-.541.647-.237.933-.03a24.814,24.814,0,0,0,2.763,1.842c.436.234.857.494,1.311.7a.972.972,0,0,1,.679.75,3.769,3.769,0,0,1,.077,1.135q0,9.982,0,19.965c0,.285,0,.57.006.855,0,.565.286.8.845.81,1.092.014,2.186-.057,3.276.044,1-.093,2-.03,2.993-.045,1.054-.016,1.141-.088,1.142-1.139q.007-9.272,0-18.545a2.2,2.2,0,0,1,.178-1.252c.41-.418.95-.21,1.423-.259.964-.1,1.941-.066,2.9-.218a.759.759,0,0,1,.727.183,1.557,1.557,0,0,1,.19.961q0,12.115,0,24.231C802.258,444.075,802.291,444.7,801.546,444.944Z" transform="translate(0 -35.919)" fill="#d2c9c9"/>
        <path id="Trazado_165461" data-name="Trazado 165461" d="M1091.589,565.16c-.749,1.4-1.563,1.865-2.734,1.589a2.021,2.021,0,0,1-.986-.54q-6.065-6.074-12.121-12.155c-.122-.408.193-.606.429-.8a14.7,14.7,0,0,0,1.949-1.925c.184-.222.386-.507.756-.286q3.3,3.281,6.6,6.562c1.646,1.639,3.279,3.291,4.931,4.923a4.519,4.519,0,0,1,1.173,1.635Z" transform="translate(-262.945 -176.537)" fill="#484b63"/>
        <path id="Trazado_165462" data-name="Trazado 165462" d="M841.481,374.5c-.554.081-.7.607-1,.951a28.945,28.945,0,0,0-2.139,2.062,3.773,3.773,0,0,0-1.057.7,23.471,23.471,0,0,1-9.766,4.156,28.04,28.04,0,0,1-4.842.322,1.209,1.209,0,0,1-.8.206,15.742,15.742,0,0,1-3.607-.557,23.657,23.657,0,0,1-3.643-1.127,1.392,1.392,0,0,1-.776-.582,31.089,31.089,0,0,1-5.267-3.29,6.565,6.565,0,0,1-2.107-1.726,31.842,31.842,0,0,1-2.462-3.024c-.22-.436-.652-.778-.6-1.337a24.353,24.353,0,0,1-2.744-7.217,21.2,21.2,0,0,1-.378-2.6c-.034-.519-.215-.617-.683-.615-3.778.016-7.555.009-11.333.009-1.124,0-1.621-.317-1.632-1.037-.011-.741.533-1.1,1.666-1.1,3.706,0,7.413-.019,11.119.017.676.006.873-.213.836-.841a4.314,4.314,0,0,1,.091-1.2c.128-.556,0-.731-.6-.727-3.825.026-7.65.015-11.475.011a3.45,3.45,0,0,1-.846-.068.964.964,0,0,1-.772-1.054.986.986,0,0,1,.868-.984,3.885,3.885,0,0,1,.71-.03c3.991,0,7.983-.009,11.974.009.485,0,.727-.1.811-.623a6.26,6.26,0,0,1,.47-1.489c.248-.567.063-.659-.486-.657-4.229.018-8.458.012-12.687.006a3.753,3.753,0,0,1-.916-.091,1.032,1.032,0,0,1,.153-2.015,6.869,6.869,0,0,1,.782-.029c4.443,0,8.886-.016,13.328.015a1.3,1.3,0,0,0,1.392-.777,23.848,23.848,0,0,1,2.753-4.055,24.571,24.571,0,0,1,6.392-5.17,23.048,23.048,0,0,1,14.435-2.713,23.317,23.317,0,0,1,19.981,19.763,23.009,23.009,0,0,1-3.379,15.88c-.464.744-1.011,1.435-1.52,2.151C841.62,374.165,841.444,374.281,841.481,374.5Z" transform="translate(-25.544)" fill="#50536e"/>
        <path id="Trazado_165463" data-name="Trazado 165463" d="M863.5,533.225l.732,1.188a3.837,3.837,0,0,1,.272,1.528q-.01,14.316-.008,28.631c0,.442.088.914-.286,1.278-1.211.006-2.422,0-3.632.023-.515.008-.733-.259-.764-.732-.012-.189-.005-.38-.005-.57q0-15,0-30c0-1.217.13-1.346,1.341-1.348Q862.323,533.222,863.5,533.225Z" transform="translate(-85.623 -161.969)" fill="#fed559"/>
        <path id="Trazado_165464" data-name="Trazado 165464" d="M884.438,571.316q0-15.326,0-30.653c0-.261.014-.522.022-.784a32.43,32.43,0,0,0,4.433,4.9q-.009,6.371-.018,12.741,0,6.407,0,12.813c0,.937-.078,1.016-1.021,1.014C886.713,571.344,885.575,571.327,884.438,571.316Z" transform="translate(-105.852 -167.435)" fill="#febc54"/>
        <path id="Trazado_165465" data-name="Trazado 165465" d="M805.832,582.568c1.186-.01,2.372-.016,3.557-.031.541-.007.776.273.782.788q0,.249,0,.5,0,10.646,0,21.292c0,1.24-.035,1.279-1.275,1.272-1.067-.006-2.133-.027-3.2-.041a1.14,1.14,0,0,1-.291-.92q-.006-10.939,0-21.877C805.412,583.169,805.41,582.774,805.832,582.568Z" transform="translate(-40.947 -202.469)" fill="#e52753"/>
        <path id="Trazado_165466" data-name="Trazado 165466" d="M787.1,582.663a1.553,1.553,0,0,0-.133.9q0,11.439,0,22.878c-1.209.008-2.419.01-3.628.027a.637.637,0,0,1-.729-.68c-.013-.213-.013-.427-.013-.64q0-10.608,0-21.217c0-1.2.087-1.281,1.3-1.28C784.963,582.654,786.03,582.66,787.1,582.663Z" transform="translate(-22.213 -202.564)" fill="#fe2c5c"/>
        <path id="Trazado_165467" data-name="Trazado 165467" d="M938.773,585.7a29.625,29.625,0,0,0,4.39,1.466,1.46,1.46,0,0,1,.3,1q0,9.931,0,19.862a1.157,1.157,0,0,1-.286.922c-1.212.006-2.424,0-3.636.021a.678.678,0,0,1-.77-.728c-.005-.071,0-.143,0-.214Q938.767,596.861,938.773,585.7Z" transform="translate(-150.467 -205.065)" fill="#4fc5f4"/>
        <path id="Trazado_165468" data-name="Trazado 165468" d="M963.4,615.681q0-10.891-.008-21.782a25.659,25.659,0,0,0,4.44.594q0,10.016-.009,20.032c0,1.156-.031,1.189-1.217,1.185C965.535,615.706,964.467,615.691,963.4,615.681Z" transform="translate(-170.693 -211.8)" fill="#3bb2e2"/>
        <path id="Trazado_165469" data-name="Trazado 165469" d="M791.858,490.495c1.282,0,2.565-.009,3.847,0,.808.008,1.269.386,1.288,1.018.02.66-.451,1.106-1.289,1.112q-3.882.028-7.765,0c-.826-.006-1.313-.463-1.291-1.113s.476-1.009,1.292-1.017C789.246,490.486,790.552,490.495,791.858,490.495Z" transform="translate(-25.542 -126.876)" fill="#50536e"/>
        <path id="Trazado_165470" data-name="Trazado 165470" d="M903.693,398.841a17.82,17.82,0,0,1-9.715-4.2,18.221,18.221,0,0,1-6.661-12.346,18.915,18.915,0,0,1,16.888-21.02,13.487,13.487,0,0,1,6.179,1.716,18.941,18.941,0,0,1,8.122,7.863,19.2,19.2,0,0,1-12.482,27.944A7.24,7.24,0,0,1,903.693,398.841Z" transform="translate(-108.112 -20.752)" fill="#8ac9fe"/>
        <path id="Trazado_165471" data-name="Trazado 165471" d="M979.525,398.189a16.832,16.832,0,0,0,9.643-3.8,18.481,18.481,0,0,0,6.9-11.065,18.837,18.837,0,0,0-1.223-11.548,18.2,18.2,0,0,0-3.762-5.572,18.524,18.524,0,0,0-10.354-5.418c-.233-.04-.46-.11-.69-.165a15.841,15.841,0,0,1,4.743.08,18.721,18.721,0,0,1,11.608,6.476,18.945,18.945,0,0,1-11.564,31A14.552,14.552,0,0,1,979.525,398.189Z" transform="translate(-183.944 -20.1)" fill="#8ac9fe"/>
      </g>
    </g>
  </g>
</svg>
