<svg xmlns="http://www.w3.org/2000/svg" width="171.06" height="171.06" viewBox="0 0 171.06 171.06">
  <g id="Grupo_124196" data-name="Grupo 124196" transform="translate(-8950.646 10922.996)">
    <g id="Grupo_123842" data-name="Grupo 123842" transform="translate(8615 -12073.023)">
      <circle id="Elipse_6004" data-name="Elipse 6004" cx="85.53" cy="85.53" r="85.53" transform="translate(335.646 1150.027)" fill="#fff"/>
      <g id="Grupo_123463" data-name="Grupo 123463" transform="translate(-374.833 859.79)" opacity="0.86">
        <path id="Trazado_167058" data-name="Trazado 167058" d="M778.835,660.133c.013,1.55.054,3.1.025,4.651-.011.592.179.743.748.733,1.86-.033,3.72-.017,5.58-.011,2.183.007,3.239,1.059,3.244,3.225,0,1.448-.06,2.9.016,4.344a3.071,3.071,0,0,1-2.214,3.438h-12.9a1.655,1.655,0,0,1-.246-1.184c-.006-2.791,0-5.582-.005-8.373,0-1.046-.04-1.077-1.1-1.083-.7,0-1.394.01-2.091-.007a1.142,1.142,0,0,1-.937-.26,36.15,36.15,0,0,1,4.377-.113c.925-.021,1.85-.016,2.775-.022.505-.381,1.095-.227,1.649-.232s.784-.236.779-.791c-.011-1.11-.016-2.22,0-3.33C778.55,660.77,778.461,660.377,778.835,660.133Z" transform="translate(-10.305 -260.966)" fill="#fe5364"/>
        <path id="Trazado_167059" data-name="Trazado 167059" d="M1064.4,686.415a35.907,35.907,0,0,1,4.38-.107c1.363-.024,2.726-.018,4.089-.025a3.414,3.414,0,0,1,2.75,0c1.6.012,3.192.028,4.789.034,2,.007,2.751.5,3.447,2.3v6.69a2.4,2.4,0,0,1-2.176,2.022h-12.9a1.658,1.658,0,0,1-.246-1.185c-.006-2.793,0-5.586,0-8.378,0-1.043-.037-1.071-1.1-1.077-.7,0-1.4.01-2.092-.007C1065.008,686.67,1064.657,686.706,1064.4,686.415Z" transform="translate(-248.093 -281.78)" fill="#fe5364"/>
        <path id="Trazado_167060" data-name="Trazado 167060" d="M1100.88,464.376c-.636,1.664-1.892,2.2-3.6,2.166-3.825-.066-7.651-.034-11.477-.042a1.319,1.319,0,0,1-.244-1.024q-.012-4.457,0-8.913a1.323,1.323,0,0,1,.245-1.025c4.1-.007,8.206-.028,12.309-.016a2.9,2.9,0,0,1,2.769,2.164Z" transform="translate(-265.114 -96.282)" fill="#efc319"/>
        <path id="Trazado_167061" data-name="Trazado 167061" d="M917.016,686.421a38.661,38.661,0,0,1,4.286-.107c.921-.02,1.843-.014,2.764-.02a3.475,3.475,0,0,1,2.763,0c2.069.012,4.138.026,6.207.034,2.355.009,3.4,1.057,3.406,3.42q0,2.1,0,4.2c0,1.933-.526,2.708-2.293,3.393H921.406a1.661,1.661,0,0,1-.246-1.187c-.006-2.719,0-5.437,0-8.155,0-1.3,0-1.3-1.266-1.3-.647,0-1.293.011-1.94-.006C917.619,686.681,917.267,686.719,917.016,686.421Z" transform="translate(-129.468 -281.792)" fill="#fe5364"/>
        <path id="Trazado_167062" data-name="Trazado 167062" d="M906.356,688.122c1.189.008,2.378.05,3.565.011.633-.021.843.156.837.816-.031,3.363-.013,6.726-.013,10.089h-4.818a3.273,3.273,0,0,1-2.15-3.6c.063-1.441,0-2.887.018-4.33C903.824,689.324,904.78,688.228,906.356,688.122Z" transform="translate(-118.809 -283.493)" fill="#de4d60"/>
        <path id="Trazado_167063" data-name="Trazado 167063" d="M1054.019,688.15c1.188.006,2.377.047,3.564.005.641-.023.836.17.83.822-.031,3.361-.014,6.723-.014,10.084h-4.818a3.316,3.316,0,0,1-2.065-3.667c.1-1.547,0-3.106.037-4.659A2.572,2.572,0,0,1,1054.019,688.15Z" transform="translate(-237.709 -283.516)" fill="#de4d60"/>
        <path id="Trazado_167064" data-name="Trazado 167064" d="M758.655,688.161c1.213.005,2.428.039,3.64,0,.58-.017.751.166.747.746-.025,3.386-.012,6.772-.013,10.158h-4.818a3.437,3.437,0,0,1-2.04-3.78c.1-1.471.031-2.954.019-4.431A2.673,2.673,0,0,1,758.655,688.161Z" transform="translate(0 -283.524)" fill="#de4d60"/>
        <path id="Trazado_167065" data-name="Trazado 167065" d="M1152.95,735.72a3.707,3.707,0,0,0,2.176-2.023c0,.674.263,1.612-.074,1.949s-1.273.074-1.947.074Z" transform="translate(-319.36 -320.174)" fill="#fefbfc"/>
        <path id="Trazado_167066" data-name="Trazado 167066" d="M837.151,635.569h-2.763c0-1.631-.016-3.263.008-4.894.007-.448-.133-.559-.568-.558q-12.5.018-24.991.01a.727.727,0,0,0-.519.106c-.012,1.528-.048,3.056-.023,4.582.01.583-.114.859-.762.8s-1.292-.032-1.939-.042c0-1.682-.006-3.363,0-5.045a2.807,2.807,0,0,1,3.157-3.149c3.7-.011,7.392-.019,11.087.012.65.005.911-.108.862-.831-.072-1.082-.019-2.172-.019-3.259a3.766,3.766,0,0,1,2.835-.066,4.71,4.71,0,0,1,.211,2.286c.039,1.616-.112,1.553,1.584,1.553h22.509c1.37,0,1.345,0,1.382-1.368a5.678,5.678,0,0,1,.193-2.449,3.606,3.606,0,0,1,2.84.044c0,1.138.032,2.277-.013,3.414-.022.56.167.676.694.673,3.747-.022,7.494-.018,11.24-.009,1.727,0,2.892.859,3.119,2.3a9.681,9.681,0,0,1,.042,1.472c0,1.474,0,2.949,0,4.423h-2.75c0-1.6-.024-3.21.009-4.814.01-.518-.151-.641-.651-.64q-13.071.022-26.143,0c-.5,0-.654.129-.644.64C837.174,632.358,837.152,633.964,837.151,635.569Z" transform="translate(-39.79 -231.066)" fill="#3d324c"/>
        <path id="Trazado_167067" data-name="Trazado 167067" d="M873.119,577.846h-2.745l-2.788-.05a1.318,1.318,0,0,1-.249-1.025q-.011-4.461,0-8.922a1.3,1.3,0,0,1,.247-1.024l2.79-.05c.895-.457,1.849-.167,2.775-.225,2.067-.025,4.135-.009,6.2-.009a5.3,5.3,0,0,1,1.3.173,2.77,2.77,0,0,1,2.229,2.722c.045,1.888.042,3.777,0,5.665a2.847,2.847,0,0,1-2.678,2.906c-2.165.148-4.339.057-6.51.037A1.186,1.186,0,0,1,873.119,577.846Z" transform="translate(-89.48 -185.616)" fill="#efc319"/>
        <path id="Trazado_167068" data-name="Trazado 167068" d="M790.332,455.528c4.109-.007,8.218-.033,12.327-.013a2.728,2.728,0,0,1,2.774,2.824,3.526,3.526,0,0,0,.086,1.3,5.271,5.271,0,0,1-.054,2.722c-.012.387-.028.774-.034,1.161a2.747,2.747,0,0,1-2.938,2.977c-4.054.027-8.109,0-12.163-.009a1.306,1.306,0,0,1-.246-1.024q-.012-4.46,0-8.919A1.317,1.317,0,0,1,790.332,455.528Z" transform="translate(-27.303 -96.274)" fill="#efc319"/>
        <path id="Trazado_167069" data-name="Trazado 167069" d="M920.8,335.937c4.112-.008,8.225-.038,12.337-.012a2.668,2.668,0,0,1,2.682,2.761c.067,1.81.076,3.627,0,5.436a2.764,2.764,0,0,1-3.073,2.787c-2.172.028-4.344.028-6.516.041a3.468,3.468,0,0,1-2.76,0q-3.142-.013-6.283-.028a1.7,1.7,0,0,1-.912-.107,1.142,1.142,0,0,1,.936-.26c.7-.016,1.393,0,2.089-.006,1.257,0,1.259,0,1.26-1.3,0-2.711,0-5.423,0-8.134A1.58,1.58,0,0,1,920.8,335.937Z" transform="translate(-128.871 -0.019)" fill="#6166bb"/>
        <path id="Trazado_167070" data-name="Trazado 167070" d="M953.554,461.168c-.012.361-.025.721-.035,1.082a2.857,2.857,0,0,1-3.117,3.066c-2.165.019-4.33.024-6.495.035a3.56,3.56,0,0,1-2.763,0l-2.805-.047a1.31,1.31,0,0,1-.1-.681q.005-4.807,0-9.613a1.292,1.292,0,0,1,.1-.681l2.806-.049a3.8,3.8,0,0,1,2.762,0q3.133.014,6.266.026c2.3.006,3.335,1.048,3.35,3.366,0,.257.023.515.035.772A3.316,3.316,0,0,1,953.554,461.168Z" transform="translate(-146.545 -95.077)" fill="#efc319"/>
        <path id="Trazado_167071" data-name="Trazado 167071" d="M896.618,512.082h2.763c0,1.114.033,2.229-.012,3.341-.023.566.113.741.712.735,3.26-.033,6.521-.018,9.781-.015,2.174,0,3.216,1.057,3.219,3.25q0,1.787,0,3.575a3.912,3.912,0,0,1-2.838.044,4.477,4.477,0,0,1-.208-2.211c-.041-1.69.137-1.624-1.594-1.625h-20.9c-.181,0-.363,0-.544,0-.958.016-1.016.071-1.028,1.01-.008.622.01,1.245-.008,1.866-.01.331.024.687-.305.915h-2.742c0-1.269-.007-2.539,0-3.808a2.763,2.763,0,0,1,2.986-3.013c3.313-.014,6.626-.025,9.938.013.661.007.825-.177.793-.814C896.577,514.26,896.618,513.17,896.618,512.082Z" transform="translate(-102.02 -141.807)" fill="#3d324c"/>
        <path id="Trazado_167072" data-name="Trazado 167072" d="M909.328,455.509a1.357,1.357,0,0,1,.144.75q0,4.738,0,9.476a1.268,1.268,0,0,1-.142.749c-1.337,0-2.677.053-4.012,0a2.785,2.785,0,0,1-2.8-2.9c-.023-.411-.027-.823-.04-1.235a3.324,3.324,0,0,1,0-2.723c.037-.59.036-1.186.12-1.769a2.656,2.656,0,0,1,2.635-2.355C906.6,455.465,907.964,455.5,909.328,455.509Z" transform="translate(-117.537 -96.256)" fill="#f19b1f"/>
        <path id="Trazado_167073" data-name="Trazado 167073" d="M910.617,335.918c0,3.354-.015,6.708.017,10.062.006.661-.209.832-.837.812-1.235-.039-2.473,0-3.71,0a2.478,2.478,0,0,1-2.309-2.142,33.382,33.382,0,0,1,0-6.506,2.56,2.56,0,0,1,2.578-2.244C907.773,335.87,909.2,335.911,910.617,335.918Z" transform="translate(-118.685)" fill="#8b8ec8"/>
        <path id="Trazado_167074" data-name="Trazado 167074" d="M1057.553,455.506q0,5.481,0,10.962c-1.389,0-2.782.075-4.167-.005a2.7,2.7,0,0,1-2.692-2.884c-.009-.412-.022-.824-.033-1.236a5.294,5.294,0,0,1-.06-2.721,3.817,3.817,0,0,0,.091-1.378,2.725,2.725,0,0,1,2.684-2.747C1054.767,455.454,1056.16,455.5,1057.553,455.506Z" transform="translate(-236.865 -96.25)" fill="#f19b1f"/>
        <path id="Trazado_167075" data-name="Trazado 167075" d="M763.147,455.518l0,10.967c-1.37,0-2.743.068-4.108-.006a2.733,2.733,0,0,1-2.727-2.961q-.017-2.525,0-5.051a2.773,2.773,0,0,1,2.958-2.971C760.561,455.488,761.854,455.51,763.147,455.518Z" transform="translate(-0.117 -96.264)" fill="#f19b1f"/>
        <path id="Trazado_167076" data-name="Trazado 167076" d="M840.386,568.008q0,5.485,0,10.971c-1.369.006-2.739.047-4.107.01a2.711,2.711,0,0,1-2.713-2.73q-.06-2.754,0-5.51a2.7,2.7,0,0,1,2.714-2.732C837.647,567.945,839.018,568.006,840.386,568.008Z" transform="translate(-62.281 -186.798)" fill="#f19b1f"/>
        <path id="Trazado_167077" data-name="Trazado 167077" d="M955.9,404.739h-2.762q0-6.136,0-12.272h2.76Q955.9,398.6,955.9,404.739Z" transform="translate(-158.542 -45.535)" fill="#3d324c"/>
        <path id="Trazado_167078" data-name="Trazado 167078" d="M1023.467,476.7a11.868,11.868,0,0,1,.06,2.721h-6.787q0-1.362,0-2.723Z" transform="translate(-209.731 -113.325)" fill="#3d324c"/>
        <path id="Trazado_167079" data-name="Trazado 167079" d="M875.5,476.7q0,1.361,0,2.723h-6.784a12.248,12.248,0,0,1,.055-2.722Z" transform="translate(-90.559 -113.327)" fill="#3d324c"/>
        <path id="Trazado_167080" data-name="Trazado 167080" d="M1011.221,566.68h2.742c2.067.011,4.134.026,6.2.032,2.382.007,3.42,1.028,3.421,3.384,0,1.552.011,3.1,0,4.657a2.784,2.784,0,0,1-2.961,2.969c-1.757.019-3.514.02-5.271.029h-2.762a1.6,1.6,0,0,1-1.116.223,8.932,8.932,0,0,1-2.981-.2,1.305,1.305,0,0,1-.219-.886c-.019-3.264.01-6.528-.016-9.791a.876.876,0,0,1,.094-.451A3.946,3.946,0,0,1,1011.221,566.68Z" transform="translate(-202.903 -185.519)" fill="#efc319"/>
        <path id="Trazado_167081" data-name="Trazado 167081" d="M816.219,708.937c.671,0,1.343-.02,2.013.005a1.38,1.38,0,0,1,1.373,1.226,1.348,1.348,0,0,1-1.144,1.427,17.031,17.031,0,0,1-4.393.041,1.284,1.284,0,0,1-1.262-1.537c.078-.737.628-1.154,1.553-1.164.62-.007,1.239,0,1.859,0Z" transform="translate(-45.586 -300.24)" fill="#802d40"/>
        <path id="Trazado_167082" data-name="Trazado 167082" d="M1111.393,711.71a12.7,12.7,0,0,1-2.311-.119,1.349,1.349,0,0,1-1.1-1.384,1.3,1.3,0,0,1,1.309-1.273q2.09-.043,4.181,0a1.227,1.227,0,0,1,1.279,1.19,1.276,1.276,0,0,1-1.052,1.469A12.792,12.792,0,0,1,1111.393,711.71Z" transform="translate(-283.169 -300.226)" fill="#802d40"/>
        <path id="Trazado_167083" data-name="Trazado 167083" d="M1111.414,476.967c.7,0,1.4-.007,2.1,0a1.141,1.141,0,0,1,1.261,1.153c.034.9-.389,1.466-1.2,1.483-1.424.03-2.849.027-4.273,0a1.3,1.3,0,0,1-1.271-1.385,1.264,1.264,0,0,1,1.291-1.251C1110.016,476.959,1110.715,476.967,1111.414,476.967Z" transform="translate(-283.202 -113.543)" fill="#f19b1f"/>
        <path id="Trazado_167084" data-name="Trazado 167084" d="M963.668,708.931c.671,0,1.343-.02,2.013.005a1.348,1.348,0,0,1,1.4,1.27,1.239,1.239,0,0,1-1.159,1.383,15.973,15.973,0,0,1-4.543-.005,1.327,1.327,0,0,1-1.123-1.358,1.388,1.388,0,0,1,1.32-1.284c.7-.035,1.394-.008,2.09-.008Z" transform="translate(-164.271 -300.235)" fill="#802d40"/>
        <path id="Trazado_167086" data-name="Trazado 167086" d="M893.519,592.015c-.7,0-1.4.014-2.1,0a1.21,1.21,0,0,1-1.295-1.32,1.314,1.314,0,0,1,1.323-1.32q2.019-.023,4.039,0a1.42,1.42,0,0,1,1.458,1.316,1.33,1.33,0,0,1-1.486,1.328C894.813,592.019,894.166,592.015,893.519,592.015Z" transform="translate(-107.826 -204.005)" fill="#f19b1f"/>
        <path id="Trazado_167087" data-name="Trazado 167087" d="M816.3,476.954c.671,0,1.341-.007,2.011,0a1.416,1.416,0,0,1,1.377,1.286,1.382,1.382,0,0,1-1.328,1.351q-2.127.04-4.255,0a1.189,1.189,0,0,1-1.233-1.292,1.207,1.207,0,0,1,1.261-1.343C814.854,476.937,815.577,476.954,816.3,476.954Z" transform="translate(-45.647 -113.53)" fill="#f19b1f"/>
        <path id="Trazado_167088" data-name="Trazado 167088" d="M963.576,359.229c-.672,0-1.345.02-2.016-.007a1.471,1.471,0,0,1-1.338-1.194,1.415,1.415,0,0,1,1.114-1.446,15.822,15.822,0,0,1,4.318-.1,1.329,1.329,0,0,1,1.4,1.447c-.061.855-.63,1.294-1.691,1.3C964.766,359.232,964.171,359.23,963.576,359.229Z" transform="translate(-164.237 -16.494)" fill="#8b8ec8"/>
        <path id="Trazado_167089" data-name="Trazado 167089" d="M963.671,476.96c.7,0,1.393-.013,2.089,0a1.237,1.237,0,0,1,1.306,1.311,1.312,1.312,0,0,1-1.306,1.328q-2.05.025-4.1,0a1.434,1.434,0,0,1-1.428-1.338,1.342,1.342,0,0,1,1.428-1.3C962.33,476.954,963,476.96,963.671,476.96Z" transform="translate(-164.25 -113.536)" fill="#f19b1f"/>
        <path id="Trazado_167090" data-name="Trazado 167090" d="M981.193,578.967c-1.393.007-2.788.051-4.18.011a2.677,2.677,0,0,1-2.679-2.74c-.033-1.783-.027-3.566-.006-5.349A2.7,2.7,0,0,1,977.106,568c1.313-.06,2.631-.01,3.947-.008a1.494,1.494,0,0,1,.142.9Q981.195,573.93,981.193,578.967Z" transform="translate(-175.582 -186.789)" fill="#f19b1f"/>
        <path id="Trazado_167091" data-name="Trazado 167091" d="M1033.745,591.994c-.645,0-1.289.006-1.934,0a1.416,1.416,0,0,1-1.386-1.276,1.378,1.378,0,0,1,1.316-1.36c1.444-.028,2.889-.031,4.332,0a1.322,1.322,0,0,1-.008,2.626c-.772.033-1.547.007-2.32.007Z" transform="translate(-220.744 -203.984)" fill="#f19b1f"/>
      </g>
    </g>
  </g>
</svg>
