<svg xmlns="http://www.w3.org/2000/svg" width="88" height="88" viewBox="0 0 88 88">
  <g id="Grupo_124161" data-name="Grupo 124161" transform="translate(4549 7366.222)">
    <g id="Grupo_123806" data-name="Grupo 123806" transform="translate(-4549 -7366.222)">
      <g id="Elipse_6757" data-name="Elipse 6757" fill="#fff" stroke="#2631a0" stroke-width="4">
        <circle cx="44" cy="44" r="44" stroke="none"/>
        <circle cx="44" cy="44" r="42" fill="none"/>
      </g>
      <g id="Grupo_123803" data-name="Grupo 123803" transform="translate(22.074 22.076)">
        <path id="Trazado_170001" data-name="Trazado 170001" d="M937.842,518.688H914.46a1.436,1.436,0,0,1-1.318-1.674c0-2.7-.013-5.4,0-8.107-.006-1.279-.023-2.558.007-3.837a4.989,4.989,0,0,1,.07-1.27c-.016-1.081-.005-2.162-.005-3.243s.021-2.189-.007-3.283c-.021-.821-.034-1.644-.082-2.463a1.869,1.869,0,0,1,1.7-2.07,13.8,13.8,0,0,1,1.528.133q6.9-.019,13.809,0a6.06,6.06,0,0,1,1.233-.055c1.272-.043,2.544-.052,3.816-.006.707-.038,1.415-.026,2.122-.022,1.093.006,1.5.346,1.7,1.4v23.381a.322.322,0,0,0-.065.2.876.876,0,0,1-.891.86C938,518.642,937.912,518.621,937.842,518.688Z" transform="translate(-895.189 -474.839)" fill="#febf10"/>
        <path id="Trazado_170002" data-name="Trazado 170002" d="M744.185,302.275l-3.848,0-.048-.061c-.009-.024-.019-.048-.029-.072-.065-.487.076-.97.024-1.458,0-1.042.042-2.085-.01-3.124-.079-1.566-.052-3.132-.076-4.7-.01-.68-.285-.944-.973-.976-.257-.012-.514-.005-.77-.005H716.03c-.456,0-.913,0-1.368-.034-1.75.073-3.5.018-5.252.033-1.179.01-1.327.159-1.338,1.327-.01,1.01.045,2.021-.039,3.03a7.166,7.166,0,0,1-.043,1.359,23.184,23.184,0,0,0,.1,2.9.976.976,0,0,1-.025.339c.005,1.485.056,2.97-.024,4.455a5.727,5.727,0,0,1-.046,1.316c.015,1.068,0,2.136,0,3.2,0,.68.017,1.361,0,2.041a9.957,9.957,0,0,0,.209,1.895c.147.381.473.414.813.415,1.469.006,2.939,0,4.408,0,.4,0,.8-.01,1.2.03l.162,0c2.305-.058,4.61-.021,6.915-.02a.8.8,0,0,1,.412.091.492.492,0,0,1,.127.108l.005,3.842a.884.884,0,0,1-.614.131c-4.893,0-9.785.019-14.678-.009a2.989,2.989,0,0,1-2.573-1.527,4.266,4.266,0,0,1-.278-1.067v-29.2a3.363,3.363,0,0,1,.443-1.3A2.372,2.372,0,0,1,706.3,284.2a.293.293,0,0,0,.2-.063h34.86c.166.088.346.021.518.045,1.5.037,2.5,1.6,2.513,3.062.008.841,0,1.682,0,2.522q0,5.836,0,11.671C744.384,301.727,744.47,302.05,744.185,302.275Z" transform="translate(-704.098 -284.139)" fill="#6e72ab"/>
        <path id="Trazado_170007" data-name="Trazado 170007" d="M1138.91,284.139a.619.619,0,0,0,.005.08.622.622,0,0,1-.433-.08Z" transform="translate(-1101.224 -284.139)" fill="#d7e8f7"/>
        <path id="Trazado_170008" data-name="Trazado 170008" d="M835.544,478.9a1.531,1.531,0,0,0-1.464,1.708q-.009,2.923-.012,5.845a.15.15,0,0,1-.146-.049,1,1,0,0,1-.126-.657c-.009-.954,0-1.909-.006-2.864,0-.628-.128-.755-.753-.757-1.909-.007-3.818,0-5.727-.006a1.129,1.129,0,0,1-.815-.173.616.616,0,0,1-.072-.369q0-1.87,0-3.74a.622.622,0,0,1,.084-.408.678.678,0,0,1,.492-.095q12.331,0,24.662,0c.531,0,.548.016.539.562a3.711,3.711,0,0,1-.037.934l0,0a1.141,1.141,0,0,1-.505.037q-7.8,0-15.6,0A1.825,1.825,0,0,0,835.544,478.9Z" transform="translate(-815.928 -460.76)" fill="#e5e6e7"/>
        <path id="Trazado_170009" data-name="Trazado 170009" d="M950.648,533.543c-.4,0-.8.017-1.2-.005-.324-.018-.469.109-.5.428-.142,1.518-.294,3.036-.442,4.554-.094.965-.163,1.933-.291,2.893a3.011,3.011,0,0,1-5.9.484,3.557,3.557,0,0,1-.113-.716.753.753,0,0,1,.624-.8.713.713,0,0,1,.837.556c.056.205.065.424.13.626a1.49,1.49,0,0,0,2.905-.283c.257-2.452.5-4.906.757-7.358.03-.285-.074-.387-.353-.382-.571.01-1.142.008-1.713,0-.555-.007-.9-.3-.912-.751-.007-.433.309-.741.853-.766a16.227,16.227,0,0,1,1.755,0c.426.026.572-.13.608-.54.14-1.576.309-3.149.462-4.723a4.433,4.433,0,0,1,.823-2.687,3.063,3.063,0,0,1,3.269-.879,2.985,2.985,0,0,1,2.018,2.712.738.738,0,0,1-1.462.187c-.035-.152-.041-.312-.081-.463a1.494,1.494,0,0,0-2.946.219q-.3,2.806-.581,5.614c-.051.5-.006.546.487.548.656,0,1.313,0,1.97,0a2.233,2.233,0,0,1,.467.044.761.761,0,0,1,.645.742.734.734,0,0,1-.713.723c-.468.034-.941.008-1.412.008Z" transform="translate(-921.785 -502.542)" fill="#ff004c"/>
        <path id="Trazado_170010" data-name="Trazado 170010" d="M1073.871,664.146a1.228,1.228,0,0,1-.417.775c-.789.786-1.566,1.583-2.368,2.356-.245.237-.24.378,0,.612.841.814,1.664,1.647,2.486,2.48a.742.742,0,0,1,.1,1.1.731.731,0,0,1-1.107,0c-.427-.378-.819-.794-1.224-1.2-.456-.452-.917-.9-1.359-1.366-.192-.2-.321-.2-.518,0-.757.777-1.528,1.54-2.3,2.3a2.754,2.754,0,0,1-.458.383.683.683,0,0,1-.931-.113.7.7,0,0,1-.023-.972c.231-.271.494-.514.746-.767.6-.607,1.2-1.224,1.822-1.811.267-.251.3-.4.013-.675-.777-.736-1.522-1.505-2.277-2.264a2.419,2.419,0,0,1-.332-.389.694.694,0,0,1,.114-.964.7.7,0,0,1,.972-.009c.282.24.535.514.8.776.6.594,1.2,1.181,1.782,1.79.242.254.407.265.658.006.8-.83,1.625-1.645,2.45-2.455a.746.746,0,0,1,1.281.123A1.65,1.65,0,0,1,1073.871,664.146Z" transform="translate(-1034.565 -630.899)" fill="#ff004c"/>
        <path id="Trazado_170011" data-name="Trazado 170011" d="M932.8,494.883a.913.913,0,0,1,.46-.068l16.155,0c0,.021,0,.043.008.064-1.253,0-2.507.012-3.76.012q-6.175,0-12.351,0C933.146,494.9,932.976,494.887,932.8,494.883Z" transform="translate(-913.188 -476.745)" fill="#dde4e9"/>
        <path id="Trazado_170012" data-name="Trazado 170012" d="M835.155,581.449l.076,0q0,2.27,0,4.539a.5.5,0,0,0-.066-.015c-.224-.156-.2-.4-.2-.622-.013-.942,0-1.884-.007-2.825,0-.656-.124-.778-.775-.78-1.9-.006-3.8,0-5.694-.006-.265,0-.55.051-.77-.171a.14.14,0,0,1,0-.157.748.748,0,0,1,.6-.165q3.109-.015,6.217,0C834.757,581.252,834.994,581.237,835.155,581.449Z" transform="translate(-817.091 -555.761)" fill="#e0e4e8"/>
        <path id="Trazado_170013" data-name="Trazado 170013" d="M826.438,372.059c.228,0,.456-.013.685-.013H850.8a5.341,5.341,0,0,1,.556.011.823.823,0,0,1,.848.926c.005,2.711,0,5.423,0,8.134a.134.134,0,0,1-.151-.04,1.007,1.007,0,0,1-.129-.658c-.009-.927,0-1.854-.005-2.781,0-.727-.12-.847-.847-.848q-7.253-.005-14.507,0-4.6,0-9.2,0a1.5,1.5,0,0,1-.873-.139c-.141-.155-.1-.348-.1-.527q-.005-1.953,0-3.907A.236.236,0,0,1,826.438,372.059Z" transform="translate(-815.896 -364.504)" fill="#e5e6e7"/>
        <path id="Trazado_170014" data-name="Trazado 170014" d="M826.556,584.6c2.294,0,4.588.009,6.882-.009.425,0,.576.119.568.557-.024,1.3-.009,2.593-.01,3.889l-7.456.005a.542.542,0,0,1-.121-.437q0-1.79,0-3.581C826.421,584.875,826.4,584.708,826.556,584.6Z" transform="translate(-815.926 -558.824)" fill="#e5e6e7"/>
        <path id="Trazado_170015" data-name="Trazado 170015" d="M748.133,538.85a1.14,1.14,0,0,1-.074-.282c0-1.251.008-2.5.014-3.753.062-1.322.012-2.645.026-3.968.006-.607,0-.609.62-.61q2.8,0,5.595,0a.765.765,0,0,1,.534.092.566.566,0,0,1,.1.444c0,1.2,0,2.39,0,3.586a1.418,1.418,0,0,1-.1.54c-.179.252-.454.205-.7.207-1.45.011-2.9,0-4.35.005h-.469c-.915,0-.976.062-.979.959,0,.739.011,1.479-.009,2.218C748.337,538.492,748.379,538.729,748.133,538.85Z" transform="translate(-744.288 -509.125)" fill="#fa7b76"/>
        <path id="Trazado_170016" data-name="Trazado 170016" d="M754.888,372.2a.519.519,0,0,0,0,.062,6.378,6.378,0,0,1,.034,1.235c.01.97-.007,1.941.009,2.912.005.311-.094.442-.411.442-2,0-4,0-6,0a.441.441,0,0,1-.389-.134c0-1.225-.018-2.45-.009-3.675,0-.591.308-.837.992-.839Q752,372.2,754.888,372.2Z" transform="translate(-744.346 -364.646)" fill="#fe5364"/>
        <path id="Trazado_170017" data-name="Trazado 170017" d="M748.229,481.061q0-2.222,0-4.443a.553.553,0,0,1,.128-.109,1.059,1.059,0,0,1,.539-.1q2.728-.011,5.457,0a.788.788,0,0,1,.637.176c.071.91.024,1.822.028,2.733a14.289,14.289,0,0,1-.027,1.749.493.493,0,0,1-.29.04q-3.091,0-6.182,0C748.418,481.11,748.314,481.136,748.229,481.061Z" transform="translate(-744.44 -459.914)" fill="#fe5364"/>
        <path id="Trazado_170018" data-name="Trazado 170018" d="M748.908,588.526c0-1.153.014-2.305,0-3.458,0-.366.115-.5.491-.5,2.063.016,4.127.012,6.19.015a.222.222,0,0,1,.051.113q.008,2.1,0,4.207a.258.258,0,0,1-.045.117c-2,0-3.991.012-5.987.012A.653.653,0,0,1,748.908,588.526Z" transform="translate(-745.063 -558.801)" fill="#fe5364"/>
        <path id="Trazado_170019" data-name="Trazado 170019" d="M933.707,320.827q-4.043,0-8.086,0c-.571,0-.9-.232-.946-.657a.7.7,0,0,1,.539-.806,2.249,2.249,0,0,1,.549-.055q7.958,0,15.915,0h.128c.627.01.981.289.976.77s-.351.75-.99.75Q937.75,320.829,933.707,320.827Z" transform="translate(-905.75 -316.29)" fill="#2c2f38"/>
        <path id="Trazado_170020" data-name="Trazado 170020" d="M856.255,320.767c-.456,0-.912.008-1.367,0a.783.783,0,0,1-.867-.752.766.766,0,0,1,.817-.757q1.452-.031,2.9,0a.76.76,0,0,1,.8.77.775.775,0,0,1-.836.737C857.224,320.777,856.74,320.767,856.255,320.767Z" transform="translate(-841.163 -316.23)" fill="#24ad5f"/>
        <path id="Trazado_170021" data-name="Trazado 170021" d="M749.691,320.626c-.243,0-.486.016-.727,0a.768.768,0,0,1-.751-.737.743.743,0,0,1,.684-.747,7.06,7.06,0,0,1,1.664,0,.7.7,0,0,1,.654.761.731.731,0,0,1-.711.718c-.269.023-.542,0-.813,0Z" transform="translate(-744.429 -316.092)" fill="#bf3a2b"/>
        <path id="Trazado_170022" data-name="Trazado 170022" d="M802.593,320.619c-.257,0-.515.02-.769,0a.76.76,0,0,1-.718-.723.742.742,0,0,1,.674-.755,6.943,6.943,0,0,1,1.663,0,.7.7,0,0,1,.664.753.739.739,0,0,1-.744.73c-.255.019-.513,0-.77,0Z" transform="translate(-792.785 -316.089)" fill="#efc31a"/>
        <path id="Trazado_170023" data-name="Trazado 170023" d="M754.971,395.545q0-2.218-.006-4.436,0-2.265,0-4.531-.073-.06,0-.116,0-2.214,0-4.429a.828.828,0,0,1-.192-.676c-.008-.969,0-1.939-.005-2.908,0-.633-.12-.75-.753-.752q-2.373-.008-4.747,0c-.638,0-.755.118-.76.746-.008.969,0,1.939-.007,2.908,0,.237.031.494-.2.663a.635.635,0,0,1-.068.015q0-2.318,0-4.636c2.1,0,4.2,0,6.293.013.329,0,.45-.1.447-.441-.01-1.341.006-2.682.012-4.023a3.848,3.848,0,0,1,.051,1.1c.017,1.122.02,2.244.028,3.366a.514.514,0,0,1,.2.449c.021,1.221.019,2.443,0,3.664a.8.8,0,0,1-.088.37,1.012,1.012,0,0,1-.1.136q0,2.23,0,4.46a.619.619,0,0,1,.194.54q.019,1.725,0,3.45a.618.618,0,0,1-.2.539l0,.09-.016,4.443-.042,0Z" transform="translate(-744.44 -365.325)" fill="#ec888b"/>
        <path id="Trazado_170024" data-name="Trazado 170024" d="M827.98,475.6l0-.091a.526.526,0,0,1,.412-.19c.185-.01.371-.013.556-.013q11.834,0,23.667,0c.329,0,.695-.1.968.2h.077a5.019,5.019,0,0,1-.073,1.457c0-.342-.006-.685,0-1.027,0-.23-.107-.343-.338-.34-.1,0-.2,0-.3,0Z" transform="translate(-817.351 -458.901)" fill="#dde4e9"/>
        <path id="Trazado_170025" data-name="Trazado 170025" d="M754.96,530.562q0,.058,0,.116c-2.076,0-4.152,0-6.229-.017-.336,0-.448.129-.445.455.011,1.166,0,2.332,0,3.5a.977.977,0,0,1-.069.5l0-4.543Z" transform="translate(-744.434 -509.426)" fill="#f08686"/>
        <path id="Trazado_170026" data-name="Trazado 170026" d="M827.986,535.265q0-2.264,0-4.528c2.311,0,4.623,0,6.934-.011.389,0,.526.12.519.516-.022,1.341-.013,2.682-.017,4.023Z" transform="translate(-817.36 -509.575)" fill="#fefefe"/>
        <path id="Trazado_170027" data-name="Trazado 170027" d="M853.518,429.421l-25.6,0-.006-4.529q12.532,0,25.064-.011c.434,0,.568.135.56.564C853.506,426.769,853.519,428.1,853.518,429.421Z" transform="translate(-817.289 -412.808)" fill="#fefefe"/>
        <path id="Trazado_170028" data-name="Trazado 170028" d="M748.946,430.38c0-1.338.011-2.677-.007-4.015-.005-.388.121-.523.515-.519q2.841.023,5.681,0c.373,0,.5.122.493.494-.019,1.352-.011,2.705-.014,4.058Z" transform="translate(-745.093 -413.691)" fill="#fa7b76"/>
      </g>
    </g>
  </g>
</svg>
