<svg xmlns="http://www.w3.org/2000/svg" width="88" height="88" viewBox="0 0 88 88">
  <g id="Grupo_124205" data-name="Grupo 124205" transform="translate(-9012 8515)">
    <g id="Grupo_123848" data-name="Grupo 123848" transform="translate(8459 -12002)">
      <g id="Elipse_6757" data-name="Elipse 6757" transform="translate(553 3487)" fill="#fff" stroke="#2631a0" stroke-width="4">
        <circle cx="44" cy="44" r="44" stroke="none"/>
        <circle cx="44" cy="44" r="42" fill="none"/>
      </g>
      <g id="Grupo_123845" data-name="Grupo 123845" transform="translate(-216.039 3140.995)">
        <path id="Trazado_170219" data-name="Trazado 170219" d="M1043.952,514.81q-.007-5.208-.02-10.415c0-.328.124-.412.431-.411q5.883.011,11.766,0c.307,0,.432.084.43.411q-.021,5.208-.02,10.415a.993.993,0,0,1-.747.174q-5.546.007-11.093,0A.994.994,0,0,1,1043.952,514.81Z" transform="translate(-219.138 -122.414)" fill="#4d54b5"/>
        <path id="Trazado_170220" data-name="Trazado 170220" d="M918.007,586.781q-.008-5.21-.022-10.42c0-.331.122-.408.428-.407q5.886.012,11.772,0c.306,0,.43.076.428.407q-.023,5.21-.022,10.42a.992.992,0,0,1-.747.174q-5.546.007-11.091,0A.991.991,0,0,1,918.007,586.781Z" transform="translate(-112.117 -183.569)" fill="#3a5270"/>
        <path id="Trazado_170221" data-name="Trazado 170221" d="M1044.067,576.031h12.587v10.816a.992.992,0,0,1-.747.174q-5.546.007-11.091,0a.992.992,0,0,1-.747-.174Z" transform="translate(-219.253 -183.635)" fill="#3a5270"/>
        <path id="Trazado_170222" data-name="Trazado 170222" d="M798.321,658.727c-1.933,0-3.866-.01-5.8.009-.383,0-.508-.081-.506-.488q.026-4.927,0-9.854c0-.4.118-.492.5-.49q5.828.021,11.655,0c.355,0,.479.076.477.459q-.023,4.955,0,9.911c0,.378-.116.464-.474.461C802.225,658.719,800.273,658.727,798.321,658.727Z" transform="translate(-5.078 -244.706)" fill="#5a6d80"/>
        <path id="Trazado_170223" data-name="Trazado 170223" d="M918,648.006h12.585c.005,3.469.007,6.937.023,10.405,0,.319-.09.411-.409.41q-5.906-.015-11.812,0c-.319,0-.411-.091-.409-.41C918,654.943,918,651.474,918,648.006Z" transform="translate(-112.113 -244.794)" fill="#5a6d7f"/>
        <path id="Trazado_170224" data-name="Trazado 170224" d="M1043.945,648.006h12.585c.005,3.469.007,6.937.023,10.405,0,.319-.09.411-.409.41q-5.906-.015-11.812,0c-.319,0-.411-.091-.409-.41C1043.939,654.943,1043.94,651.474,1043.945,648.006Z" transform="translate(-219.13 -244.794)" fill="#5a6d80"/>
        <path id="Trazado_170225" data-name="Trazado 170225" d="M925.835,432.436a7.192,7.192,0,0,1,9.9,7.178,6.981,6.981,0,0,1-3.476,5.657,7.759,7.759,0,0,1-3.218.168,7.366,7.366,0,0,1-4.433-11.862A6.339,6.339,0,0,1,925.835,432.436Z" transform="translate(-116.366 -61.122)" fill="#fee88f"/>
        <path id="Trazado_170226" data-name="Trazado 170226" d="M1051.721,360.5a7.2,7.2,0,0,1,6.427,12.831,7.262,7.262,0,0,1-3.215.171,7.384,7.384,0,0,1-5.376-10.33A6.722,6.722,0,0,1,1051.721,360.5Z" transform="translate(-223.331)" fill="#f9e424"/>
        <path id="Trazado_170227" data-name="Trazado 170227" d="M799.894,504.432a7.308,7.308,0,1,1,3.209,13,7.357,7.357,0,0,1-5.372-10.327A6.518,6.518,0,0,1,799.894,504.432Z" transform="translate(-9.354 -122.305)" fill="#f66f97"/>
        <path id="Trazado_170228" data-name="Trazado 170228" d="M790.54,507.7c.137.154-.031.175-.1.237a6.857,6.857,0,0,0-2.486,6.537,6.973,6.973,0,0,0,5.5,6.005,6.212,6.212,0,0,0,3.043.023c.165-.037.321-.117.47.03a7.211,7.211,0,1,1-6.69-12.749A2.5,2.5,0,0,1,790.54,507.7Z" transform="translate(0 -125.572)" fill="#f8799f"/>
        <path id="Trazado_170229" data-name="Trazado 170229" d="M1042.487,363.758c.119.1.021.153-.051.21a6.68,6.68,0,0,0-2.529,4.4,6.9,6.9,0,0,0,2.823,6.929,6.8,6.8,0,0,0,5.66,1.281c.18-.037.351-.154.523.01a7.211,7.211,0,1,1-6.692-12.748A2.271,2.271,0,0,1,1042.487,363.758Z" transform="translate(-214.096 -3.261)" fill="#febf10"/>
        <path id="Trazado_170230" data-name="Trazado 170230" d="M916.334,435.742c.116.107.013.154-.058.209a7.157,7.157,0,0,0-2.1,8.293,7.251,7.251,0,0,0,7.07,4.454,7.641,7.641,0,0,0,1.1-.178c.15-.028.293-.079.416.056a7.2,7.2,0,1,1-6.423-12.835Z" transform="translate(-106.866 -64.428)" fill="#f1dc88"/>
        <path id="Trazado_170231" data-name="Trazado 170231" d="M944.749,492c.58,0,1.161-.012,1.741,0a.9.9,0,1,1,0,1.793c-1.18.014-2.359.016-3.539,0a.9.9,0,1,1,0-1.791C943.55,491.984,944.15,492,944.749,492Z" transform="translate(-132.552 -112.226)" fill="#6c8298"/>
        <path id="Trazado_170232" data-name="Trazado 170232" d="M936.937,462.049a.9.9,0,1,1-.9.88A.893.893,0,0,1,936.937,462.049Z" transform="translate(-127.456 -86.781)" fill="#6d8398"/>
        <path id="Trazado_170233" data-name="Trazado 170233" d="M973.813,462.952a.9.9,0,1,1-.877-.9A.894.894,0,0,1,973.813,462.952Z" transform="translate(-158.03 -86.78)" fill="#6d8398"/>
        <path id="Trazado_170234" data-name="Trazado 170234" d="M1068.875,422.118a3.809,3.809,0,0,1-2.546-1.1.916.916,0,0,1-.126-1.424c.432-.435.87-.395,1.407.129a1.754,1.754,0,0,0,2.673-.041.906.906,0,0,1,.943-.351.945.945,0,0,1,.3,1.687A3.828,3.828,0,0,1,1068.875,422.118Z" transform="translate(-237.82 -50.452)" fill="#6c8298"/>
        <path id="Trazado_170235" data-name="Trazado 170235" d="M1063.766,390.969a.9.9,0,1,1-.862-.911A.88.88,0,0,1,1063.766,390.969Z" transform="translate(-234.462 -25.609)" fill="#6b8298"/>
        <path id="Trazado_170236" data-name="Trazado 170236" d="M1098.844,391.863a.9.9,0,1,1,.9-.87A.879.879,0,0,1,1098.844,391.863Z" transform="translate(-265.035 -25.613)" fill="#6b8298"/>
        <path id="Trazado_170237" data-name="Trazado 170237" d="M817.039,557.957a3.708,3.708,0,0,1,2.616,1.131c.5.509.514,1.024.081,1.427s-.866.341-1.369-.152a1.769,1.769,0,0,0-2.679.014c-.492.483-.957.525-1.37.124a.9.9,0,0,1,.071-1.385A3.7,3.7,0,0,1,817.039,557.957Z" transform="translate(-23.779 -168.277)" fill="#6c8198"/>
        <path id="Trazado_170238" data-name="Trazado 170238" d="M811.883,534.934a.9.9,0,1,1-.866-.917A.89.89,0,0,1,811.883,534.934Z" transform="translate(-20.432 -147.935)" fill="#6d8198"/>
        <path id="Trazado_170239" data-name="Trazado 170239" d="M846.955,535.811a.9.9,0,1,1,.916-.867A.889.889,0,0,1,846.955,535.811Z" transform="translate(-51.014 -147.931)" fill="#6d8198"/>
      </g>
    </g>
  </g>
</svg>
