<svg xmlns="http://www.w3.org/2000/svg" width="505.579" height="524" viewBox="0 0 505.579 524">
  <g id="Grupo_124203" data-name="Grupo 124203" transform="translate(-9026 9865)">
    <g id="Grupo_118310" data-name="Grupo 118310" transform="translate(8846 -11607)">
      <g id="Metrics-pana" transform="translate(180 1742)">
        <g id="freepik--background-complete--inject-6" transform="translate(77.215 252.851)">
          <path id="Trazado_162066" data-name="Trazado 162066" d="M474.522,331.022V310.982c0-12.739,0-30.989-.064-52.991l.128.128H382.8l.16-.16v73.032l-.149-.139,66.316.075h0l-66.4.075h-.139V257.66H474.7v.362c0,22.045,0,40.316-.075,53.076v18.644A5.513,5.513,0,0,1,474.522,331.022Z" transform="translate(-46.34 -233.121)" fill="#e0e0e0"/>
          <rect id="Rectángulo_41750" data-name="Rectángulo 41750" width="3.315" height="37.065" transform="translate(348.253 38.408)" fill="#e0e0e0"/>
          <rect id="Rectángulo_41751" data-name="Rectángulo 41751" width="3.315" height="24.475" transform="translate(354.66 50.998)" fill="#ebebeb"/>
          <rect id="Rectángulo_41752" data-name="Rectángulo 41752" width="3.315" height="32.652" transform="translate(361.077 43.013)" fill="#e0e0e0"/>
          <rect id="Rectángulo_41753" data-name="Rectángulo 41753" width="3.315" height="35.637" transform="translate(367.484 39.837)" fill="#ebebeb"/>
          <rect id="Rectángulo_41754" data-name="Rectángulo 41754" width="3.315" height="23.729" transform="translate(373.891 51.744)" fill="#e0e0e0"/>
          <rect id="Rectángulo_41755" data-name="Rectángulo 41755" width="3.315" height="19.071" transform="translate(380.297 56.402)" fill="#ebebeb"/>
          <rect id="Rectángulo_41756" data-name="Rectángulo 41756" width="3.315" height="33.27" transform="translate(386.704 42.214)" fill="#e0e0e0"/>
          <rect id="Rectángulo_41757" data-name="Rectángulo 41757" width="3.315" height="27.268" transform="translate(393.111 48.205)" fill="#ebebeb"/>
          <rect id="Rectángulo_41758" data-name="Rectángulo 41758" width="3.315" height="32.055" transform="translate(399.517 43.418)" fill="#e0e0e0"/>
          <rect id="Rectángulo_41759" data-name="Rectángulo 41759" width="3.315" height="21.842" transform="translate(405.924 53.631)" fill="#ebebeb"/>
          <rect id="Rectángulo_41760" data-name="Rectángulo 41760" width="3.315" height="26" transform="translate(412.341 49.473)" fill="#e0e0e0"/>
          <path id="Trazado_162067" data-name="Trazado 162067" d="M462.706,307.869c0,.075-15.745.139-35.178.139s-35.178-.064-35.178-.139,15.734-.139,35.178-.139S462.706,307.794,462.706,307.869Z" transform="translate(-45.696 -229.816)" fill="#e0e0e0"/>
          <path id="Trazado_162068" data-name="Trazado 162068" d="M398.595,310.609a21.946,21.946,0,0,1-4.925,0,21.947,21.947,0,0,1,4.925,0Z" transform="translate(-45.609 -229.635)" fill="#e0e0e0"/>
          <path id="Trazado_162069" data-name="Trazado 162069" d="M406.364,310.749a31.3,31.3,0,0,1-5.884,0,31.3,31.3,0,0,1,5.884,0Z" transform="translate(-45.159 -229.626)" fill="#e0e0e0"/>
          <path id="Trazado_162070" data-name="Trazado 162070" d="M412.865,310.749a31.417,31.417,0,0,1-5.9,0,31.422,31.422,0,0,1,5.9,0Z" transform="translate(-44.731 -229.626)" fill="#e0e0e0"/>
          <path id="Trazado_162071" data-name="Trazado 162071" d="M419.364,310.749a31.3,31.3,0,0,1-5.884,0,31.3,31.3,0,0,1,5.884,0Z" transform="translate(-44.301 -229.626)" fill="#e0e0e0"/>
          <path id="Trazado_162072" data-name="Trazado 162072" d="M425.934,310.749a31.3,31.3,0,0,1-5.884,0,31.3,31.3,0,0,1,5.884,0Z" transform="translate(-43.867 -229.626)" fill="#e0e0e0"/>
          <path id="Trazado_162073" data-name="Trazado 162073" d="M432.474,310.749a31.3,31.3,0,0,1-5.884,0,31.3,31.3,0,0,1,5.884,0Z" transform="translate(-43.436 -229.626)" fill="#e0e0e0"/>
          <path id="Trazado_162074" data-name="Trazado 162074" d="M439.015,310.749a31.419,31.419,0,0,1-5.9,0,31.417,31.417,0,0,1,5.9,0Z" transform="translate(-43.005 -229.626)" fill="#e0e0e0"/>
          <path id="Trazado_162075" data-name="Trazado 162075" d="M445.555,310.749a31.419,31.419,0,0,1-5.9,0,31.416,31.416,0,0,1,5.9,0Z" transform="translate(-42.573 -229.626)" fill="#e0e0e0"/>
          <path id="Trazado_162076" data-name="Trazado 162076" d="M452.084,310.749a31.3,31.3,0,0,1-5.884,0,31.3,31.3,0,0,1,5.884,0Z" transform="translate(-42.141 -229.626)" fill="#e0e0e0"/>
          <path id="Trazado_162077" data-name="Trazado 162077" d="M458.624,310.749a31.3,31.3,0,0,1-5.884,0,31.3,31.3,0,0,1,5.884,0Z" transform="translate(-41.71 -229.626)" fill="#e0e0e0"/>
          <path id="Trazado_162078" data-name="Trazado 162078" d="M131.7,495.048l6.343-.1,14.029-123.177-6.257-.725Z" transform="translate(-41.728 -225.636)" fill="#e0e0e0"/>
          <path id="Trazado_162079" data-name="Trazado 162079" d="M166.61,495.048l6.353-.1,14.018-123.177-6.247-.725Z" transform="translate(-41.747 -225.636)" fill="#e0e0e0"/>
          <path id="Trazado_162080" data-name="Trazado 162080" d="M273.121,495.2l-6.353-.1L252.75,373.044,259,372.33Z" transform="translate(-41.793 -225.552)" fill="#e0e0e0"/>
          <path id="Trazado_162081" data-name="Trazado 162081" d="M234.721,495.2l-6.343-.1L214.35,373.044l6.257-.714Z" transform="translate(-41.772 -225.552)" fill="#e0e0e0"/>
          <rect id="Rectángulo_41761" data-name="Rectángulo 41761" width="128.113" height="13.272" transform="translate(226.31 156.415) rotate(180)" fill="#ebebeb"/>
          <path id="Trazado_162082" data-name="Trazado 162082" d="M223.1,239.6l-81.166,1,.2,137.749,90.578.778Z" transform="translate(-43.021 -234.313)" fill="#ebebeb"/>
          <path id="Trazado_162083" data-name="Trazado 162083" d="M151.409,377.745s-.181.288-.565.842-.97,1.386-1.738,2.462c-1.546,2.2-3.848,5.437-6.854,9.69l-.107-.192,128.112.117-.3.309V377.394l.309.309-49.217.16-69.631.181h-.3v-.3c0-40.061.085-74.365.107-98.659,0-12.131.075-21.757.1-28.377v0c0,6.62,0,16.246.085,28.377,0,24.294.075,58.63.117,98.659l-.3-.309,69.631-.213,49.217-.139h.32v14.253h-.309l-128.112-.49h-.235l.139-.192,6.961-9.594,1.78-2.441C151.2,378,151.409,377.745,151.409,377.745Z" transform="translate(-43.939 -234.251)" fill="#e0e0e0"/>
          <path id="Trazado_162084" data-name="Trazado 162084" d="M45.948,280.85v26.576H41.78v2.889h4.168V328.1h77.893V311.924h-5.767V308.4h5.767v-5.33H126.4v-2.4h-3.038V280.85Z" transform="translate(-41.673 -231.59)" fill="#f5f5f5"/>
          <path id="Trazado_162085" data-name="Trazado 162085" d="M99.36,280.925v46.883h20.681V311.615h-5.767v-3.23l5.767.117v-5.3l2.612.011-.053-2.74-3.038-.075V280.85Z" transform="translate(-37.873 -231.59)" fill="#e0e0e0"/>
          <path id="Trazado_162086" data-name="Trazado 162086" d="M104.638,308.148c0,.16-14.093.288-31.479.288s-31.479-.128-31.479-.288,14.093-.3,31.479-.3S104.638,308.01,104.638,308.148Z" transform="translate(-41.68 -229.808)" fill="#e0e0e0"/>
          <path id="Trazado_162087" data-name="Trazado 162087" d="M104.638,305.618c0,.16-14.093.288-31.479.288s-31.479-.128-31.479-.288,14.093-.3,31.479-.3S104.638,305.448,104.638,305.618Z" transform="translate(-41.68 -229.975)" fill="#e0e0e0"/>
          <path id="Trazado_162088" data-name="Trazado 162088" d="M108.428,298.8c0,.16-14.093.3-31.479.3s-31.479-.139-31.479-.3,14.093-.3,31.479-.3S108.428,298.639,108.428,298.8Z" transform="translate(-41.43 -230.425)" fill="#e0e0e0"/>
          <path id="Trazado_162089" data-name="Trazado 162089" d="M108.8,317.368c0,.171-14.1.3-31.479.3s-31.479-.128-31.479-.3,14.093-.288,31.479-.288S108.8,317.208,108.8,317.368Z" transform="translate(-41.405 -229.198)" fill="#e0e0e0"/>
          <rect id="Rectángulo_41762" data-name="Rectángulo 41762" width="69.312" height="5.373" transform="translate(208.801 43.088)" fill="#ebebeb"/>
          <rect id="Rectángulo_41763" data-name="Rectángulo 41763" width="19.028" height="5.373" transform="translate(257.765 43.088)" fill="#e0e0e0"/>
          <path id="Trazado_162090" data-name="Trazado 162090" d="M244.345,280.1v24.22H240.55v2.622h3.795v16.214H315.32V308.4h-5.266v-3.2h5.266v-4.818h2.335v-2.2h-2.782V280.07Z" transform="translate(-43.77 -231.641)" fill="#f5f5f5"/>
          <path id="Trazado_162091" data-name="Trazado 162091" d="M293.01,280.175v42.715h18.847V308.136h-5.266v-2.942h5.266v-4.818h2.335v-2.462h-2.782V280.1Z" transform="translate(-41.845 -231.639)" fill="#e0e0e0"/>
          <path id="Trazado_162092" data-name="Trazado 162092" d="M297.822,305.016c0,.149-12.792.267-28.686.267s-28.686-.117-28.686-.267,12.845-.266,28.686-.266S297.822,304.825,297.822,305.016Z" transform="translate(-43.015 -230.012)" fill="#e0e0e0"/>
          <path id="Trazado_162093" data-name="Trazado 162093" d="M297.822,302.666c0,.149-12.792.266-28.686.266s-28.686-.117-28.686-.266,12.845-.267,28.686-.267S297.822,302.517,297.822,302.666Z" transform="translate(-43.015 -230.167)" fill="#e0e0e0"/>
          <path id="Trazado_162094" data-name="Trazado 162094" d="M301.272,296.456c0,.149-12.845.266-28.676.266s-28.686-.117-28.686-.266,12.845-.267,28.686-.267S301.272,296.307,301.272,296.456Z" transform="translate(-43.038 -230.577)" fill="#e0e0e0"/>
          <path id="Trazado_162095" data-name="Trazado 162095" d="M301.6,313.376c0,.149-12.792.277-28.676.277s-28.686-.128-28.686-.277,12.845-.266,28.686-.266S301.6,313.227,301.6,313.376Z" transform="translate(-43.04 -229.461)" fill="#e0e0e0"/>
          <path id="Trazado_162096" data-name="Trazado 162096" d="M250.936,234.672v24.209H247.13v2.633h3.806v16.214H321.9V262.974h-5.255v-3.2H321.9v-4.818h2.335v-2.2h-2.772V234.64Z" transform="translate(-43.839 -234.64)" fill="#f5f5f5"/>
          <path id="Trazado_162097" data-name="Trazado 162097" d="M299.59,234.734v42.715h18.847V262.706h-5.255v-2.942l5.255.1v-4.818h2.377l-.043-2.484L318,252.483V234.67Z" transform="translate(-41.851 -234.638)" fill="#e0e0e0"/>
          <path id="Trazado_162098" data-name="Trazado 162098" d="M304.4,259.536c0,.149-12.845.277-28.676.277s-28.686-.128-28.686-.277,12.792-.267,28.686-.267S304.4,259.4,304.4,259.536Z" transform="translate(-43.059 -233.014)" fill="#e0e0e0"/>
          <path id="Trazado_162099" data-name="Trazado 162099" d="M304.4,257.237c0,.149-12.845.266-28.676.266s-28.686-.117-28.686-.266,12.792-.277,28.686-.277S304.4,257.088,304.4,257.237Z" transform="translate(-43.059 -233.167)" fill="#e0e0e0"/>
          <path id="Trazado_162100" data-name="Trazado 162100" d="M307.862,251.017c0,.139-12.845.266-28.686.266s-28.676-.128-28.676-.266,12.792-.277,28.676-.277S307.862,250.879,307.862,251.017Z" transform="translate(-43.082 -233.577)" fill="#e0e0e0"/>
          <path id="Trazado_162101" data-name="Trazado 162101" d="M308.192,267.946c0,.149-12.845.267-28.676.267s-28.686-.117-28.686-.267,12.792-.266,28.686-.266S308.192,267.8,308.192,267.946Z" transform="translate(-43.084 -232.459)" fill="#e0e0e0"/>
          <rect id="Rectángulo_41764" data-name="Rectángulo 41764" width="69.312" height="5.373" transform="translate(204.48 91.271)" fill="#ebebeb"/>
          <rect id="Rectángulo_41765" data-name="Rectángulo 41765" width="19.028" height="5.373" transform="translate(253.407 91.271)" fill="#e0e0e0"/>
        </g>
        <g id="freepik--Plant--inject-6" transform="translate(64.493 412.258)">
          <path id="Trazado_162102" data-name="Trazado 162102" d="M129.869,423.05c-.064.085-.672-.266-1.332-.8s-1.151-1.066-1.066-1.13.672.266,1.332.8S129.944,422.965,129.869,423.05Z" transform="translate(-86.493 -381.739)" fill="#263238"/>
          <path id="Trazado_162103" data-name="Trazado 162103" d="M147.991,398.234a21.138,21.138,0,0,0-.618-7.558,7.462,7.462,0,0,0-5.149-5.149c-2.846-.586-5.756,1.2-7.345,3.635s-2.132,5.33-2.612,8.23a290.489,290.489,0,0,0-3.56,59.75l11.619,1.631C145.433,437.91,147.064,419.682,147.991,398.234Z" transform="translate(-86.429 -384.095)" fill="#455a64"/>
          <path id="Trazado_162104" data-name="Trazado 162104" d="M140.37,385.44v.181a2.193,2.193,0,0,1-.192.533c-.181.49-.448,1.162-.768,2-.16.437-.384.917-.554,1.45s-.362,1.13-.565,1.759-.416,1.311-.65,2.025-.394,1.5-.6,2.3a101.548,101.548,0,0,0-2.249,11.5c-.629,4.371-1.066,9.221-1.364,14.306-.6,10.18-.682,19.423-.949,26.106-.128,3.347-.235,6.044-.362,7.92-.064.906-.117,1.62-.149,2.132v0c0-.533,0-1.247.064-2.132.085-1.866.149-4.573.235-7.92.192-6.684.234-15.926.831-26.128.33-5.1.757-9.946,1.407-14.327a96.206,96.206,0,0,1,2.2-11.524c.224-.8.437-1.578.629-2.3s.469-1.386.693-2.015.405-1.215.6-1.759a14.68,14.68,0,0,1,.586-1.439c.352-.842.64-1.5.842-1.983l.235-.512Z" transform="translate(-86.196 -384.094)" fill="#263238"/>
          <path id="Trazado_162105" data-name="Trazado 162105" d="M141.025,385.44a8.453,8.453,0,0,1,1.428,2.409,17.941,17.941,0,0,1,1.066,7.515c-.309,6.4-.885,15.276-1.652,25.051s-1.62,18.6-2.3,24.987c-.341,3.2-.64,5.778-.863,7.558l-.256,2.057a3.1,3.1,0,0,1-.085.533v-.544c0-.512.107-1.194.181-2.057.181-1.833.426-4.4.736-7.579.608-6.4,1.407-15.223,2.132-24.987s1.386-18.623,1.759-25.03a18.122,18.122,0,0,0-.906-7.462A15.419,15.419,0,0,0,141.025,385.44Z" transform="translate(-85.774 -384.094)" fill="#263238"/>
          <path id="Trazado_162106" data-name="Trazado 162106" d="M148.684,413.754a5.95,5.95,0,0,1-2.2-.565,6.587,6.587,0,0,1-2.068-.959,6.536,6.536,0,0,1,2.207.565A6.451,6.451,0,0,1,148.684,413.754Z" transform="translate(-85.374 -382.325)" fill="#263238"/>
          <path id="Trazado_162107" data-name="Trazado 162107" d="M150.012,402.55a7.173,7.173,0,0,1-2.132,1.173,7.057,7.057,0,0,1-2.26.778,6.96,6.96,0,0,1,2.132-1.162A6.864,6.864,0,0,1,150.012,402.55Z" transform="translate(-85.295 -382.964)" fill="#263238"/>
          <path id="Trazado_162108" data-name="Trazado 162108" d="M149.273,393.5a3.709,3.709,0,0,1-1.738.1,3.815,3.815,0,0,1-1.706-.33,3.794,3.794,0,0,1,1.738-.085,3.943,3.943,0,0,1,1.706.32Z" transform="translate(-85.281 -383.587)" fill="#263238"/>
          <path id="Trazado_162109" data-name="Trazado 162109" d="M137.919,387.859c-.1.064-.6-.576-1.13-1.418A4.158,4.158,0,0,1,136,384.81c.1-.064.608.565,1.141,1.418S138.025,387.8,137.919,387.859Z" transform="translate(-85.93 -384.136)" fill="#263238"/>
          <path id="Trazado_162110" data-name="Trazado 162110" d="M134.294,393.165a3.356,3.356,0,0,1-1.652.181c-.917,0-1.652-.128-1.642-.245s.736-.192,1.652-.171A3.679,3.679,0,0,1,134.294,393.165Z" transform="translate(-86.26 -383.6)" fill="#263238"/>
          <path id="Trazado_162111" data-name="Trazado 162111" d="M131.626,404.213a4.009,4.009,0,0,1-1.738-.48c-.917-.373-1.631-.757-1.588-.863a4.007,4.007,0,0,1,1.738.48C130.954,403.723,131.669,404.075,131.626,404.213Z" transform="translate(-86.438 -382.943)" fill="#263238"/>
          <path id="Trazado_162112" data-name="Trazado 162112" d="M131.318,413.364a3.378,3.378,0,0,1-1.482.522c-.842.181-1.535.224-1.556.107s.64-.341,1.471-.522S131.3,413.247,131.318,413.364Z" transform="translate(-86.439 -382.255)" fill="#263238"/>
          <path id="Trazado_162113" data-name="Trazado 162113" d="M130.079,428.454a3.534,3.534,0,0,1-1.578.49c-.885.16-1.62.2-1.642.085a3.486,3.486,0,0,1,1.567-.49C129.322,428.38,130.058,428.337,130.079,428.454Z" transform="translate(-86.533 -381.259)" fill="#263238"/>
          <path id="Trazado_162114" data-name="Trazado 162114" d="M129.174,436.781c.053.107-.533.522-1.311.927s-1.45.661-1.5.565.533-.522,1.311-.927A3.672,3.672,0,0,1,129.174,436.781Z" transform="translate(-86.566 -380.706)" fill="#263238"/>
          <path id="Trazado_162115" data-name="Trazado 162115" d="M135.969,446.448c-.107.053-.618-.65-1.151-1.578a4.839,4.839,0,0,1-.778-1.78,5.486,5.486,0,0,1,1.141,1.578A4.841,4.841,0,0,1,135.969,446.448Z" transform="translate(-86.059 -380.288)" fill="#263238"/>
          <path id="Trazado_162116" data-name="Trazado 162116" d="M137.986,430.52c.075.085-.49.778-1.269,1.546s-1.482,1.322-1.567,1.237.49-.768,1.269-1.535S137.9,430.446,137.986,430.52Z" transform="translate(-85.986 -381.119)" fill="#263238"/>
          <path id="Trazado_162117" data-name="Trazado 162117" d="M137.5,422.418c-.075.075-.608-.362-1.173-.97s-.959-1.173-.874-1.247.608.352,1.173.97S137.583,422.332,137.5,422.418Z" transform="translate(-85.967 -381.8)" fill="#263238"/>
          <path id="Trazado_162118" data-name="Trazado 162118" d="M138.871,411.74c.085.075-.384.746-1.066,1.492s-1.279,1.3-1.364,1.215.384-.746,1.066-1.492S138.786,411.666,138.871,411.74Z" transform="translate(-85.901 -382.358)" fill="#263238"/>
          <path id="Trazado_162119" data-name="Trazado 162119" d="M139.645,404.252c-.075.085-.736-.437-1.471-1.151s-1.269-1.386-1.194-1.46.746.437,1.482,1.162S139.731,404.156,139.645,404.252Z" transform="translate(-85.865 -383.025)" fill="#263238"/>
          <path id="Trazado_162120" data-name="Trazado 162120" d="M141.112,393.76a4.136,4.136,0,0,1-.746,1.652,4.82,4.82,0,0,1-1.066,1.428,4.125,4.125,0,0,1,.746-1.642C140.494,394.346,140.984,393.7,141.112,393.76Z" transform="translate(-85.712 -383.545)" fill="#263238"/>
          <path id="Trazado_162121" data-name="Trazado 162121" d="M143.886,384.18c.107.053-.192.789-.65,1.652s-.927,1.5-1.066,1.45a4,4,0,0,1,.661-1.652C143.332,384.777,143.79,384.127,143.886,384.18Z" transform="translate(-85.522 -384.177)" fill="#263238"/>
          <path id="Trazado_162122" data-name="Trazado 162122" d="M147.142,388.532c.053.107-.416.426-1.066.725s-1.173.458-1.226.352.416-.426,1.066-.725S147.057,388.425,147.142,388.532Z" transform="translate(-85.346 -383.892)" fill="#263238"/>
          <path id="Trazado_162123" data-name="Trazado 162123" d="M147.313,423.042a4.669,4.669,0,0,1-2.281-.554,4.539,4.539,0,0,1-1.961-1.258,12.369,12.369,0,0,1,2.132.885,11.489,11.489,0,0,1,2.111.927Z" transform="translate(-85.463 -381.731)" fill="#263238"/>
          <path id="Trazado_162124" data-name="Trazado 162124" d="M145.938,430.224a3.563,3.563,0,0,1-1.556.512,3.486,3.486,0,0,1-1.642.107,3.412,3.412,0,0,1,1.556-.512C145.181,430.16,145.917,430.107,145.938,430.224Z" transform="translate(-85.485 -381.142)" fill="#263238"/>
          <path id="Trazado_162125" data-name="Trazado 162125" d="M144.316,442.935a4.585,4.585,0,0,1-1.77-1.556,4.456,4.456,0,0,1-1.066-2.079,13.507,13.507,0,0,1,1.439,1.823,13.285,13.285,0,0,1,1.4,1.812Z" transform="translate(-85.568 -380.539)" fill="#263238"/>
          <path id="Trazado_162126" data-name="Trazado 162126" d="M126.62,448.546c-.075-.085.394-.608,1.066-1.173s1.247-.949,1.322-.853-.394.608-1.066,1.173S126.7,448.642,126.62,448.546Z" transform="translate(-86.549 -380.063)" fill="#263238"/>
          <path id="Trazado_162127" data-name="Trazado 162127" d="M122.143,421.479c-.757-2.367-2.132-5.117-4.658-5.159A4.136,4.136,0,0,0,114,418.654a8.624,8.624,0,0,0-.938,4.264,111.024,111.024,0,0,0,5.33,30.967h9.072a107.762,107.762,0,0,0-5.319-32.407Z" transform="translate(-87.444 -382.056)" fill="#455a64"/>
          <path id="Trazado_162128" data-name="Trazado 162128" d="M107.146,407.71a10.084,10.084,0,0,0-9.445-8.07c-4.008.7-5.565,4.648-6.044,8.7s.778,8.07,2.025,11.95q5.97,18.676,11.939,37.363l11.289-1.237C113.35,439.732,111.292,424.265,107.146,407.71Z" transform="translate(-88.864 -383.156)" fill="#455a64"/>
          <path id="Trazado_162129" data-name="Trazado 162129" d="M117.307,416.32a10.657,10.657,0,0,0-.768,1.29,8.411,8.411,0,0,0-.426,4.008c.181,1.727.373,3.806.661,6.076s.714,4.786,1.215,7.387c1.066,5.213,2.185,9.893,2.921,13.3.373,1.706.65,3.091.831,4.051l.192,1.066a1.716,1.716,0,0,1,0,.384,1.491,1.491,0,0,1-.117-.373l-.267-1.066c-.245-1.066-.565-2.367-.959-4.019-.81-3.39-2-8.059-3.038-13.282-.512-2.622-.906-5.128-1.183-7.462-.149-1.151-.245-2.239-.341-3.262s-.192-1.972-.235-2.846a8.24,8.24,0,0,1,.565-4.093,3.582,3.582,0,0,1,.949-1.162Z" transform="translate(-87.267 -382.055)" fill="#263238"/>
          <path id="Trazado_162130" data-name="Trazado 162130" d="M97.681,399.34a15.125,15.125,0,0,0-1.364,1.833,12.92,12.92,0,0,0-1.716,5.906,27.493,27.493,0,0,0,1.4,9.093l3.2,10.916c2.26,7.739,4.264,14.743,5.788,19.86.7,2.516,1.29,4.562,1.706,6.034.181.682.33,1.226.437,1.642a3.744,3.744,0,0,1,.128.586,3.6,3.6,0,0,1-.2-.565c-.139-.405-.309-.949-.522-1.62-.448-1.46-1.066-3.5-1.834-5.991-1.514-5.117-3.592-12.11-5.9-19.828l-3.2-10.937a26.938,26.938,0,0,1-1.322-9.21,12.6,12.6,0,0,1,1.876-5.97A6.791,6.791,0,0,1,97.681,399.34Z" transform="translate(-88.684 -383.176)" fill="#263238"/>
          <path id="Trazado_162131" data-name="Trazado 162131" d="M114.069,455.217a4.77,4.77,0,0,1-.256-.544c-.139-.362-.384-.885-.64-1.588-.533-1.386-1.226-3.433-1.94-5.991s-1.418-5.66-2.132-9.1-1.375-7.249-2.132-11.236a108.648,108.648,0,0,0-2.676-11.086,62.127,62.127,0,0,0-3.283-8.7,45.351,45.351,0,0,0-2.931-5.49c-.384-.629-.736-1.066-.949-1.418a3.2,3.2,0,0,1-.32-.512,2.707,2.707,0,0,1,.384.458c.235.32.608.757,1.066,1.386a40.836,40.836,0,0,1,3.2,5.447,58.63,58.63,0,0,1,3.4,8.709,111.19,111.19,0,0,1,2.58,11.129c.746,3.987,1.45,7.782,2.132,11.246s1.332,6.535,2.015,9.093,1.311,4.616,1.8,6.023c.235.7.448,1.237.576,1.61a2.29,2.29,0,0,1,.107.565Z" transform="translate(-88.516 -383.162)" fill="#263238"/>
          <path id="Trazado_162132" data-name="Trazado 162132" d="M93.916,417.264a3.058,3.058,0,0,1-1.375.544c-.778.192-1.439.256-1.471.139s.586-.352,1.375-.544S93.884,417.146,93.916,417.264Z" transform="translate(-88.895 -381.997)" fill="#263238"/>
          <path id="Trazado_162133" data-name="Trazado 162133" d="M92.846,410.016a5.534,5.534,0,0,1-1.9.2,5.544,5.544,0,0,1-1.919-.053,3.987,3.987,0,0,1,1.9-.362,3.8,3.8,0,0,1,1.919.213Z" transform="translate(-89.03 -382.488)" fill="#263238"/>
          <path id="Trazado_162134" data-name="Trazado 162134" d="M93.962,403.562c-.075.085-.693-.309-1.375-.9s-1.173-1.066-1.066-1.2.682.309,1.364.9S94.037,403.476,93.962,403.562Z" transform="translate(-88.867 -383.038)" fill="#263238"/>
          <path id="Trazado_162135" data-name="Trazado 162135" d="M97.022,397.32c.107,0,.075.576.064,1.237s0,1.215-.139,1.226-.3-.533-.277-1.237A1.915,1.915,0,0,1,97.022,397.32Z" transform="translate(-88.526 -383.31)" fill="#263238"/>
          <path id="Trazado_162136" data-name="Trazado 162136" d="M103.739,400.2c.1.064-.181.618-.618,1.237s-.863,1.066-.959,1,.192-.618.618-1.237S103.643,400.126,103.739,400.2Z" transform="translate(-88.164 -383.12)" fill="#263238"/>
          <path id="Trazado_162137" data-name="Trazado 162137" d="M108.091,407.642a3.109,3.109,0,0,1-1.3.757c-.768.309-1.418.48-1.46.373s.533-.448,1.3-.757S108.048,407.535,108.091,407.642Z" transform="translate(-87.954 -382.63)" fill="#263238"/>
          <path id="Trazado_162138" data-name="Trazado 162138" d="M110.752,415.3a3.379,3.379,0,0,1-1.791.778,3.315,3.315,0,0,1-1.951.064,7.677,7.677,0,0,1,1.865-.469,7.093,7.093,0,0,1,1.876-.373Z" transform="translate(-87.843 -382.123)" fill="#263238"/>
          <path id="Trazado_162139" data-name="Trazado 162139" d="M98.593,413.269c-.107,0,0-.6.181-1.258s.458-1.173.565-1.141,0,.608-.171,1.268S98.7,413.3,98.593,413.269Z" transform="translate(-88.402 -382.415)" fill="#263238"/>
          <path id="Trazado_162140" data-name="Trazado 162140" d="M100.25,422.94a4.147,4.147,0,0,1,.512-1.706c.394-.885.789-1.578.9-1.524a3.977,3.977,0,0,1-.512,1.7C100.762,422.3,100.357,422.983,100.25,422.94Z" transform="translate(-88.289 -381.832)" fill="#263238"/>
          <path id="Trazado_162141" data-name="Trazado 162141" d="M96.336,425.433a4.009,4.009,0,0,1-1.62-.362c-.863-.267-1.567-.512-1.546-.629a3.091,3.091,0,0,1,1.663.235C95.718,424.953,96.379,425.326,96.336,425.433Z" transform="translate(-88.757 -381.521)" fill="#263238"/>
          <path id="Trazado_162142" data-name="Trazado 162142" d="M98.658,433.211c.075.085-.416.554-1.066,1.066s-1.258.778-1.322.682.416-.544,1.066-1.066S98.594,433.115,98.658,433.211Z" transform="translate(-88.552 -380.942)" fill="#263238"/>
          <path id="Trazado_162143" data-name="Trazado 162143" d="M100.581,441c0,.117-.565.352-1.333.544s-1.407.245-1.428.128.565-.352,1.333-.533A3.031,3.031,0,0,1,100.581,441Z" transform="translate(-88.45 -380.429)" fill="#263238"/>
          <path id="Trazado_162144" data-name="Trazado 162144" d="M110.892,421.832c.064.1-.448.5-1.194.778s-1.4.309-1.418.2.565-.32,1.269-.586S110.838,421.725,110.892,421.832Z" transform="translate(-87.759 -381.693)" fill="#263238"/>
          <path id="Trazado_162145" data-name="Trazado 162145" d="M112.368,434.076c0,.107-.661-.075-1.365-.405s-1.237-.682-1.183-.789.661.085,1.364.416S112.411,433.958,112.368,434.076Z" transform="translate(-87.658 -380.964)" fill="#263238"/>
          <path id="Trazado_162146" data-name="Trazado 162146" d="M115.023,442.774a4.392,4.392,0,0,1-1.8-.49c-.949-.373-1.684-.757-1.642-.863a4.264,4.264,0,0,1,1.8.48C114.33,442.273,115.066,442.667,115.023,442.774Z" transform="translate(-87.542 -380.399)" fill="#263238"/>
          <path id="Trazado_162147" data-name="Trazado 162147" d="M100.83,449.653a10.965,10.965,0,0,1,1.535-1.279,8.316,8.316,0,0,1,1.61-1.194c.085.075-.458.832-1.343,1.524A3.731,3.731,0,0,1,100.83,449.653Z" transform="translate(-88.251 -380.019)" fill="#263238"/>
          <path id="Trazado_162148" data-name="Trazado 162148" d="M107.776,445.247c-.117,0-.277-.608-.554-1.332s-.586-1.3-.49-1.365.576.426.874,1.215S107.882,445.237,107.776,445.247Z" transform="translate(-87.863 -380.324)" fill="#263238"/>
          <path id="Trazado_162149" data-name="Trazado 162149" d="M106.007,434.694c-.075.1-.544-.128-1.066-.5s-.874-.746-.81-.842.544.139,1.066.5S106.124,434.609,106.007,434.694Z" transform="translate(-88.034 -380.933)" fill="#263238"/>
          <path id="Trazado_162150" data-name="Trazado 162150" d="M122.066,418.211c.075.1-.394.554-1.066,1.066s-1.215.778-1.279.682.394-.544,1.066-1.013S122,418.125,122.066,418.211Z" transform="translate(-87.005 -381.932)" fill="#263238"/>
          <path id="Trazado_162151" data-name="Trazado 162151" d="M124.534,424.843c0,.117-.714.266-1.61.171s-1.567-.405-1.524-.512a5,5,0,0,1,1.578.1C123.82,424.693,124.524,424.725,124.534,424.843Z" transform="translate(-86.894 -381.517)" fill="#263238"/>
          <path id="Trazado_162152" data-name="Trazado 162152" d="M114.189,426.3c0,.117-.64.352-1.5.405a2.548,2.548,0,0,1-1.556-.192c0-.117.693-.16,1.524-.213A4.179,4.179,0,0,1,114.189,426.3Z" transform="translate(-87.571 -381.401)" fill="#263238"/>
          <path id="Trazado_162153" data-name="Trazado 162153" d="M114.995,420.133c0,.107-.682.128-1.418-.213s-1.173-.864-1.066-.949.586.266,1.258.565A5.653,5.653,0,0,1,114.995,420.133Z" transform="translate(-87.481 -381.881)" fill="#263238"/>
          <path id="Trazado_162154" data-name="Trazado 162154" d="M125.408,432.032c-.064.1-.746-.234-1.546-.736s-1.386-.981-1.322-1.066a3.726,3.726,0,0,1,1.546.725C124.875,431.457,125.472,431.926,125.408,432.032Z" transform="translate(-86.818 -381.138)" fill="#263238"/>
          <rect id="Rectángulo_41766" data-name="Rectángulo 41766" width="59.089" height="10.468" transform="translate(6.524 70.658)" fill="#242ca3"/>
          <path id="Trazado_162155" data-name="Trazado 162155" d="M99.29,458.33l7.185,31.3H141.7l7.856-31.3Z" transform="translate(-88.353 -379.283)" fill="#ff004c"/>
          <path id="Trazado_162156" data-name="Trazado 162156" d="M154.236,460.3c0,.117-13.325.213-29.763.213s-29.763-.1-29.763-.213,13.325-.2,29.763-.2S154.236,460.2,154.236,460.3Z" transform="translate(-88.655 -379.166)" fill="#263238"/>
          <path id="Trazado_162157" data-name="Trazado 162157" d="M119.822,426.665c-.1.064-.5-.416-.906-1.066s-.65-1.2-.554-1.269.5.405.906,1.066S119.918,426.6,119.822,426.665Z" transform="translate(-87.095 -381.527)" fill="#263238"/>
          <path id="Trazado_162158" data-name="Trazado 162158" d="M119.753,434.609c-.117,0,0-.746.309-1.588s.586-1.492.7-1.46,0,.746-.309,1.588S119.859,434.651,119.753,434.609Z" transform="translate(-87.005 -381.05)" fill="#263238"/>
          <path id="Trazado_162159" data-name="Trazado 162159" d="M122.549,442.927a5.083,5.083,0,0,1-.981-1.578,4.4,4.4,0,0,1-.618-1.759,5,5,0,0,1,.991,1.578A4.264,4.264,0,0,1,122.549,442.927Z" transform="translate(-86.923 -380.52)" fill="#263238"/>
          <path id="Trazado_162160" data-name="Trazado 162160" d="M116.6,449.536c-.085-.075.267-.629.789-1.226s1.066-1.066,1.066-.959a3.594,3.594,0,0,1-.789,1.226C117.144,449.174,116.686,449.611,116.6,449.536Z" transform="translate(-87.211 -380.008)" fill="#263238"/>
          <path id="Trazado_162161" data-name="Trazado 162161" d="M115.523,437.3c0,.117-.586.117-1.269,0s-1.215-.309-1.2-.416.6-.107,1.279,0S115.544,437.194,115.523,437.3Z" transform="translate(-87.445 -380.703)" fill="#263238"/>
        </g>
        <g id="freepik--Floor--inject-6" transform="translate(0 521.985)">
          <path id="Trazado_162162" data-name="Trazado 162162" d="M473.545,487.4c0,.149-99.624.277-222.5.277S28.53,487.547,28.53,487.4s99.6-.288,222.517-.288S473.545,487.238,473.545,487.4Z" transform="translate(-28.53 -487.11)" fill="#263238"/>
        </g>
        <g id="freepik--Screens--inject-6" transform="translate(2.057 0)">
          <path id="Trazado_162163" data-name="Trazado 162163" d="M280.866,203.031l6.758-.021L287.4,123.72l-115.48.33.235,79.289,95.727-.277,12.174,13.005Z" transform="translate(-31.61 -15.115)" fill="#f5f5f5"/>
          <path id="Trazado_162164" data-name="Trazado 162164" d="M180.282,194.15c-.139,0-.288-13.442-.341-30.029s0-30.051.171-30.051.288,13.453.33,30.04S180.421,194.15,180.282,194.15Z" transform="translate(-29.152 -14.432)" fill="#263238"/>
          <path id="Trazado_162165" data-name="Trazado 162165" d="M280.48,182.409c0,.139-22.525.32-50.3.394s-50.294,0-50.3-.107,22.525-.32,50.3-.394S280.469,182.27,280.48,182.409Z" transform="translate(-31.263 -11.251)" fill="#ebebeb"/>
          <path id="Trazado_162166" data-name="Trazado 162166" d="M280.449,174.142c0,.139-22.525.32-50.294.394s-50.3,0-50.3-.107,22.546-.309,50.262-.426S280.449,174,280.449,174.142Z" transform="translate(-31.263 -11.8)" fill="#ebebeb"/>
          <path id="Trazado_162167" data-name="Trazado 162167" d="M280.429,165.869c0,.139-22.525.32-50.294.405s-50.3,0-50.3-.117,22.514-.309,50.294-.394S280.429,165.731,280.429,165.869Z" transform="translate(-31.262 -12.343)" fill="#ebebeb"/>
          <path id="Trazado_162168" data-name="Trazado 162168" d="M280.4,157.6c0,.149-22.514.32-50.294.405s-50.3,0-50.3-.107,22.525-.32,50.3-.405S280.4,157.461,280.4,157.6Z" transform="translate(-31.262 -12.889)" fill="#ebebeb"/>
          <path id="Trazado_162169" data-name="Trazado 162169" d="M280.379,149.339c0,.139-22.525.309-50.294.394s-50.3,0-50.3-.107,22.514-.32,50.3-.394S280.379,149.2,280.379,149.339Z" transform="translate(-31.262 -13.434)" fill="#ebebeb"/>
          <path id="Trazado_162170" data-name="Trazado 162170" d="M280.359,141.069c0,.139-22.525.32-50.3.394s-50.294,0-50.294-.107,22.514-.32,50.294-.394S280.359,140.93,280.359,141.069Z" transform="translate(-31.262 -13.98)" fill="#ebebeb"/>
          <path id="Trazado_162171" data-name="Trazado 162171" d="M280.329,132.8c0,.139-22.514.32-50.294.394s-50.3,0-50.3-.107,22.514-.32,50.3-.394S280.329,132.66,280.329,132.8Z" transform="translate(-31.262 -14.526)" fill="#ebebeb"/>
          <rect id="Rectángulo_41767" data-name="Rectángulo 41767" width="7.217" height="13.741" transform="translate(157.04 165.952) rotate(-0.17)" fill="#f9e424"/>
          <rect id="Rectángulo_41768" data-name="Rectángulo 41768" width="7.217" height="13.741" transform="matrix(1, -0.003, 0.003, 1, 206.55, 165.842)" fill="#ff004c"/>
          <rect id="Rectángulo_41769" data-name="Rectángulo 41769" width="7.217" height="23.836" transform="translate(170.387 155.805) rotate(-0.17)" fill="#f9e424"/>
          <rect id="Rectángulo_41770" data-name="Rectángulo 41770" width="7.217" height="30.04" transform="matrix(1, -0.003, 0.003, 1, 195.348, 149.565)" fill="#ff004c"/>
          <rect id="Rectángulo_41771" data-name="Rectángulo 41771" width="7.217" height="48.29" transform="translate(182.977 131.311) rotate(-0.17)" fill="#ff004c"/>
          <rect id="Rectángulo_41772" data-name="Rectángulo 41772" width="7.217" height="39.357" transform="translate(219.277 140.915)" fill="#ff004c"/>
          <path id="Trazado_162172" data-name="Trazado 162172" d="M268.845,190.2c0,.139-19.8.309-44.207.384s-44.218,0-44.218-.128,19.8-.309,44.218-.373S268.845,190.06,268.845,190.2Z" transform="translate(-30.954 -10.737)" fill="#263238"/>
          <path id="Trazado_162173" data-name="Trazado 162173" d="M168.028,85.81,30.46,86.066V194.777h119.5l11.758,12.568.778-12.568h5.447Z" transform="translate(-30.46 -17.618)" fill="#f5f5f5"/>
          <path id="Trazado_162174" data-name="Trazado 162174" d="M158.169,182.405h-7.206l-19.625.053-64.738.064H38.51v-.181c0-18.5,0-34.411.064-45.71v-13.2c0,3.081,0,7.569.053,13.2,0,11.3,0,27.215.064,45.71l-.181-.181H66.439l64.738.053,19.625.064h6.727Z" transform="translate(-29.929 -15.447)" fill="#263238"/>
          <rect id="Rectángulo_41773" data-name="Rectángulo 41773" width="12.067" height="12.067" transform="translate(18.463 151.234)" fill="#242ca3"/>
          <rect id="Rectángulo_41774" data-name="Rectángulo 41774" width="12.067" height="20.702" transform="translate(36.159 142.6)" fill="#d29d0b"/>
          <rect id="Rectángulo_41775" data-name="Rectángulo 41775" width="12.067" height="30.498" transform="translate(53.929 132.803)" fill="#febf10"/>
          <rect id="Rectángulo_41776" data-name="Rectángulo 41776" width="12.067" height="41.414" transform="translate(71.145 121.887)" fill="#f9e424"/>
          <rect id="Rectángulo_41777" data-name="Rectángulo 41777" width="12.067" height="55.379" transform="translate(88.766 107.922)" fill="#f25080"/>
          <rect id="Rectángulo_41778" data-name="Rectángulo 41778" width="12.067" height="65.463" transform="translate(100.419 97.262)" fill="#ff004c"/>
          <path id="Trazado_162175" data-name="Trazado 162175" d="M47.78,155.456l.16-.117.469-.33,1.834-1.226,6.918-4.563,23.953-15.649.277-.181v5.735l-.288-.16,9.434-6.321,33.3-22.258,10.127-6.705,2.761-1.812.714-.458.256-.149s-.075.064-.234.181l-.693.49-2.729,1.866L124,110.577,90.761,132.963l-9.445,6.321-.288.192V133.73l.277.149L57.289,149.411l-6.972,4.467-1.876,1.183-.49.3Z" transform="translate(-29.317 -16.598)" fill="#263238"/>
          <path id="Trazado_162176" data-name="Trazado 162176" d="M132.515,106.373a6.524,6.524,0,0,1-.128-1.482c0-.927-.053-2.207-.053-3.646l.181.181H128.1a8.005,8.005,0,0,1-1.642-.128,6.748,6.748,0,0,1,1.642-.139h4.605v.192c0,1.439,0,2.718-.064,3.646A5.843,5.843,0,0,1,132.515,106.373Z" transform="translate(-29.683 -16.605)" fill="#263238"/>
          <rect id="Rectángulo_41782" data-name="Rectángulo 41782" width="137.568" height="10.127" transform="translate(0 67.851)" fill="#263238"/>
          <path id="Trazado_162177" data-name="Trazado 162177" d="M38.074,90.005a1.727,1.727,0,1,1-.819-1.608A1.727,1.727,0,0,1,38.074,90.005Z" transform="translate(-30.185 -17.464)" fill="#fafafa"/>
          <path id="Trazado_162178" data-name="Trazado 162178" d="M43.213,90a1.716,1.716,0,1,1-.5-1.22,1.716,1.716,0,0,1,.5,1.22Z" transform="translate(-29.845 -17.455)" fill="#fafafa"/>
          <circle id="Elipse_6036" data-name="Elipse 6036" cx="1.716" cy="1.716" r="1.716" transform="translate(15.51 70.825)" fill="#fafafa"/>
          <path id="Trazado_162179" data-name="Trazado 162179" d="M418.367,21.84H209.76v96.441H364.576l.853,13.6,12.728-13.6h40.21Z" transform="translate(-36.067 -21.84)" fill="#e1e1e1"/>
          <path id="Trazado_162180" data-name="Trazado 162180" d="M223.594,84.33v3.049h-.309V84.607h-.725V84.33Z" transform="translate(-28.79 -17.715)" fill="#263238"/>
          <path id="Trazado_162181" data-name="Trazado 162181" d="M224.21,85.856c0-.97.512-1.546,1.215-1.546s1.226.576,1.226,1.546-.522,1.546-1.226,1.546S224.21,86.826,224.21,85.856Zm2.132,0c0-.81-.362-1.258-.9-1.258s-.9.448-.9,1.258.373,1.258.9,1.258.874-.448.874-1.258Z" transform="translate(-28.806 -17.717)" fill="#263238"/>
          <path id="Trazado_162182" data-name="Trazado 162182" d="M224.828,69.34v.277H222.7v-.224l1.258-1.237c.352-.341.416-.544.416-.757a.681.681,0,0,0-.714-.565,1.066,1.066,0,0,0-.832.341l-.224-.149a1.343,1.343,0,0,1,1.066-.437c.618,0,1.013.309,1.013.821a1.258,1.258,0,0,1-.5.949l-1.066,1.066Z" transform="translate(-28.815 -18.886)" fill="#263238"/>
          <path id="Trazado_162183" data-name="Trazado 162183" d="M225,68.1c0-.97.512-1.546,1.215-1.546s1.215.576,1.215,1.546-.512,1.546-1.215,1.546S225,69.066,225,68.1Zm2.132,0c0-.81-.362-1.258-.9-1.258s-.9.448-.9,1.258.373,1.258.9,1.258S227.132,68.906,227.132,68.1Z" transform="translate(-28.799 -18.889)" fill="#263238"/>
          <path id="Trazado_162184" data-name="Trazado 162184" d="M224.762,50.985c0,.512-.373.9-1.066.9a1.61,1.61,0,0,1-1.066-.384l.16-.256a1.322,1.322,0,0,0,.938.352c.512,0,.789-.235.789-.608s-.267-.608-.832-.608h-.213v-.235l.842-1.066h-1.556V48.8h1.961v.213l-.863,1.066A.91.91,0,0,1,224.762,50.985Z" transform="translate(-28.813 -20.06)" fill="#263238"/>
          <path id="Trazado_162185" data-name="Trazado 162185" d="M225,50.336c0-.97.512-1.546,1.215-1.546s1.215.576,1.215,1.546-.512,1.546-1.215,1.546S225,51.306,225,50.336Zm2.132,0c0-.81-.362-1.258-.9-1.258s-.9.448-.9,1.258.373,1.258.9,1.258S227.132,51.146,227.132,50.336Z" transform="translate(-28.799 -20.061)" fill="#263238"/>
          <path id="Trazado_162186" data-name="Trazado 162186" d="M236.14,95.226c0-.97.512-1.546,1.215-1.546s1.215.576,1.215,1.546-.512,1.546-1.215,1.546S236.14,96.153,236.14,95.226Zm2.132,0c0-.81-.362-1.258-.9-1.258s-.9.448-.9,1.258.362,1.258.9,1.258.874-.448.874-1.258Z" transform="translate(-28.704 -17.098)" fill="#263238"/>
          <path id="Trazado_162187" data-name="Trazado 162187" d="M257.343,93.7v3.049h-.3V94.02h-.725V93.7Z" transform="translate(-28.496 -17.097)" fill="#263238"/>
          <path id="Trazado_162188" data-name="Trazado 162188" d="M279.7,96.473v.277h-2.132v-.224l1.269-1.237c.341-.341.405-.544.405-.757a.672.672,0,0,0-.714-.565,1.066,1.066,0,0,0-.831.33l-.224-.181a1.354,1.354,0,0,1,1.066-.437c.618,0,1,.309,1,.821a1.226,1.226,0,0,1-.5.949l-1.066,1.066Z" transform="translate(-28.346 -17.098)" fill="#263238"/>
          <path id="Trazado_162189" data-name="Trazado 162189" d="M300.762,95.875c0,.5-.373.9-1.066.9a1.567,1.567,0,0,1-1.066-.394l.149-.245a1.375,1.375,0,0,0,.949.352c.5,0,.778-.235.778-.608s-.256-.608-.821-.608h-.213v-.181l.842-1.066h-1.556V93.7h1.961v.224l-.863,1.066C300.431,95.086,300.762,95.384,300.762,95.875Z" transform="translate(-28.162 -17.097)" fill="#263238"/>
          <path id="Trazado_162190" data-name="Trazado 162190" d="M322.454,95.949h-.608v.8h-.32v-.8H319.81v-.235l1.62-2.015h.341l-1.556,1.972h1.322v-.714h.309v.714h.608Z" transform="translate(-27.997 -17.097)" fill="#263238"/>
          <path id="Trazado_162191" data-name="Trazado 162191" d="M343.052,95.852c0,.512-.352.917-1.066.917a1.567,1.567,0,0,1-1.066-.394l.085-.224a1.311,1.311,0,0,0,.927.352c.522,0,.8-.245.8-.618s-.245-.64-1.066-.64h-.65l.16-1.524h1.663v.3h-1.386l-.107.97h.394C342.711,94.946,343.052,95.308,343.052,95.852Z" transform="translate(-27.799 -17.096)" fill="#263238"/>
          <path id="Trazado_162192" data-name="Trazado 162192" d="M364.4,95.833a.949.949,0,0,1-1.066.938c-.81,0-1.247-.554-1.247-1.524A1.451,1.451,0,0,1,364.2,93.84l-.128.256a1.066,1.066,0,0,0-.586-.149c-.661,0-1.066.426-1.066,1.258a2.148,2.148,0,0,0,0,.245.959.959,0,0,1,.927-.522.927.927,0,0,1,1.055.906Zm-.309,0c0-.394-.3-.65-.768-.65a.7.7,0,0,0-.789.661c0,.341.288.65.81.65a.672.672,0,0,0,.778-.65Z" transform="translate(-27.625 -17.098)" fill="#263238"/>
          <path id="Trazado_162193" data-name="Trazado 162193" d="M385.389,93.7v.224l-1.279,2.825h-.33l1.247-2.772h-1.567v.576h-.309V93.7Z" transform="translate(-27.442 -17.097)" fill="#263238"/>
          <path id="Trazado_162194" data-name="Trazado 162194" d="M395.147,85.918c0,.16-35.242.288-78.7.288s-78.714-.128-78.714-.288,35.242-.3,78.714-.3S395.147,85.748,395.147,85.918Z" transform="translate(-33.983 -17.63)" fill="#263238"/>
          <path id="Trazado_162195" data-name="Trazado 162195" d="M395.147,68.068c0,.16-35.242.288-78.7.288s-78.714-.128-78.714-.288,35.242-.3,78.714-.3S395.147,67.9,395.147,68.068Z" transform="translate(-33.983 -18.808)" fill="#263238"/>
          <path id="Trazado_162196" data-name="Trazado 162196" d="M395.147,50.218c0,.16-35.242.288-78.7.288s-78.714-.128-78.714-.288,35.242-.3,78.714-.3S395.147,50.005,395.147,50.218Z" transform="translate(-33.983 -19.987)" fill="#263238"/>
          <path id="Trazado_162197" data-name="Trazado 162197" d="M237.855,85.706a1.013,1.013,0,1,1-1.013-1.066,1,1,0,0,1,1.013,1.066Z" transform="translate(-28.698 -17.695)" fill="#242ca3"/>
          <path id="Trazado_162198" data-name="Trazado 162198" d="M259.125,85.706a1.013,1.013,0,1,1-1-1.066,1,1,0,0,1,1,1.066Z" transform="translate(-28.515 -17.695)" fill="#242ca3"/>
          <path id="Trazado_162199" data-name="Trazado 162199" d="M280.325,85.706a1.013,1.013,0,1,1-.277-.751A1.013,1.013,0,0,1,280.325,85.706Z" transform="translate(-28.333 -17.695)" fill="#242ca3"/>
          <path id="Trazado_162200" data-name="Trazado 162200" d="M301.555,85.706a1.013,1.013,0,1,1-.277-.751,1.013,1.013,0,0,1,.277.751Z" transform="translate(-28.151 -17.695)" fill="#242ca3"/>
          <path id="Trazado_162201" data-name="Trazado 162201" d="M322.785,85.706a1.013,1.013,0,1,1-.3-.771,1.013,1.013,0,0,1,.3.771Z" transform="translate(-27.969 -17.695)" fill="#242ca3"/>
          <path id="Trazado_162202" data-name="Trazado 162202" d="M365.245,85.706a1.013,1.013,0,1,1-1.013-1.066,1,1,0,0,1,1.013,1.066Z" transform="translate(-27.604 -17.695)" fill="#242ca3"/>
          <path id="Trazado_162203" data-name="Trazado 162203" d="M344.015,85.706a1.013,1.013,0,1,1-.277-.751A1.013,1.013,0,0,1,344.015,85.706Z" transform="translate(-27.786 -17.695)" fill="#242ca3"/>
          <path id="Trazado_162204" data-name="Trazado 162204" d="M386.482,85.706a1.066,1.066,0,1,1-1.066-1.066,1,1,0,0,1,1.066,1.066Z" transform="translate(-27.427 -17.695)" fill="#242ca3"/>
          <path id="Trazado_162205" data-name="Trazado 162205" d="M247.493,85.942a.672.672,0,1,1-.661-.672.661.661,0,0,1,.661.672Z" transform="translate(-28.592 -17.653)" fill="#e0e0e0"/>
          <path id="Trazado_162206" data-name="Trazado 162206" d="M268.8,85.942a.672.672,0,1,1-.661-.672.661.661,0,0,1,.661.672Z" transform="translate(-28.408 -17.653)" fill="#e0e0e0"/>
          <path id="Trazado_162207" data-name="Trazado 162207" d="M290.083,85.942a.672.672,0,1,1-.661-.672.661.661,0,0,1,.661.672Z" transform="translate(-28.223 -17.653)" fill="#e0e0e0"/>
          <path id="Trazado_162208" data-name="Trazado 162208" d="M311.417,85.942a.661.661,0,0,1-.661.661.666.666,0,1,1,.661-.661Z" transform="translate(-28.035 -17.653)" fill="#e0e0e0"/>
          <path id="Trazado_162209" data-name="Trazado 162209" d="M332.732,85.942a.661.661,0,1,1-.19-.474.661.661,0,0,1,.19.474Z" transform="translate(-27.853 -17.653)" fill="#e0e0e0"/>
          <path id="Trazado_162210" data-name="Trazado 162210" d="M354.082,85.942a.661.661,0,1,1-.19-.474.661.661,0,0,1,.19.474Z" transform="translate(-27.668 -17.653)" fill="#e0e0e0"/>
          <path id="Trazado_162211" data-name="Trazado 162211" d="M375.353,85.942a.661.661,0,0,1-.661.661.672.672,0,1,1,.661-.661Z" transform="translate(-27.485 -17.654)" fill="#e0e0e0"/>
          <path id="Trazado_162212" data-name="Trazado 162212" d="M260.648,78.153a2.473,2.473,0,1,1-.732-1.756,2.484,2.484,0,0,1,.732,1.756Z" transform="translate(-28.603 -18.286)" fill="#f9e424"/>
          <path id="Trazado_162213" data-name="Trazado 162213" d="M279.178,67.223a2.484,2.484,0,1,1-2.484-2.473A2.484,2.484,0,0,1,279.178,67.223Z" transform="translate(-28.45 -19.008)" fill="#f9e424"/>
          <path id="Trazado_162214" data-name="Trazado 162214" d="M302.168,68.2a2.484,2.484,0,1,1-2.484-2.484A2.484,2.484,0,0,1,302.168,68.2Z" transform="translate(-28.261 -18.944)" fill="#f9e424"/>
          <path id="Trazado_162215" data-name="Trazado 162215" d="M324.608,48.334a2.484,2.484,0,1,1-2.452-2.484,2.484,2.484,0,0,1,2.452,2.484Z" transform="translate(-28.076 -20.255)" fill="#f9e424"/>
          <path id="Trazado_162216" data-name="Trazado 162216" d="M345.578,60.963a2.484,2.484,0,1,1-2.484-2.473,2.484,2.484,0,0,1,2.484,2.473Z" transform="translate(-27.903 -19.421)" fill="#f9e424"/>
          <path id="Trazado_162217" data-name="Trazado 162217" d="M366.808,64.334a2.473,2.473,0,1,1-.724-1.759,2.484,2.484,0,0,1,.724,1.759Z" transform="translate(-27.728 -19.199)" fill="#f9e424"/>
          <path id="Trazado_162218" data-name="Trazado 162218" d="M395.984,79.983a3.337,3.337,0,0,1-.576,0,11.727,11.727,0,0,1-1.695-.224,12.707,12.707,0,0,1-5.884-2.793A12.345,12.345,0,0,1,384.95,73.2a27.61,27.61,0,0,0-3.028-4.69,10.01,10.01,0,0,0-5.117-3.571,6.524,6.524,0,0,0-3.379.128,9.243,9.243,0,0,0-3.145,1.77c-1.929,1.61-3.347,3.9-5.213,5.98a10.446,10.446,0,0,1-3.4,2.644,6.811,6.811,0,0,1-4.466.373,5.6,5.6,0,0,1-3.4-3.123,21.551,21.551,0,0,1-1.471-4.52,25.78,25.78,0,0,0-1.354-4.584,3.528,3.528,0,0,0-1.46-1.748,4.744,4.744,0,0,0-2.292-.448,39.08,39.08,0,0,0-4.978.874,14.219,14.219,0,0,1-2.622.309,5.927,5.927,0,0,1-2.665-.522,5.331,5.331,0,0,1-2.132-1.78,12.8,12.8,0,0,1-1.3-2.409c-.714-1.674-1.194-3.422-1.844-5.117a12.906,12.906,0,0,0-1.194-2.4,4.434,4.434,0,0,0-1.972-1.631c-.2-.064-.405-.139-.618-.192l-.65-.053a2.228,2.228,0,0,0-1.2.245,4.978,4.978,0,0,0-1.812,1.887,23.322,23.322,0,0,0-2.132,5.213c-.533,1.823-.991,3.688-1.428,5.575-.725,3.123-1.365,6.236-2.132,9.285a46.469,46.469,0,0,1-1.386,4.488A11.725,11.725,0,0,1,314.8,79.28a3.2,3.2,0,0,1-2.228.981,4.381,4.381,0,0,1-2.292-.693,10.755,10.755,0,0,1-3.2-3.251,39.142,39.142,0,0,1-3.88-7.878c-1.066-2.612-2.3-5.2-4.328-6.972a8.112,8.112,0,0,0-7.313-1.738,12.3,12.3,0,0,0-3.465,1.524,22.914,22.914,0,0,0-3.017,2.185,40.5,40.5,0,0,0-5.053,5.074h0a54.6,54.6,0,0,1-7.462,6.2,36.343,36.343,0,0,1-7.664,4.157,16.928,16.928,0,0,1-7.462,1.247,26.459,26.459,0,0,1-6.236-1.514,58.029,58.029,0,0,1-8.112-3.71c-.9-.49-1.578-.885-2.025-1.162s-.661-.426-.661-.426l.7.373,2.047,1.066a63.965,63.965,0,0,0,8.134,3.571,25.946,25.946,0,0,0,6.183,1.439A16.544,16.544,0,0,0,264.8,78.48a36.5,36.5,0,0,0,7.547-4.136,54.129,54.129,0,0,0,7.377-6.193h0a40.836,40.836,0,0,1,5.021-5.127,25.185,25.185,0,0,1,3.07-2.239,12.878,12.878,0,0,1,3.6-1.588,8.645,8.645,0,0,1,7.76,1.866c2.132,1.876,3.4,4.541,4.5,7.174a39.3,39.3,0,0,0,3.838,7.771,10.425,10.425,0,0,0,3.027,3.081,4.008,4.008,0,0,0,2,.608,2.687,2.687,0,0,0,1.834-.778,11.181,11.181,0,0,0,2.207-3.87c.544-1.439.97-2.931,1.375-4.445.8-3.017,1.439-6.13,2.132-9.264.437-1.887.9-3.763,1.439-5.607a23.717,23.717,0,0,1,2.132-5.33,5.405,5.405,0,0,1,2.047-2.132,2.942,2.942,0,0,1,1.492-.309l.746.075a2.6,2.6,0,0,1,.714.213,4.946,4.946,0,0,1,2.239,1.844,13.285,13.285,0,0,1,1.258,2.526c.661,1.716,1.13,3.475,1.834,5.1s1.567,3.2,3.123,3.9a8.219,8.219,0,0,0,4.946.181,38.379,38.379,0,0,1,5.064-.874,5.394,5.394,0,0,1,2.569.512,4.19,4.19,0,0,1,1.674,1.983,26.207,26.207,0,0,1,1.364,4.69,21.685,21.685,0,0,0,1.492,4.413,5.138,5.138,0,0,0,3.091,2.878,6.4,6.4,0,0,0,4.136-.33,10.031,10.031,0,0,0,3.241-2.548c1.844-2.025,3.283-4.328,5.33-5.991A9.679,9.679,0,0,1,373.32,64.7a6.865,6.865,0,0,1,3.592-.107,10.362,10.362,0,0,1,5.245,3.667,27.275,27.275,0,0,1,3.027,4.776,12.032,12.032,0,0,0,2.793,3.752,12.942,12.942,0,0,0,5.756,2.846,13.739,13.739,0,0,0,1.674.288A3.979,3.979,0,0,1,395.984,79.983Z" transform="translate(-33.937 -20.116)" fill="#febf10"/>
          <path id="Trazado_162219" data-name="Trazado 162219" d="M263,38.018c0,.171-8.795.3-19.625.3s-19.625-.128-19.625-.3,8.784-.288,19.625-.288S263,37.815,263,38.018Z" transform="translate(-29.686 -20.791)" fill="#263238"/>
          <path id="Trazado_162220" data-name="Trazado 162220" d="M455.4,129.19H369.16v81.038h9.807v14.434l13.506-14.434H455.4Z" transform="translate(23.693 -14.754)" fill="#f5f5f5"/>
          <path id="Trazado_162221" data-name="Trazado 162221" d="M410.9,137.8a26.65,26.65,0,1,0,26.65,26.65A26.65,26.65,0,0,0,410.9,137.8Zm.405,42.555a16.342,16.342,0,1,1,11.583-4.771,16.353,16.353,0,0,1-11.583,4.771Z" transform="translate(24.689 -14.186)" fill="#263238"/>
          <path id="Trazado_162222" data-name="Trazado 162222" d="M409.64,137.81v9.85a16.342,16.342,0,0,1,16.374,16.353,16.12,16.12,0,0,1-.767,4.946l9.647,2.622a26.65,26.65,0,0,0-25.211-33.771Z" transform="translate(26.365 -14.185)" fill="#febf10"/>
          <path id="Trazado_162223" data-name="Trazado 162223" d="M394.961,163.883a16.341,16.341,0,0,1,9.687-14.923l-4.091-9.19a26.65,26.65,0,0,0-16.267,24.518v1.119H395A14.243,14.243,0,0,1,394.961,163.883Z" transform="translate(24.692 -14.056)" fill="#455a64"/>
          <path id="Trazado_162224" data-name="Trazado 162224" d="M409.955,178.428a15.989,15.989,0,0,1-3.454-.373c-.416,2.377-1.194,6.972-1.8,10.585a27,27,0,0,0,4.85.448,26.65,26.65,0,0,0,25.584-19.433L425.53,167a16.342,16.342,0,0,1-15.574,11.428Z" transform="translate(26.039 -12.259)" fill="#242ca3"/>
          <g id="Grupo_109874" data-name="Grupo 109874" transform="translate(430.739 154.741)" opacity="0.3">
            <path id="Trazado_162225" data-name="Trazado 162225" d="M409.955,178.428a15.989,15.989,0,0,1-3.454-.373c-.416,2.377-1.194,6.972-1.8,10.585a27,27,0,0,0,4.85.448,26.65,26.65,0,0,0,25.584-19.433L425.53,167a16.342,16.342,0,0,1-15.574,11.428Z" transform="translate(-404.7 -167)" fill="#febf10"/>
          </g>
          <path id="Trazado_162226" data-name="Trazado 162226" d="M406.667,163.926h-.991v1.269h-1.365v-1.269H401.06v-.949l2.846-3.827h1.471l-2.644,3.635h1.62v-1.13h1.322v1.13h.991Z" transform="translate(25.798 -12.777)" fill="#263238"/>
          <path id="Trazado_162227" data-name="Trazado 162227" d="M406.71,162.193c0-1.993,1.066-3.123,2.59-3.123s2.59,1.13,2.59,3.123-1.066,3.134-2.59,3.134S406.71,164.165,406.71,162.193Zm3.774,0c0-1.375-.49-1.94-1.183-1.94s-1.215.544-1.215,1.94.49,1.951,1.183,1.951S410.484,163.547,410.484,162.193Z" transform="translate(26.171 -12.782)" fill="#263238"/>
          <path id="Trazado_162228" data-name="Trazado 162228" d="M412.111,160.738a1.5,1.5,0,1,1,.375,1.175,1.5,1.5,0,0,1-.375-1.175Zm2.132,0c0-.64-.245-.949-.629-.949s-.629.32-.629.949.256.959.629.959S414.243,161.389,414.243,160.738Zm2.974-1.588h1.066l-4.157,6.044h-1.066Zm-.991,4.445a.64.64,0,1,0,.032,0Zm2.132,0c0-.64-.245-.959-.629-.959s-.629.309-.629.959.256.959.629.959.661-.32.661-.959Z" transform="translate(26.527 -12.777)" fill="#263238"/>
          <path id="Trazado_162229" data-name="Trazado 162229" d="M432.637,194.016c0,.139-9.861.256-22.024.256s-22.013-.117-22.013-.256,9.861-.256,22.013-.256S432.637,193.9,432.637,194.016Z" transform="translate(24.976 -10.492)" fill="#263238"/>
          <path id="Trazado_162230" data-name="Trazado 162230" d="M422.222,197.825c0,.139-5.469.256-12.216.256s-12.206-.117-12.206-.256,5.469-.245,12.206-.245S422.222,197.687,422.222,197.825Z" transform="translate(25.583 -10.24)" fill="#263238"/>
        </g>
        <g id="freepik--Desk--inject-6" transform="translate(11.982 213.206)">
          <rect id="Rectángulo_41783" data-name="Rectángulo 41783" width="311.21" height="13.261" transform="translate(0 136.15)" fill="#455a64"/>
          <path id="Trazado_162231" data-name="Trazado 162231" d="M105.659,325.36s0,.053-.1.139-.171.234-.32.405a7.006,7.006,0,0,1-1.567,1.2,8.805,8.805,0,0,1-3.006.981,21.727,21.727,0,0,1-4.189.181,41.568,41.568,0,0,1-5.053-.565,46.908,46.908,0,0,0-5.746-.672,36.586,36.586,0,0,0-12.941,2.452c-4.445,1.546-8.592,3.3-12.558,4.371a34.877,34.877,0,0,1-5.724,1.066,25.367,25.367,0,0,1-5.1,0,17.588,17.588,0,0,1-6.972-2.132,11.208,11.208,0,0,1-2.132-1.578l.149.1.416.309a13.858,13.858,0,0,0,1.674,1.066,17.824,17.824,0,0,0,6.929,2.036,24.781,24.781,0,0,0,5.021,0,35.548,35.548,0,0,0,5.639-1.215c3.934-1.066,8.059-2.846,12.526-4.392a36.415,36.415,0,0,1,13.08-2.441,48.591,48.591,0,0,1,5.788.7,41.734,41.734,0,0,0,5.01.608,21.618,21.618,0,0,0,4.147-.117,9.007,9.007,0,0,0,2.963-.906,7.752,7.752,0,0,0,2.057-1.6Z" transform="translate(-39.738 -189.007)" fill="#263238"/>
          <path id="Trazado_162232" data-name="Trazado 162232" d="M71.442,325.55a7.851,7.851,0,0,1-.938.778,20.512,20.512,0,0,1-2.846,1.833,24.826,24.826,0,0,1-4.637,1.844,26.5,26.5,0,0,1-6.066.927A23.781,23.781,0,0,1,46.1,328.748a6.96,6.96,0,0,1-2.622-2.079,4.029,4.029,0,0,1-.426-.8,1.066,1.066,0,0,1-.075-.309,8.635,8.635,0,0,0,.629,1.066,7.11,7.11,0,0,0,2.59,1.834,24.52,24.52,0,0,0,10.66,2.047,25.446,25.446,0,0,0,10.66-2.633,26.231,26.231,0,0,0,2.878-1.663,6.867,6.867,0,0,1,1.045-.661Z" transform="translate(-39.558 -188.995)" fill="#263238"/>
          <path id="Trazado_162233" data-name="Trazado 162233" d="M139.718,333.784a3.241,3.241,0,0,1,.48.171,10.289,10.289,0,0,0,1.439.373,8.678,8.678,0,0,0,5.447-.831v.171a13.229,13.229,0,0,0-6.758-2.569,13.421,13.421,0,0,0-8.794,2.228,1.364,1.364,0,0,0-.682.864.927.927,0,0,0,.586.853,4.018,4.018,0,0,0,1.2.405l1.322.3c1.791.384,3.624.768,5.533,1.066a34.354,34.354,0,0,0,5.874.384,22.2,22.2,0,0,0,3.017-.277c.5-.085,1-.181,1.5-.309a7.651,7.651,0,0,0,1.45-.458,4.8,4.8,0,0,0,1.887-1.322,2.132,2.132,0,0,0,.362-2.047,3.592,3.592,0,0,0-1.482-1.588,11.861,11.861,0,0,0-2.068-.981,28.886,28.886,0,0,0-8.645-1.748,36.958,36.958,0,0,0-23.633,6.961c-.949.714-1.684,1.279-2.132,1.695l-.554.448-.192.149.171-.171c.128-.128.3-.288.522-.48a26.859,26.859,0,0,1,2.132-1.759,35.7,35.7,0,0,1,8.869-4.861,36.789,36.789,0,0,1,14.924-2.324,29.156,29.156,0,0,1,8.763,1.748,12.567,12.567,0,0,1,2.132,1.013,3.859,3.859,0,0,1,1.631,1.791,2.42,2.42,0,0,1-.416,2.4,5.235,5.235,0,0,1-2.025,1.439,7.9,7.9,0,0,1-1.524.48c-.5.128-1.066.224-1.524.309a21.5,21.5,0,0,1-3.07.288,33.9,33.9,0,0,1-5.938-.405c-1.919-.277-3.774-.672-5.554-1.066l-1.322-.3a4.509,4.509,0,0,1-1.3-.458,1.674,1.674,0,0,1-.554-.469.991.991,0,0,1-.192-.714,1.663,1.663,0,0,1,.821-1.066,13.677,13.677,0,0,1,9.008-2.228,13.283,13.283,0,0,1,6.854,2.676l.128.1-.149.075a8.709,8.709,0,0,1-5.607.661,6.586,6.586,0,0,1-1.94-.608Z" transform="translate(-34.812 -188.828)" fill="#263238"/>
          <path id="Trazado_162234" data-name="Trazado 162234" d="M176.419,325.68a1.993,1.993,0,0,1,.309.672,4.989,4.989,0,0,1,.2,1.983,9.7,9.7,0,0,1-3.027,5.788,15.244,15.244,0,0,1-2.836,2.345,12.4,12.4,0,0,1-2.729,1.29,13.4,13.4,0,0,1-1.983.49,2.333,2.333,0,0,1-.746,0c0-.064,1.066-.2,2.633-.789a13.587,13.587,0,0,0,2.633-1.333,15.4,15.4,0,0,0,2.74-2.313,9.9,9.9,0,0,0,3.049-5.554,7.28,7.28,0,0,0-.245-2.58Z" transform="translate(-31.464 -188.986)" fill="#263238"/>
          <path id="Trazado_162235" data-name="Trazado 162235" d="M230.98,337.541a15.494,15.494,0,0,0-1.428-1.354,10.2,10.2,0,0,0-4.861-2.132,10.979,10.979,0,0,0-3.71.107,16.128,16.128,0,0,1-4.339.384,8.773,8.773,0,0,1-4.328-2.057,14.924,14.924,0,0,0-4.339-2.516,16.341,16.341,0,0,0-9.658-.139,22.951,22.951,0,0,0-7.132,3.518,38.389,38.389,0,0,0-4.147,3.443l-1.066,1.013a1.965,1.965,0,0,1-.384.341s.107-.139.33-.394l1-1.066a35.935,35.935,0,0,1,4.093-3.55,23.048,23.048,0,0,1,7.2-3.646,16.65,16.65,0,0,1,9.882.128,15.223,15.223,0,0,1,4.445,2.569,8.4,8.4,0,0,0,4.136,2.015,15.784,15.784,0,0,0,4.264-.352,11.461,11.461,0,0,1,3.806-.053,10.244,10.244,0,0,1,4.925,2.281,6.4,6.4,0,0,1,1.311,1.46Z" transform="translate(-30.145 -188.78)" fill="#263238"/>
          <path id="Trazado_162236" data-name="Trazado 162236" d="M278.043,325.29a2.672,2.672,0,0,1-.341.458,12.4,12.4,0,0,1-1.066,1.226,27.855,27.855,0,0,1-4.541,3.934,36.434,36.434,0,0,1-7.878,4.264,33.391,33.391,0,0,1-5.085,1.578,27.256,27.256,0,0,1-5.682.714,28.942,28.942,0,0,1-10.788-2.132,36.077,36.077,0,0,1-7.846-4.339,29.844,29.844,0,0,1-4.509-3.966c-.5-.5-.821-.949-1.066-1.226a2.677,2.677,0,0,1-.341-.458,4.64,4.64,0,0,1,.394.405c.267.266.608.693,1.119,1.183a33.155,33.155,0,0,0,4.563,3.848,37.306,37.306,0,0,0,7.814,4.264,28.846,28.846,0,0,0,10.66,2.132,26.65,26.65,0,0,0,5.607-.7,33.19,33.19,0,0,0,5.042-1.535,37.8,37.8,0,0,0,7.857-4.157,30.433,30.433,0,0,0,4.584-3.816c.522-.48.853-.917,1.119-1.183A4.638,4.638,0,0,1,278.043,325.29Z" transform="translate(-27.286 -189.012)" fill="#263238"/>
          <path id="Trazado_162237" data-name="Trazado 162237" d="M270.215,325.17a1.575,1.575,0,0,1-.256.213c-.181.128-.448.32-.81.533a33.815,33.815,0,0,1-3.113,1.716,32.886,32.886,0,0,1-4.925,1.951,21.981,21.981,0,0,1-6.4,1.066,27.056,27.056,0,0,1-11.46-2.8,24,24,0,0,1-3.081-1.77c-.362-.224-.608-.426-.789-.554s-.266-.213-.256-.224.405.235,1.119.661a30.756,30.756,0,0,0,3.134,1.652,27.94,27.94,0,0,0,11.3,2.708A22.617,22.617,0,0,0,261,329.253a37.594,37.594,0,0,0,4.9-1.866c1.365-.629,2.431-1.194,3.2-1.61a12.5,12.5,0,0,1,1.109-.608Z" transform="translate(-26.611 -189.02)" fill="#263238"/>
          <path id="Trazado_162238" data-name="Trazado 162238" d="M299.952,326.473h-.362l-1.066-.064-.725-.053h-3.017l-1.237.064-1.332.149c-.927.075-1.9.288-2.932.458a46.354,46.354,0,0,0-6.5,1.887,47.114,47.114,0,0,0-6.1,2.921c-.874.554-1.738,1.066-2.473,1.588l-1.066.768-.959.757c-.629.48-1.151.959-1.61,1.364l-.65.576-.512.512-.725.714c-.171.149-.256.235-.266.224s.064-.107.213-.277l.661-.757.5-.544.629-.6c.448-.426.959-.927,1.578-1.418l.959-.778,1.066-.789c.746-.565,1.6-1.066,2.484-1.631a42.771,42.771,0,0,1,6.14-2.974,44.093,44.093,0,0,1,6.577-1.887c1.066-.16,2.015-.362,2.953-.426l1.354-.128h1.247a20.231,20.231,0,0,1,2.132,0h.885l.736.1,1.013.128A1.2,1.2,0,0,1,299.952,326.473Z" transform="translate(-24.678 -188.958)" fill="#263238"/>
          <path id="Trazado_162239" data-name="Trazado 162239" d="M237.3,337.383a14.552,14.552,0,0,0-1.716-1.983,15.989,15.989,0,0,0-6.268-3.422,35.7,35.7,0,0,0-4.893-1.066c-1.78-.277-3.71-.49-5.724-.831a47.9,47.9,0,0,1-6.215-1.524A40.914,40.914,0,0,0,205.849,327a28.26,28.26,0,0,0-12.909,1.738,48.3,48.3,0,0,0-5.255,2.3c-1.61.8-3.081,1.588-4.424,2.335-2.676,1.471-4.808,2.729-6.279,3.6l-1.695,1.013-.437.256-.16.075.139-.107.416-.288c.373-.256.938-.618,1.652-1.066,1.45-.906,3.56-2.2,6.225-3.71,1.343-.757,2.814-1.556,4.413-2.377a45.835,45.835,0,0,1,5.277-2.345,28.494,28.494,0,0,1,13.123-1.78,41.648,41.648,0,0,1,6.684,1.578,49.666,49.666,0,0,0,6.172,1.535c1.993.341,3.923.576,5.714.863a34.722,34.722,0,0,1,4.925,1.066,15.681,15.681,0,0,1,6.289,3.56A7.783,7.783,0,0,1,237.3,337.383Z" transform="translate(-30.865 -188.931)" fill="#263238"/>
          <path id="Trazado_162240" data-name="Trazado 162240" d="M168.626,325.36a2.675,2.675,0,0,1,0,.842,9.8,9.8,0,0,1-.608,2.239,12.9,12.9,0,0,1-4.786,5.97,32.9,32.9,0,0,1-7.089,3.2c-.949.309-1.716.522-2.26.661a3.746,3.746,0,0,1-.853.171,4.76,4.76,0,0,1,.81-.309l2.217-.778a37.253,37.253,0,0,0,6.972-3.2,13.261,13.261,0,0,0,4.733-5.746A16.741,16.741,0,0,0,168.626,325.36Z" transform="translate(-32.294 -189.007)" fill="#263238"/>
          <path id="Trazado_162241" data-name="Trazado 162241" d="M99.89,338.419a5.328,5.328,0,0,1,.757-.7c.5-.448,1.258-1.066,2.217-1.77a63.955,63.955,0,0,1,7.931-4.978c3.2-1.738,6.257-3.123,8.453-4.1,1.066-.49,1.993-.874,2.612-1.13a5.327,5.327,0,0,1,.981-.373,5.843,5.843,0,0,1-.917.5l-2.558,1.237c-2.132,1.066-5.159,2.462-8.379,4.189a77.557,77.557,0,0,0-7.963,4.872c-.97.682-1.748,1.258-2.281,1.663A5,5,0,0,1,99.89,338.419Z" transform="translate(-35.802 -189.007)" fill="#263238"/>
          <path id="Trazado_162242" data-name="Trazado 162242" d="M116.636,325.881a19.288,19.288,0,0,0-2,0,14.509,14.509,0,0,0-5.191,1.546,47.5,47.5,0,0,0-6.748,4.4,33.941,33.941,0,0,1-4.061,2.569,22.91,22.91,0,0,1-4.85,1.823,46.714,46.714,0,0,1-9.946,1.162c-3.081.085-5.842,0-8.155.117a41.568,41.568,0,0,0-5.458.522c-.64.117-1.13.2-1.46.288l-.512.085a2.667,2.667,0,0,1,.49-.16c.33-.107.821-.224,1.45-.362a38.484,38.484,0,0,1,5.479-.64c2.324-.128,5.1-.1,8.155-.2a47.146,47.146,0,0,0,9.861-1.173,23.388,23.388,0,0,0,4.776-1.791,35.452,35.452,0,0,0,4.03-2.516,45.514,45.514,0,0,1,6.833-4.371,14.091,14.091,0,0,1,5.33-1.439,8.854,8.854,0,0,1,1.5,0A2.926,2.926,0,0,1,116.636,325.881Z" transform="translate(-37.89 -188.984)" fill="#263238"/>
          <path id="Trazado_162243" data-name="Trazado 162243" d="M299.317,325.142c0,.1-13.005.181-29.049.181s-29.049-.085-29.049-.181,13.005-.192,29.049-.192S299.317,325,299.317,325.142Z" transform="translate(-26.473 -189.034)" fill="#263238"/>
          <path id="Trazado_162244" data-name="Trazado 162244" d="M51.16,497.329H46.746L44.22,336.65h9.466Z" transform="translate(-39.476 -188.262)" fill="#455a64"/>
          <path id="Trazado_162245" data-name="Trazado 162245" d="M318.474,497.524H314.05l2.217-160.445h9.456Z" transform="translate(-21.666 -188.234)" fill="#455a64"/>
          <rect id="Rectángulo_41784" data-name="Rectángulo 41784" width="39.464" height="13.261" transform="translate(271.746 136.15)" fill="#455a64"/>
          <path id="Trazado_162246" data-name="Trazado 162246" d="M76.78,255.9a2.517,2.517,0,1,0-4.978.746l11.033,67.3h5.032Z" transform="translate(-37.658 -193.733)" fill="#263238"/>
          <path id="Trazado_162247" data-name="Trazado 162247" d="M72.82,259.642l45.454-49.932.33.544,2.207,3.646L76.551,263.021a2.517,2.517,0,1,1-3.731-3.379Z" transform="translate(-37.631 -196.641)" fill="#263238"/>
          <path id="Trazado_162248" data-name="Trazado 162248" d="M76.072,257.847a.44.44,0,0,0,.064-.309,1.194,1.194,0,0,0-.416-.778,1.354,1.354,0,0,0-1.322-.245,1.418,1.418,0,0,0,0,2.676,1.386,1.386,0,0,0,1.322-.256,1.183,1.183,0,0,0,.416-.767c0-.213,0-.32-.064-.32s-.075.469-.576.8a1.066,1.066,0,0,1-.938.1.981.981,0,0,1-.608-.9.991.991,0,0,1,.608-.9,1.066,1.066,0,0,1,.938.1C76,257.378,76,257.868,76.072,257.847Z" transform="translate(-37.547 -193.556)" fill="#455a64"/>
          <path id="Trazado_162249" data-name="Trazado 162249" d="M75.474,253.82a7.066,7.066,0,0,0-1.343,1.258,17.052,17.052,0,0,0-1.364,1.5,3.2,3.2,0,0,0-.714,2.484,2.537,2.537,0,0,0,1.844,1.812,2.686,2.686,0,0,0,2.132-.288c1.066-.64,1.386-1.29,1.343-1.322a12.339,12.339,0,0,1-1.5,1,2.42,2.42,0,0,1-1.791.16,2.132,2.132,0,0,1-1.482-1.471,2.75,2.75,0,0,1,.6-2.132c.416-.586.9-1.066,1.247-1.535a6.674,6.674,0,0,0,1.034-1.471Z" transform="translate(-37.641 -193.729)" fill="#455a64"/>
          <path id="Trazado_162250" data-name="Trazado 162250" d="M108.152,325.577H66.77S72.1,319,85.83,319C98.654,319,106.308,322.774,108.152,325.577Z" transform="translate(-37.988 -189.427)" fill="#263238"/>
          <path id="Trazado_162251" data-name="Trazado 162251" d="M115.311,202.6l-2.111-3.155,2.6-1.994,2.228,3.177Z" transform="translate(-34.923 -197.45)" fill="#263238"/>
          <path id="Trazado_162252" data-name="Trazado 162252" d="M111.83,204.477l9.061-6.577,8.7,10.468c15.084,2.43,21.16,11.918,21.16,11.918l-27.013,20.67c-9.242-10.212-4.861-24.806-4.861-24.806Z" transform="translate(-35.014 -197.42)" fill="#12263f"/>
          <path id="Trazado_162253" data-name="Trazado 162253" d="M118.45,215.482a42.069,42.069,0,0,0,5.5-3.688,43.555,43.555,0,0,0,5.2-4.093,42.064,42.064,0,0,0-5.5,3.688A42.3,42.3,0,0,0,118.45,215.482Z" transform="translate(-34.577 -196.773)" fill="#263238"/>
          <path id="Trazado_162254" data-name="Trazado 162254" d="M266.1,272.452l-23.729,52.49a7.771,7.771,0,0,1-6.343,3.966l-109.489-.149h0a4.648,4.648,0,0,1,4.509-4.093l41.574-.906,21.267-51.04a4.392,4.392,0,0,1,4.03-2.708l66.306-.5a2.132,2.132,0,0,1,1.876,2.942Z" transform="translate(-34.043 -192.694)" fill="#263238"/>
          <path id="Trazado_162255" data-name="Trazado 162255" d="M171.65,329.322a2.337,2.337,0,0,0,.32-.565c.213-.458.469-1.066.789-1.695l2.782-6.289c2.313-5.33,5.458-12.707,8.837-20.894s6.4-15.628,8.432-21.054c1.066-2.718,1.855-4.914,2.388-6.4.235-.714.437-1.29.6-1.77a2.811,2.811,0,0,0,.171-.64,2.441,2.441,0,0,0-.3.586c-.192.469-.437,1.066-.725,1.727-.64,1.6-1.514,3.752-2.58,6.4l-8.613,20.894c-3.358,8.144-6.4,15.51-8.656,20.958-1.066,2.622-1.929,4.776-2.58,6.4l-.672,1.748a2.2,2.2,0,0,0-.192.6Z" transform="translate(-31.065 -192.66)" fill="#455a64"/>
          <path id="Trazado_162256" data-name="Trazado 162256" d="M211.92,296.35a3.39,3.39,0,1,0,1-2.4,3.4,3.4,0,0,0-1,2.4Z" transform="translate(-28.407 -191.146)" fill="#fff"/>
        </g>
        <g id="freepik--Character--inject-6" transform="translate(244.105 138.024)">
          <path id="Trazado_162257" data-name="Trazado 162257" d="M303.207,148.085c1.247-2.836-.181-6.4-2.473-8.528a8.347,8.347,0,0,0-8.7-1.407,5.938,5.938,0,0,0-2.985,2.548,5.682,5.682,0,0,0,.917,6.076,10.66,10.66,0,0,0,5.543,3.2,9.433,9.433,0,0,0,4.584.256,4.754,4.754,0,0,0,3.443-2.814" transform="translate(-282.633 -126.224)" fill="#263238"/>
          <path id="Trazado_162258" data-name="Trazado 162258" d="M361.536,186.925c-2.132.7-4.424-1.162-4.925-3.315s.288-4.392,1.226-6.4,2.036-4.019,2.2-6.225c.277-3.763-2.207-7.11-3.283-10.724-2.239-7.462,1.546-16.321-2.4-23.122a16.459,16.459,0,0,0-8.123-7.27,14.327,14.327,0,0,0-11.865.394,21.778,21.778,0,0,0-16.992-2.665,21.5,21.5,0,0,0-13.421,10.66c-1.823,3.486-2.654,7.462-4.818,10.735-1.663,2.505-4.136,4.754-4.381,7.739-.32,3.784,3.113,6.961,3.464,10.745.405,4.467-3.539,8.912-1.9,13.091,1.13,2.889,4.68,4.616,5.042,7.7a6.513,6.513,0,0,0,.373,2.58,5.682,5.682,0,0,0,4.712,2.26c18.858-1.151,34.848,1.663,51.691-2.654a6.4,6.4,0,0,0,2.505-1.066,2.377,2.377,0,0,0,.9-2.462Z" transform="translate(-282.226 -126.923)" fill="#263238"/>
          <path id="Trazado_162259" data-name="Trazado 162259" d="M308.843,143.9l-.2-3.955,23.644-5.266c7.313-1,15.478,6.1,16.171,13.442.768,8.166,1.386,18.122.608,24.294-1.578,12.334-10.927,14.189-10.927,14.189l.32,15-27.1-.97Z" transform="translate(-281.308 -126.417)" fill="#ffbe9d"/>
          <path id="Trazado_162260" data-name="Trazado 162260" d="M343.124,155.916a1.578,1.578,0,0,1-1.471,1.631,1.492,1.492,0,0,1-1.663-1.364,1.578,1.578,0,0,1,1.46-1.642,1.514,1.514,0,0,1,1.674,1.375Z" transform="translate(-279.238 -125.101)" fill="#263238"/>
          <path id="Trazado_162261" data-name="Trazado 162261" d="M344.087,152.347c-.181.213-1.407-.629-3.1-.576s-2.9.938-3.091.736.1-.458.618-.874a4.264,4.264,0,0,1,2.473-.842,4.125,4.125,0,0,1,2.484.714C344,151.888,344.183,152.251,344.087,152.347Z" transform="translate(-279.381 -125.348)" fill="#263238"/>
          <path id="Trazado_162262" data-name="Trazado 162262" d="M328.324,156.6a1.578,1.578,0,0,1-1.46,1.642,1.514,1.514,0,0,1-1.674-1.375,1.578,1.578,0,0,1,1.471-1.631,1.492,1.492,0,0,1,1.663,1.364Z" transform="translate(-280.215 -125.055)" fill="#263238"/>
          <path id="Trazado_162263" data-name="Trazado 162263" d="M328.488,153.1c-.192.213-1.407-.629-3.1-.576s-2.91.938-3.1.736.1-.458.629-.874a4.264,4.264,0,0,1,2.473-.842,4.083,4.083,0,0,1,2.473.714C328.381,152.67,328.573,153.033,328.488,153.1Z" transform="translate(-280.411 -125.298)" fill="#263238"/>
          <path id="Trazado_162264" data-name="Trazado 162264" d="M334.312,165.5a11.118,11.118,0,0,1,2.729-.576c.437-.064.842-.16.906-.458a2.131,2.131,0,0,0-.33-1.269l-1.418-3.251a70.915,70.915,0,0,1-3.2-8.528,64.774,64.774,0,0,1,3.816,8.251c.469,1.141.906,2.228,1.332,3.273a2.5,2.5,0,0,1,.277,1.695,1.066,1.066,0,0,1-.693.65,2.964,2.964,0,0,1-.736.128A10.66,10.66,0,0,1,334.312,165.5Z" transform="translate(-279.7 -125.306)" fill="#263238"/>
          <path id="Trazado_162265" data-name="Trazado 162265" d="M337.351,183.651a32.428,32.428,0,0,1-16.981-3.891s4.4,8.464,17.056,6.95Z" transform="translate(-280.533 -123.435)" fill="#eb996e"/>
          <path id="Trazado_162266" data-name="Trazado 162266" d="M333.991,168.548a3.07,3.07,0,0,0-2.772-1.066,2.782,2.782,0,0,0-1.9,1.066,1.791,1.791,0,0,0-.075,2.025,2.047,2.047,0,0,0,2.239.49,6.535,6.535,0,0,0,2.132-1.354,2.194,2.194,0,0,0,.469-.522.564.564,0,0,0,0-.629" transform="translate(-279.966 -124.248)" fill="#eb996e"/>
          <path id="Trazado_162267" data-name="Trazado 162267" d="M329.605,165.88c.277,0,.33,1.812,1.951,3.07s3.56.991,3.582,1.247-.426.373-1.247.416a4.6,4.6,0,0,1-3-.938,3.987,3.987,0,0,1-1.514-2.58C329.286,166.328,329.478,165.869,329.605,165.88Z" transform="translate(-279.94 -124.352)" fill="#263238"/>
          <path id="Trazado_162268" data-name="Trazado 162268" d="M328.787,148.6c-.149.469-1.844.3-3.827.608s-3.571.885-3.848.49c-.117-.2.149-.64.778-1.066a6.874,6.874,0,0,1,5.852-.81C328.456,148.034,328.861,148.385,328.787,148.6Z" transform="translate(-280.486 -125.565)" fill="#263238"/>
          <path id="Trazado_162269" data-name="Trazado 162269" d="M343.848,146.9c-.288.394-1.471,0-2.868.064s-2.59.33-2.868-.064c-.128-.192,0-.576.554-.959a4,4,0,0,1,2.313-.7,3.913,3.913,0,0,1,2.3.7C343.795,146.327,343.976,146.711,343.848,146.9Z" transform="translate(-279.365 -125.714)" fill="#263238"/>
          <path id="Trazado_162270" data-name="Trazado 162270" d="M329.838,133.338a154.765,154.765,0,0,0-19.977,4.8,4.8,4.8,0,0,0-2.676,1.556,4.989,4.989,0,0,0-.512,3.113,103.565,103.565,0,0,1-.821,19.316,25.349,25.349,0,0,0,.394,8.784c1.162,5.469.33,21.832,4.68,21.587,16.267-3.465,5.042-15.478,3.369-21.107a6.055,6.055,0,0,1,1.375-5.543c.981-1.066,2.366-1.8,3.4-2.868a6.567,6.567,0,0,0,.448-8.528,5.639,5.639,0,0,1-1.45-3.2c-.2-3.1,2.868-3.614,5.2-4.36,4.914-1.567,11.619-9.306,10.212-14.167Z" transform="translate(-281.506 -126.54)" fill="#263238"/>
          <path id="Trazado_162271" data-name="Trazado 162271" d="M300.25,146.289a22.022,22.022,0,0,0,5.458.938,27.716,27.716,0,0,0,12.867-3.2,48.8,48.8,0,0,0,10.852-7.846c1.268-1.173,2.239-2.132,2.931-2.857a8.436,8.436,0,0,1,1.066-1.066,9.291,9.291,0,0,1-.927,1.183c-.64.736-1.578,1.78-2.814,3A45.113,45.113,0,0,1,318.8,144.5a26.724,26.724,0,0,1-13.122,3.113,15.7,15.7,0,0,1-4.061-.736c-.458-.16-.81-.3-1.066-.405S300.239,146.31,300.25,146.289Z" transform="translate(-281.862 -126.571)" fill="#455a64"/>
          <path id="Trazado_162272" data-name="Trazado 162272" d="M331.81,130.18a6.648,6.648,0,0,1-.768,1.141,30,30,0,0,1-2.462,2.814,32.364,32.364,0,0,1-22.216,9.509,29.432,29.432,0,0,1-3.742-.149,6.034,6.034,0,0,1-1.343-.235c0-.107,1.94.149,5.074,0a34.219,34.219,0,0,0,21.949-9.413C330.574,131.694,331.725,130.116,331.81,130.18Z" transform="translate(-281.793 -126.708)" fill="#455a64"/>
          <path id="Trazado_162273" data-name="Trazado 162273" d="M353.239,140.372a3.2,3.2,0,0,1-.885,0,19.009,19.009,0,0,1-2.409-.2,26.771,26.771,0,0,1-7.633-2.281,32.975,32.975,0,0,1-6.694-4.328c-.778-.65-1.4-1.194-1.8-1.6s-.618-.64-.586-.661a27.866,27.866,0,0,1,2.633,1.951,38.757,38.757,0,0,0,6.695,4.125,30.916,30.916,0,0,0,7.462,2.409C351.939,140.18,353.239,140.276,353.239,140.372Z" transform="translate(-279.685 -126.634)" fill="#455a64"/>
          <path id="Trazado_162274" data-name="Trazado 162274" d="M297.512,171.093a8.189,8.189,0,0,1,.256-1.269,10.565,10.565,0,0,0,.267-3.422,6.65,6.65,0,0,0-.682-2.239c-.373-.768-.906-1.514-1.428-2.377a10.021,10.021,0,0,1-1.471-6.268,6.812,6.812,0,0,1,1.279-3.145c.64-.885,1.343-1.642,1.9-2.43a29.972,29.972,0,0,0,2.644-4.435c.661-1.322,1.151-2.42,1.5-3.2a5.523,5.523,0,0,1,.6-1.151,5.862,5.862,0,0,1-.394,1.237c-.3.778-.736,1.9-1.354,3.251a27.443,27.443,0,0,1-2.58,4.563c-1.13,1.631-2.825,3.123-3.049,5.33a9.743,9.743,0,0,0,1.375,5.938,22.054,22.054,0,0,1,1.4,2.43,6.737,6.737,0,0,1,.65,2.4,9.594,9.594,0,0,1-.437,3.518A4.956,4.956,0,0,1,297.512,171.093Z" transform="translate(-282.247 -125.983)" fill="#455a64"/>
          <path id="Trazado_162275" data-name="Trazado 162275" d="M367.7,245.55l-15.18,9.839-1.386,15.35s4.467,2.079,11.023-3.88,15.095-18.037,15.095-18.037Z" transform="translate(-278.503 -119.093)" fill="#ffbe9d"/>
          <path id="Trazado_162276" data-name="Trazado 162276" d="M367.17,253.022l-4.978-25.232-13.272,5.255,3.39,33.227Z" transform="translate(-278.649 -120.265)" fill="#ffbe9d"/>
          <path id="Trazado_162277" data-name="Trazado 162277" d="M402.386,221.673a1.652,1.652,0,0,0-1.226-1.066l-9.541-1.844a2.974,2.974,0,0,0-2.377.6L360.46,242.023l1.173,1.311,10.191,3.1L402.578,222.1Z" transform="translate(-277.887 -120.864)" fill="#263238"/>
          <path id="Trazado_162278" data-name="Trazado 162278" d="M392.531,223.053a.682.682,0,1,0,.317-.768.682.682,0,0,0-.317.768Z" transform="translate(-275.772 -120.635)" fill="#fff"/>
          <path id="Trazado_162279" data-name="Trazado 162279" d="M402.436,222.064a12.953,12.953,0,0,1-1.876-.256l-5.085-.885-3.507-.65a2,2,0,0,0-1.695.352l-1.631,1.311-7.366,5.81c-5.234,4.1-10,7.8-13.464,10.457l-4.125,3.134a10.774,10.774,0,0,1-1.567,1.066,16.007,16.007,0,0,1,1.429-1.258l4-3.262c3.4-2.729,8.123-6.471,13.357-10.585l7.4-5.778,1.663-1.29a2.516,2.516,0,0,1,2.079-.416l3.5.714,5.064,1.066A11.656,11.656,0,0,1,402.436,222.064Z" transform="translate(-277.778 -120.796)" fill="#455a64"/>
          <path id="Trazado_162280" data-name="Trazado 162280" d="M388.659,228.452s-.757-.416-1.961,1.652-4.8,7.963-4.8,7.963l-3.486-3.7-5.565-1.119s-1.524.682-.874,1.556a19.794,19.794,0,0,0,3.816,2.622l1.268,4.4-5.959-5.852s-2.59-.181-2.377,1.5,3.465,7.856,3.465,7.856l-3.486-1.482-3.369-4.019s-1.322-.384-1.2.9,3.2,6.78,3.2,6.78l4.477,4.413s3,.768,3.571,0a11.148,11.148,0,0,0,1.066-1.961s1.695.107,2.239-.544a5.042,5.042,0,0,0,.767-1.908s2.281,1.247,3.049,0a16.171,16.171,0,0,0,1.524-5.149c.117-1.119,4.69-10.394,4.69-10.724S390.407,228.335,388.659,228.452Z" transform="translate(-277.645 -120.224)" fill="#ffbe9d"/>
          <path id="Trazado_162281" data-name="Trazado 162281" d="M375.334,250.856a3.07,3.07,0,0,1-1.546,0,9.977,9.977,0,0,1-3.475-1.354,9.818,9.818,0,0,1-2.729-2.548c-.554-.778-.768-1.332-.7-1.364a20.822,20.822,0,0,0,3.742,3.422,21.138,21.138,0,0,0,4.712,1.844Z" transform="translate(-277.464 -119.09)" fill="#eb996e"/>
          <path id="Trazado_162282" data-name="Trazado 162282" d="M374.394,248.591c-.128.085-.906-.725-1.631-1.908s-1.13-2.228-.981-2.3.757.853,1.471,2S374.522,248.484,374.394,248.591Z" transform="translate(-277.142 -119.17)" fill="#eb996e"/>
          <path id="Trazado_162283" data-name="Trazado 162283" d="M378.483,245.153c-.117.1-.9-.714-1.546-1.908a4.263,4.263,0,0,1-.757-2.345c.149-.053.64.906,1.268,2.068S378.621,245.058,378.483,245.153Z" transform="translate(-276.85 -119.4)" fill="#eb996e"/>
          <path id="Trazado_162284" data-name="Trazado 162284" d="M382.418,242.655a14.294,14.294,0,0,1-.842-2.558,14.2,14.2,0,0,1-.9-2.537,6.321,6.321,0,0,1,1.738,5.1Z" transform="translate(-276.553 -119.62)" fill="#eb996e"/>
          <path id="Trazado_162285" data-name="Trazado 162285" d="M343.71,194.61s9.008,4.029,12.1,9.125,11.481,34.293,11.481,34.293l-11.79,2.335Z" transform="translate(-278.993 -122.455)" fill="#ff004c"/>
          <path id="Trazado_162286" data-name="Trazado 162286" d="M339.829,193.048,310.94,190.82l3.72,15.915,25.872,8.624,3.433-5.81Z" transform="translate(-281.156 -122.705)" fill="#ffbe9d"/>
          <path id="Trazado_162287" data-name="Trazado 162287" d="M359.986,227.416c-2.324-8.006-12.3-32.556-12.3-32.556l-7.686-2.3s0,8.006-2.836,8.528-16.48.6-23.186-8.038l-1.226-2.228L293.68,203.036h0c-3.2,1.951-7.856,6.513-8.528,15.852-.618,8.528-1.652,31.1-1.652,31.1l18.655-.661,1.524,8.336-1.3,9.829s-2.58,13.858-1.066,15.99a6.4,6.4,0,0,0,4.136,2.356l50.1-3.88,1.663-27.6S362.31,235.432,359.986,227.416Z" transform="translate(-282.967 -122.705)" fill="#ff004c"/>
          <path id="Trazado_162288" data-name="Trazado 162288" d="M286.935,246.641s-1.78,17.259.2,25.179c2.057,8.187,6.119,8.07,9.541,8.3s57.33-28,57.33-28l-5.98-10.66-40.594,12.3.373-7.92Z" transform="translate(-282.789 -119.363)" fill="#ffbe9d"/>
          <path id="Trazado_162289" data-name="Trazado 162289" d="M343.88,242.671l9.722-12.184,8.784-2.036,10.66,1.183a2.132,2.132,0,0,1-1.279,2.462l3.742.213a2.132,2.132,0,0,1-1.386,2.782l2.676.469a3.848,3.848,0,0,1-4.179,2.207,58.406,58.406,0,0,0-7.92-.533l-5.245,2.889,7.814-.32,5.671,1.066s.757,1.45-.533,1.791-6.215,0-6.215,0l-7.462,1.951s-1.6,4.818-2.569,5.9-6.321,2.462-6.321,2.462Z" transform="translate(-278.982 -120.222)" fill="#ffbe9d"/>
          <path id="Trazado_162290" data-name="Trazado 162290" d="M374.807,232.169a15.1,15.1,0,0,1-2.91-.107c-1.791-.139-4.264-.373-6.982-.672L362.3,231.1h.107c-2.036.576-3.8,1.066-5.053,1.365a9.071,9.071,0,0,1-2.036.405,8.776,8.776,0,0,1,1.94-.746c1.226-.416,2.974-.959,4.989-1.556h.107l2.622.266c2.718.3,5.181.6,6.961.842a15.212,15.212,0,0,1,2.868.49Z" transform="translate(-278.226 -120.082)" fill="#eb996e"/>
          <path id="Trazado_162291" data-name="Trazado 162291" d="M375.288,235.12a12.792,12.792,0,0,1-2.644-.181c-1.62-.181-3.848-.48-6.311-.842l-2.441-.362h.139a45.6,45.6,0,0,1-6.161,2.132,42.426,42.426,0,0,1,5.959-2.686h.139l2.452.352c2.462.352,4.68.714,6.289,1A11.634,11.634,0,0,1,375.288,235.12Z" transform="translate(-278.058 -119.909)" fill="#eb996e"/>
          <path id="Trazado_162292" data-name="Trazado 162292" d="M349.86,253a5.736,5.736,0,0,1,.863-.288c.565-.181,1.4-.448,2.473-.831.533-.2,1.119-.426,1.748-.714a6.194,6.194,0,0,0,.917-.533,2.709,2.709,0,0,0,.661-.885,39.051,39.051,0,0,0,2.057-5.159v-.1h.1l7.462-1.983h.075c1.279.075,2.633.139,4.03.139a11.176,11.176,0,0,0,2.079-.149.661.661,0,0,0,.565-.522,1.588,1.588,0,0,0-.171-.917l.181.128-5.682-1.066h.064l-7.814.341-1.2.053,1.066-.586,5.245-2.9h.139c1.983,0,4.072.085,6.194.3.576.064,1.162.139,1.738.235a3.784,3.784,0,0,0,1.588,0,3.7,3.7,0,0,0,2.313-1.983l.213.394-2.676-.469-.981-.181.927-.373a2.132,2.132,0,0,0,1.162-.959,1.951,1.951,0,0,0,.075-1.45l.245.171-3.752-.213-1.066-.064.917-.458a2.206,2.206,0,0,0,.97-.9,1.919,1.919,0,0,0,.181-1.258l.234.2-10.66-1.2h.085l-8.795,2,.117-.075-7.206,8.869-1.94,2.228-.522.608q-.181.2-.192.192a1.067,1.067,0,0,1,.149-.234l.48-.64,1.887-2.452,7.057-8.986v-.053h.149l8.773-2.132h.075l10.713,1.151h.192v.171a2.452,2.452,0,0,1-.213,1.652,2.76,2.76,0,0,1-1.215,1.13l-.107-.522,3.752.213h.192l.053.16a2.5,2.5,0,0,1-.1,1.919,2.7,2.7,0,0,1-1.45,1.237l-.064-.544,2.686.469.373.064-.16.33a4.03,4.03,0,0,1-4.531,2.367c-.565-.085-1.13-.16-1.706-.224-2.132-.213-4.168-.277-6.13-.3h.139l-5.255,2.889-.149-.533,7.825-.309h.064l5.671,1.066h.128l.053.117a2.132,2.132,0,0,1,.213,1.247,1.183,1.183,0,0,1-.938.906,11.357,11.357,0,0,1-2.207.149c-1.418,0-2.772-.075-4.061-.171h.075l-7.462,1.908.128-.117a36.8,36.8,0,0,1-2.132,5.181,2.953,2.953,0,0,1-.768.97,5.2,5.2,0,0,1-.981.533,18.54,18.54,0,0,1-1.78.682c-1.066.352-1.929.586-2.505.736l-.661.16A.64.64,0,0,1,349.86,253Z" transform="translate(-278.982 -120.241)" fill="#eb996e"/>
          <path id="Trazado_162293" data-name="Trazado 162293" d="M283,249.032a1.9,1.9,0,0,1,.522-.075l1.524-.1,5.682-.266,19.444-.746-.266.277c.075-2.729,0-5.639-.128-8.624-.245-4.946-.682-9.594-.959-13.922-.149-2.132-.2-4.189-.373-6.076a37.052,37.052,0,0,0-.81-5.2,19.755,19.755,0,0,0-3.038-6.94,20.576,20.576,0,0,0-1.8-2.132,3.3,3.3,0,0,1,.576.469,13.2,13.2,0,0,1,1.407,1.546,19.06,19.06,0,0,1,3.251,6.982,34.347,34.347,0,0,1,.885,5.255c.2,1.908.277,3.944.437,6.076.309,4.264.757,8.976,1,13.933.16,3,.192,5.927.117,8.667v.266H310.2l-19.455.544-5.692.1h-1.514a3.429,3.429,0,0,1-.544-.032Z" transform="translate(-283 -121.754)" fill="#263238"/>
          <path id="Trazado_162294" data-name="Trazado 162294" d="M413.542,424.3,432.709,470l-19.348,9.392L387.34,434.928Z" transform="translate(-276.113 -107.294)" fill="#ffbe9d"/>
          <path id="Trazado_162295" data-name="Trazado 162295" d="M428.962,461.45l.65,1.279s26.032-2.132,28.324,1.887l-43.184,21.32-6.492-14.658C416.148,471.044,423.024,468.07,428.962,461.45Z" transform="translate(-274.732 -104.842)" fill="#455a64"/>
          <g id="Grupo_109875" data-name="Grupo 109875" transform="translate(139.543 368.373)" opacity="0.6">
            <path id="Trazado_162296" data-name="Trazado 162296" d="M414.529,472.949a1.962,1.962,0,0,0-.234,2.612,1.9,1.9,0,0,0,2.59.245,2.068,2.068,0,0,0,.224-2.772,1.962,1.962,0,0,0-2.718,0" transform="translate(-413.903 -472.487)" fill="#fff"/>
          </g>
          <g id="Grupo_109876" data-name="Grupo 109876" transform="translate(138.463 358.418)" opacity="0.6">
            <path id="Trazado_162297" data-name="Trazado 162297" d="M414.446,485.781l-1.556-3.528,41.947-19.1s2.335-.107,2.793,1.354Z" transform="translate(-412.89 -463.148)" fill="#fff"/>
          </g>
          <path id="Trazado_162298" data-name="Trazado 162298" d="M428.661,462.693c.107.213-.906.831-1.61,2.025s-.821,2.345-1.066,2.356-.522-1.365.362-2.782S428.618,462.48,428.661,462.693Z" transform="translate(-273.578 -104.764)" fill="#263238"/>
          <path id="Trazado_162299" data-name="Trazado 162299" d="M433.71,462.362c.149.181-.586.981-.863,2.228s0,2.292-.235,2.388-.938-1.066-.565-2.58S433.6,462.159,433.71,462.362Z" transform="translate(-273.169 -104.784)" fill="#263238"/>
          <path id="Trazado_162300" data-name="Trazado 162300" d="M438.583,466.525c-.171.139-.981-.767-1.013-2.185s.736-2.367.906-2.239-.128,1.066-.085,2.217S438.775,466.407,438.583,466.525Z" transform="translate(-272.798 -104.8)" fill="#263238"/>
          <path id="Trazado_162301" data-name="Trazado 162301" d="M375.98,408.982l17.344,48.343,30.754-14.8-31.543-74.77Z" transform="translate(-276.863 -111.026)" fill="#263238"/>
          <path id="Trazado_162302" data-name="Trazado 162302" d="M386.863,415.246l-27.279,63.033-20.414-6.748,20.265-69.312Z" transform="translate(-279.292 -108.752)" fill="#ffbe9d"/>
          <path id="Trazado_162303" data-name="Trazado 162303" d="M362.406,468.387l-.437,1.365s20.147,16.64,19,21.1L335.18,476l5.565-15C346.522,466.33,353.537,468.995,362.406,468.387Z" transform="translate(-279.556 -104.872)" fill="#455a64"/>
          <g id="Grupo_109877" data-name="Grupo 109877" transform="translate(62.251 362.506)" opacity="0.6">
            <path id="Trazado_162304" data-name="Trazado 162304" d="M343.383,467a1.951,1.951,0,0,0-1.983,1.706,1.876,1.876,0,0,0,1.684,1.983,2.068,2.068,0,0,0,2.132-1.823c0-.959-1.066-2.036-1.972-1.865" transform="translate(-341.397 -466.983)" fill="#fff"/>
          </g>
          <g id="Grupo_109878" data-name="Grupo 109878" transform="translate(55.614 367.513)" opacity="0.6">
            <path id="Trazado_162305" data-name="Trazado 162305" d="M335.17,475.294l1.343-3.614,43.4,15.553s1.748,1.546,1.066,2.91Z" transform="translate(-335.17 -471.68)" fill="#fff"/>
          </g>
          <path id="Trazado_162306" data-name="Trazado 162306" d="M360.728,469.417c-.075.224-1.226,0-2.558.32s-2.228,1.066-2.4.959.576-1.343,2.2-1.748S360.846,469.225,360.728,469.417Z" transform="translate(-278.198 -104.356)" fill="#263238"/>
          <path id="Trazado_162307" data-name="Trazado 162307" d="M364.583,472.715c0,.235-1.119.3-2.185,1s-1.61,1.631-1.823,1.546,0-1.4,1.386-2.239S364.647,472.5,364.583,472.715Z" transform="translate(-277.884 -104.115)" fill="#263238"/>
          <path id="Trazado_162308" data-name="Trazado 162308" d="M365.136,479.126c-.213,0-.16-1.237.81-2.271s2.132-1.183,2.207-.97-.821.661-1.61,1.524S365.371,479.211,365.136,479.126Z" transform="translate(-277.585 -103.895)" fill="#263238"/>
          <path id="Trazado_162309" data-name="Trazado 162309" d="M350.349,301.014a11.4,11.4,0,0,0-5.33-4.776l-.3-19.188-39.751,3.145s-14.2,19.38-14.2,27.119,0,23.228,17.131,34.389l39.773-28.462S352.438,304.585,350.349,301.014Z" transform="translate(-282.487 -117.014)" fill="#263238"/>
          <path id="Trazado_162310" data-name="Trazado 162310" d="M378.835,350.5l-34.4-34.965-11.715-37.7,19.625-1.524,2.4,20.425" transform="translate(-279.718 -117.063)" fill="#263238"/>
          <path id="Trazado_162311" data-name="Trazado 162311" d="M321.365,279.23a4.561,4.561,0,0,1,.33,1.215,26.682,26.682,0,0,1,.416,3.4,20.319,20.319,0,0,1-.373,5.074,15.169,15.169,0,0,1-2.452,5.756,11.993,11.993,0,0,1-4.754,4.062,10.489,10.489,0,0,1-5.042.917,8.783,8.783,0,0,1-3.315-.906,6.062,6.062,0,0,1-.8-.5c-.171-.128-.256-.192-.245-.213a10.9,10.9,0,0,0,4.392,1.2,10.288,10.288,0,0,0,4.776-.991,11.726,11.726,0,0,0,4.52-3.9,17.665,17.665,0,0,0,2.878-10.49C321.642,281,321.259,279.251,321.365,279.23Z" transform="translate(-281.539 -116.87)" fill="#263238"/>
          <path id="Trazado_162312" data-name="Trazado 162312" d="M347.462,292.231a7.1,7.1,0,0,1-1.887,1.45,21.322,21.322,0,0,1-10.948,3.2,6.749,6.749,0,0,1-2.377-.224,41.321,41.321,0,0,0,7.91-1.173C344.424,294.256,347.366,292.06,347.462,292.231Z" transform="translate(-279.749 -116.012)" fill="#455a64"/>
          <path id="Trazado_162313" data-name="Trazado 162313" d="M344.543,279.384c0-.053.693-.245,1.546.394a2.026,2.026,0,0,1,.789,1.652,2.132,2.132,0,0,1-1.215,1.9,1.994,1.994,0,0,1-2.2-.5,1.631,1.631,0,0,1-.256-1.823,1.588,1.588,0,0,1,.9-.832.563.563,0,0,1,.448,0,1.532,1.532,0,0,0-.959,1,1.194,1.194,0,0,0,.256,1.29,1.514,1.514,0,0,0,1.588.341,1.674,1.674,0,0,0,.384-2.708C345.183,279.47,344.532,279.48,344.543,279.384Z" transform="translate(-279.037 -116.864)" fill="#455a64"/>
          <path id="Trazado_162314" data-name="Trazado 162314" d="M350.091,302.567a7.462,7.462,0,0,1,3.2-6.567c.128.128-1.066,1.3-1.929,3.123S350.261,302.588,350.091,302.567Z" transform="translate(-278.572 -115.763)" fill="#455a64"/>
          <path id="Trazado_162315" data-name="Trazado 162315" d="M384.671,354.09c.107.117-4.84,4.658-11.033,10.148s-11.321,9.839-11.428,9.722,4.84-4.669,11.044-10.159S384.564,353.994,384.671,354.09Z" transform="translate(-277.772 -111.929)" fill="#455a64"/>
          <path id="Trazado_162316" data-name="Trazado 162316" d="M383.111,355.9a9.156,9.156,0,0,1-1.3,2.185,45.136,45.136,0,0,1-3.827,4.776,45.642,45.642,0,0,1-4.445,4.211,9.4,9.4,0,0,1-2.068,1.471c-.117-.139,2.878-2.58,6.087-6.076S382.962,355.8,383.111,355.9Z" transform="translate(-277.161 -111.809)" fill="#455a64"/>
          <path id="Trazado_162317" data-name="Trazado 162317" d="M323.374,281a2.846,2.846,0,0,1-.16.927,14.293,14.293,0,0,1-.832,2.43,19.876,19.876,0,0,1-1.844,3.337,23.451,23.451,0,0,1-3.059,3.539,23.148,23.148,0,0,1-3.752,2.782,19.994,19.994,0,0,1-3.465,1.588,14.652,14.652,0,0,1-2.484.65,2.61,2.61,0,0,1-.938.1c0-.107,1.29-.341,3.273-1.13a23.017,23.017,0,0,0,3.337-1.663,24.715,24.715,0,0,0,3.635-2.75,24.981,24.981,0,0,0,3.017-3.422,23.09,23.09,0,0,0,1.908-3.2C322.937,282.237,323.278,280.936,323.374,281Z" transform="translate(-281.426 -116.753)" fill="#455a64"/>
          <path id="Trazado_162318" data-name="Trazado 162318" d="M306.843,339.4l56.4,48.919L345.39,454.484l34.293,10.3s21.587-75.335,22.386-87.988-7.515-15.841-11.278-20.926-45.348-44.708-45.348-44.708L306.79,339.4" transform="translate(-281.43 -114.762)" fill="#263238"/>
          <path id="Trazado_162319" data-name="Trazado 162319" d="M328.86,304a7.943,7.943,0,0,1,1.983.149,20.166,20.166,0,0,1,5.33,1.951,28.783,28.783,0,0,1,7.313,5.2l8.528,8.24c6.321,6.14,13.858,13.432,22.216,21.533l13.037,12.792c2.239,2.228,4.531,4.5,6.812,6.854a21.97,21.97,0,0,1,5.383,8.4,24.172,24.172,0,0,1,1.066,4.946,31.205,31.205,0,0,1,0,4.989,60.016,60.016,0,0,1-1.812,9.53c-1.61,6.13-3.2,12.046-4.626,17.685-3,11.246-5.7,21.373-7.974,29.848s-4.147,15.361-5.447,20.147c-.65,2.345-1.151,4.189-1.5,5.458l-.405,1.418c-.1.32-.16.48-.16.48a4.129,4.129,0,0,1,.107-.49l.352-1.428c.33-1.279.8-3.134,1.407-5.5,1.247-4.786,3.049-11.673,5.277-20.18s4.893-18.666,7.856-29.923l4.584-17.685a58.878,58.878,0,0,0,1.791-9.445,30.021,30.021,0,0,0,0-4.893,22.93,22.93,0,0,0-1.066-4.818,21.544,21.544,0,0,0-5.255-8.2c-2.271-2.345-4.562-4.626-6.8-6.854l-13.016-12.792c-8.325-8.134-15.82-15.468-22.13-21.619-3.145-3.081-6-5.852-8.528-8.3a28.593,28.593,0,0,0-7.206-5.234,21.245,21.245,0,0,0-5.245-2.036,14.072,14.072,0,0,0-1.46-.213Z" transform="translate(-279.973 -115.236)" fill="#455a64"/>
        </g>
      </g>
    </g>
  </g>
</svg>
