<svg xmlns="http://www.w3.org/2000/svg" width="128.734" height="128.734" viewBox="0 0 128.734 128.734">
  <g id="Grupo_124172" data-name="Grupo 124172" transform="translate(-226 9786.401)">
    <g id="Grupo_123822" data-name="Grupo 123822" transform="translate(-511.175 -11589.289)">
      <circle id="Elipse_6004" data-name="Elipse 6004" cx="64.367" cy="64.367" r="64.367" transform="translate(737.175 1802.888)" fill="#fff"/>
      <g id="Grupo_122286" data-name="Grupo 122286" transform="translate(765.569 1831.022)">
        <path id="Trazado_166736" data-name="Trazado 166736" d="M826.307,365.1a41.2,41.2,0,0,0,3.469-2.4l.589-.407c1.8,1.71,3.524,3.5,5.282,5.251.4.394.283.763-.01,1.155-.954,1.275-1.868,2.579-2.816,3.858-.723.976-.692,1-.069,2.041a28.535,28.535,0,0,1,3.4,8.342,1.227,1.227,0,0,0,1.193,1.09c1.669.249,3.337.514,5,.786a.826.826,0,0,1,.824.949q-.018,4.2,0,8.4c0,.634-.26.884-.874.981-1.692.266-3.382.54-5.074.8a1.1,1.1,0,0,0-1.046.979,28.321,28.321,0,0,1-3.582,8.652,1.212,1.212,0,0,0,.053,1.567q1.47,1.972,2.882,3.988c.537.768.528.877-.135,1.533-1.678,1.663-3.31,3.371-5.029,4.992-1.106-.8-2.208-1.6-3.32-2.383a1.71,1.71,0,0,0-.739-.424.768.768,0,0,1-.4-.162c-.606-.614-1.144-.462-1.841-.04a38.422,38.422,0,0,1-10.216,4.481.972.972,0,0,0-.822.933c-.223,1.646-.519,3.281-.777,4.922a1.537,1.537,0,0,1-.266.885c-2.122.007-4.244,0-6.366.029-.439.005-.552-.151-.612-.571-.262-1.855-.574-3.7-.864-5.555a.785.785,0,0,0-.682-.771,29.055,29.055,0,0,1-9.37-3.857,1.369,1.369,0,0,0-.656-.283c-.069-.022-.155-.024-.2-.07-.919-.884-1.712-.528-2.566.165-1.008.817-2.09,1.542-3.145,2.3-.221.159-.42.437-.76.242-1.782-1.763-3.555-3.534-5.353-5.281-.325-.315-.111-.5.048-.724,1.056-1.466,2.089-2.949,3.192-4.379a1.087,1.087,0,0,0,.041-1.464,27.257,27.257,0,0,1-3.687-8.9,1.107,1.107,0,0,0-1.126-1.006c-1.81-.237-3.607-.571-5.413-.838-.354-.052-.427-.208-.427-.519q.009-4.414,0-8.827c0-.38.152-.471.5-.522,1.878-.273,3.751-.583,5.628-.871a.784.784,0,0,0,.761-.691,28.276,28.276,0,0,1,3.871-9.36.872.872,0,0,0-.072-1.154c-1.107-1.488-2.186-3-3.27-4.5-.16-.222-.373-.409-.048-.724,1.8-1.746,3.571-3.518,5.353-5.281.34-.195.539.084.76.242,1.253.894,2.507,1.79,3.738,2.712a1.061,1.061,0,0,0,1.477.049,1.753,1.753,0,0,1,.7-.365c1.107-.425,2.052-1.149,3.107-1.676A28.161,28.161,0,0,1,803.255,361a1.032,1.032,0,0,0,.923-1.043c.25-1.833.578-3.655.848-5.485.053-.357.215-.424.523-.422,2.146.013,4.293.016,6.439.023a4.772,4.772,0,0,1,.417,1.812c.2,1.358.479,2.7.639,4.067a.877.877,0,0,0,.741.84,39.321,39.321,0,0,1,10.595,4.688.942.942,0,0,0,1.294-.06A1.221,1.221,0,0,1,826.307,365.1Z" transform="translate(-774.039 -354.053)" fill="#dd5791"/>
        <path id="Trazado_166737" data-name="Trazado 166737" d="M1065.657,448.237c.009-.333.273-.5.473-.7,1.515-1.522,3.022-3.052,4.564-4.548.363-.352.424-.589.112-1.006-1.051-1.4-2.039-2.854-3.105-4.245a1.165,1.165,0,0,1-.079-1.538,27.263,27.263,0,0,0,3.686-8.889,1.058,1.058,0,0,1,1.008-.969c1.848-.266,3.688-.587,5.535-.855.368-.053.418-.228.418-.527q-.006-4.416,0-8.832c0-.315-.085-.457-.437-.508-1.848-.269-3.689-.579-5.535-.861a1.031,1.031,0,0,1-.982-.91,27.437,27.437,0,0,0-3.732-9.015,1.037,1.037,0,0,1,.031-1.361c1.079-1.412,2.074-2.887,3.165-4.29.36-.463.294-.692-.086-1.062-1.537-1.5-3.046-3.028-4.562-4.549-.2-.2-.464-.365-.473-.7a.243.243,0,0,1,.041-.06c1.445-1.16,1.445-1.16,2.744.138,1.74,1.74,3.472,3.49,5.229,5.213a.593.593,0,0,1,.069.952c-1.127,1.5-2.194,3.053-3.323,4.556a.7.7,0,0,0-.022.954,28.911,28.911,0,0,1,3.917,9.418c.089.389.195.554.612.617,1.9.287,3.789.635,5.687.926.411.063.566.179.563.621q-.03,4.343,0,8.687c0,.442-.152.557-.563.621-1.922.3-3.836.644-5.758.941-.36.056-.449.2-.525.531a29.025,29.025,0,0,1-3.932,9.488.7.7,0,0,0,.022.954c1.143,1.522,2.232,3.085,3.362,4.617.244.331.258.531-.057.841q-3.094,3.047-6.145,6.139c-.265.268-.467.357-.781.086C1066.433,448.805,1066.038,448.529,1065.657,448.237Z" transform="translate(-1009.331 -384.641)" fill="#e075a5"/>
        <path id="Trazado_166738" data-name="Trazado 166738" d="M970.513,676.238c.1-1.508.427-2.983.652-4.474a6.361,6.361,0,0,0,.193-1.13c-.031-.84.315-1.159,1.152-1.376a39.021,39.021,0,0,0,10.012-4.387c1.212-.716,1.308-.73,2.31.347a28.7,28.7,0,0,1-9.841,4.183.683.683,0,0,0-.635.685c-.3,1.9-.642,3.788-.924,5.688-.063.428-.239.5-.6.489C972.057,676.239,971.285,676.244,970.513,676.238Z" transform="translate(-932.564 -604.429)" fill="#e075a5"/>
        <path id="Trazado_166739" data-name="Trazado 166739" d="M984.833,365.111c-.24.382-.661.548-.991.823-.282.236-.532.049-.783-.111a41.372,41.372,0,0,0-9.232-4.384,16.693,16.693,0,0,0-1.871-.524.553.553,0,0,1-.511-.5c-.267-2.113-.761-4.192-.932-6.319.579-.007,1.157-.017,1.736-.019,1.157,0,1.133,0,1.3,1.121.257,1.709.569,3.411.819,5.121.061.418.234.519.623.608A28.914,28.914,0,0,1,984.833,365.111Z" transform="translate(-932.564 -354.068)" fill="#e075a5"/>
        <path id="Trazado_166740" data-name="Trazado 166740" d="M846.6,395.455c-.3.48-.844.617-1.284.9-.272.173-.489-.082-.7-.235q-2.209-1.611-4.419-3.22a.856.856,0,0,0-.273-.079c1.107-1.419,1.111-1.425,2.506-.413S845.212,394.438,846.6,395.455Z" transform="translate(-827.201 -384.423)" fill="#e075a5"/>
        <path id="Trazado_166741" data-name="Trazado 166741" d="M839.927,667.534a20.279,20.279,0,0,0,2.535-1.74c.775-.523,1.514-1.1,2.267-1.654a.575.575,0,0,1,.786-.048c.341.3.857.359,1.086.805-1.68,1.227-3.362,2.45-5.036,3.685-.273.2-.48.25-.722-.045C840.556,668.188,840.234,667.867,839.927,667.534Z" transform="translate(-827.201 -604.098)" fill="#e075a5"/>
        <path id="Trazado_166742" data-name="Trazado 166742" d="M876.972,421.954a22.773,22.773,0,0,1,18.25,34.676,22.545,22.545,0,0,1-15.032,10.459,14.552,14.552,0,0,1-3.219.36,10.966,10.966,0,0,1-4.2-.525c-8.39-2.477-14-7.891-16.263-16.334A22.955,22.955,0,0,1,874.9,422.045,5.646,5.646,0,0,1,876.972,421.954Z" transform="translate(-839.889 -408.786)" fill="#ebeef0"/>
        <path id="Trazado_166743" data-name="Trazado 166743" d="M865.7,421.692a22.926,22.926,0,0,0-18.946,13.125,21.846,21.846,0,0,0-1.926,6.683,22.645,22.645,0,0,0,8.618,20.94,22.525,22.525,0,0,0,8.079,4.033,21.328,21.328,0,0,0,4.174.714,3.878,3.878,0,0,1-1.777.11,22.824,22.824,0,0,1-14.085-5.379,22.867,22.867,0,0,1,10.23-39.885,21.7,21.7,0,0,1,4.941-.461C865.243,421.578,865.5,421.509,865.7,421.692Z" transform="translate(-828.618 -408.524)" fill="#d0d0d5"/>
        <path id="Trazado_166744" data-name="Trazado 166744" d="M912.524,464.978q6.612,0,13.224,0c.231,0,.488-.076.679.139a1.721,1.721,0,0,1,.224,1.042c0,1.278-.011,2.556,0,3.833.012.944.179,1.132,1.087,1.126,1.588-.01,3.176.078,4.762-.056a2.225,2.225,0,0,1,.292,1.231q0,10.272,0,20.543c0,.9-.2,1.1-1.1,1.1q-9.584,0-19.169,0a1.322,1.322,0,0,1-.232-.96q-.007-13.52,0-27.04A1.322,1.322,0,0,1,912.524,464.978Z" transform="translate(-885.585 -443.542)" fill="#fee49a"/>
        <path id="Trazado_166745" data-name="Trazado 166745" d="M904.36,464.946q0,14.48,0,28.959c-2.505.085-2.175.1-2.176-2.069q-.009-12.773,0-25.545c0-1.365,0-1.369,1.384-1.366C903.83,464.926,904.1,464.939,904.36,464.946Z" transform="translate(-877.422 -443.51)" fill="#a69aa6"/>
        <path id="Trazado_166746" data-name="Trazado 166746" d="M991.54,471.7c-.049.369-.34.275-.561.276-1.518.006-3.035.01-4.553,0-.746-.005-.967-.24-.969-1.017,0-1.735,0-3.469.005-5.2a2.57,2.57,0,0,1,.483.307Q988.749,468.871,991.54,471.7Z" transform="translate(-944.62 -444.177)" fill="#a69ba6"/>
        <path id="Trazado_166747" data-name="Trazado 166747" d="M931.629,520.579c-1.832,0-3.665,0-5.5,0-.877,0-1.361-.41-1.373-1.133s.464-1.174,1.338-1.177q5.533-.018,11.066,0a1.319,1.319,0,0,1,1.338,1.159c0,.689-.545,1.15-1.376,1.152C935.294,520.582,933.462,520.579,931.629,520.579Z" transform="translate(-895.648 -486.543)" fill="#a69aa6"/>
        <path id="Trazado_166748" data-name="Trazado 166748" d="M931.645,578.99q2.673,0,5.346,0a1.375,1.375,0,0,1,1.511,1.131c.021.651-.66,1.183-1.531,1.184q-5.382,0-10.764,0c-.942,0-1.432-.39-1.447-1.132-.015-.773.488-1.182,1.467-1.183Q928.936,578.988,931.645,578.99Z" transform="translate(-895.648 -535.543)" fill="#a69aa6"/>
        <path id="Trazado_166749" data-name="Trazado 166749" d="M931.516,548.923q2.752,0,5.5,0c.91,0,1.414.386,1.429,1.078a1.3,1.3,0,0,1-1.424,1.232c-1.544.021-3.089.006-4.634.006q-3,0-6.009,0a1.782,1.782,0,0,1-1.332-.434.972.972,0,0,1-.242-1.183,1.052,1.052,0,0,1,1.062-.708C927.751,548.934,929.634,548.924,931.516,548.923Z" transform="translate(-895.603 -511.279)" fill="#a69ba6"/>
        <path id="Trazado_166750" data-name="Trazado 166750" d="M928.734,488.225c.914,0,1.828-.009,2.743,0a1.133,1.133,0,0,1,1.24,1.041,1.257,1.257,0,0,1-1.156,1.257c-1.876.033-3.753.037-5.629,0a1.121,1.121,0,0,1-1.176-1.2c.026-.7.5-1.1,1.307-1.1C926.954,488.222,927.844,488.225,928.734,488.225Z" transform="translate(-895.645 -462.307)" fill="#a69ba6"/>
      </g>
    </g>
  </g>
</svg>
