<svg xmlns="http://www.w3.org/2000/svg" width="88" height="88" viewBox="0 0 88 88">
  <g id="Grupo_124207" data-name="Grupo 124207" transform="translate(-8985 8291)">
    <g id="Grupo_123851" data-name="Grupo 123851" transform="translate(8432 -12034)">
      <g id="Elipse_6763" data-name="Elipse 6763" transform="translate(553 3743)" fill="#fff" stroke="#2631a0" stroke-width="4">
        <circle cx="44" cy="44" r="44" stroke="none"/>
        <circle cx="44" cy="44" r="42" fill="none"/>
      </g>
      <g id="Grupo_123850" data-name="Grupo 123850" transform="translate(-195.564 3411.759)">
        <path id="Trazado_170273" data-name="Trazado 170273" d="M768.074,556.981c.179-.1.155-.3.189-.456a7.846,7.846,0,0,1,2.2-3.929q2.493-2.5,4.984-5.005c.121-.122.227-.259.34-.389.2-.143.33,0,.446.119,2.1,2.1,4.225,4.186,6.3,6.316a.334.334,0,0,1,.053.089.3.3,0,0,1,0,.148,1.386,1.386,0,0,1-.33.4q-5.146,5.148-10.3,10.294a1.06,1.06,0,0,1-.489.371c-.424-.128-.654-.5-.938-.788a8.984,8.984,0,0,1-2.1-3.116c-.189-.507-.22-1.04-.366-1.551Z" transform="translate(-0.064 -171.413)" fill="#fe6c6c"/>
        <path id="Trazado_170274" data-name="Trazado 170274" d="M768.01,635.965c.164.067.14.234.165.356a7.97,7.97,0,0,0,2.377,4.184c.3.289.593.581.89.872.431.154.667.539.972.837a7.8,7.8,0,0,0,4.3,2.27,7.571,7.571,0,0,0,5.074-.852,1.264,1.264,0,0,1,.524-.215c.265.038.4.256.57.423q2.151,2.141,4.295,4.29a4.277,4.277,0,0,0,1.11.925c.088.042.182.11.14.242q-10,0-20,.01c-.357,0-.428-.07-.427-.427C768.016,644.574,768.01,640.27,768.01,635.965Z" transform="translate(0 -247.898)" fill="#fefefe"/>
        <path id="Trazado_170275" data-name="Trazado 170275" d="M877.513,655.477a5.276,5.276,0,0,1-1.275-1.036q-2.377-2.407-4.768-4.8c-.035-.126.056-.191.131-.257,2.007-1.755,3.789-3.74,5.7-5.59a3.005,3.005,0,0,1,.806-.644.173.173,0,0,1,.142.025q2.477,2.483,4.953,4.967a1.638,1.638,0,0,1,.013,2.689c-1.261,1.262-2.528,2.517-3.78,3.788a3.478,3.478,0,0,1-1.2.858Z" transform="translate(-89.091 -254.08)" fill="#12263f"/>
        <path id="Trazado_170276" data-name="Trazado 170276" d="M1050.094,348.076c1.309.611,1.546,1.421.87,2.711-.973,1.857-1.9,3.736-2.853,5.606-.7,1.382-1.818,1.563-2.91.471-.344-.343-.7-.673-1.025-1.035-.264-.3-.375-.218-.53.1-.606,1.247-1.24,2.48-1.853,3.723a1.615,1.615,0,0,1-1.5,1.021,1.542,1.542,0,0,1-1.477-2.013,3.605,3.605,0,0,1,.224-.524q1.414-2.838,2.833-5.674c.686-1.369,1.82-1.543,2.915-.452l.846.846c.5.5.5.5.81-.111.533-1.051,1.083-2.094,1.591-3.157a2.822,2.822,0,0,1,1.328-1.51Z" transform="translate(-233.136 0)" fill="#f9e424"/>
        <path id="Trazado_170277" data-name="Trazado 170277" d="M1073.818,440.136c-1.143,1.387-2.294,2.767-3.427,4.163a1.6,1.6,0,0,1-2.716.016c-.53-.663-1.085-1.307-1.615-1.97-.181-.226-.311-.266-.529-.037q-.789.829-1.619,1.62a1.518,1.518,0,0,1-1.818.3,1.537,1.537,0,0,1-.87-1.524,1.7,1.7,0,0,1,.522-1.049c.98-.983,1.957-1.97,2.945-2.944a1.576,1.576,0,0,1,2.518.145c.5.618,1.023,1.224,1.519,1.848.213.268.364.3.593.011.518-.651,1.064-1.279,1.594-1.92a1.552,1.552,0,0,1,2.834.431c.011.029.045.049.069.073Z" transform="translate(-252.486 -77.48)" fill="#f9e424"/>
        <path id="Trazado_170278" data-name="Trazado 170278" d="M995.519,348.076a1.835,1.835,0,0,1,1.262,2.005c-.043,1.9-.011,3.81-.013,5.716a1.572,1.572,0,1,1-3.123,0c0-1.905.032-3.811-.014-5.716a1.833,1.833,0,0,1,1.264-2Z" transform="translate(-194.286 0)" fill="#f9e424"/>
        <path id="Trazado_170279" data-name="Trazado 170279" d="M830.321,428.084c-.716-.7-1.437-1.4-2.147-2.1-1.385-1.378-2.764-2.764-4.149-4.142-.13-.129-.226-.317-.448-.322A38.3,38.3,0,0,0,826.3,418.4a37.617,37.617,0,0,0,4.246-6.689,47.589,47.589,0,0,0,3.157-8.334c.2-.732.435-1.455.609-2.2.249-.028.368.169.509.31q5.332,5.324,10.656,10.656c.166.166.389.312.334.6a1.864,1.864,0,0,1-.438.51q-7.193,7.2-14.393,14.388C830.794,427.836,830.661,428.127,830.321,428.084Z" transform="translate(-47.856 -45.729)" fill="#f6efea"/>
        <path id="Trazado_170280" data-name="Trazado 170280" d="M872.131,499.633c.155-.137.318-.265.464-.411q7.257-7.253,14.512-14.507c.146-.146.308-.275.463-.413a.149.149,0,0,1,.14-.019,1.856,1.856,0,0,1,.429.373q5.2,5.194,10.389,10.393c.165.165.4.3.4.578a9.137,9.137,0,0,1-2.005.63,43.561,43.561,0,0,0-13.032,5.925,39.977,39.977,0,0,0-4.719,3.8c-.124.118-.228.258-.341.388l-.039,0-.039,0c-.133-.019-.2-.126-.286-.21-1.978-1.989-3.967-3.967-5.947-5.954-.144-.144-.326-.265-.37-.487A.843.843,0,0,0,872.131,499.633Z" transform="translate(-89.666 -117.279)" fill="#e0d2cd"/>
        <path id="Trazado_170281" data-name="Trazado 170281" d="M994.966,468.045c-.138-.154-.268-.315-.414-.461q-5.424-5.433-10.85-10.862c-.121-.254.076-.388.215-.529q1.851-1.866,3.716-3.718c.119-.118.23-.271.438-.225q2.267,2.253,4.533,4.507,3.716,3.71,7.426,7.426a1.58,1.58,0,0,1,.363,2.142,1.446,1.446,0,0,1-.856.636q-2.182.558-4.368,1.1A.627.627,0,0,1,994.966,468.045Z" transform="translate(-185.707 -89.697)" fill="#ff004c"/>
        <path id="Trazado_170282" data-name="Trazado 170282" d="M916.755,373.977c-1.422,1.295-2.728,2.706-4.1,4.049-.121.118-.277.22-.267.423h-.046l-.047,0c-.047-.244-.255-.365-.411-.522q-5.517-5.526-11.039-11.046c.351-1.391.7-2.783,1.053-4.173a1.572,1.572,0,0,1,1.844-1.346,1.785,1.785,0,0,1,1.035.642l11.171,11.171Q916.35,373.575,916.755,373.977Z" transform="translate(-114.39 -11.423)" fill="#fe6c6c"/>
        <path id="Trazado_170283" data-name="Trazado 170283" d="M803.822,595.457q3.25,3.237,6.5,6.476a.829.829,0,0,1,.1.176c-1.692,1.556-3.268,3.229-4.9,4.842a17.112,17.112,0,0,1-1.8,1.628,8.339,8.339,0,0,1-4.059,1.274,7.722,7.722,0,0,1-5.6-2.066c-.448-.406-.855-.859-1.28-1.29.087-.106.165-.221.262-.317q5.227-5.232,10.459-10.459C803.6,595.623,803.716,595.544,803.822,595.457Z" transform="translate(-21.341 -213.017)" fill="#ff004c"/>
      </g>
    </g>
  </g>
</svg>
