<svg xmlns="http://www.w3.org/2000/svg" width="171.06" height="171.06" viewBox="0 0 171.06 171.06">
  <g id="Grupo_124201" data-name="Grupo 124201" transform="translate(-9280.47 10395.712)">
    <g id="Grupo_123943" data-name="Grupo 123943" transform="translate(8767 -11038.739)">
      <circle id="Elipse_6064" data-name="Elipse 6064" cx="85.53" cy="85.53" r="85.53" transform="translate(513.47 643.027)" fill="#fff"/>
      <g id="Grupo_123470" data-name="Grupo 123470" transform="translate(-253.813 317.067)">
        <path id="Trazado_167151" data-name="Trazado 167151" d="M981.983,444.125a30.033,30.033,0,0,0-4.922-15.675c-3.805-6.021-2.923-14.634,1.538-20.152a18.7,18.7,0,0,1,12.958-6.948,3.612,3.612,0,0,1,.513.012c8.169.779,14.594,7.62,15.814,15.409a17.362,17.362,0,0,1-2.428,12.207,29.257,29.257,0,0,0-4.407,11.845,13.688,13.688,0,0,1-.542,3.419,1,1,0,0,1-.322.152,4.507,4.507,0,0,1-2.355-.139,1.791,1.791,0,0,1-.3-1.365q-.012-7.927,0-15.854c0-1.53.176-1.68,1.735-1.705a10.293,10.293,0,0,0,2.56-.161,5.589,5.589,0,0,0,4.1-6.3,5.581,5.581,0,0,0-11.078.572c-.042.651-.019,1.3-.022,1.956a1.075,1.075,0,0,1-1.162,1.234c-2.35.156-2.525.03-2.511-2.349a5.591,5.591,0,0,0-3.387-5.621,5.511,5.511,0,0,0-6.03,1.064,5.623,5.623,0,0,0-1.368,6.065,5.5,5.5,0,0,0,4.884,3.532c.617.024,1.236-.01,1.853.017,1.087.047,1.287.258,1.337,1.37.008.171.006.343.006.515q0,7.721-.007,15.442c0,.562.149,1.185-.381,1.636a24.346,24.346,0,0,1-5.547.115A.77.77,0,0,1,981.983,444.125Z" transform="translate(-117.884 -32.049)" fill="#fee077"/>
        <path id="Trazado_167152" data-name="Trazado 167152" d="M820.634,646.558c-1.951.01-3.9.046-5.854.02a2.514,2.514,0,0,1-2.631-2.669c-.018-5.65,0-11.3-.005-16.95a7.414,7.414,0,0,1,3.381-6.133,19.84,19.84,0,0,1,7.949-3.142,2.579,2.579,0,0,1,1.063,1.082,12.615,12.615,0,0,0,7.361,5.074,1.389,1.389,0,0,1,1.183,1.536q0,10.065-.006,20.13a1.4,1.4,0,0,1-.3,1.058l-8.862-.01a2.112,2.112,0,0,1-.307-1.569c-.011-4.077,0-8.153-.008-12.23a3.385,3.385,0,0,0-.194-1.516,1.233,1.233,0,0,0-2.406.289,8.044,8.044,0,0,0-.053,1.231c0,4.077,0,8.154-.006,12.23A2.126,2.126,0,0,1,820.634,646.558Z" transform="translate(0 -188.969)" fill="#757ac6"/>
        <path id="Trazado_167153" data-name="Trazado 167153" d="M907.33,647.811l-8.864.009a1.69,1.69,0,0,1-.3-1.268q-.009-9.83,0-19.661c0-1.341.16-1.5,1.429-1.847a12.688,12.688,0,0,0,6.381-4.124c.292-.337.555-.7.858-1.026a1.228,1.228,0,0,1,1.3-.43c3.6,1.088,6.742,2.762,8.225,6.525a4.613,4.613,0,0,1,.322,1.708c.005,5.73.015,11.46-.006,17.19-.007,1.94-.667,2.659-2.546,2.925l-3.521,0a2.137,2.137,0,0,1-.308-1.573c-.01-4.083,0-8.167-.006-12.25a6.314,6.314,0,0,0-.075-1.334,1.2,1.2,0,0,0-1.118-1.043,1.228,1.228,0,0,0-1.274.853,3.706,3.706,0,0,0-.185,1.521c0,4.083,0,8.167-.007,12.25A2.128,2.128,0,0,1,907.33,647.811Z" transform="translate(-62.396 -190.224)" fill="#757ac6"/>
        <path id="Trazado_167154" data-name="Trazado 167154" d="M857.934,543.071a15.518,15.518,0,0,1-5.579-10.614c-.041-.337-.1-.672-.154-1.008a6.486,6.486,0,0,1,.467-1.773c.727-1.813,1.475-3.617,2.157-5.448.4-1.076.687-1.235,1.689-.8a25.021,25.021,0,0,0,8.4,1.8,16.382,16.382,0,0,0,5.891-.662c1.262-.384,1.461-.293,1.91.929.591,1.608,1.229,3.2,1.827,4.8a3.1,3.1,0,0,1,.246,1.195c-.3,1.05-.292,2.147-.565,3.209a15.581,15.581,0,0,1-5.194,8.374,2.184,2.184,0,0,1-.283.4,9.01,9.01,0,0,1-10.555.017C858.1,543.354,858.026,543.205,857.934,543.071Z" transform="translate(-29.057 -120.438)" fill="#f5dbcc"/>
        <path id="Trazado_167155" data-name="Trazado 167155" d="M868.789,493.351c-.975-2.038-1.658-4.191-2.473-6.292-.176-.453-.291-.729-.937-.533a22.087,22.087,0,0,1-14.771-.943c-.929-.361-1.241-.243-1.582.682-.876,2.372-1.875,4.7-2.825,7.044-.689-2.756-1.419-5.5-2.058-8.272-.965-4.185,1.395-7.276,5.724-7.455.9-.037,1.285-.229,1.464-1.16.239-1.24,1.048-1.712,2.554-1.719,3.018-.015,6.037,0,9.056-.011a8.682,8.682,0,0,0,1.839-.146,4.051,4.051,0,0,0,3.49-3.926,2.187,2.187,0,0,1,.979,1.142,25.256,25.256,0,0,1,1.427,18.191A11.534,11.534,0,0,1,868.789,493.351Z" transform="translate(-23.057 -82.299)" fill="#827682"/>
        <path id="Trazado_167156" data-name="Trazado 167156" d="M881.665,645.02c1.9-.672,2.252-1.173,2.252-3.233,0-5.421-.036-10.843.016-16.264a7.332,7.332,0,0,0-2.9-5.853,14.852,14.852,0,0,0-5.258-2.7,1.016,1.016,0,0,0-1.307.44,12.494,12.494,0,0,1-7.8,5.227c-.7.138-.661.656-.661,1.188q.009,8.183,0,16.367,0,2.419,0,4.838l-3.291,0c0-6.962-.017-13.924.016-20.885,0-.97-.2-1.348-1.265-1.623a12.375,12.375,0,0,1-7.161-5,5.1,5.1,0,0,1-.895-1.367l2.921-.574a.619.619,0,0,1,.547.21,9.664,9.664,0,0,0,6.842,3.974,1.942,1.942,0,0,0,1.262,0,10.264,10.264,0,0,0,6.8-3.984.8.8,0,0,1,.4-.189c3.906.691,7.847,1.3,11.157,3.742a7.662,7.662,0,0,1,3.276,5.692.954.954,0,0,1,.076.3q.008,8.524,0,17.049a1.086,1.086,0,0,1-.068.3,2.63,2.63,0,0,1-2.728,2.4C883.15,645.065,882.408,645.034,881.665,645.02Z" transform="translate(-29.93 -187.432)" fill="#757ac6"/>
        <path id="Trazado_167157" data-name="Trazado 167157" d="M1046.464,444.121a28.6,28.6,0,0,1,3.974-14.018,20.514,20.514,0,0,0,3.08-7.212,18.473,18.473,0,0,0-15.024-21.39,2.712,2.712,0,0,1-.46-.182,18.282,18.282,0,0,1,19.084,15.687,16.621,16.621,0,0,1-2.34,11.628,29.36,29.36,0,0,0-4.541,12.108c-.135,1.12-.208,2.248-.309,3.373A4.144,4.144,0,0,1,1046.464,444.121Z" transform="translate(-163.85 -32.005)" fill="#fecf64"/>
        <path id="Trazado_167158" data-name="Trazado 167158" d="M1017.079,556.323l2.492.062a.612.612,0,0,1,.31.257,4.107,4.107,0,0,1-3.6,5.941c-3.347.017-6.694,0-10.041.01-.429,0-.9-.13-1.24.282a4.7,4.7,0,0,0-.164,1.8c-.036.463.07.96-.325,1.336a8.207,8.207,0,0,1-.183-2.913c-.028-.451-.082-.7-.615-.854a3.089,3.089,0,0,1-2.473-3.3c-.029-.886.006-1.774.013-2.661l6.16.034c1.047-.587,2.18-.221,3.273-.3q1.556-.044,3.113,0C1014.891,556.1,1016.029,555.733,1017.079,556.323Z" transform="translate(-137.149 -144.213)" fill="#ebeef0"/>
        <path id="Trazado_167159" data-name="Trazado 167159" d="M880.739,601.79a9.959,9.959,0,0,1-7.026,4.149,2.556,2.556,0,0,1-1.21,0c-2.865-.143-4.986-1.665-6.825-3.7a1.625,1.625,0,0,1-.2-.454c-.045-.533.493-.159.632-.406l.42-.014c.307-.237.724.06,1.024-.21l-.008.014a25.761,25.761,0,0,0,.117-3.648c.027-.434-.118-.883.107-1.3a11.412,11.412,0,0,0,5.2,1.661,9.556,9.556,0,0,0,4.939-1.412c.172-.1.363-.167.546-.249a24.354,24.354,0,0,1,.119,3.642,3.658,3.658,0,0,0,.09,1.308c.369.374.846.116,1.263.216C880.128,601.651,880.68,601.217,880.739,601.79Z" transform="translate(-38.683 -173.402)" fill="#f0cabb"/>
        <path id="Trazado_167160" data-name="Trazado 167160" d="M1013.177,582.964q.007-1.754.015-3.509a1.134,1.134,0,0,1,.7-.1c3.862.009,7.724-.026,11.585.016a5.064,5.064,0,0,1-.1,4.406,3.019,3.019,0,0,1-3.017,1.724c-1.74.013-3.48.007-5.22,0a1.421,1.421,0,0,1-1.058-.284A2.824,2.824,0,0,1,1013.177,582.964Z" transform="translate(-145.82 -161.163)" fill="#d0d0d5"/>
        <path id="Trazado_167161" data-name="Trazado 167161" d="M931.521,678.933q0-7.258,0-14.517c0-1.656,1.093-2.5,2.421-1.906a1.6,1.6,0,0,1,.874,1.7q-.014,7.361-.011,14.722Z" transform="translate(-86.587 -221.345)" fill="#979ac9"/>
        <path id="Trazado_167162" data-name="Trazado 167162" d="M843.05,678.883q0-7.246-.005-14.494c0-1.348.625-2.151,1.657-2.14a1.988,1.988,0,0,1,1.634,2.135q0,7.247,0,14.494Z" transform="translate(-22.416 -221.294)" fill="#979ac9"/>
        <path id="Trazado_167163" data-name="Trazado 167163" d="M1033.667,603.885a2.726,2.726,0,0,1-2.622,2.413c-1.433.056-2.871.059-4.3,0a2.743,2.743,0,0,1-2.564-2.236,20.554,20.554,0,0,1-.1-3.058c-.036-.578.346-.555.74-.553q1.846.008,3.692,0a23.172,23.172,0,0,0,3.677-.187c1.294-.213,1.577.083,1.558,1.382A10.074,10.074,0,0,1,1033.667,603.885Z" transform="translate(-153.719 -176.286)" fill="#b0b0b4"/>
        <path id="Trazado_167164" data-name="Trazado 167164" d="M1025.58,563.406l-12.35,0c.3-.337.708-.2,1.068-.2,3.6-.01,7.205,0,10.808-.009a3.007,3.007,0,0,0,3.348-3.378,5.852,5.852,0,0,0-.173-2.537.745.745,0,0,1,.193-.055l3.464-.007c.007.956.077,1.915.008,2.865a3.034,3.034,0,0,1-2.169,3.022c-.618.176-.67.474-.7,1a7.232,7.232,0,0,1-.18,2.815c-.516-.586-.3-1.3-.326-1.964-.048-1.168-.077-1.209-1.218-1.246C1026.751,563.7,1026.113,563.843,1025.58,563.406Z" transform="translate(-145.858 -145.116)" fill="#d0d0d5"/>
        <path id="Trazado_167165" data-name="Trazado 167165" d="M1035.084,361a15.8,15.8,0,0,1,.129-2.493,1.544,1.544,0,0,1,1.567-1.351,1.462,1.462,0,0,1,1.589,1.307,16.8,16.8,0,0,1,.011,4.9,1.47,1.47,0,0,1-1.552,1.354,1.557,1.557,0,0,1-1.627-1.4A17.548,17.548,0,0,1,1035.084,361Z" transform="translate(-161.71)" fill="#fee077"/>
        <path id="Trazado_167166" data-name="Trazado 167166" d="M1033.158,579.694c.851,0,1.7.021,2.552-.012.581-.022.781.211.765.778-.027.918,0,1.837,0,2.755a2.6,2.6,0,0,1-2.16,2.158c-.681.133-.754.448-.771,1.026a6.486,6.486,0,0,1-.162,2.6c-.005-.89-.025-1.78-.011-2.669.007-.48-.186-.671-.667-.669-2.7.01-5.409.014-8.113,0-.551,0-.713.234-.7.743.021.924,0,1.848,0,2.773-.408-1.22-.094-2.479-.2-3.715,2.085,0,4.171.009,6.255,0a2.985,2.985,0,0,0,3.2-3.1C1033.191,581.473,1033.159,580.583,1033.158,579.694Z" transform="translate(-153.437 -161.404)" fill="#b0b0b4"/>
        <path id="Trazado_167167" data-name="Trazado 167167" d="M982.5,378.039a1.469,1.469,0,0,1-1.052,1.48,1.356,1.356,0,0,1-1.738-.489,47.764,47.764,0,0,1-2.484-4.24,1.61,1.61,0,0,1,2.588-1.745,21.5,21.5,0,0,1,2.658,4.587A1.212,1.212,0,0,1,982.5,378.039Z" transform="translate(-119.632 -11.185)" fill="#fee077"/>
        <path id="Trazado_167168" data-name="Trazado 167168" d="M1085.867,378.075a1.714,1.714,0,0,1,.252-.974c.679-1.147,1.323-2.315,2-3.461a1.644,1.644,0,1,1,2.882,1.575c-.68,1.225-1.383,2.439-2.12,3.63a1.544,1.544,0,0,1-1.827.809A1.471,1.471,0,0,1,1085.867,378.075Z" transform="translate(-198.542 -11.272)" fill="#fee077"/>
        <path id="Trazado_167169" data-name="Trazado 167169" d="M974.326,667.641q0-8.821-.006-17.643a1.765,1.765,0,0,1,.152,1q0,7.873,0,15.746A1.4,1.4,0,0,1,974.326,667.641Z" transform="translate(-117.635 -212.408)" fill="#5ab4fe"/>
        <path id="Trazado_167170" data-name="Trazado 167170" d="M873.23,595.727c0,1.332,0,2.663-.016,3.995,0,.325.122.693-.208.953q.01-2.568.019-5.136Z" transform="translate(-44.148 -172.906)" fill="#b7c4d8"/>
        <path id="Trazado_167171" data-name="Trazado 167171" d="M912.883,600.683c-.41-.981-.11-2.006-.184-3.008-.048-.644-.019-1.294-.025-1.942l.21-.185Z" transform="translate(-72.912 -172.913)" fill="#a6bfdc"/>
        <path id="Trazado_167172" data-name="Trazado 167172" d="M865.067,614.959l-.632.406-.4-.244C864.347,614.845,864.718,614.974,865.067,614.959Z" transform="translate(-37.644 -186.98)" fill="#b9cce1"/>
        <path id="Trazado_167173" data-name="Trazado 167173" d="M918.886,615.362c-.174-.34-.639-.083-.823-.4.346.019.722-.148,1.018.17Z" transform="translate(-76.83 -186.973)" fill="#aec3dc"/>
        <path id="Trazado_167174" data-name="Trazado 167174" d="M870.334,614.188c-.281.361-.677.168-1.024.21C869.6,614.066,869.989,614.241,870.334,614.188Z" transform="translate(-41.467 -186.433)" fill="#bccfe5"/>
        <path id="Trazado_167175" data-name="Trazado 167175" d="M1004.608,477.189l-3.3-.01c0-5.8-.021-11.6.021-17.4.007-.918-.248-1.2-1.155-1.14a7.079,7.079,0,0,1-4.822-.995,5.906,5.906,0,0,1-2.13-6.916,5.87,5.87,0,0,1,11.379,2.015c0,.206,0,.412,0,.618,0,2.015,0,1.973,2,2.02.856.02,1.153-.232,1.091-1.095a7.169,7.169,0,0,1,1.135-4.991,6.029,6.029,0,0,1,6.49-2.14,6.2,6.2,0,0,1,4.127,5.365,5.941,5.941,0,0,1-6.1,6.16c-2.361-.12-2.367-.019-2.367,2.334q0,8.082,0,16.163l-3.3.011a2.392,2.392,0,0,1-.322-1.674c-.009-5.067,0-10.133-.009-15.2,0-1.191-.132-1.318-1.158-1.331-1.112-.015-1.259.119-1.262,1.331-.011,5.067,0,10.133-.009,15.2A2.393,2.393,0,0,1,1004.608,477.189Z" transform="translate(-131.055 -65.069)" fill="#fec238"/>
        <path id="Trazado_167176" data-name="Trazado 167176" d="M891.074,631.6l1.21,0A1.045,1.045,0,0,1,891.074,631.6Z" transform="translate(-57.253 -199.063)" fill="#5ab4fe"/>
        <path id="Trazado_167177" data-name="Trazado 167177" d="M1035.684,508.274c0-5.821.017-11.643-.019-17.463-.005-.863.25-1.106,1.1-1.087,2,.046,2,.005,2,2.011q0,8.269,0,16.539Z" transform="translate(-162.131 -96.154)" fill="#fee076"/>
        <path id="Trazado_167178" data-name="Trazado 167178" d="M1007.938,464.161a2.767,2.767,0,0,1-2.064-.543,2.641,2.641,0,0,1-.718-3.149,2.818,2.818,0,0,1,2.73-1.449,2.74,2.74,0,0,1,2.184,2.3,9.181,9.181,0,0,1,.011.924C1010.083,464.162,1010.083,464.162,1007.938,464.161Z" transform="translate(-139.823 -73.866)" fill="#fee076"/>
        <path id="Trazado_167179" data-name="Trazado 167179" d="M1060.715,464.174c-2.066-.032-1.741.285-1.778-1.809a3.574,3.574,0,0,1,.389-2.081,2.564,2.564,0,0,1,2.917-1.151,2.667,2.667,0,0,1,1.829,3.058,2.594,2.594,0,0,1-2.433,1.979C1061.332,464.18,1061.023,464.172,1060.715,464.174Z" transform="translate(-179.008 -73.88)" fill="#fee076"/>
      </g>
    </g>
  </g>
</svg>
