<svg xmlns="http://www.w3.org/2000/svg" width="88" height="88" viewBox="0 0 88 88">
  <g id="Grupo_124208" data-name="Grupo 124208" transform="translate(-9265 8312)">
    <g id="Grupo_123853" data-name="Grupo 123853" transform="translate(8327 -12181)">
      <g id="Elipse_6764" data-name="Elipse 6764" transform="translate(938 3869)" fill="#fff" stroke="#2631a0" stroke-width="4">
        <circle cx="44" cy="44" r="44" stroke="none"/>
        <circle cx="44" cy="44" r="42" fill="none"/>
      </g>
      <g id="Grupo_123852" data-name="Grupo 123852" transform="translate(179.264 3526.947)">
        <path id="Trazado_170285" data-name="Trazado 170285" d="M792.2,446.817a17.315,17.315,0,0,1-5.805-3.089,16.088,16.088,0,0,1-6.041-11.316,16.3,16.3,0,0,1,6.712-15.03,1.456,1.456,0,0,1,.189-.107.737.737,0,0,1,.226.537,7.627,7.627,0,0,0,1.6,3.811c.149.2.342.386.3.674a8.147,8.147,0,0,1-1.034,1.195,11.3,11.3,0,0,0-1.032,13.252,10.568,10.568,0,0,0,2.574,2.9A12.026,12.026,0,0,0,795.5,442a1.908,1.908,0,0,0,.691.045c.464,0,.927,0,1.389,0a1.989,1.989,0,0,0,.687-.038,11.371,11.371,0,0,0,8.187-5.259,11.306,11.306,0,0,0,.029-11.839,30.654,30.654,0,0,0-2.068-2.608c-.051-.289.143-.476.292-.676a7.651,7.651,0,0,0,1.6-3.821.744.744,0,0,1,.225-.539,16.644,16.644,0,0,1,4.7,22c-.063.109-.142.21-.213.314a5.921,5.921,0,0,1-1.433,2.145,15.471,15.471,0,0,1-3.389,3.014.883.883,0,0,1-.435.2,17.941,17.941,0,0,1-5.761,2.226,15.656,15.656,0,0,1-4.611.213c-.161-.019-.326-.008-.49-.011-.256.01-.32-.207-.42-.369-.287-.462-.546-.942-.814-1.416-.069-.123-.109-.309-.266-.319-.2-.013-.234.2-.3.337-.161.306-.352.593-.514.9C792.507,446.655,792.435,446.843,792.2,446.817Z" transform="translate(-0.32 -49.123)" fill="#242ca3"/>
        <path id="Trazado_170286" data-name="Trazado 170286" d="M791.879,608.866a9.537,9.537,0,0,0,.95-1.569c.184-.32.279-.356.48-.008a17.267,17.267,0,0,0,1.278,2.131c.629,1.126,1.264,2.248,1.882,3.38.138.253.348.219.562.22l4.808.018a.805.805,0,0,1,.164.664,5.252,5.252,0,0,1-.146,1.976,1.575,1.575,0,0,1-.957.145q-7.557.006-15.114,0c-.164,0-.329,0-.493,0-.742.008-1.023.423-.775,1.129a.35.35,0,0,0,.321.248,4.889,4.889,0,0,0,.656.021q7.694,0,15.388,0a1.665,1.665,0,0,1,.96.138,2.384,2.384,0,0,1,.018,1.814,1.529,1.529,0,0,1-.954.151q-8.482.006-16.965,0c-.164,0-.328,0-.492,0-.657.014-.721.079-.716.727,0,.617.061.668.825.669q8.592,0,17.184,0a1.638,1.638,0,0,1,.959.136c.137.242-.015.421-.149.588a1.852,1.852,0,0,1-1.314.7c-.291.029-.583.02-.874.02q-8.993,0-17.986,0a10.318,10.318,0,0,0-1.363.068c-.132-.157-.089-.346-.09-.525,0-2.281.046-4.564-.022-6.844A1.933,1.933,0,0,1,781.8,613c2.407.069,4.818.015,7.228.03a.739.739,0,0,0,.767-.444C790.47,611.332,791.182,610.1,791.879,608.866Z" transform="translate(0 -211.172)" fill="#f9e424"/>
        <path id="Trazado_170287" data-name="Trazado 170287" d="M847.278,368.144a8.892,8.892,0,0,1-2.1,4.986c-.213.523-.236.542-.608.511a6.381,6.381,0,0,1-.077-1.629,11.6,11.6,0,0,1,0-1.366,6.06,6.06,0,0,0-1.341-4.118c-.226-.314-.412-.343-.709-.114a11.927,11.927,0,0,1-2.405,1.5,9.8,9.8,0,0,1-3.828.785c-.729.017-1.458,0-2.187,0a3.316,3.316,0,0,0-3.256,3.245,6.855,6.855,0,0,1-.072,1.685c-.367.048-.4.019-.613-.5a11.016,11.016,0,0,1-1.711-3.01,13.041,13.041,0,0,1-.386-1.968c-.131-4.51,3.1-7.745,7.54-8.261a14.613,14.613,0,0,1,5.65.265A7.857,7.857,0,0,1,847.278,368.144Z" transform="translate(-41.058)" fill="#c08d59"/>
        <path id="Trazado_170288" data-name="Trazado 170288" d="M954.754,587.435c.578-.546,1.286-.92,1.881-1.452a21.078,21.078,0,0,0,1.841-1.835c.269-.058.393.157.54.3q6.352,6.341,12.691,12.7a4.627,4.627,0,0,1,1.438,2.582,3.734,3.734,0,0,1-1.968,3.819,2.206,2.206,0,0,1-1.029-.686q-7.639-7.621-15.265-15.256A1.525,1.525,0,0,1,954.754,587.435Z" transform="translate(-149.305 -191.615)" fill="#7277be"/>
        <path id="Trazado_170289" data-name="Trazado 170289" d="M1014.106,366.154c1.543,0,2.925-.055,4.3.022a1.241,1.241,0,0,0,1.386-.874c.657-1.441,1.4-2.842,2.113-4.264.27.058.28.294.361.454.717,1.415,1.43,2.832,2.124,4.258a.635.635,0,0,0,.67.413c1.368-.019,2.737-.01,4.105,0a.905.905,0,0,1,.528.052c-.041.205-.212.3-.334.42-1.157,1.165-2.311,2.334-3.488,3.478a.807.807,0,0,0-.26.943c.508,1.671.97,3.357,1.45,5.037a.355.355,0,0,1,0,.344,5.712,5.712,0,0,1-1.273-.969q-1.762-1.429-3.479-2.914c-.274-.237-.417-.2-.672.014-1.446,1.226-2.909,2.431-4.369,3.64-.131.109-.239.289-.479.22.526-1.836,1.04-3.667,1.581-5.489a.618.618,0,0,0-.182-.716C1016.859,368.912,1015.547,367.593,1014.106,366.154Z" transform="translate(-199.986 -1.108)" fill="#f9e424"/>
        <path id="Trazado_170290" data-name="Trazado 170290" d="M1032.3,486.039c1.651,0,3.162-.015,4.671.01a.739.739,0,0,0,.788-.49c.753-1.556,1.54-3.1,2.317-4.648.257.089.279.314.363.479.692,1.366,1.387,2.731,2.049,4.112a.809.809,0,0,0,.863.549c1.493-.033,2.987-.012,4.489-.012.024.251-.174.329-.29.446-1.194,1.2-2.39,2.409-3.6,3.6a.656.656,0,0,0-.2.762c.5,1.692.975,3.394,1.459,5.091.034.12.108.235-.007.4a25.305,25.305,0,0,1-2.026-1.632q-1.4-1.136-2.765-2.319c-.25-.217-.379-.139-.588.036q-2.2,1.848-4.413,3.673c-.129.107-.233.3-.46.2.528-1.853,1.044-3.7,1.593-5.547a.571.571,0,0,0-.214-.656q-1.786-1.775-3.562-3.559C1032.648,486.406,1032.527,486.273,1032.3,486.039Z" transform="translate(-215.525 -103.468)" fill="#f9e424"/>
        <path id="Trazado_170291" data-name="Trazado 170291" d="M802.48,650.586q.007-1.309.013-2.619c.893,0,1.787-.03,2.679-.01a1.7,1.7,0,0,1,1.688,1.673q.032,3.582,0,7.164a1.713,1.713,0,0,1-1.808,1.666c-1.969.009-3.938,0-5.907,0q-8.314,0-16.627,0a1.711,1.711,0,0,1-1.847-1.291c.079-.353.365-.236.578-.237,2.258-.007,4.516,0,6.775,0,4.171,0,8.341-.009,12.512.007a1.894,1.894,0,0,0,1.848-1.1c.352-.285.768-.136,1.156-.166.5-.039.539-.075.539-.715s-.035-.679-.538-.715c-.352-.026-.732.1-1.045-.17q-.007-.876-.015-1.751A2.129,2.129,0,0,1,802.48,650.586Z" transform="translate(-0.654 -246.103)" fill="#febf10"/>
        <path id="Trazado_170292" data-name="Trazado 170292" d="M992.935,591.469c.277-.259.561-.511.829-.779a3.587,3.587,0,0,0,.15-4.9c-.508-.6-1.064-1.15-1.617-1.7q-5.784-5.794-11.578-11.579c-.154-.154-.323-.292-.486-.438a16.173,16.173,0,0,0,1.535-2.077c.058.23.258.348.409.5q7.347,7.354,14.7,14.7a4.13,4.13,0,0,1,1.424,3.186A3.692,3.692,0,0,1,992.935,591.469Z" transform="translate(-171.062 -179.535)" fill="#242ca3"/>
        <path id="Trazado_170293" data-name="Trazado 170293" d="M830.58,533.534a9.259,9.259,0,0,1-2.515-2.829,4.078,4.078,0,0,1,1.632-1.853,6.854,6.854,0,0,1,3.242-1.373,13.464,13.464,0,0,1,2.162-.3,6.755,6.755,0,0,0,2.221.72,4.547,4.547,0,0,0,2.434-.486,2.167,2.167,0,0,1,.6-.25,13.774,13.774,0,0,1,3.155.57.6.6,0,0,1,.438.375,26.23,26.23,0,0,1,.018,3.773,1.839,1.839,0,0,1-1.676,1.686,5.963,5.963,0,0,1-.766.025q-5.093,0-10.187,0A3.829,3.829,0,0,1,830.58,533.534Z" transform="translate(-41.125 -142.964)" fill="#d13f34"/>
        <path id="Trazado_170294" data-name="Trazado 170294" d="M914.486,463.34a9.693,9.693,0,0,0-2.652-.634c-.281-.058-.568-.089-.852-.133a.6.6,0,0,1-.169-.5c0-1.09-.041-2.18.019-3.268.041-.289.257-.422.488-.542a6.9,6.9,0,0,0,3.9-5.905.5.5,0,0,1,.141-.4l.533-.565a11.31,11.31,0,0,1,3.82,9.533,10.034,10.034,0,0,1-1.742,5.1.445.445,0,0,1-.358-.216,7.5,7.5,0,0,0-2.931-2.29A.534.534,0,0,1,914.486,463.34Z" transform="translate(-111.771 -78.265)" fill="#e1e6f5"/>
        <path id="Trazado_170295" data-name="Trazado 170295" d="M824.705,462.569c-.948.168-1.909.282-2.841.515A7.373,7.373,0,0,0,817.7,466a9.583,9.583,0,0,1-1.623-4.172,11.323,11.323,0,0,1,2.19-8.8,10.038,10.038,0,0,1,1.523-1.639l.533.564c.254.311.151.7.206,1.047a6.809,6.809,0,0,0,3.725,5.2c.255.137.537.247.594.587.068,1.093.026,2.187.025,3.28A.6.6,0,0,1,824.705,462.569Z" transform="translate(-30.764 -78.261)" fill="#e1e6f5"/>
        <path id="Trazado_170296" data-name="Trazado 170296" d="M858.539,533.146a7.29,7.29,0,0,1,3.487,2.69,11.285,11.285,0,0,1-8.189,5.225c-.214.1-.458-.028-.671.086h-1.532c-.213-.113-.456.016-.67-.085a11.025,11.025,0,0,1-5.685-2.419c.177-.2.411-.11.619-.11q5.332-.008,10.663,0a1.751,1.751,0,0,0,1.973-1.992Q858.536,534.841,858.539,533.146Z" transform="translate(-55.824 -148.072)" fill="#b42f28"/>
        <path id="Trazado_170297" data-name="Trazado 170297" d="M884.19,587.233a1.008,1.008,0,0,1,.67.085C884.634,587.315,884.4,587.4,884.19,587.233Z" transform="translate(-89.05 -194.243)" fill="#b58797"/>
        <path id="Trazado_170298" data-name="Trazado 170298" d="M899.261,587.318a1.012,1.012,0,0,1,.671-.086C899.726,587.4,899.488,587.315,899.261,587.318Z" transform="translate(-101.919 -194.243)" fill="#b58797"/>
        <path id="Trazado_170299" data-name="Trazado 170299" d="M817.251,689.758a7.929,7.929,0,0,1,1.409.025c.721.137.214.737.316,1.111.056.208.2.626-.316.625s-1.014,0-1.521.005c-6.166,0-12.331-.012-18.5.008-.565,0-.712-.152-.689-.7.043-1.065.012-1.066,1.075-1.066Z" transform="translate(-15.41 -281.785)" fill="#fbe696"/>
        <path id="Trazado_170300" data-name="Trazado 170300" d="M827.514,665.952q0,.869,0,1.738-8.516,0-17.031.014c-.387,0-.494-.122-.5-.5,0-1.26-.018-1.26,1.262-1.259Z" transform="translate(-25.689 -261.469)" fill="#fbe696"/>
        <path id="Trazado_170301" data-name="Trazado 170301" d="M850.359,417.2a14.3,14.3,0,0,1-2.042-1.332,6.979,6.979,0,0,1-2.355-5.36,12.943,12.943,0,0,1,.118-2.611,3.535,3.535,0,0,1,3.421-2.545,18.25,18.25,0,0,0,3.762-.137,9.262,9.262,0,0,0,4.428-2.113c.393-.325.614-.382.928.131a8.234,8.234,0,0,1,1.3,2.742,3.8,3.8,0,0,1,.067.7q0,1.916,0,3.831A6.973,6.973,0,0,1,856,416.948c-.142.075-.274.17-.41.256a2.64,2.64,0,0,1-1.669.548,7.185,7.185,0,0,1-2.961-.211A1.088,1.088,0,0,1,850.359,417.2Z" transform="translate(-56.4 -36.818)" fill="#f6d1b6"/>
        <path id="Trazado_170302" data-name="Trazado 170302" d="M876.006,501.051a7.845,7.845,0,0,0,5.235,0q.008,1.962.017,3.923a4.739,4.739,0,0,1-5.269,0Q876,503.012,876.006,501.051Z" transform="translate(-82.047 -120.666)" fill="#f1b8a0"/>
      </g>
    </g>
  </g>
</svg>
