<svg xmlns="http://www.w3.org/2000/svg" width="124" height="124" viewBox="0 0 124 124">
  <g id="Grupo_124180" data-name="Grupo 124180" transform="translate(-181 7844.802)">
    <g id="Grupo_124178" data-name="Grupo 124178">
      <g id="Grupo_123831" data-name="Grupo 123831" transform="translate(-347 -11845.514)">
        <g id="Grupo_123827" data-name="Grupo 123827" transform="translate(-630 -4097.079)">
          <g id="Elipse_6020" data-name="Elipse 6020" transform="translate(1158 8097.791)" fill="#fff" stroke="#2631a0" stroke-width="4">
            <circle cx="62" cy="62" r="62" stroke="none"/>
            <circle cx="62" cy="62" r="60" fill="none"/>
          </g>
        </g>
        <g id="Grupo_123830" data-name="Grupo 123830" transform="translate(-149.529 3745.024)">
          <path id="Trazado_170186" data-name="Trazado 170186" d="M913.2,284.077h25.64c.343.363.26.82.26,1.25q.006,14.791,0,29.581a3.683,3.683,0,0,1-.042.785c.025.37.034.742.034,1.114q0,13.785-.005,27.57a9.8,9.8,0,0,0,.218,2.345,5.486,5.486,0,0,0,4.332,4.259c.273.067.646,0,.723.418H913.2a1.044,1.044,0,0,1-.257-.789q-.011-3.184,0-6.367a1.138,1.138,0,0,1,.208-.744,1.745,1.745,0,0,1,1.255-.247q7.42-.008,14.839,0c.241,0,.483-.016.722,0,.545.039.744-.214.725-.742-.023-.634,0-1.269-.007-1.9-.01-.7-.075-.767-.811-.774-.875-.009-1.751,0-2.626,0q-6.435,0-12.87,0a1.813,1.813,0,0,1-1.2-.221.717.717,0,0,1-.2-.468,24.98,24.98,0,0,1,.006-3.117.715.715,0,0,1,.176-.413,1.777,1.777,0,0,1,1.259-.242q7.558-.008,15.117,0c1.155,0,1.156,0,1.157-1.159,0-.5.007-1.008,0-1.512-.013-.669-.082-.733-.772-.749-.241-.006-.482,0-.723,0q-7.394,0-14.788,0a1.926,1.926,0,0,1-1.208-.206.658.658,0,0,1-.213-.464,17.328,17.328,0,0,1,.064-3.508c.176-.363.519-.354.847-.37a17.6,17.6,0,0,0,16.69-15.275,16.858,16.858,0,0,0-3.252-12.589A17.3,17.3,0,0,0,913.9,292.31c-.327-.02-.671,0-.856-.364a2.325,2.325,0,0,1-.111-.907q0-2.955,0-5.91A1.363,1.363,0,0,1,913.2,284.077Z" transform="translate(-178.456 -0.051)" fill="#febf10"/>
          <path id="Trazado_170187" data-name="Trazado 170187" d="M743.969,284.077q0,4.005,0,8.01l-.062.082a22.042,22.042,0,0,1-2.782.392,17.41,17.41,0,0,0-9.155,4.545,17.519,17.519,0,0,0,3.481,28.046,16.607,16.607,0,0,0,6.651,2.11,6.528,6.528,0,0,1,1.806.265l.062.083q0,2.035.008,4.069l-.088.093a2.105,2.105,0,0,1-1.153.161q-7.614.007-15.228,0c-1.021,0-1.022,0-1.024,1.021q0,.919,0,1.838a.491.491,0,0,0,.562.56c.241,0,.481,0,.722,0q7.483,0,14.966,0a2.116,2.116,0,0,1,1.154.16l.087.094v3.953l-.088.093a2.106,2.106,0,0,1-1.153.161q-7.614.007-15.228,0c-1.021,0-1.022,0-1.024,1.021q0,.919,0,1.838a.491.491,0,0,0,.562.56c.241,0,.481,0,.722,0q7.483,0,14.966,0a2.117,2.117,0,0,1,1.154.16l.087.094,0,7.893H725.3a9.188,9.188,0,0,1-2.365-.447,8.173,8.173,0,0,1-4.855-7.191c-.014-.2-.007-.394-.007-.591q0-28.888,0-57.776c0-.45-.1-.931.254-1.318Z" transform="translate(-9.229 -0.051)" fill="#f9e424"/>
          <path id="Trazado_170189" data-name="Trazado 170189" d="M1109.945,524.927c3.725,0,7.45.006,11.176-.015.507,0,.669.124.668.654q-.024,14.431-.015,28.861a5.918,5.918,0,0,1-4.342,5.889c-.178.058-.4.049-.52.239h-1.446a4.569,4.569,0,0,0-1.316-.3,5.917,5.917,0,0,1-4.107-5.006c-.053-.851-.1-1.7-.1-2.549Q1109.939,538.814,1109.945,524.927Z" transform="translate(-349.564 -209.208)" fill="#a2a2d0"/>
          <path id="Trazado_170191" data-name="Trazado 170191" d="M913.273,344.973a17.451,17.451,0,0,1,11.1,3.928,17.749,17.749,0,0,1-8.162,31.332,19.018,19.018,0,0,1-2.938.263l.014-.027a.9.9,0,0,1-.261-.719c-.013-2.167-.018-4.334,0-6.5a1.409,1.409,0,0,1,.076-.45c.164-.412.536-.387.884-.415a9.853,9.853,0,0,0,5.416-2.149c.573-.454.581-.55.069-1.073s-1.031-1.014-1.529-1.538a.638.638,0,0,0-1.018-.052,4.994,4.994,0,0,1-2.3,1.068,1.5,1.5,0,0,1-1.437-.166,1.756,1.756,0,0,1-.17-.954q-.006-4.773,0-9.546a1.92,1.92,0,0,1,.153-.956c.325-.379.758-.292,1.16-.228a5.341,5.341,0,0,1,2.571,1.093.674.674,0,0,0,1.07-.065c.493-.527,1.023-1.021,1.527-1.538.47-.482.462-.551-.039-.978a9.654,9.654,0,0,0-5.517-2.216c-.322-.031-.677,0-.835-.39a2.733,2.733,0,0,1-.09-.907q0-2.875,0-5.749a1.281,1.281,0,0,1,.267-1.041Z" transform="translate(-178.538 -52.937)" fill="#242ca3"/>
          <path id="Trazado_170192" data-name="Trazado 170192" d="M913.157,645.884c5.7,0,11.394,0,17.092-.014.521,0,.689.148.666.669-.038.875-.038,1.754,0,2.629.023.52-.146.67-.667.669-5.7-.018-11.394-.013-17.092-.014h0a6.93,6.93,0,0,1,0-3.939Z" transform="translate(-178.414 -314.255)" fill="#a2a2d0"/>
          <path id="Trazado_170193" data-name="Trazado 170193" d="M913.157,705.863c5.7,0,11.394,0,17.092-.014.521,0,.689.148.666.669-.038.875-.038,1.754,0,2.629.023.52-.146.67-.667.669-5.7-.018-11.394-.013-17.092-.014h0a6.93,6.93,0,0,1,0-3.939Z" transform="translate(-178.414 -366.345)" fill="#a2a2d0"/>
          <path id="Trazado_170194" data-name="Trazado 170194" d="M797.261,345.163q0,3.93,0,7.86c-.153.233-.428.2-.643.3a10.571,10.571,0,0,0-4.737,1.623,9.611,9.611,0,0,0,4.2,17.518,4.873,4.873,0,0,1,1.033.177.3.3,0,0,1,.138.148q.005,3.924.01,7.848c-6.323-.138-11.378-2.759-14.818-8.051a16.878,16.878,0,0,1-.839-17.962,17.056,17.056,0,0,1,12.914-9.231A14.69,14.69,0,0,1,797.261,345.163Z" transform="translate(-62.512 -53.1)" fill="#6167bc"/>
          <path id="Trazado_170195" data-name="Trazado 170195" d="M797.717,645.873v3.939c-5.675,0-11.35-.006-17.025.015-.575,0-.776-.148-.742-.736a21.672,21.672,0,0,0,0-2.5c-.034-.588.167-.738.742-.736C786.367,645.879,792.042,645.872,797.717,645.873Z" transform="translate(-62.973 -314.244)" fill="#d7d7fb"/>
          <path id="Trazado_170196" data-name="Trazado 170196" d="M797.717,705.852v3.939c-5.675,0-11.35-.006-17.025.015-.575,0-.776-.148-.742-.736a21.672,21.672,0,0,0,0-2.5c-.034-.588.167-.739.742-.736C786.367,705.858,792.042,705.851,797.717,705.852Z" transform="translate(-62.973 -366.334)" fill="#d7d7fb"/>
          <path id="Trazado_170197" data-name="Trazado 170197" d="M874.638,434.373c-.216.189-.143.444-.143.675q-.006,5.133,0,10.266c0,.231-.071.486.145.675a.2.2,0,0,1-.161.2.635.635,0,0,1-.189.011,2.137,2.137,0,0,0-.667-.031,6.035,6.035,0,0,1,.823-12.021A.244.244,0,0,1,874.638,434.373Z" transform="translate(-139.752 -130.382)" fill="#4bb8eb"/>
          <path id="Trazado_170198" data-name="Trazado 170198" d="M910.691,409l-.146-.105a1.13,1.13,0,0,1-.246-.851c-.008-.585-.025-1.172,0-1.756a1.44,1.44,0,0,0-.435-1.226c.21-.143.46-.071.685-.131a10,10,0,0,1,6.587,2.492c.331.29.413.466.047.8-.724.666-1.414,1.37-2.089,2.086-.27.286-.458.308-.754.047A5.306,5.306,0,0,0,910.691,409Z" transform="translate(-175.805 -105.008)" fill="#d7d7fb"/>
          <path id="Trazado_170199" data-name="Trazado 170199" d="M913.174,514.082l.147-.1a5.2,5.2,0,0,0,3.652-1.362c.3-.264.486-.236.755.049.676.716,1.367,1.422,2.092,2.088.374.343.272.524-.055.8a9.8,9.8,0,0,1-6.265,2.474c-.109,0-.218.016-.327.025l.005-.058c-.046-.075-.005.032-.047-.045A7.415,7.415,0,0,1,913.174,514.082Z" transform="translate(-178.434 -198.371)" fill="#d7d7fb"/>
          <path id="Trazado_170200" data-name="Trazado 170200" d="M849.867,421.539q0,1.958,0,3.916a9.813,9.813,0,0,1-1.336-19.54c.216-.03.437-.023.655-.034.523-.047.713.164.69.71-.044,1.039-.012,2.081-.012,3.123a6.926,6.926,0,0,0-3.7,1.351,5.821,5.821,0,0,0,1.712,10.063,10.928,10.928,0,0,0,1.205.3c.213.113.461-.018.674.1A.174.174,0,0,1,849.867,421.539Z" transform="translate(-115.127 -105.828)" fill="#f1f1fb"/>
          <path id="Trazado_170201" data-name="Trazado 170201" d="M909.728,524.144c-.231.01-.469.077-.674-.1A1,1,0,0,1,909.728,524.144Z" transform="translate(-175.098 -208.444)" fill="#d7d7fb"/>
        </g>
      </g>
    </g>
  </g>
</svg>
