<svg xmlns="http://www.w3.org/2000/svg" width="171.06" height="171.06" viewBox="0 0 171.06 171.06">
  <g id="Grupo_124198" data-name="Grupo 124198" transform="translate(-8963.109 10679.973)">
    <g id="Grupo_123844" data-name="Grupo 123844" transform="translate(7873 -11830)">
      <circle id="Elipse_6004" data-name="Elipse 6004" cx="85.53" cy="85.53" r="85.53" transform="translate(1090.109 1150.027)" fill="#fff"/>
      <g id="Grupo_123467" data-name="Grupo 123467" transform="translate(368.366 848.283)">
        <path id="Trazado_167118" data-name="Trazado 167118" d="M796.087,348.027c0,7.89-.01,15.78.016,23.67,0,.706-.188.884-.886.882q-13.6-.036-27.194-.016,0-11.982-.013-23.965c0-.485.117-.584.589-.584Q782.344,348.039,796.087,348.027Z" transform="translate(-0.009 -0.012)" fill="#767abb"/>
        <path id="Trazado_167119" data-name="Trazado 167119" d="M1042.732,372.551q-13.644,0-27.287.016c-.637,0-.794-.152-.792-.791.024-7.92.016-15.841.016-23.761q13.725,0,27.45-.015c.525,0,.63.1.628.628Q1042.715,360.59,1042.732,372.551Z" transform="translate(-196.2)" fill="#f6ea76"/>
        <path id="Trazado_167120" data-name="Trazado 167120" d="M768.015,611.91q13.6,0,27.2-.016c.7,0,.881.173.878.875-.026,7.892-.017,15.785-.017,23.677q-13.725,0-27.45.015c-.525,0-.63-.1-.628-.628Q768.032,623.872,768.015,611.91Z" transform="translate(0 -209.915)" fill="#f86a94"/>
        <path id="Trazado_167121" data-name="Trazado 167121" d="M1014.668,636.45c0-7.92.008-15.839-.016-23.759,0-.639.158-.794.794-.793q13.642.033,27.285.015,0,11.961.015,23.923c0,.525-.1.63-.629.628Q1028.394,636.434,1014.668,636.45Z" transform="translate(-196.2 -209.918)" fill="#f2cb55"/>
        <path id="Trazado_167122" data-name="Trazado 167122" d="M807.958,427.078c-.067-.294-.346-.353-.553-.484-1.833-1.158-3.66-2.325-5.512-3.452-.425-.259-.492-.446-.211-.866.653-.974,1.267-1.975,1.875-2.978.184-.3.333-.384.649-.159.474.337.982.625,1.494.946.179-.2.106-.414.106-.6q.007-14.328.011-28.657c0-.453.01-.727-.613-.726q-14.558.034-29.116.018a1.77,1.77,0,0,0-.2.029,5.383,5.383,0,0,0,.809,1.421c.245.378.333.6-.16.874-1,.562-1.966,1.185-2.917,1.827-.41.277-.569.181-.811-.209-1.14-1.839-2.317-3.656-3.481-5.482-.453-.572-.286-1.049.1-1.625,1.156-1.744,2.253-3.527,3.339-5.316.265-.436.451-.565.917-.244a31.336,31.336,0,0,0,2.787,1.748c.557.3.5.556.191.981-.3.4-.539.851-.812,1.292a1.237,1.237,0,0,0,.777.1q14.184.008,28.367.019c.647,0,.844-.115.842-.815q-.042-14.184-.019-28.368v-.868c-.613.386-1.134.693-1.632,1.033-.279.191-.425.143-.6-.14-.65-1.068-1.318-2.126-1.989-3.181-.141-.221-.22-.374.074-.55,2.164-1.3,4.23-2.755,6.452-3.96l-.015.054a1.075,1.075,0,0,1,.251.781c.012.255.008.511.008.766q0,37.547,0,75.094a2.376,2.376,0,0,1-.24,1.557.982.982,0,0,0-.007.138Z" transform="translate(-0.838 -0.547)" fill="#00607e"/>
        <path id="Trazado_167123" data-name="Trazado 167123" d="M959.978,427.082q0-28.367-.007-56.733,0-10.733-.007-21.466c.17-.058.293.046.421.126,1.968,1.232,3.932,2.47,5.907,3.689.333.206.392.362.162.709-.661,1-1.293,2.02-1.907,3.049-.207.347-.374.394-.705.158-.47-.335-.976-.619-1.571-.99v.865q0,14.182-.017,28.364c0,.675.158.828.828.826q14.182-.037,28.364-.017h.861c-.372-.6-.655-1.1-.992-1.571-.243-.337-.175-.5.166-.7,1.007-.6,2.006-1.22,2.981-1.871.4-.266.566-.205.815.2,1.138,1.841,2.317,3.658,3.481,5.483.454.572.283,1.051-.1,1.624-1.154,1.745-2.252,3.527-3.337,5.316-.265.437-.458.555-.917.242a32.307,32.307,0,0,0-2.786-1.75c-.554-.3-.512-.551-.195-.978.3-.4.541-.849.816-1.289a1.257,1.257,0,0,0-.782-.1q-14.183-.008-28.366-.019c-.637,0-.847.1-.845.809.029,9.455.02,18.911.02,28.366v.873c.585-.363,1.09-.647,1.562-.978.317-.222.493-.225.708.139.625,1.053,1.286,2.084,1.941,3.119.134.211.248.375-.053.556C964.266,424.428,962.207,425.894,959.978,427.082Z" transform="translate(-152.698 -0.689)" fill="#00465f"/>
        <path id="Trazado_167124" data-name="Trazado 167124" d="M817.861,401.373c-1.4,0-2.806-.016-4.208.009-.47.009-.682-.082-.663-.618.041-1.146.031-2.3,0-3.442-.01-.44.137-.56.566-.558q4.284.025,8.569,0c.372,0,.553.072.544.5q-.038,1.8,0,3.6c.008.406-.13.524-.526.518C820.718,401.361,819.29,401.372,817.861,401.373Z" transform="translate(-35.787 -38.789)" fill="#00607f"/>
        <path id="Trazado_167125" data-name="Trazado 167125" d="M1064.488,396.769c1.428,0,2.857.015,4.284-.009.437-.007.569.132.56.564-.026,1.173-.021,2.346,0,3.519.006.385-.094.537-.51.534q-4.323-.023-8.645,0c-.4,0-.528-.126-.52-.524.021-1.173.034-2.347,0-3.519-.017-.512.2-.579.63-.573C1061.683,396.782,1063.086,396.769,1064.488,396.769Z" transform="translate(-231.993 -38.786)" fill="#00465f"/>
        <path id="Trazado_167126" data-name="Trazado 167126" d="M817.911,660.668c1.4,0,2.81.015,4.214-.009.426-.007.576.1.565.551q-.044,1.761,0,3.524c.012.457-.157.545-.573.543q-4.291-.024-8.582,0c-.392,0-.534-.1-.526-.511q.038-1.8,0-3.6c-.009-.423.152-.508.533-.5C815,660.679,816.455,660.668,817.911,660.668Z" transform="translate(-35.803 -248.704)" fill="#00607f"/>
        <path id="Trazado_167127" data-name="Trazado 167127" d="M1064.58,660.665c1.4,0,2.8.017,4.206-.01.436-.008.565.118.554.554q-.043,1.758,0,3.518c.011.445-.135.55-.561.547q-4.283-.026-8.566,0c-.435,0-.565-.118-.554-.554q.043-1.758,0-3.518c-.011-.445.135-.555.561-.548C1061.673,660.68,1063.127,660.665,1064.58,660.665Z" transform="translate(-232 -248.701)" fill="#00465f"/>
      </g>
    </g>
  </g>
</svg>
