<svg xmlns="http://www.w3.org/2000/svg" width="88" height="88" viewBox="0 0 88 88">
  <g id="Grupo_124162" data-name="Grupo 124162" transform="translate(4346 7366.222)">
    <g id="Grupo_123805" data-name="Grupo 123805" transform="translate(-4346 -7366.222)">
      <g id="Grupo_123795" data-name="Grupo 123795" transform="translate(0)">
        <g id="Elipse_6762" data-name="Elipse 6762" fill="#fff" stroke="#2631a0" stroke-width="4">
          <circle cx="44" cy="44" r="44" stroke="none"/>
          <circle cx="44" cy="44" r="42" fill="none"/>
        </g>
      </g>
      <g id="Grupo_123804" data-name="Grupo 123804" transform="translate(20.564 15.629)">
        <path id="Trazado_170029" data-name="Trazado 170029" d="M704.531,519.621v-.763c.505-3.759,1.546-7.406,2.341-11.1,1.03-4.789,2.141-9.559,3.2-14.341a1.9,1.9,0,0,1,2.127-1.734c.4,0,.793,0,1.189.021,1.4-.047,2.8-.045,4.2,0,1.427-.041,2.853-.046,4.279,0,.959-.041,1.918-.044,2.877,0,1.278-.053,2.556-.021,3.833-.019a.682.682,0,0,1,.483.16.834.834,0,0,1,.168.626q.008,6.666,0,13.331a.945.945,0,0,1-.092.508,1.055,1.055,0,0,1-.547.354,1.243,1.243,0,0,0-.788,1.2q-.018,2.786,0,5.573a1.252,1.252,0,0,0,.85,1.25.94.94,0,0,1,.474.306.841.841,0,0,1,.1.458c.009,1.554.007,3.108,0,4.663a.686.686,0,0,1-.2.563H705.58A1.137,1.137,0,0,1,704.531,519.621Z" transform="translate(-704.48 -471.85)" fill="#fee377"/>
        <path id="Trazado_170030" data-name="Trazado 170030" d="M961.142,506.371q0-7.234,0-14.467l.055-.076a.58.58,0,0,1,.4-.128c1.269,0,2.539-.039,3.807.021a1.986,1.986,0,0,1,.462.006c.316-.028.632-.037.949-.037q5.441,0,10.882,0a6.258,6.258,0,0,1,.759.02c1.674-.034,3.349-.011,5.023-.017.206,0,.411,0,.616.008.772.044,1.151.389,1.366,1.24v.954c-.514,3.565-1.454,7.042-2.207,10.558-1.026,4.793-2.105,9.574-3.159,14.361-.048.217-.113.43-.158.647a1.352,1.352,0,0,1-1.246,1.229H961.149q0-2.853-.007-5.705l.05-.076a1.1,1.1,0,0,1,.778-.137q5.051-.007,10.1,0c.206,0,.413.008.619-.011a1.165,1.165,0,0,0,1.118-1.151q.042-2.93,0-5.86a1.161,1.161,0,0,0-1.215-1.151c-.7-.024-1.4-.007-2.1-.008q-4.24,0-8.481,0a1.591,1.591,0,0,1-.75-.079A.318.318,0,0,1,961.142,506.371Z" transform="translate(-936.593 -471.87)" fill="#feb555"/>
        <path id="Trazado_170032" data-name="Trazado 170032" d="M713.3,410.61c-.46.005-.92.007-1.38.017a1.539,1.539,0,0,0-1.583,1.3q-2.857,12.714-5.712,25.427a1.924,1.924,0,0,1-.1.259V403.093c.238-.945.611-1.241,1.613-1.245,2.176-.009,4.352,0,6.528,0a1.1,1.1,0,0,1,.6.1.39.39,0,0,1,.13.135,1.131,1.131,0,0,1,.1.6q.006,3.611,0,7.221C713.5,410.158,713.536,410.424,713.3,410.61Z" transform="translate(-704.48 -390.602)" fill="#12263f"/>
        <path id="Trazado_170035" data-name="Trazado 170035" d="M959.549,284.1c.762.242,1.149.9,1.618,1.465a26.09,26.09,0,0,1,3.015,4.388,5.5,5.5,0,0,1,.063,5.581c.046.508-.362.755-.623,1.089a5.767,5.767,0,0,1-3.505,1.914,1.068,1.068,0,0,1-.912-.114.53.53,0,0,1-.087-.153,1.808,1.808,0,0,1-.056-.66q0-6.33,0-12.661c0-.294-.065-.613.2-.848Z" transform="translate(-934.707 -284.096)" fill="#fe3f62"/>
        <path id="Trazado_170036" data-name="Trazado 170036" d="M905.345,284.1q0,7.147,0,14.294c-.224.274-.519.181-.792.139a5.722,5.722,0,0,1-3.559-1.91,4.873,4.873,0,0,1-.757-1.037,5.231,5.231,0,0,1-.26-5.06,24.655,24.655,0,0,1,3.855-5.7,1.92,1.92,0,0,1,1.129-.723Z" transform="translate(-880.789 -284.096)" fill="#fe728a"/>
        <path id="Trazado_170038" data-name="Trazado 170038" d="M839.822,284.1a1.984,1.984,0,0,1,1.118,1.368c.845,2.608,1.7,5.212,2.6,7.8a10.305,10.305,0,0,1,.212,2.258.479.479,0,0,1-.45.207c-1.167.013-2.333.016-3.5,0a.706.706,0,0,1-.316-.088.417.417,0,0,1-.142-.128.919.919,0,0,1-.105-.5q-.011-5.152,0-10.3a.725.725,0,0,1,.2-.609Z" transform="translate(-826.327 -284.096)" fill="#fe9368"/>
        <path id="Trazado_170039" data-name="Trazado 170039" d="M800.4,284.1l-.008,11.421c-.124.214-.336.215-.543.217-1.063.011-2.125.007-3.188,0a.757.757,0,0,1-.569-.191l.007-.012a8.324,8.324,0,0,1,.64-3.564c.754-2.153,1.461-4.323,2.165-6.494a2,2,0,0,1,1.115-1.381Z" transform="translate(-787.282 -284.096)" fill="#febbaa"/>
        <path id="Trazado_170040" data-name="Trazado 170040" d="M704.051,784.483a2.423,2.423,0,0,0,1.049,1.049c-.35,0-.836.136-1.01-.038S704.051,784.833,704.051,784.483Z" transform="translate(-704 -736.712)" fill="#fefdfa"/>
        <path id="Trazado_170041" data-name="Trazado 170041" d="M796.237,403.757l4.3-.03.017.033a.673.673,0,0,1,.19.566q.009,3.714,0,7.427a.649.649,0,0,1-.2.562h-4.294Q796.246,408.035,796.237,403.757Z" transform="translate(-787.431 -392.306)" fill="#56bbc8"/>
        <path id="Trazado_170042" data-name="Trazado 170042" d="M841.392,412.383q0-4.277.006-8.555l4.306-.026-.008.026-.027,0a.68.68,0,0,1,.211.6q.008,3.675,0,7.349a.683.683,0,0,1-.2.605Z" transform="translate(-828.276 -392.374)" fill="#0aa4bc"/>
        <path id="Trazado_170043" data-name="Trazado 170043" d="M914.359,413.963a5.947,5.947,0,0,0,3.526,1.851c.248.033.5.031.752.045l0,.018a.658.658,0,0,1,.2.562q.009,2.288,0,4.576a.659.659,0,0,1-.2.563l0,.022-4.289-.024a.647.647,0,0,1-.2-.56q-.009-3.252,0-6.5C914.149,414.3,914.152,414.092,914.359,413.963Z" transform="translate(-894.08 -401.565)" fill="#ebebf0"/>
        <path id="Trazado_170044" data-name="Trazado 170044" d="M889.071,404.82q-.008,3.806-.015,7.611l-2.859,0q-.006-4.278-.012-8.556l2.19-.019Z" transform="translate(-868.792 -392.422)" fill="#4d5b6d"/>
        <path id="Trazado_170045" data-name="Trazado 170045" d="M947.647,654.1a1.459,1.459,0,0,1-1.422-1.625q0-2.683,0-5.365a1.458,1.458,0,0,1,1.423-1.624l.012.033a.647.647,0,0,1,.194.562q.01,3.711,0,7.422a.647.647,0,0,1-.194.562Z" transform="translate(-923.098 -610.982)" fill="#00607f"/>
        <path id="Trazado_170046" data-name="Trazado 170046" d="M1023.109,305.342l-1.036,2.286-12.715,0c-.14-.235.016-.426.1-.625.428-1.027.958-2.006,1.435-3.01.716-1.506,1.419-3.018,2.177-4.5a.875.875,0,0,1,.377-.415q2.45-5.085,4.9-10.169a1.409,1.409,0,0,1,2.02-.741q3.809,1.806,7.6,3.654a1.41,1.41,0,0,1,.71,2c-.6,1.279-1.231,2.543-1.849,3.814a.745.745,0,0,1-.632-.126q-2.142-1.044-4.3-2.057a1.826,1.826,0,0,0-.821-.213,1.172,1.172,0,0,0-1.153.756,1.232,1.232,0,0,0,.439,1.445,6.3,6.3,0,0,0,1.177.623c1.189.533,2.339,1.149,3.527,1.683.214.1.448.186.521.452-.368.884-.8,1.736-1.24,2.587a.713.713,0,0,1-.589-.106c-1.445-.658-2.855-1.391-4.3-2.054a1.954,1.954,0,0,0-.862-.237,1.283,1.283,0,0,0-1.171.812,1.256,1.256,0,0,0,.494,1.43,9.381,9.381,0,0,0,1.357.693c1.11.478,2.157,1.085,3.269,1.556C1022.774,304.968,1023.027,305.059,1023.109,305.342Z" transform="translate(-980.155 -287.612)" fill="#fee377"/>
        <path id="Trazado_170047" data-name="Trazado 170047" d="M961.264,654.2q0-4.273,0-8.547l8.856-.017c.857,0,1.714,0,2.572,0a1.378,1.378,0,0,1,1.438,1.432q.008,2.857,0,5.715a1.359,1.359,0,0,1-1.3,1.427C968.978,654.217,965.121,654.2,961.264,654.2Z" transform="translate(-936.703 -611.118)" fill="#002c3c"/>
        <path id="Trazado_170048" data-name="Trazado 170048" d="M961.2,421.692q0-2.85,0-5.7a5.846,5.846,0,0,0,4.28-1.9c.205.13.208.341.209.547q.014,3.247,0,6.493a.645.645,0,0,1-.2.559Z" transform="translate(-936.643 -401.68)" fill="#b9b9bf"/>
        <path id="Trazado_170049" data-name="Trazado 170049" d="M1006.044,412.437q-.007-3.8-.014-7.6l.7-.976,3.752.026q-1.949,4.06-3.9,8.12c-.068.142-.128.288-.191.433Z" transform="translate(-977.197 -392.428)" fill="#12263f"/>
        <path id="Trazado_170050" data-name="Trazado 170050" d="M1123.731,366.733q-2.527-1.215-5.053-2.431a1.385,1.385,0,0,1-.871-1.254,1.333,1.333,0,0,1,.7-1.3,1.384,1.384,0,0,1,1.326-.049c1.717.815,3.425,1.649,5.136,2.475Z" transform="translate(-1078.3 -354.155)" fill="#fe9000"/>
        <path id="Trazado_170051" data-name="Trazado 170051" d="M1097.5,420.88q-2.506-1.2-5.012-2.406a1.435,1.435,0,1,1,1.241-2.573q2.507,1.2,5.007,2.414Z" transform="translate(-1054.542 -403.15)" fill="#fe9000"/>
      </g>
    </g>
  </g>
</svg>
