<svg xmlns="http://www.w3.org/2000/svg" width="124" height="124" viewBox="0 0 124 124">
  <g id="Grupo_124181" data-name="Grupo 124181" transform="translate(-516 7848.803)">
    <g id="Grupo_124179" data-name="Grupo 124179">
      <g id="Grupo_123833" data-name="Grupo 123833" transform="translate(-432 -11849.515)">
        <g id="Grupo_123828" data-name="Grupo 123828" transform="translate(-210 -4097.079)">
          <g id="Elipse_6020" data-name="Elipse 6020" transform="translate(1158 8097.791)" fill="#fff" stroke="#2631a0" stroke-width="4">
            <circle cx="62" cy="62" r="62" stroke="none"/>
            <circle cx="62" cy="62" r="60" fill="none"/>
          </g>
        </g>
        <g id="Grupo_123832" data-name="Grupo 123832" transform="translate(206.013 3681.808)">
          <path id="Trazado_170202" data-name="Trazado 170202" d="M823.559,348.078h21.827a.953.953,0,0,1,.29.839q.017,7.2,0,14.4a1.221,1.221,0,0,1-.215.813,1.154,1.154,0,0,1-.863.246q-4.184.02-8.368,0a1.451,1.451,0,0,1-.7-.134c-.316-.182-.33-.493-.342-.805-.018-.462.018-.926-.029-1.386a1.675,1.675,0,0,0-3.348-.021,4.544,4.544,0,0,0-.019.528q0,7.5,0,14.99a1.913,1.913,0,0,0,.772,1.79,1.655,1.655,0,0,0,2.592-1.272c.056-.459.015-.924.032-1.386.012-.309.011-.624.309-.828a1.578,1.578,0,0,1,.835-.151q3.105-.014,6.21,0a1.342,1.342,0,0,1,.889.175c.36.383.265.866.266,1.317q.012,7.783,0,15.566c0,.286,0,.572,0,.858a1.815,1.815,0,0,0,1.16,1.822,1.979,1.979,0,0,1,.622.366,1.518,1.518,0,0,1,.2.952q.014,5.079,0,10.159a1.468,1.468,0,0,1-.225,1.007,1.279,1.279,0,0,1-.934.241q-10.071.015-20.142,0a.844.844,0,0,1-1.1-.949c-.008-.264-.01-.529-.01-.793q0-28.42.008-56.84C823.27,349.071,823.1,348.508,823.559,348.078Z" transform="translate(-42.223 -0.039)" fill="#6065ab"/>
          <path id="Trazado_170203" data-name="Trazado 170203" d="M948.754,364.064V348.078h20.372c1.355.34,1.735.8,1.74,2.2.006,1.935.045,3.87-.026,5.806.04.417.038.834.038,1.252q0,8.669,0,17.339c0,.44-.007.879-.037,1.318.017.33.037.66.037.99q0,14.835-.007,29.671a1.874,1.874,0,0,1-.2,1.275,1.344,1.344,0,0,1-.938.236q-10.042.014-20.083,0a1.076,1.076,0,0,1-.814-.191l-.07-.114-.007-11.995.054-.113a.854.854,0,0,1,.319-.231,1.945,1.945,0,0,0,1.321-2.175q-.014-8.092,0-16.185a1.735,1.735,0,0,1,.245-1.265,1.04,1.04,0,0,1,.75-.188c2.157-.019,4.314-.015,6.471,0a1.446,1.446,0,0,1,.7.135c.314.184.327.495.338.807.018.462-.018.925.029,1.385a1.675,1.675,0,0,0,3.347.017,4.526,4.526,0,0,0,.019-.527q0-7.492,0-14.985a1.92,1.92,0,0,0-.767-1.792,1.656,1.656,0,0,0-2.6,1.261c-.057.459-.015.923-.032,1.385-.011.309-.008.624-.3.832a1.3,1.3,0,0,1-.7.152q-4.193.022-8.387,0a.969.969,0,0,1-.746-.195Z" transform="translate(-145.59 -0.039)" fill="#242ca3"/>
          <path id="Trazado_170205" data-name="Trazado 170205" d="M786.619,348.078q0,29.887,0,59.775c-.158.311-.456.291-.735.3-.542.025-1.085,0-1.626.026a5.617,5.617,0,0,0-2.34.091,3.564,3.564,0,0,0-2.627,2.087c-.139.289-.227.79-.768.446a1.851,1.851,0,0,1-.128-.97q-.008-27.865,0-55.729a6.18,6.18,0,0,1,3.041-5.457,4.744,4.744,0,0,1,1.96-.5c.149-.024.31.029.448-.069Z" transform="translate(-5.283 -0.039)" fill="#4d5e7f"/>
          <path id="Trazado_170207" data-name="Trazado 170207" d="M783.135,694.89a.938.938,0,0,0-.193-.153,4.024,4.024,0,0,1-2.844-4.353c0-.131.011-.261.017-.392.175-.154.192-.385.281-.581a3.917,3.917,0,0,1,3.58-2.45c.522-.029,1.048.009,1.573.016.013.321-.237.441-.446.6a1.66,1.66,0,0,0-.66,1.744,1.7,1.7,0,0,0,1.454,1.27,6.192,6.192,0,0,0,1.056.035q10.839,0,21.677.006c.45,0,.937-.107,1.32.265a1.118,1.118,0,0,1,.192.68q.027,1.306,0,2.613a.848.848,0,0,1-.285.7Z" transform="translate(-6.693 -279.119)" fill="#6065ab"/>
          <path id="Trazado_170208" data-name="Trazado 170208" d="M948.753,712.036l.008-3.951.07-.113a1.067,1.067,0,0,1,.813-.193q10.015-.019,20.03,0c.33,0,.671-.011.9.306,0,.482-.029.968.016,1.446a2.235,2.235,0,0,1-1.462,2.506Z" transform="translate(-145.59 -296.265)" fill="#242ca3"/>
          <path id="Trazado_170209" data-name="Trazado 170209" d="M891.145,438.7l9.9-.021,0,.041a.846.846,0,0,1,.289.768q.023,5.206,0,10.412a1.135,1.135,0,0,1-.21.746,1.973,1.973,0,0,1-2.06-.017l-7.915-.022c-.312-.162-.3-.464-.306-.747q-.031-5.206,0-10.412C890.841,439.164,890.834,438.862,891.145,438.7Z" transform="translate(-97.882 -74.654)" fill="#fede40"/>
          <path id="Trazado_170210" data-name="Trazado 170210" d="M828.321,690.859q-7.339-.009-14.677-.017-4.364,0-8.727,0c-1.32,0-2.107-.528-2.354-1.573-.227-.962.277-1.79,1.443-2.371l2.477-.044q5.179.01,10.359.019,5.74,0,11.48-.015l-.014.03a.757.757,0,0,1,.287.63q.035,1.341,0,2.681a.754.754,0,0,1-.287.629Z" transform="translate(-25.15 -279.039)" fill="#f2f4f8"/>
          <path id="Trazado_170211" data-name="Trazado 170211" d="M874.011,420.285v11.906c-.008.639-.009,1.278-.024,1.917a1.982,1.982,0,1,1-3.961,0q-.015-7.87,0-15.74a1.982,1.982,0,1,1,3.961,0C874,419.007,874,419.647,874.011,420.285Z" transform="translate(-80.747 -56.24)" fill="#fff"/>
          <path id="Trazado_170212" data-name="Trazado 170212" d="M937.5,506.185l1.988-.046.106.08a1.3,1.3,0,0,1,.182.887q.013,8.954,0,17.908c0,.345.05.719-.291.968l0,.053a2.044,2.044,0,0,1-1.985-2.328Q937.5,514.945,937.5,506.185Z" transform="translate(-136.326 -130.212)" fill="#fff"/>
          <path id="Trazado_170213" data-name="Trazado 170213" d="M1072.485,393.121l9.649.118a2.006,2.006,0,0,1,1.9,3.123q-1.567,3.165-3.162,6.315a.947.947,0,0,0,0,.973c1.031,2.018,1.958,4.093,3.07,6.065a2.154,2.154,0,0,1-2.07,3.405c-3.124-.124-6.256-.034-9.385-.034q-.011-6.611-.02-13.223C1072.463,397.616,1072.478,395.369,1072.485,393.121Z" transform="translate(-247.473 -37.135)" fill="#ef3f73"/>
          <path id="Trazado_170214" data-name="Trazado 170214" d="M948.738,450.681q0-5.931-.005-11.862l9.9-.019c.312.162.3.464.306.746q.032,5.207,0,10.413c0,.282.006.584-.306.747l-7.915.022a1.781,1.781,0,0,1-1.988,0Z" transform="translate(-145.572 -74.753)" fill="#febd40"/>
          <path id="Trazado_170215" data-name="Trazado 170215" d="M948.716,690.846q0-1.97,0-3.94l20.832-.014c.331,0,.661-.01.991-.015q0,2,0,4l-18.386-.016C951.008,690.859,949.862,690.851,948.716,690.846Z" transform="translate(-145.56 -279.059)" fill="#e0e5ef"/>
          <path id="Trazado_170216" data-name="Trazado 170216" d="M1004.857,432.195V420.289c.008-.661,0-1.322.026-1.983a1.985,1.985,0,0,1,1.979-1.983,1.958,1.958,0,0,1,1.977,1.981q.023,7.936,0,15.873a1.96,1.96,0,0,1-1.976,1.983,1.986,1.986,0,0,1-1.98-1.982C1004.861,433.517,1004.865,432.856,1004.857,432.195Z" transform="translate(-191.795 -56.243)" fill="#fff"/>
          <path id="Trazado_170217" data-name="Trazado 170217" d="M948.731,506.4l1.988,0q0,8.873,0,17.747a1.891,1.891,0,0,1-1.983,2.049Q948.733,516.3,948.731,506.4Z" transform="translate(-145.572 -130.427)" fill="#fff"/>
        </g>
      </g>
    </g>
  </g>
</svg>
