<svg xmlns="http://www.w3.org/2000/svg" width="88" height="88" viewBox="0 0 88 88">
  <g id="Grupo_124206" data-name="Grupo 124206" transform="translate(-9288 8531)">
    <g id="Grupo_123847" data-name="Grupo 123847" transform="translate(8350 -12145)">
      <g id="Grupo_123795" data-name="Grupo 123795" transform="translate(619 824.999)">
        <g id="Elipse_6762" data-name="Elipse 6762" transform="translate(319 2789.001)" fill="#fff" stroke="#2631a0" stroke-width="4">
          <circle cx="44" cy="44" r="44" stroke="none"/>
          <circle cx="44" cy="44" r="42" fill="none"/>
        </g>
      </g>
      <g id="Grupo_123846" data-name="Grupo 123846" transform="translate(182.025 3277.807)">
        <path id="Trazado_170241" data-name="Trazado 170241" d="M1035.505,482.647a7.75,7.75,0,0,1-4.337-.7,8.7,8.7,0,0,1,1.954-16.536,4.748,4.748,0,0,1,2.033-.12.182.182,0,0,1-.151.062.69.69,0,0,0,.145.017,7.618,7.618,0,0,1,4.08,2.041,8.819,8.819,0,0,1-1.7,14.348,5.745,5.745,0,0,1-2.135.785c-.191.016.045,0,.019.033A.149.149,0,0,1,1035.505,482.647Z" transform="translate(-214.884 -94.354)" fill="#fec238"/>
        <path id="Trazado_170242" data-name="Trazado 170242" d="M907.955,658.191a12.011,12.011,0,0,1-2.447.062c-.285,0-.57-.053-.855-.053q-8.2-.005-16.4,0a1.317,1.317,0,0,1-1.475-.987,1.279,1.279,0,0,1,.022-.674,11.568,11.568,0,0,1,9.223-8.45,2.77,2.77,0,0,1,.906-.1,7.432,7.432,0,0,1,3.588,1,11.7,11.7,0,0,1,6.05,7.28,1.577,1.577,0,0,1-.421,1.752C906.741,658.116,907.373,657.857,907.955,658.191Z" transform="translate(-96.98 -249.139)" fill="#242ca3"/>
        <path id="Trazado_170243" data-name="Trazado 170243" d="M911.522,383.038a16.138,16.138,0,0,0-1.028-4.654c-.409-.93-.983-1.764-1.433-2.669a7.8,7.8,0,0,1,1.4-8.685,8.571,8.571,0,0,1,5.626-2.572.851.851,0,0,1,.714.1.189.189,0,0,1-.209.049c.118-.045.352.08.588.076a7.954,7.954,0,0,1,5.954,6.411,7.388,7.388,0,0,1-1,5.334,12.685,12.685,0,0,0-1.994,5.906.977.977,0,0,1-.308.774,1.913,1.913,0,0,1-1.291-.012c-.237-.23-.182-.531-.183-.81q-.009-3.1,0-6.191c0-.947.063-1.006,1-1.025a2.571,2.571,0,0,0,2.489-1.677,2.416,2.416,0,0,0-.6-2.691,2.353,2.353,0,0,0-2.625-.639,2.564,2.564,0,0,0-1.763,2.2.861.861,0,0,0-.01.172c.058.95-.139,1.1-.615,1.11-.517.015-.6-.125-.637-1.082a2.578,2.578,0,0,0-.827-1.83,2.5,2.5,0,0,0-3.016-.375,2.59,2.59,0,0,0-1.26,2.777,2.556,2.556,0,0,0,2.4,2.03c1.2.051,1.2.051,1.2,1.23,0,1.987,0,3.974,0,5.961,0,.3.072.621-.21.854A4.273,4.273,0,0,1,911.522,383.038Z" transform="translate(-115.248 -8.983)" fill="#ebeef0"/>
        <path id="Trazado_170244" data-name="Trazado 170244" d="M783.084,481.042a2.354,2.354,0,0,0-.286-.27,1.222,1.222,0,0,1-.388-1.974c.176-.237.092-.454-.054-.682a5.214,5.214,0,0,1-.756-1.777.97.97,0,0,0-.742-.811c-.3-.1-.757-.1-.823-.414a6.249,6.249,0,0,1-.025-1.535c.007-.174.212-.209.352-.24a1.632,1.632,0,0,0,1.394-1.471,4.154,4.154,0,0,1,.6-1.287.737.737,0,0,0,.05-.74c-.49-1.143-.48-1.147.539-2.007.346-.182.6.113.891.186.247.061.46.26.742.176a7.2,7.2,0,0,1,2.388-1.031c.339-.069.4-.3.491-.548.388-1,.389-1,1.479-.965.289.2.339.541.455.835a.908.908,0,0,0,.62.607,11.828,11.828,0,0,1,2.184.959.905.905,0,0,0,.551.1,5.068,5.068,0,0,0,1.134-.416,2.061,2.061,0,0,1,.859.729.6.6,0,0,1,.044.749,1.623,1.623,0,0,0,.109,1.952,1.768,1.768,0,0,1,.283.745,1.436,1.436,0,0,0,1.154,1.252.722.722,0,0,1,.563.861c-.006.095,0,.191,0,.286,0,.952.005.961-.873,1.316a1.052,1.052,0,0,0-.743.85,4.366,4.366,0,0,1-.622,1.469,1.1,1.1,0,0,0-.05,1.08c.413.979.252,1.365-.734,1.9-.4-.075-.7-.433-1.146-.372-.222-.1-.405.019-.582.117a11.181,11.181,0,0,1-2.072.886c-.688.132-.646.79-.922,1.24.152.112.358.024.463.181a3.147,3.147,0,0,1-1.66.05c-.267-.017-.3-.419-.366-.662a1.174,1.174,0,0,0-1.026-.973,4.794,4.794,0,0,1-1.572-.672c-.159-.092-.309-.235-.522-.171C783.911,480.462,783.527,480.835,783.084,481.042Z" transform="translate(-6.549 -94.71)" fill="#12263f"/>
        <path id="Trazado_170245" data-name="Trazado 170245" d="M926.9,583.205a9.459,9.459,0,0,1-2.561-1.075,5.841,5.841,0,0,1-1.312-8.273,5.914,5.914,0,0,1,4.1-2.306,5.586,5.586,0,0,1,4.725,4.4,5.917,5.917,0,0,1-2.981,6.7,3.106,3.106,0,0,1-1.231.439c-.2.013-.125.195-.243.22C927.233,583.265,927.036,583.388,926.9,583.205Z" transform="translate(-126.721 -184.414)" fill="#f5dbcc"/>
        <path id="Trazado_170246" data-name="Trazado 170246" d="M836.271,393.924c.523.123.882.386.908.912.027.545-.357.8-.79,1.011-.669.326-1.327.677-2,1a.9.9,0,0,1-1.383-.678c-.168-.879-.284-1.768-.391-2.657a.841.841,0,0,1,.6-.938.873.873,0,0,1,1.029.291c.083.1.151.211.248.348a21.522,21.522,0,0,1,2.453-2.911,19.348,19.348,0,0,1,4.039-2.991.924.924,0,1,1,.9,1.6,17.163,17.163,0,0,0-5.437,4.752C836.388,393.731,836.344,393.811,836.271,393.924Z" transform="translate(-51.129 -28.217)" fill="#f9e424"/>
        <path id="Trazado_170247" data-name="Trazado 170247" d="M1026.681,391.463c-.157.54-.431.914-.952.934-.536.021-.783-.382-.994-.815-.309-.634-.656-1.251-.965-1.885a.959.959,0,0,1,.816-1.516c.849-.116,1.695-.277,2.547-.333a.868.868,0,0,1,.822,1.3c-.018.033-.033.077-.062.095-.682.421-.278.628.134.935a18.443,18.443,0,0,1,5.171,5.893c.371.668.278,1.21-.229,1.481s-.962.088-1.341-.571A17.524,17.524,0,0,0,1026.681,391.463Z" transform="translate(-212.902 -28.818)" fill="#f9e424"/>
        <path id="Trazado_170248" data-name="Trazado 170248" d="M1029.135,596.591c-.157-.069-.283-.113-.4-.178a.88.88,0,0,1-.051-1.577c.779-.444,1.582-.852,2.394-1.231a.893.893,0,0,1,1.335.7c.164.88.282,1.769.387,2.659a.827.827,0,0,1-.606.932c-.563.183-.96-.071-1.228-.636-.471.589-.9,1.159-1.362,1.7a18.425,18.425,0,0,1-5.174,4.208.966.966,0,0,1-1.081.021.9.9,0,0,1,.122-1.562,22.755,22.755,0,0,0,2.606-1.765A16,16,0,0,0,1029.135,596.591Z" transform="translate(-212.342 -202.998)" fill="#f9e424"/>
        <path id="Trazado_170249" data-name="Trazado 170249" d="M838.9,599.2c.15-.5.344-.873.885-.9s.819.3,1.031.747c.311.655.658,1.294.975,1.946.371.763.1,1.326-.725,1.468-.788.136-1.582.239-2.374.356a.9.9,0,0,1-1.135-.6.865.865,0,0,1,.514-1.125,1.4,1.4,0,0,0,.15-.11,19.313,19.313,0,0,1-4.474-4.261,19.046,19.046,0,0,1-1.438-2.205.928.928,0,1,1,1.6-.9,17.131,17.131,0,0,0,4.486,5.221C838.544,598.948,838.7,599.053,838.9,599.2Z" transform="translate(-50.716 -202.574)" fill="#f9e424"/>
        <path id="Trazado_170250" data-name="Trazado 170250" d="M953.544,647l.56.008a.919.919,0,0,1,.937-.012,11.568,11.568,0,0,1,10.477,8.621,1.27,1.27,0,0,1-1.175,1.644H962.1c1.162-.777.794-1.667.482-2.588a11.484,11.484,0,0,0-9.125-7.532c-.051-.006-.1-.056-.144-.086Z" transform="translate(-153.367 -248.211)" fill="#464ca8"/>
        <path id="Trazado_170251" data-name="Trazado 170251" d="M1083.768,483.055l-.571-.05a8.743,8.743,0,0,0-.267-17.222c.152-.122.332-.031.487-.08a8.717,8.717,0,0,1,1.09,17.285C1084.265,483.033,1084.015,483.034,1083.768,483.055Z" transform="translate(-263.146 -94.762)" fill="#f4b729"/>
        <path id="Trazado_170252" data-name="Trazado 170252" d="M929.257,484.97l2.412-.005c.576-.328,1.2-.123,1.8-.166q.482-.018.965,0c.6.043,1.231-.164,1.809.166l1.379,0,.071.073a3.131,3.131,0,0,1,.034,1.571,1.484,1.484,0,0,1-1.223,1.129c-1.347.1-2.7.024-4.045.048-.323.006-.646,0-.969,0-.619.013-.641.04-.685.694-.015.224.009.463-.193.631a.582.582,0,0,1-.1-.489c.05-.6.022-1.088-.721-1.3a.915.915,0,0,1-.546-.927Q929.256,485.684,929.257,484.97Z" transform="translate(-132.984 -110.915)" fill="#d0d0d5"/>
        <path id="Trazado_170253" data-name="Trazado 170253" d="M968.772,384.015a14.343,14.343,0,0,1,2.135-6.723,7.865,7.865,0,0,0-4.881-11.518c.089-.3.286-.155.458-.112a7.214,7.214,0,0,1,4.269,2.23,7.86,7.86,0,0,1,2.264,6.19,7.348,7.348,0,0,1-1.233,3.521,12.007,12.007,0,0,0-1.869,5.859,3.788,3.788,0,0,1-.109.558.865.865,0,0,1-1.014.014Z" transform="translate(-164.131 -9.968)" fill="#d0d0d5"/>
        <path id="Trazado_170254" data-name="Trazado 170254" d="M957.572,583.033l-.937.012c-.252-.213-.038-.175.1-.214a5.668,5.668,0,0,0,3.746-3.092,5.815,5.815,0,0,0-3.717-8.153,3.039,3.039,0,0,1-.46-.2,5.621,5.621,0,0,1,4.4,1.409,5.479,5.479,0,0,1,1.953,5.114C962.226,580.831,960.408,582.456,957.572,583.033Z" transform="translate(-155.899 -184.246)" fill="#f0cabb"/>
        <path id="Trazado_170255" data-name="Trazado 170255" d="M938.154,504.642c0-.057.013-.114.014-.17.026-1.339.026-1.339,1.34-1.339h4.622a.127.127,0,0,1,.184.045,2.072,2.072,0,0,1-.744,2.467,1.377,1.377,0,0,1-.654.178c-.989.022-1.979.013-2.969.006a.839.839,0,0,1-.535-.165A1.229,1.229,0,0,1,938.154,504.642Z" transform="translate(-140.524 -126.447)" fill="#b0b0b4"/>
        <path id="Trazado_170256" data-name="Trazado 170256" d="M946.378,505.237l3.25,0c1.07,0,1.553-.472,1.586-1.553.01-.323,0-.646.006-.969.672-.2.744-.154.737.495a2.925,2.925,0,0,1-.042.9,1.107,1.107,0,0,1-.917,1.091c-.329.086-.39.23-.361.506,0,.019,0,.038,0,.057.151,1.877-.744,2.15-2.106,2.09-.19-.008-.381.005-.571,0-1.124-.047-1.564-.509-1.569-1.636C946.39,505.884,946.383,505.56,946.378,505.237Z" transform="translate(-147.489 -126.019)" fill="#a0a0a3"/>
        <path id="Trazado_170257" data-name="Trazado 170257" d="M870.757,491.785a1.475,1.475,0,0,0,.416-2.294c-.124-.167,0-.31.085-.466a4.8,4.8,0,0,0,.728-1.605,1.158,1.158,0,0,1,1.009-1.1.687.687,0,0,0,.638-.914.6.6,0,0,1,0-.228c.156-.714-.215-1.058-.852-1.19a.852.852,0,0,1-.73-.734,4.9,4.9,0,0,0-.779-1.828.545.545,0,0,1-.04-.686,1.073,1.073,0,0,0,.079-.152c.438-.935.437-.934-.289-1.68-.092-.095-.17-.2-.255-.305a.393.393,0,0,1,.639.05.849.849,0,0,0,.082.08c.9.867.9.87.416,2.015a.594.594,0,0,0,.036.632,5.1,5.1,0,0,1,.754,1.717,1.052,1.052,0,0,0,.839.923c.271.07.706.083.754.412a5.008,5.008,0,0,1-.015,1.594c-.046.255-.467.281-.731.358a1.04,1.04,0,0,0-.845.914,3.331,3.331,0,0,1-.558,1.366,1.156,1.156,0,0,0-.057,1.405c.132.221.418.512.211.771a8.55,8.55,0,0,1-1.143,1.12C871.073,492.019,870.867,491.9,870.757,491.785Z" transform="translate(-83.44 -105.565)" fill="#685e68"/>
        <path id="Trazado_170258" data-name="Trazado 170258" d="M978.025,490.069a4.841,4.841,0,0,1-.007-.73c.075-.555-.156-.756-.688-.662l-.124,0a1.539,1.539,0,0,0,1.046-1.773,6.515,6.515,0,0,1,.009-.847l1.014-.014c.006.3,0,.607.022.908a1.4,1.4,0,0,1-.942,1.666c-.23.077-.227.258-.241.455C978.091,489.4,978.211,489.75,978.025,490.069Z" transform="translate(-173.6 -111.987)" fill="#b1b1b5"/>
        <path id="Trazado_170259" data-name="Trazado 170259" d="M842.331,467.81c-.146.214-.289.206-.523.081a9.449,9.449,0,0,0-2.5-1.085.389.389,0,0,1-.321-.279c-.146-.41-.307-.816-.462-1.223.44-.17.733-.056.837.431a1.473,1.473,0,0,0,1.306,1.255A3.787,3.787,0,0,1,842.331,467.81Z" transform="translate(-56.137 -94.362)" fill="#6b616b"/>
        <path id="Trazado_170260" data-name="Trazado 170260" d="M839.717,570.608c-.678.006-.675.008-.418-.619.173-.421.214-.973.895-.871.12-.054.134.008.116.105Z" transform="translate(-56.66 -182.336)" fill="#6a606a"/>
        <path id="Trazado_170261" data-name="Trazado 170261" d="M846.145,562.924l-.116-.105a21.9,21.9,0,0,0,2.2-1.076c.164-.111.371-.147.439.142A6.569,6.569,0,0,1,846.145,562.924Z" transform="translate(-62.495 -176.037)" fill="#6c626c"/>
        <path id="Trazado_170262" data-name="Trazado 170262" d="M801,478.973c-.159.206-.337.161-.545.068-.356-.158-.725-.288-1.089-.43.056-.314.265-.27.466-.182C800.222,478.6,800.608,478.791,801,478.973Z" transform="translate(-22.97 -105.487)" fill="#6d636d"/>
        <path id="Trazado_170263" data-name="Trazado 170263" d="M800.3,562.627c.282-.49.785-.561,1.269-.662.023,0,.071.113.107.174C801.21,562.29,800.838,562.7,800.3,562.627Z" transform="translate(-23.761 -176.294)" fill="#6e646e"/>
        <path id="Trazado_170264" data-name="Trazado 170264" d="M962.323,365.4c-.157.021-.337-.053-.458.112-.238-.023-.449-.166-.752-.095.153-.182.293-.106.409-.138C961.787,365.326,962.081,365.186,962.323,365.4Z" transform="translate(-159.969 -9.702)" fill="#d6d6db"/>
        <path id="Trazado_170265" data-name="Trazado 170265" d="M1062.487,480.742c.65-.017.96.317.979.788.018.45.231.577.586.7a3.182,3.182,0,0,1,1.857,1.76.921.921,0,1,1-1.635.839,1.823,1.823,0,0,0-2.566-.858,1.056,1.056,0,0,0-.726,1,1.02,1.02,0,0,0,.722.938,14.517,14.517,0,0,0,1.822.467,3.533,3.533,0,0,1,2.227,1.379,2.709,2.709,0,0,1-1.339,4.212c-.5.184-.966.279-1.02.974a.753.753,0,0,1-.894.629.874.874,0,0,1-.825-.882c-.01-.4-.205-.5-.523-.616a3.283,3.283,0,0,1-2.194-2.16.979.979,0,0,1,.564-1.318.9.9,0,0,1,1.128.7c.529,1.538,2.733,1.437,3.539.681a.977.977,0,0,0-.311-1.509,4.092,4.092,0,0,0-1.573-.48,5.454,5.454,0,0,1-1.87-.677,2.819,2.819,0,0,1-.194-4.577,3.828,3.828,0,0,1,.948-.522.617.617,0,0,0,.483-.654A.809.809,0,0,1,1062.487,480.742Z" transform="translate(-242.788 -107.499)" fill="#fee077"/>
        <path id="Trazado_170266" data-name="Trazado 170266" d="M926.509,412.408h-1.829q0-3.5,0-6.99c0-.907.084-.841-.79-.79A2.792,2.792,0,0,1,921,401.75a2.757,2.757,0,0,1,5.506-.048,4.394,4.394,0,0,1,0,.573c-.031.345.052.519.459.519s.5-.174.456-.519a2.775,2.775,0,1,1,5.5-.754,2.8,2.8,0,0,1-2.47,3.088c-1.193.065-1.193.065-1.193,1.266q0,3.266,0,6.532h-1.829a1.229,1.229,0,0,1-.18-.876c0-1.986,0-3.972-.01-5.957,0-.255.122-.691-.27-.691s-.268.435-.27.691c-.013,1.986,0,3.971-.009,5.957A1.229,1.229,0,0,1,926.509,412.408Z" transform="translate(-125.994 -38.357)" fill="#ee88a7"/>
        <path id="Trazado_170267" data-name="Trazado 170267" d="M814.9,493.439a4.447,4.447,0,0,1,.816,8.851,4.18,4.18,0,0,1-4.516-3.8,4.573,4.573,0,0,1,1.553-4.1A4.3,4.3,0,0,1,814.9,493.439Z" transform="translate(-32.967 -118.25)" fill="#ebeef0"/>
        <path id="Trazado_170268" data-name="Trazado 170268" d="M811.9,493.467a5.957,5.957,0,0,0-2.492,1.5,4.613,4.613,0,0,0-.51,5.2,4.182,4.182,0,0,0,3.818,2.153,3.845,3.845,0,0,1-3.214-.774,4.251,4.251,0,0,1-1.8-4.406,4.339,4.339,0,0,1,3.346-3.591A3.056,3.056,0,0,1,811.9,493.467Z" transform="translate(-29.973 -118.278)" fill="#d0d0d5"/>
        <path id="Trazado_170269" data-name="Trazado 170269" d="M956.983,442.819c0-2.42.008-4.84,0-7.261,0-.368.059-.549.492-.546s.431.237.431.546q-.007,3.63,0,7.261Z" transform="translate(-156.468 -68.768)" fill="#ebeeef"/>
        <path id="Trazado_170270" data-name="Trazado 170270" d="M934.866,412.407c.11.462-.127.592-.621.569-.814-.037-1.231-.332-1.214-.949a.977.977,0,0,1,.937-.894C934.549,411.151,934.867,411.58,934.866,412.407Z" transform="translate(-136.184 -48.543)" fill="#ebeeef"/>
        <path id="Trazado_170271" data-name="Trazado 170271" d="M974.814,412.431c0-.778.217-1.124.767-1.22a.851.851,0,0,1,.965.532.874.874,0,0,1-.641,1.258c-.147.027-.3,0-.454.02C974.922,413.1,974.7,412.9,974.814,412.431Z" transform="translate(-171.549 -48.596)" fill="#ebeeef"/>
      </g>
    </g>
  </g>
</svg>
