<svg xmlns="http://www.w3.org/2000/svg" width="124" height="124" viewBox="0 0 124 124">
  <g id="Grupo_124192" data-name="Grupo 124192" transform="translate(-5148 9309.875)">
    <g id="Grupo_123840" data-name="Grupo 123840" transform="translate(3990 -11413.645)">
      <g id="Grupo_123838" data-name="Grupo 123838" transform="translate(210 -1896.942)">
        <g id="Grupo_123828" data-name="Grupo 123828" transform="translate(-210 -4097.079)">
          <g id="Elipse_6020" data-name="Elipse 6020" transform="translate(1158 8097.791)" fill="#fff" stroke="#2631a0" stroke-width="4">
            <circle cx="62" cy="62" r="62" stroke="none"/>
            <circle cx="62" cy="62" r="60" fill="none"/>
          </g>
        </g>
      </g>
      <g id="Grupo_123462" data-name="Grupo 123462" transform="translate(413.926 1776.876)">
        <path id="Trazado_167005" data-name="Trazado 167005" d="M768.074,372.8v-10.39c.72-.416,1.516-.1,2.265-.235q26.3-.021,52.594-.008c.321,0,.643,0,.964-.009a.562.562,0,0,0,.63-.641q.017-3.338,0-6.676a.562.562,0,0,0-.629-.641q-.482-.009-.964-.009-26.037,0-52.075-.005a2.213,2.213,0,0,1-1.437-.212c-.008-.365.292-.346.515-.384a6.068,6.068,0,0,1,1.036-.032q26.247,0,52.493,0a2.767,2.767,0,0,1,1.453.173,1.519,1.519,0,0,1,.24,1.125c.009,2.119,0,4.239.007,6.358,0,.9.058.948.976.954,1.06.008,2.119,0,3.179.006a1.506,1.506,0,0,1,.993.207,1.739,1.739,0,0,1,.2,1.074q.008,4.15,0,8.3a1.708,1.708,0,0,1-.2,1.073,2.275,2.275,0,0,1-1.372.174q-25.967.009-51.934,0-3.932,0-7.864,0A1.46,1.46,0,0,1,768.074,372.8Z" fill="#7ca0b0"/>
        <path id="Trazado_167007" data-name="Trazado 167007" d="M768.074,482.672v-2.227a1.58,1.58,0,0,1,1.13-.235c2.219-.006,4.439,0,6.658,0,.993,0,1.025-.036,1.027-1.052,0-2.639,0-5.277,0-7.915a2.208,2.208,0,0,1,.16-1.158c.364-.349.823-.191,1.245-.235.377.03.779-.077,1.112.2a1.969,1.969,0,0,1,.153,1.081c.057,1.526-.11,3.057.1,4.58a29.529,29.529,0,0,1,.078,3.471c.023.969.057,1.027.988,1.028q6.956.008,13.911,0c.978,0,1.085-.116,1.105-1.121.023-1.134-.025-2.269.024-3.4.014-1.531,0-3.062.007-4.592.005-1.156.067-1.216,1.205-1.246.431.039.89-.1,1.281.2a1.953,1.953,0,0,1,.185,1.15c.006,2.667,0,5.334,0,8,0,.962.048,1.01,1,1.011q8.482.006,16.964,0c.947,0,1-.054,1-1.012.006-2.667,0-5.334.005-8a1.942,1.942,0,0,1,.187-1.151,3.251,3.251,0,0,1,2.3-.027,1.753,1.753,0,0,1,.207,1.14c.007,2.687,0,5.375.005,8.062,0,.949.044.988,1.011.989,2.663,0,5.325,0,7.988,0a1.876,1.876,0,0,1,1.146.2,2.657,2.657,0,0,1,.027,2.28,1.813,1.813,0,0,1-1.212.22c-2.643.008-5.286,0-7.929.005-1,0-1.033.041-1.035,1.05q0,3.445,0,6.891c0,.862.066.927.93.93,2.668.009,5.335,0,8,.007a1.976,1.976,0,0,1,1.221.2,2.832,2.832,0,0,1,.042,2.284,1.726,1.726,0,0,1-1.14.209c-2.667.007-5.333,0-8,.005-1.009,0-1.048.048-1.059,1.034-.012,1.111.022,2.222-.017,3.333.04,1.675.015,3.35.012,5.024a1.261,1.261,0,0,1-.183.778,3.253,3.253,0,0,1-2.307.021,1.782,1.782,0,0,1-.2-1.144c-.007-2.669,0-5.337,0-8.006,0-1-.04-1.038-1.048-1.038q-8.451,0-16.9,0c-.958,0-1.01.052-1.013,1-.007,2.669,0,5.337-.005,8.006a1.971,1.971,0,0,1-.184,1.153,3.332,3.332,0,0,1-2.292.045,1.513,1.513,0,0,1-.192-1.068c-.007-2.672,0-5.343-.006-8.015a1.892,1.892,0,0,0-.087-.875,1.108,1.108,0,0,0-.184-.18,1.526,1.526,0,0,0-.8-.1q-6.982,0-13.964,0c-.312,0-.652-.077-.885.232a2.352,2.352,0,0,0-.11,1.024c-.022,2.814.038,5.629-.031,8.443a.676.676,0,0,1-.219.521c-.641.069-1.286-.005-1.926.037-.465.031-.612-.216-.651-.612-.029-.3-.024-.593-.024-.89,0-2.573,0-5.145,0-7.718,0-.967-.041-1.006-1-1.008-2.226-.005-4.453,0-6.679,0a1.584,1.584,0,0,1-1.134-.236v-2.227a1.584,1.584,0,0,1,1.132-.234c2.222-.007,4.445,0,6.667,0,.971,0,1.014-.044,1.016-.992q.008-3.445,0-6.889c0-.948-.045-.989-1.016-.992-2.222-.006-4.445,0-6.667,0A1.584,1.584,0,0,1,768.074,482.672Z" transform="translate(0 -93.248)" fill="#c7eefd"/>
        <path id="Trazado_167008" data-name="Trazado 167008" d="M769.39,355.339c.346.009.692.025,1.037.025h53.347c1.006,0,1.007,0,1.007.99q0,3.227,0,6.455c0,1.012,0,1.012-.986,1.012H770.3c-.732-.2-1.494.058-2.226-.144V356.4C768.408,355.419,768.638,355.233,769.39,355.339Z" transform="translate(0 -1.417)" fill="#5985ca"/>
        <path id="Trazado_167010" data-name="Trazado 167010" d="M779.5,603.119l0-9.8a.987.987,0,0,1,.578-.07q7.586,0,15.172,0a.985.985,0,0,1,.577.07h0a1.158,1.158,0,0,1,.069.65q0,4.727,0,9.454c-.152.438-.506.308-.82.29l-24.6,0a2.359,2.359,0,0,1-2.411-1.187v-9.351c2.786,0,5.573.015,8.359-.01.559-.005.711.17.707.717-.024,2.983,0,5.967-.024,8.951-.006.591.171.793.754.743.539-.046,1.084-.012,1.627-.014C779.7,603.416,779.695,603.269,779.5,603.119Z" transform="translate(0 -192.172)" fill="#e9f5fe"/>
        <path id="Trazado_167011" data-name="Trazado 167011" d="M768.074,454.9v-3.711a1.6,1.6,0,0,1,.8-.069q30.278-.005,60.557,0c1.014,0,1.1.047,1.067,1.095a6.91,6.91,0,0,1-.184,2.71,1.458,1.458,0,0,1-1,.185c-1.755.007-3.51,0-5.265,0-7.108-.007-14.216.005-21.324,0-1.9,0-3.8.044-5.693-.138-5.5.294-11.009.068-16.513.135a2.944,2.944,0,0,1-1.1-.088,5.878,5.878,0,0,0-1.156-.048c-3.042.234-6.089.11-9.134.134A1.429,1.429,0,0,1,768.074,454.9Z" transform="translate(0 -78.24)" fill="#c7eefd"/>
        <path id="Trazado_167012" data-name="Trazado 167012" d="M1119.809,500.67a3.051,3.051,0,0,1,2.471,2.025c.054.123-.015.306.177.362v39.631a4.709,4.709,0,0,1-1.473,1.835,2.4,2.4,0,0,1-1.15.413c-1.545.107-3.088.022-4.644.054.028-.421.332-.492.538-.64a3.3,3.3,0,0,0,1.463-2.831c.006-1.946-.055-3.893.034-5.839a2.238,2.238,0,0,0,0-1.916,9.16,9.16,0,0,1-.046-1.333c0-9.264-.02-18.529.019-27.793a3.675,3.675,0,0,0-1.7-3.528.542.542,0,0,1-.305-.5C1116.73,500.633,1118.268,500.544,1119.809,500.67Z" transform="translate(-278.382 -117.938)" fill="#5e63ae"/>
        <path id="Trazado_167013" data-name="Trazado 167013" d="M777.125,470.687c0,3.2-.013,6.408.017,9.612.006.614-.171.795-.787.788-2.76-.031-5.521-.013-8.281-.013v-10.39a1.364,1.364,0,0,1,.724-.069q3.8-.008,7.605,0A1.3,1.3,0,0,1,777.125,470.687Z" transform="translate(0 -93.876)" fill="#e9f5fe"/>
        <path id="Trazado_167014" data-name="Trazado 167014" d="M768.074,534.679c2.739,0,5.479.026,8.218-.016.706-.011.86.219.851.879q-.053,3.812,0,7.625c.009.66-.145.89-.851.879-2.739-.042-5.479-.017-8.218-.017Z" transform="translate(0 -145.255)" fill="#e9f5fe"/>
        <path id="Trazado_167015" data-name="Trazado 167015" d="M830.267,411.911c0-1.038-.014-2.076.009-3.114.01-.442-.128-.657-.59-.6a2.424,2.424,0,0,1-.3,0l-61.317,0v-.148q6.079.005,12.158.01,24.539,0,49.079,0c.321,0,.642-.013.963-.02a1.389,1.389,0,0,1,.986-.222c1.06-.008,2.12,0,3.181-.005.867-.008.931-.065.933-.924.009-2.663,0-5.325,0-7.988a4.672,4.672,0,0,1,.062-1.105c.049-.14.113-.267.279-.3q.02,5.152.04,10.3.006,1.78-.006,3.56c0,.238.076.5-.132.7a1.019,1.019,0,0,1-.691.211c-1.451-.006-2.9.055-4.352-.032a.749.749,0,0,1-.253-.1A.172.172,0,0,1,830.267,411.911Z" transform="translate(0 -35.253)" fill="#99e5fb"/>
        <path id="Trazado_167016" data-name="Trazado 167016" d="M777.125,470.427l-9.051,0v-.148h10.243q.072.049.048.1t-.048.049Z" transform="translate(0 -93.616)" fill="#baddec"/>
        <path id="Trazado_167017" data-name="Trazado 167017" d="M768.074,397.491a7.308,7.308,0,0,1,2.226.144l-2.226,0Z" transform="translate(0 -35.23)" fill="#80a2cf"/>
        <path id="Trazado_167018" data-name="Trazado 167018" d="M848.792,420.8h-11.65c-.223,0-.446.008-.668-.008a1,1,0,0,1-1.023-.971,1.074,1.074,0,0,1,.834-1.229,1.918,1.918,0,0,1,.588-.044q11.91,0,23.821,0c.1,0,.2,0,.3,0a1.156,1.156,0,0,1,1.166,1.186,1.13,1.13,0,0,1-1.2,1.059c-1.633.013-3.265.006-4.9.006Z" transform="translate(-54.028 -52.127)" fill="#e9f5fe"/>
        <path id="Trazado_167019" data-name="Trazado 167019" d="M1087.5,397.309c.012,3.308.02,6.615.043,9.923,0,.421-.208.481-.553.478-1.6-.014-3.21-.014-4.814-.02q0-5.187-.01-10.374a.562.562,0,0,1,.236-.163,43.308,43.308,0,0,1,4.566-.055A.667.667,0,0,1,1087.5,397.309Z" transform="translate(-251.899 -34.901)" fill="#678d97"/>
        <path id="Trazado_167020" data-name="Trazado 167020" d="M1060.591,363.4a1.063,1.063,0,0,1-.139.048c-1.55-.012-3.1-.048-4.649-.025-.543.008-.718-.133-.711-.7.032-2.609.018-5.219.02-7.828q4.565-.032,9.131-.064a.485.485,0,0,1,.408.12c-.263.309-.628.24-.962.241-1.193.007-2.387.021-3.6-.012a2.954,2.954,0,0,1,.521,2.6c-.078.263-.322.357-.516.505-.719.548-.727,1.143-.023,1.689.192.149.441.237.529.5A11.209,11.209,0,0,1,1060.591,363.4Z" transform="translate(-230.187 -1.031)" fill="#fc4755"/>
        <path id="Trazado_167021" data-name="Trazado 167021" d="M788.011,420.764c-.742,0-1.484.015-2.225-.005a1.124,1.124,0,0,1-1.128-1.049,1.111,1.111,0,0,1,1.083-1.182c1.483-.031,2.967-.029,4.45,0a1.119,1.119,0,1,1-.029,2.237C789.446,420.779,788.728,420.765,788.011,420.764Z" transform="translate(-13.3 -52.096)" fill="#e9f5fe"/>
        <path id="Trazado_167022" data-name="Trazado 167022" d="M948.7,535.266c0,1.9-.04,3.794.023,5.688a3.674,3.674,0,0,1-2.262,3.7h4.672a1.336,1.336,0,0,1-.862.121q-20.917-.008-41.834-.026a3.261,3.261,0,0,1-3.541-2.794,1.528,1.528,0,0,1-.046-.587c0-3.833.009-7.665-.013-11.5,0-.556.114-.75.72-.77,6.72-.215,13.441-.067,20.161-.128.844-.008,1.667.193,2.507.148,4.962-.266,9.93-.073,14.894-.169,1.413-.027,2.051-.629,2.072-2.036a26.152,26.152,0,0,0-.065-3.63,32.86,32.86,0,0,1,0-4.385,2.56,2.56,0,0,0,.072-.419c.086-5.582.02-11.164.042-16.746a4.655,4.655,0,0,1,.062-1.18.461.461,0,0,1,.314-.284c1.547-.005,3.094-.014,4.641-.011a1.306,1.306,0,0,1,.855.127h-4.518c.393.3.74.539,1.059.812a3.074,3.074,0,0,1,1.067,2.489q-.015,14.97,0,29.94c-7.158-.432-14.324-.075-21.485-.189a4.224,4.224,0,0,0-1.326.1c-.457.14-.829.387-.787.931.04.526.4.762.891.836a5.936,5.936,0,0,0,.889.035q10.054,0,20.109.009A13.488,13.488,0,0,1,948.7,535.266Z" transform="translate(-109.687 -117.657)" fill="#4249a7"/>
        <path id="Trazado_167023" data-name="Trazado 167023" d="M944.948,615.328c.171.155.13.363.13.556,0,1.137.017,2.275,0,3.412a1.812,1.812,0,0,1-1.984,1.986q-18.025,0-36.05-.018c-.787,0-1.794-.309-2.3.137-.527.464-.161,1.493-.167,2.272-.024,3.461-.016,6.922-.02,10.384-.221-.258-.123-.567-.123-.853q-.012-5.953-.008-11.905c.2-.254.5-.116.75-.174q.07-.082.131.007l2.258,0a1.337,1.337,0,0,1,.983-.227q8.725-.008,17.449,0a1.338,1.338,0,0,1,.983.225h2.259a1.476,1.476,0,0,1,1.059-.212c2.414-.007,4.828,0,7.242-.005,1.43,0,1.81-.411,1.848-1.859a21.877,21.877,0,0,1,.105-3.609.461.461,0,0,1,.2-.2A17.432,17.432,0,0,1,944.948,615.328Z" transform="translate(-109.34 -209.755)" fill="#c7eefd"/>
        <path id="Trazado_167024" data-name="Trazado 167024" d="M939.644,603.561l-19.415,0c0-3.239,0-6.479-.024-9.718,0-.526.17-.67.68-.669q9.051.022,18.1,0c.507,0,.687.138.683.667C939.644,597.083,939.649,600.322,939.644,603.561Z" transform="translate(-122.008 -192.183)" fill="#e9f5fe"/>
        <path id="Trazado_167025" data-name="Trazado 167025" d="M939.653,470.7c0,3.21-.008,6.42.015,9.63,0,.558-.118.77-.733.768q-9-.035-18,0c-.618,0-.735-.215-.731-.77.023-3.21.013-6.42.014-9.63a1.1,1.1,0,0,1,.65-.073q9.069-.005,18.137,0A1.075,1.075,0,0,1,939.653,470.7Z" transform="translate(-122.007 -93.882)" fill="#e9f5fe"/>
        <path id="Trazado_167026" data-name="Trazado 167026" d="M833.934,544.055c-2.5,0-5-.015-7.494.012-.558.006-.717-.165-.712-.717q.039-3.969,0-7.938c-.005-.552.154-.719.711-.717q7.494.029,14.988,0c.631,0,.8.228.8.827-.024,2.572-.03,5.144,0,7.716.008.679-.255.834-.876.827C838.881,544.04,836.407,544.055,833.934,544.055Z" transform="translate(-46.239 -145.281)" fill="#e9f5fe"/>
        <path id="Trazado_167027" data-name="Trazado 167027" d="M1040.051,481.116c-3.216,0-6.432-.014-9.648.011-.582,0-.761-.156-.755-.749.029-3.216.016-6.432.018-9.647a.622.622,0,0,1,.426-.077q4.766,0,9.532,0a.739.739,0,0,1,.431.066l0,.006a1.16,1.16,0,0,1,.233.834q.012,4.364,0,8.728a1.463,1.463,0,0,1-.133.72Z" transform="translate(-209.781 -93.918)" fill="#e9f5fe"/>
        <path id="Trazado_167028" data-name="Trazado 167028" d="M1040.041,544.062c-3.208,0-6.417-.01-9.625.009-.542,0-.787-.091-.779-.721q.053-3.96,0-7.922c-.009-.625.228-.729.775-.725,3.208.021,6.417.011,9.625.011l.1.105a1.583,1.583,0,0,1,.136.793q.009,3.775,0,7.549a1.619,1.619,0,0,1-.133.795Z" transform="translate(-209.773 -145.287)" fill="#e9f5fe"/>
        <path id="Trazado_167029" data-name="Trazado 167029" d="M939.627,556.965c.006,1.36-.021,2.721.034,4.079.026.646-.259.715-.789.713-4.946-.014-9.893-.008-14.839-.008-1.039,0-2.078-.026-3.116.011-.539.019-.745-.126-.728-.7.042-1.359.019-2.72.023-4.08a1.391,1.391,0,0,1,.99-.219q8.715-.008,17.43,0A1.45,1.45,0,0,1,939.627,556.965Z" transform="translate(-121.996 -162.975)" fill="#e9f5fe"/>
        <path id="Trazado_167030" data-name="Trazado 167030" d="M939.638,539.383c-3.334.009-6.669.023-10,.026-3.137,0-6.274-.007-9.411-.011,0-1.332,0-2.665-.021-4-.007-.4.1-.565.536-.565q9.179.017,18.358,0c.495,0,.56.215.554.625C939.631,536.768,939.64,538.075,939.638,539.383Z" transform="translate(-122.007 -145.393)" fill="#fec150"/>
        <path id="Trazado_167031" data-name="Trazado 167031" d="M842.19,498.55c0,1.258-.007,2.517,0,3.775,0,.677-.212.989-.993.984-4.885-.037-9.771-.029-14.657-.006-.626,0-.876-.125-.845-.809.058-1.305.023-2.615.026-3.922l.1-.11a1.574,1.574,0,0,1,.863-.157q7.265-.009,14.53,0a2.06,2.06,0,0,1,.732.085A1,1,0,0,1,842.19,498.55Z" transform="translate(-46.211 -116.093)" fill="#e9f5fe"/>
        <path id="Trazado_167032" data-name="Trazado 167032" d="M1040.164,615.494c0,1.355,0,2.71-.006,4.065a1.5,1.5,0,0,1-1.726,1.7l-8.648-.009q0-2.909,0-5.818a1.508,1.508,0,0,1,.994-.2q4.175-.008,8.349,0C1039.487,615.237,1039.876,615.177,1040.164,615.494Z" transform="translate(-209.89 -209.869)" fill="#e9f5fe"/>
        <path id="Trazado_167033" data-name="Trazado 167033" d="M1040.119,596.863q-4.413-.017-8.825-.036c-.519,0-1.037-.019-1.556-.03,0-1.281.028-2.564-.01-3.844-.016-.552.146-.712.7-.709,3.228.02,6.456,0,9.684,0a1.055,1.055,0,0,1,.753-.234q2.019-.02,4.038,0a1,1,0,0,1,.689.2l-.146.183a1.365,1.365,0,0,1-.983.223c-1.034.009-2.068,0-3.1,0-.971.005-1.006.041-1.014.985-.006.788.008,1.576-.007,2.364a1.027,1.027,0,0,1-.234.825Z" transform="translate(-209.845 -191.237)" fill="#5986ca"/>
        <path id="Trazado_167034" data-name="Trazado 167034" d="M1087.664,519.275c-1.826.1-3.652.043-5.479.03q0-1.115,0-2.23h0a1.377,1.377,0,0,1,.985-.233c1.063-.008,2.126,0,3.188-.005.874-.007.926-.055.931-.925.019-2.719-.023-5.437.02-8.156-.022-.756-.024-1.511,0-2.267-.036-1.193-.024-2.386,0-3.578.005-.309-.1-.71.349-.857Q1087.659,510.165,1087.664,519.275Z" transform="translate(-251.915 -118.301)" fill="#98e5fb"/>
        <path id="Trazado_167035" data-name="Trazado 167035" d="M1087.51,522.517q0,1.119,0,2.238a1.062,1.062,0,0,1-.758.224q-1.913.019-3.826,0a1.087,1.087,0,0,1-.757-.228h0q0-1.114,0-2.229h0a1.063,1.063,0,0,1,.755-.232q1.913-.02,3.827,0A1.061,1.061,0,0,1,1087.51,522.517Z" transform="translate(-251.901 -135.323)" fill="#98e5fb"/>
        <path id="Trazado_167036" data-name="Trazado 167036" d="M947.288,470.415l-10.389.011h-2.238l-19.436,0-1.194-.007c-.047-.032-.063-.063-.047-.095s.031-.048.047-.048l33.251,0C947.285,470.319,947.287,470.367,947.288,470.415Z" transform="translate(-117.016 -93.613)" fill="#baddec"/>
        <path id="Trazado_167037" data-name="Trazado 167037" d="M842.471,470.288q0,.071,0,.142c-1.032.008-1.032.008-1.032,1.019q0,2.317,0,4.634l-.162-.024a1.37,1.37,0,0,1-.219-.988c-.01-1.162,0-2.324-.007-3.486-.008-.834-.071-.908-.878-.909q-7.047-.013-14.095,0c-.806,0-.867.074-.875.911-.011,1.162,0,2.324-.007,3.486a1.321,1.321,0,0,1-.232.984l.006.049c-.243-.212-.157-.5-.158-.757-.006-1.636,0-3.273,0-4.909-.051-.035-.067-.069-.05-.1s.035-.05.052-.05Z" transform="translate(-45.454 -93.627)" fill="#a2cbe6"/>
        <path id="Trazado_167038" data-name="Trazado 167038" d="M842.127,593.307H825.8c.219-.242.509-.143.767-.143q7.4-.009,14.792,0C841.619,593.165,841.909,593.065,842.127,593.307Z" transform="translate(-46.296 -192.157)" fill="#e9f5fe"/>
        <path id="Trazado_167039" data-name="Trazado 167039" d="M908.392,604.194h-.066l-.065-.009q0-5.11,0-10.219c.185.146.145.353.145.546Q908.4,599.354,908.392,604.194Z" transform="translate(-112.43 -192.818)" fill="#e9f5fe"/>
        <path id="Trazado_167040" data-name="Trazado 167040" d="M825.767,643.443c.158.021.385-.046.406.191.027.306-.234.231-.412.251Q825.764,643.664,825.767,643.443Z" transform="translate(-46.265 -232.496)" fill="#e9f5fe"/>
        <path id="Trazado_167041" data-name="Trazado 167041" d="M820.84,470.282c0,.05,0,.1,0,.151l-1.035-.007c0-.049,0-.1,0-.146Z" transform="translate(-41.485 -93.62)" fill="#a2cbe6"/>
        <path id="Trazado_167042" data-name="Trazado 167042" d="M792.628,372.949c-2.2,0-4.4-.005-6.6,0a1.409,1.409,0,0,1-1.272-.746.931.931,0,0,1,.123-1.1,1.3,1.3,0,0,1,1.161-.524c4.4,0,8.8,0,13.2.005.909,0,1.4.442,1.4,1.177,0,.712-.527,1.177-1.411,1.182C797.029,372.958,794.828,372.949,792.628,372.949Z" transform="translate(-13.271 -13.66)" fill="#61a1f8"/>
        <path id="Trazado_167043" data-name="Trazado 167043" d="M1018.462,371.844a1.115,1.115,0,1,1,1.1,1.165A1.126,1.126,0,0,1,1018.462,371.844Z" transform="translate(-200.811 -13.738)" fill="#61a1f8"/>
        <path id="Trazado_167044" data-name="Trazado 167044" d="M989.947,371.846a1.115,1.115,0,1,1-1.093-1.169A1.128,1.128,0,0,1,989.947,371.846Z" transform="translate(-176.154 -13.739)" fill="#61a1f8"/>
        <path id="Trazado_167045" data-name="Trazado 167045" d="M1087.528,481.411l-5.339,0q0-5.2,0-10.391l5.352.009c0,1.694-.006,3.388,0,5.082,0,.272-.12.619.307.719l-.191.136a5.588,5.588,0,0,0-.117,2.02C1087.5,479.8,1087.53,480.6,1087.528,481.411Z" transform="translate(-251.919 -94.218)" fill="#c7eefd"/>
        <path id="Trazado_167046" data-name="Trazado 167046" d="M1078.749,358.429c0-.541.027-1.084-.015-1.622a2.208,2.208,0,0,0-.836-1.367h5.044c.913.315,1.236.791,1.243,1.913.013,2.138.01,4.277.013,6.416l-.121.158-5.194-.041a14.765,14.765,0,0,1-.135-3.077c.095-.184.289-.249.438-.369.715-.573.7-1.184-.055-1.692C1078.991,358.655,1078.826,358.6,1078.749,358.429Z" transform="translate(-248.478 -1.518)" fill="#e31f2d"/>
        <path id="Trazado_167047" data-name="Trazado 167047" d="M1029.6,668.814a2,2,0,0,1-1.192.317q-10.576-.012-21.152-.006c-1.035,0-1.552-.394-1.547-1.172,0-.738.564-1.171,1.585-1.174,3.092-.009,6.185,0,9.277,0q5.789,0,11.578,0a2.358,2.358,0,0,1,1.467.408A1.273,1.273,0,0,1,1029.6,668.814Z" transform="translate(-190.582 -251.205)" fill="#98e5fb"/>
        <path id="Trazado_167048" data-name="Trazado 167048" d="M1077.638,370.538c.637.132,1.13.453,1.148,1.153.02.742-.489,1.078-1.15,1.228-.654-.155-1.142-.5-1.123-1.228C1076.532,371,1077.011,370.677,1077.638,370.538Z" transform="translate(-247.367 -13.627)" fill="#e9f2fb"/>
        <path id="Trazado_167049" data-name="Trazado 167049" d="M939.841,674.095c-1.556,0-3.111.005-4.667,0-.947,0-1.377-.4-1.39-1.333-.023-1.58-.018-3.16,0-4.74a1.111,1.111,0,0,1,1.1-1.245c3.326-.141,6.655-.156,9.981.008a1.081,1.081,0,0,1,1.059,1.2q.033,2.444,0,4.888a1.131,1.131,0,0,1-1.269,1.22C943.051,674.1,941.446,674.094,939.841,674.095Z" transform="translate(-132.887 -251.12)" fill="#98e5fb"/>
        <path id="Trazado_167050" data-name="Trazado 167050" d="M1013.87,692.84q3.446,0,6.892,0c.886,0,1.427.444,1.412,1.142-.014.675-.539,1.1-1.392,1.1q-6.855.006-13.711,0c-.88,0-1.388-.462-1.363-1.2.022-.651.515-1.042,1.343-1.044Q1010.46,692.835,1013.87,692.84Z" transform="translate(-190.582 -272.112)" fill="#98e5fb"/>
        <path id="Trazado_167051" data-name="Trazado 167051" d="M1082.121,598.333c0-1.206.035-2.412,0-3.616-.019-.6.133-.82.77-.8,1.524.045,3.051.016,4.576.016q0,2.208,0,4.416Z" transform="translate(-251.86 -192.775)" fill="#4278c2"/>
        <path id="Trazado_167052" data-name="Trazado 167052" d="M1082.17,534.764l5.341,0c0,2.869-.012,5.739.02,8.608.006.6-.178.76-.758.746-1.533-.036-3.067-.012-4.6-.011Q1082.171,539.438,1082.17,534.764Z" transform="translate(-251.904 -145.336)" fill="#c7eefd"/>
        <path id="Trazado_167053" data-name="Trazado 167053" d="M825.731,476.595c0-1.679,0-3.358-.019-5.036-.006-.446.133-.6.59-.6q7.592.019,15.184,0c.462,0,.593.162.586.6-.026,1.678-.022,3.357-.029,5.035Z" transform="translate(-46.226 -94.165)" fill="#5985ca"/>
      </g>
    </g>
  </g>
</svg>
